<svg xmlns="http://www.w3.org/2000/svg" xmlns:xlink="http://www.w3.org/1999/xlink" width="1080" zoomAndPan="magnify" viewBox="0 0 810 809.999993" height="1080" preserveAspectRatio="xMidYMid meet" version="1.0"><defs><g/><clipPath id="1d58490a42"><path d="M 624 330.464844 L 810 330.464844 L 810 479.714844 L 624 479.714844 Z M 624 330.464844 " clip-rule="nonzero"/></clipPath></defs><rect x="-81" width="972" fill="#ffffff" y="-80.999999" height="971.999992" fill-opacity="1"/><rect x="-81" width="972" fill="#ffffff" y="-80.999999" height="971.999992" fill-opacity="1"/><rect x="-81" width="972" fill="#51303b" y="-80.999999" height="971.999992" fill-opacity="1"/><g fill="#e08c72" fill-opacity="1"><g transform="translate(76.5, 318.750004)"><g><path d="M 0.125 -65.9375 L 11.40625 -65.9375 L 19.6875 -28.828125 C 20.1875 -26.578125 20.707031 -23.675781 21.25 -20.125 C 21.789062 -16.570312 22.144531 -14.25 22.3125 -13.15625 L 22.8125 -13.15625 C 22.894531 -14.164062 23.125 -16.320312 23.5 -19.625 C 23.875 -22.925781 24.316406 -25.992188 24.828125 -28.828125 L 31.46875 -65.9375 L 43.375 -65.9375 L 50.140625 -28.828125 C 50.640625 -26.078125 51.078125 -23.03125 51.453125 -19.6875 C 51.835938 -16.34375 52.070312 -14.164062 52.15625 -13.15625 L 52.65625 -13.15625 C 52.738281 -14.082031 53.03125 -16.128906 53.53125 -19.296875 C 54.03125 -22.472656 54.613281 -25.648438 55.28125 -28.828125 L 63.5625 -65.9375 L 73.96875 -65.9375 L 57.546875 0 L 46.125 0 L 39.234375 -37.609375 C 38.734375 -40.453125 38.296875 -43.457031 37.921875 -46.625 C 37.546875 -49.800781 37.316406 -51.851562 37.234375 -52.78125 L 36.734375 -52.78125 C 36.648438 -51.851562 36.421875 -49.800781 36.046875 -46.625 C 35.671875 -43.457031 35.226562 -40.453125 34.71875 -37.609375 L 27.953125 0 L 16.546875 0 Z M 0.125 -65.9375 "/></g></g></g><g fill="#e08c72" fill-opacity="1"><g transform="translate(150.710479, 318.750004)"><g><path d="M 7.515625 -90.640625 L 17.796875 -90.640625 L 17.796875 -59.046875 L 18.546875 -59.046875 C 21.722656 -64.640625 26.65625 -67.4375 33.34375 -67.4375 C 38.613281 -67.4375 42.644531 -65.867188 45.4375 -62.734375 C 48.238281 -59.609375 49.640625 -54.535156 49.640625 -47.515625 L 49.640625 0 L 39.359375 0 L 39.359375 -46.765625 C 39.359375 -51.023438 38.5625 -54.007812 36.96875 -55.71875 C 35.382812 -57.4375 33.09375 -58.296875 30.09375 -58.296875 C 26.664062 -58.296875 23.757812 -56.664062 21.375 -53.40625 C 18.988281 -50.144531 17.796875 -45.753906 17.796875 -40.234375 L 17.796875 0 L 7.515625 0 Z M 7.515625 -90.640625 "/></g></g></g><g fill="#e08c72" fill-opacity="1"><g transform="translate(207.872605, 318.750004)"><g><path d="M 12.15625 22.8125 C 9.144531 22.8125 6.679688 22.476562 4.765625 21.8125 L 4.765625 14.671875 L 8.40625 14.671875 C 15 14.671875 19.34375 9.78125 21.4375 0 L 1.25 -65.9375 L 12.53125 -65.9375 L 23.6875 -26.578125 L 27.078125 -14.796875 L 27.578125 -14.796875 L 30.46875 -26.828125 L 39.859375 -65.9375 L 50.265625 -65.9375 L 33.46875 -3.390625 C 31.300781 4.804688 28.546875 11.222656 25.203125 15.859375 C 21.859375 20.492188 17.507812 22.8125 12.15625 22.8125 Z M 12.15625 22.8125 "/></g></g></g><g fill="#e08c72" fill-opacity="1"><g transform="translate(259.268373, 318.750004)"><g/></g></g><g fill="#e08c72" fill-opacity="1"><g transform="translate(287.84943, 318.750004)"><g><path d="M 25.453125 1.5 C 18.929688 1.5 13.894531 -1.335938 10.34375 -7.015625 C 6.789062 -12.703125 5.015625 -21.394531 5.015625 -33.09375 C 5.015625 -44.457031 6.832031 -53.019531 10.46875 -58.78125 C 14.101562 -64.550781 18.847656 -67.4375 24.703125 -67.4375 C 27.953125 -67.4375 30.832031 -66.75 33.34375 -65.375 C 35.851562 -64 37.648438 -62.097656 38.734375 -59.671875 L 39.359375 -59.671875 L 39.359375 -90.640625 L 49.640625 -90.640625 L 49.640625 0 L 41.875 0 L 40.484375 -7.640625 L 39.859375 -7.640625 C 38.273438 -4.640625 36.226562 -2.363281 33.71875 -0.8125 C 31.207031 0.726562 28.453125 1.5 25.453125 1.5 Z M 27.578125 -7.640625 C 35.429688 -7.640625 39.359375 -15.289062 39.359375 -30.59375 L 39.359375 -34.84375 C 39.359375 -50.476562 35.429688 -58.296875 27.578125 -58.296875 C 23.566406 -58.296875 20.597656 -56.5 18.671875 -52.90625 C 16.753906 -49.3125 15.796875 -43.457031 15.796875 -35.34375 L 15.796875 -30.59375 C 15.796875 -22.476562 16.753906 -16.625 18.671875 -13.03125 C 20.597656 -9.4375 23.566406 -7.640625 27.578125 -7.640625 Z M 27.578125 -7.640625 "/></g></g></g><g fill="#e08c72" fill-opacity="1"><g transform="translate(345.011568, 318.750004)"><g><path d="M 6.265625 -90.640625 L 16.546875 -90.640625 L 16.546875 -78.34375 L 6.265625 -78.34375 Z M 6.265625 -65.9375 L 16.546875 -65.9375 L 16.546875 0 L 6.265625 0 Z M 6.265625 -65.9375 "/></g></g></g><g fill="#e08c72" fill-opacity="1"><g transform="translate(367.826279, 318.750004)"><g><path d="M 17.921875 22.8125 C 12.742188 22.8125 8.734375 21.328125 5.890625 18.359375 C 3.046875 15.398438 1.625 11.660156 1.625 7.140625 C 1.625 3.878906 2.394531 0.976562 3.9375 -1.5625 C 5.488281 -4.113281 7.5625 -5.890625 10.15625 -6.890625 C 8.476562 -7.984375 7.160156 -9.40625 6.203125 -11.15625 C 5.242188 -12.914062 4.765625 -14.796875 4.765625 -16.796875 C 4.765625 -19.390625 5.597656 -21.6875 7.265625 -23.6875 C 8.941406 -25.695312 11.203125 -27.203125 14.046875 -28.203125 C 8.941406 -32.378906 6.390625 -38.0625 6.390625 -45.25 C 6.390625 -52.1875 8.3125 -57.617188 12.15625 -61.546875 C 16 -65.472656 21.265625 -67.4375 27.953125 -67.4375 C 31.378906 -67.4375 34.554688 -66.644531 37.484375 -65.0625 C 40.160156 -66.476562 42.101562 -68.144531 43.3125 -70.0625 C 44.519531 -71.988281 45.289062 -74.164062 45.625 -76.59375 L 54.65625 -76.59375 C 54.65625 -72.582031 53.671875 -69.15625 51.703125 -66.3125 C 49.742188 -63.46875 47.050781 -61.628906 43.625 -60.796875 C 47.550781 -56.703125 49.515625 -51.519531 49.515625 -45.25 C 49.515625 -38.476562 47.613281 -33.109375 43.8125 -29.140625 C 40.007812 -25.171875 34.890625 -23.144531 28.453125 -23.0625 L 21.5625 -23.0625 C 19.882812 -23.0625 18.460938 -22.5 17.296875 -21.375 C 16.128906 -20.25 15.546875 -18.847656 15.546875 -17.171875 C 15.546875 -15.585938 16.128906 -14.207031 17.296875 -13.03125 C 18.460938 -11.863281 19.882812 -11.28125 21.5625 -11.28125 L 40.359375 -11.28125 C 45.046875 -11.28125 48.804688 -9.796875 51.640625 -6.828125 C 54.484375 -3.859375 55.90625 -0.203125 55.90625 4.140625 C 55.90625 9.566406 54.210938 14.035156 50.828125 17.546875 C 47.441406 21.054688 42.703125 22.8125 36.609375 22.8125 Z M 27.828125 -31.59375 C 31.421875 -31.59375 34.195312 -32.800781 36.15625 -35.21875 C 38.125 -37.644531 39.109375 -40.988281 39.109375 -45.25 C 39.109375 -49.6875 38.125 -53.070312 36.15625 -55.40625 C 34.195312 -57.75 31.421875 -58.921875 27.828125 -58.921875 C 24.234375 -58.921875 21.472656 -57.707031 19.546875 -55.28125 C 17.628906 -52.851562 16.671875 -49.507812 16.671875 -45.25 C 16.671875 -40.820312 17.628906 -37.4375 19.546875 -35.09375 C 21.472656 -32.757812 24.234375 -31.59375 27.828125 -31.59375 Z M 37.734375 13.921875 C 39.910156 13.921875 41.75 13.164062 43.25 11.65625 C 44.75 10.15625 45.5 8.316406 45.5 6.140625 C 45.5 3.890625 44.832031 2.050781 43.5 0.625 C 42.164062 -0.789062 40.242188 -1.5 37.734375 -1.5 L 19.5625 -1.5 C 17.050781 -1.5 15.144531 -0.789062 13.84375 0.625 C 12.550781 2.050781 11.90625 3.890625 11.90625 6.140625 C 11.90625 8.398438 12.570312 10.257812 13.90625 11.71875 C 15.25 13.1875 17.132812 13.921875 19.5625 13.921875 Z M 37.734375 13.921875 "/></g></g></g><g fill="#e08c72" fill-opacity="1"><g transform="translate(424.988417, 318.750004)"><g><path d="M 6.265625 -90.640625 L 16.546875 -90.640625 L 16.546875 -78.34375 L 6.265625 -78.34375 Z M 6.265625 -65.9375 L 16.546875 -65.9375 L 16.546875 0 L 6.265625 0 Z M 6.265625 -65.9375 "/></g></g></g><g fill="#e08c72" fill-opacity="1"><g transform="translate(447.803128, 318.750004)"><g><path d="M 19.1875 1.25 C 15 1.25 11.984375 -0.1875 10.140625 -3.0625 C 8.304688 -5.945312 7.390625 -9.566406 7.390625 -13.921875 L 7.390625 -56.78125 L 1.75 -56.78125 L 1.75 -65.9375 L 7.390625 -65.9375 L 9.65625 -84.234375 L 17.671875 -84.234375 L 17.671875 -65.9375 L 26.578125 -65.9375 L 26.578125 -56.78125 L 17.671875 -56.78125 L 17.671875 -13.671875 C 17.671875 -9.648438 19.632812 -7.640625 23.5625 -7.640625 L 26.578125 -7.640625 L 26.578125 -0.5 C 25.660156 0 24.507812 0.414062 23.125 0.75 C 21.75 1.082031 20.4375 1.25 19.1875 1.25 Z M 19.1875 1.25 "/></g></g></g><g fill="#e08c72" fill-opacity="1"><g transform="translate(476.384197, 318.750004)"><g><path d="M 21.5625 1.5 C 17.050781 1.5 13.039062 0.164062 9.53125 -2.5 C 6.019531 -5.175781 4.265625 -10.023438 4.265625 -17.046875 C 4.265625 -25.484375 7.125 -31.269531 12.84375 -34.40625 C 18.570312 -37.539062 26.828125 -39.109375 37.609375 -39.109375 L 37.609375 -47.640625 C 37.609375 -51.066406 36.851562 -53.695312 35.34375 -55.53125 C 33.84375 -57.375 31.128906 -58.296875 27.203125 -58.296875 C 23.609375 -58.296875 21.015625 -57.289062 19.421875 -55.28125 C 17.835938 -53.28125 17.046875 -50.816406 17.046875 -47.890625 L 17.046875 -46.390625 L 6.890625 -46.390625 C 6.804688 -46.890625 6.765625 -47.804688 6.765625 -49.140625 C 6.765625 -54.992188 8.6875 -59.503906 12.53125 -62.671875 C 16.375 -65.847656 21.515625 -67.4375 27.953125 -67.4375 C 34.554688 -67.4375 39.53125 -65.847656 42.875 -62.671875 C 46.21875 -59.503906 47.890625 -54.953125 47.890625 -49.015625 L 47.890625 -12.03125 C 47.890625 -10.613281 48.222656 -9.523438 48.890625 -8.765625 C 49.554688 -8.015625 50.390625 -7.640625 51.390625 -7.640625 L 55.40625 -7.640625 L 55.40625 -0.5 C 53.570312 0.5 51.316406 1 48.640625 1 C 45.960938 1 43.722656 0.269531 41.921875 -1.1875 C 40.128906 -2.65625 38.898438 -4.640625 38.234375 -7.140625 L 37.609375 -7.140625 C 35.929688 -4.390625 33.691406 -2.257812 30.890625 -0.75 C 28.097656 0.75 24.988281 1.5 21.5625 1.5 Z M 23.9375 -7.640625 C 26.195312 -7.640625 28.367188 -8.265625 30.453125 -9.515625 C 32.546875 -10.773438 34.257812 -12.632812 35.59375 -15.09375 C 36.9375 -17.5625 37.609375 -20.507812 37.609375 -23.9375 L 37.609375 -29.953125 C 30.085938 -29.953125 24.445312 -29.097656 20.6875 -27.390625 C 16.925781 -25.679688 15.046875 -22.441406 15.046875 -17.671875 C 15.046875 -14.078125 15.773438 -11.503906 17.234375 -9.953125 C 18.703125 -8.410156 20.9375 -7.640625 23.9375 -7.640625 Z M 23.9375 -7.640625 "/></g></g></g><g fill="#e08c72" fill-opacity="1"><g transform="translate(533.546334, 318.750004)"><g><path d="M 6.265625 -90.640625 L 16.546875 -90.640625 L 16.546875 0 L 6.265625 0 Z M 6.265625 -90.640625 "/></g></g></g><g fill="#e08c72" fill-opacity="1"><g transform="translate(76.5, 446.249998)"><g><path d="M 25.328125 1.5 C 18.222656 1.5 12.914062 -0.359375 9.40625 -4.078125 C 5.894531 -7.796875 4.140625 -12.367188 4.140625 -17.796875 C 4.140625 -18.804688 4.160156 -19.5 4.203125 -19.875 C 4.242188 -20.25 4.265625 -20.476562 4.265625 -20.5625 L 15.046875 -20.5625 L 15.046875 -19.3125 C 15.046875 -15.375 16.046875 -12.421875 18.046875 -10.453125 C 20.054688 -8.492188 22.648438 -7.515625 25.828125 -7.515625 C 28.671875 -7.515625 31.03125 -8.367188 32.90625 -10.078125 C 34.789062 -11.796875 35.734375 -14.203125 35.734375 -17.296875 C 35.734375 -19.640625 35.144531 -21.5625 33.96875 -23.0625 C 32.800781 -24.570312 31.378906 -25.765625 29.703125 -26.640625 C 28.035156 -27.515625 25.695312 -28.492188 22.6875 -29.578125 C 19.007812 -30.835938 16.039062 -32.09375 13.78125 -33.34375 C 11.53125 -34.59375 9.609375 -36.453125 8.015625 -38.921875 C 6.429688 -41.390625 5.640625 -44.628906 5.640625 -48.640625 C 5.640625 -54.410156 7.5 -58.984375 11.21875 -62.359375 C 14.9375 -65.742188 19.929688 -67.4375 26.203125 -67.4375 C 32.128906 -67.4375 36.765625 -65.703125 40.109375 -62.234375 C 43.453125 -58.765625 45.125 -54.484375 45.125 -49.390625 L 45 -47.015625 L 34.34375 -47.015625 L 34.34375 -48.140625 C 34.34375 -51.066406 33.632812 -53.507812 32.21875 -55.46875 C 30.800781 -57.4375 28.460938 -58.421875 25.203125 -58.421875 C 21.941406 -58.421875 19.640625 -57.5 18.296875 -55.65625 C 16.960938 -53.820312 16.296875 -51.734375 16.296875 -49.390625 C 16.296875 -46.546875 17.273438 -44.4375 19.234375 -43.0625 C 21.203125 -41.6875 24.234375 -40.328125 28.328125 -38.984375 C 32.085938 -37.648438 35.179688 -36.332031 37.609375 -35.03125 C 40.035156 -33.738281 42.101562 -31.796875 43.8125 -29.203125 C 45.53125 -26.617188 46.390625 -23.148438 46.390625 -18.796875 C 46.390625 -12.035156 44.484375 -6.960938 40.671875 -3.578125 C 36.867188 -0.191406 31.753906 1.5 25.328125 1.5 Z M 25.328125 1.5 "/></g></g></g><g fill="#e08c72" fill-opacity="1"><g transform="translate(127.895768, 446.249998)"><g><path d="M 19.1875 1.25 C 15 1.25 11.984375 -0.1875 10.140625 -3.0625 C 8.304688 -5.945312 7.390625 -9.566406 7.390625 -13.921875 L 7.390625 -56.78125 L 1.75 -56.78125 L 1.75 -65.9375 L 7.390625 -65.9375 L 9.65625 -84.234375 L 17.671875 -84.234375 L 17.671875 -65.9375 L 26.578125 -65.9375 L 26.578125 -56.78125 L 17.671875 -56.78125 L 17.671875 -13.671875 C 17.671875 -9.648438 19.632812 -7.640625 23.5625 -7.640625 L 26.578125 -7.640625 L 26.578125 -0.5 C 25.660156 0 24.507812 0.414062 23.125 0.75 C 21.75 1.082031 20.4375 1.25 19.1875 1.25 Z M 19.1875 1.25 "/></g></g></g><g fill="#e08c72" fill-opacity="1"><g transform="translate(156.476825, 446.249998)"><g><path d="M 28.578125 1.5 C 20.804688 1.5 14.9375 -1.316406 10.96875 -6.953125 C 7 -12.597656 5.015625 -21.269531 5.015625 -32.96875 C 5.015625 -44.664062 7 -53.332031 10.96875 -58.96875 C 14.9375 -64.613281 20.804688 -67.4375 28.578125 -67.4375 C 36.347656 -67.4375 42.21875 -64.613281 46.1875 -58.96875 C 50.164062 -53.332031 52.15625 -44.664062 52.15625 -32.96875 C 52.15625 -21.269531 50.164062 -12.597656 46.1875 -6.953125 C 42.21875 -1.316406 36.347656 1.5 28.578125 1.5 Z M 28.578125 -7.640625 C 37.109375 -7.640625 41.375 -15.289062 41.375 -30.59375 L 41.375 -35.34375 C 41.375 -50.644531 37.109375 -58.296875 28.578125 -58.296875 C 20.054688 -58.296875 15.796875 -50.644531 15.796875 -35.34375 L 15.796875 -30.59375 C 15.796875 -15.289062 20.054688 -7.640625 28.578125 -7.640625 Z M 28.578125 -7.640625 "/></g></g></g><g fill="#e08c72" fill-opacity="1"><g transform="translate(213.638951, 446.249998)"><g><path d="M 7.515625 -65.9375 L 15.296875 -65.9375 L 16.671875 -57.296875 L 17.421875 -57.296875 C 18.335938 -60.210938 19.710938 -62.628906 21.546875 -64.546875 C 23.390625 -66.472656 25.734375 -67.4375 28.578125 -67.4375 C 29.753906 -67.4375 30.800781 -67.289062 31.71875 -67 C 32.632812 -66.707031 33.21875 -66.519531 33.46875 -66.4375 L 33.46875 -55.78125 L 30.09375 -55.78125 C 26.5 -55.78125 23.550781 -54.546875 21.25 -52.078125 C 18.945312 -49.617188 17.796875 -45.671875 17.796875 -40.234375 L 17.796875 0 L 7.515625 0 Z M 7.515625 -65.9375 "/></g></g></g><g fill="#e08c72" fill-opacity="1"><g transform="translate(247.861007, 446.249998)"><g><path d="M 12.15625 22.8125 C 9.144531 22.8125 6.679688 22.476562 4.765625 21.8125 L 4.765625 14.671875 L 8.40625 14.671875 C 15 14.671875 19.34375 9.78125 21.4375 0 L 1.25 -65.9375 L 12.53125 -65.9375 L 23.6875 -26.578125 L 27.078125 -14.796875 L 27.578125 -14.796875 L 30.46875 -26.828125 L 39.859375 -65.9375 L 50.265625 -65.9375 L 33.46875 -3.390625 C 31.300781 4.804688 28.546875 11.222656 25.203125 15.859375 C 21.859375 20.492188 17.507812 22.8125 12.15625 22.8125 Z M 12.15625 22.8125 "/></g></g></g><g fill="#e08c72" fill-opacity="1"><g transform="translate(299.256763, 446.249998)"><g><path d="M 19.1875 1.25 C 15 1.25 11.984375 -0.1875 10.140625 -3.0625 C 8.304688 -5.945312 7.390625 -9.566406 7.390625 -13.921875 L 7.390625 -56.78125 L 1.75 -56.78125 L 1.75 -65.9375 L 7.390625 -65.9375 L 9.65625 -84.234375 L 17.671875 -84.234375 L 17.671875 -65.9375 L 26.578125 -65.9375 L 26.578125 -56.78125 L 17.671875 -56.78125 L 17.671875 -13.671875 C 17.671875 -9.648438 19.632812 -7.640625 23.5625 -7.640625 L 26.578125 -7.640625 L 26.578125 -0.5 C 25.660156 0 24.507812 0.414062 23.125 0.75 C 21.75 1.082031 20.4375 1.25 19.1875 1.25 Z M 19.1875 1.25 "/></g></g></g><g fill="#e08c72" fill-opacity="1"><g transform="translate(327.837832, 446.249998)"><g><path d="M 30.21875 1.5 C 21.851562 1.5 15.601562 -1.234375 11.46875 -6.703125 C 7.332031 -12.179688 5.265625 -20.9375 5.265625 -32.96875 C 5.265625 -44.75 7.3125 -53.4375 11.40625 -59.03125 C 15.5 -64.632812 21.726562 -67.4375 30.09375 -67.4375 C 37.445312 -67.4375 42.894531 -64.992188 46.4375 -60.109375 C 49.988281 -55.222656 51.765625 -47.347656 51.765625 -36.484375 L 51.765625 -29.953125 L 16.046875 -29.953125 C 16.128906 -22.265625 17.316406 -16.625 19.609375 -13.03125 C 21.910156 -9.4375 25.53125 -7.640625 30.46875 -7.640625 C 33.8125 -7.640625 36.503906 -8.976562 38.546875 -11.65625 C 40.597656 -14.332031 41.625 -17.925781 41.625 -22.4375 L 51.765625 -22.4375 C 51.765625 -15.082031 49.78125 -9.253906 45.8125 -4.953125 C 41.84375 -0.648438 36.644531 1.5 30.21875 1.5 Z M 41 -39.109375 C 41 -45.378906 40.078125 -50.144531 38.234375 -53.40625 C 36.398438 -56.664062 33.6875 -58.296875 30.09375 -58.296875 C 25.65625 -58.296875 22.328125 -56.726562 20.109375 -53.59375 C 17.898438 -50.457031 16.585938 -45.628906 16.171875 -39.109375 Z M 41 -39.109375 "/></g></g></g><g fill="#e08c72" fill-opacity="1"><g transform="translate(384.999969, 446.249998)"><g><path d="M 6.265625 -90.640625 L 16.546875 -90.640625 L 16.546875 0 L 6.265625 0 Z M 6.265625 -90.640625 "/></g></g></g><g fill="#e08c72" fill-opacity="1"><g transform="translate(407.81468, 446.249998)"><g><path d="M 6.265625 -90.640625 L 16.546875 -90.640625 L 16.546875 0 L 6.265625 0 Z M 6.265625 -90.640625 "/></g></g></g><g fill="#e08c72" fill-opacity="1"><g transform="translate(430.629392, 446.249998)"><g><path d="M 6.265625 -90.640625 L 16.546875 -90.640625 L 16.546875 -78.34375 L 6.265625 -78.34375 Z M 6.265625 -65.9375 L 16.546875 -65.9375 L 16.546875 0 L 6.265625 0 Z M 6.265625 -65.9375 "/></g></g></g><g fill="#e08c72" fill-opacity="1"><g transform="translate(453.444104, 446.249998)"><g><path d="M 7.515625 -65.9375 L 15.296875 -65.9375 L 16.671875 -58.296875 L 17.421875 -58.296875 C 20.847656 -64.390625 26.15625 -67.4375 33.34375 -67.4375 C 38.613281 -67.4375 42.644531 -65.867188 45.4375 -62.734375 C 48.238281 -59.609375 49.640625 -54.535156 49.640625 -47.515625 L 49.640625 0 L 39.359375 0 L 39.359375 -46.765625 C 39.359375 -51.023438 38.5625 -54.007812 36.96875 -55.71875 C 35.382812 -57.4375 33.09375 -58.296875 30.09375 -58.296875 C 26.664062 -58.296875 23.757812 -56.664062 21.375 -53.40625 C 18.988281 -50.144531 17.796875 -45.753906 17.796875 -40.234375 L 17.796875 0 L 7.515625 0 Z M 7.515625 -65.9375 "/></g></g></g><g fill="#e08c72" fill-opacity="1"><g transform="translate(510.606241, 446.249998)"><g><path d="M 17.921875 22.8125 C 12.742188 22.8125 8.734375 21.328125 5.890625 18.359375 C 3.046875 15.398438 1.625 11.660156 1.625 7.140625 C 1.625 3.878906 2.394531 0.976562 3.9375 -1.5625 C 5.488281 -4.113281 7.5625 -5.890625 10.15625 -6.890625 C 8.476562 -7.984375 7.160156 -9.40625 6.203125 -11.15625 C 5.242188 -12.914062 4.765625 -14.796875 4.765625 -16.796875 C 4.765625 -19.390625 5.597656 -21.6875 7.265625 -23.6875 C 8.941406 -25.695312 11.203125 -27.203125 14.046875 -28.203125 C 8.941406 -32.378906 6.390625 -38.0625 6.390625 -45.25 C 6.390625 -52.1875 8.3125 -57.617188 12.15625 -61.546875 C 16 -65.472656 21.265625 -67.4375 27.953125 -67.4375 C 31.378906 -67.4375 34.554688 -66.644531 37.484375 -65.0625 C 40.160156 -66.476562 42.101562 -68.144531 43.3125 -70.0625 C 44.519531 -71.988281 45.289062 -74.164062 45.625 -76.59375 L 54.65625 -76.59375 C 54.65625 -72.582031 53.671875 -69.15625 51.703125 -66.3125 C 49.742188 -63.46875 47.050781 -61.628906 43.625 -60.796875 C 47.550781 -56.703125 49.515625 -51.519531 49.515625 -45.25 C 49.515625 -38.476562 47.613281 -33.109375 43.8125 -29.140625 C 40.007812 -25.171875 34.890625 -23.144531 28.453125 -23.0625 L 21.5625 -23.0625 C 19.882812 -23.0625 18.460938 -22.5 17.296875 -21.375 C 16.128906 -20.25 15.546875 -18.847656 15.546875 -17.171875 C 15.546875 -15.585938 16.128906 -14.207031 17.296875 -13.03125 C 18.460938 -11.863281 19.882812 -11.28125 21.5625 -11.28125 L 40.359375 -11.28125 C 45.046875 -11.28125 48.804688 -9.796875 51.640625 -6.828125 C 54.484375 -3.859375 55.90625 -0.203125 55.90625 4.140625 C 55.90625 9.566406 54.210938 14.035156 50.828125 17.546875 C 47.441406 21.054688 42.703125 22.8125 36.609375 22.8125 Z M 27.828125 -31.59375 C 31.421875 -31.59375 34.195312 -32.800781 36.15625 -35.21875 C 38.125 -37.644531 39.109375 -40.988281 39.109375 -45.25 C 39.109375 -49.6875 38.125 -53.070312 36.15625 -55.40625 C 34.195312 -57.75 31.421875 -58.921875 27.828125 -58.921875 C 24.234375 -58.921875 21.472656 -57.707031 19.546875 -55.28125 C 17.628906 -52.851562 16.671875 -49.507812 16.671875 -45.25 C 16.671875 -40.820312 17.628906 -37.4375 19.546875 -35.09375 C 21.472656 -32.757812 24.234375 -31.59375 27.828125 -31.59375 Z M 37.734375 13.921875 C 39.910156 13.921875 41.75 13.164062 43.25 11.65625 C 44.75 10.15625 45.5 8.316406 45.5 6.140625 C 45.5 3.890625 44.832031 2.050781 43.5 0.625 C 42.164062 -0.789062 40.242188 -1.5 37.734375 -1.5 L 19.5625 -1.5 C 17.050781 -1.5 15.144531 -0.789062 13.84375 0.625 C 12.550781 2.050781 11.90625 3.890625 11.90625 6.140625 C 11.90625 8.398438 12.570312 10.257812 13.90625 11.71875 C 15.25 13.1875 17.132812 13.921875 19.5625 13.921875 Z M 37.734375 13.921875 "/></g></g></g><g fill="#e08c72" fill-opacity="1"><g transform="translate(76.5, 573.749991)"><g><path d="M 6.265625 -90.640625 L 16.546875 -90.640625 L 16.546875 -78.34375 L 6.265625 -78.34375 Z M 6.265625 -65.9375 L 16.546875 -65.9375 L 16.546875 0 L 6.265625 0 Z M 6.265625 -65.9375 "/></g></g></g><g fill="#e08c72" fill-opacity="1"><g transform="translate(99.314711, 573.749991)"><g><path d="M 25.328125 1.5 C 18.222656 1.5 12.914062 -0.359375 9.40625 -4.078125 C 5.894531 -7.796875 4.140625 -12.367188 4.140625 -17.796875 C 4.140625 -18.804688 4.160156 -19.5 4.203125 -19.875 C 4.242188 -20.25 4.265625 -20.476562 4.265625 -20.5625 L 15.046875 -20.5625 L 15.046875 -19.3125 C 15.046875 -15.375 16.046875 -12.421875 18.046875 -10.453125 C 20.054688 -8.492188 22.648438 -7.515625 25.828125 -7.515625 C 28.671875 -7.515625 31.03125 -8.367188 32.90625 -10.078125 C 34.789062 -11.796875 35.734375 -14.203125 35.734375 -17.296875 C 35.734375 -19.640625 35.144531 -21.5625 33.96875 -23.0625 C 32.800781 -24.570312 31.378906 -25.765625 29.703125 -26.640625 C 28.035156 -27.515625 25.695312 -28.492188 22.6875 -29.578125 C 19.007812 -30.835938 16.039062 -32.09375 13.78125 -33.34375 C 11.53125 -34.59375 9.609375 -36.453125 8.015625 -38.921875 C 6.429688 -41.390625 5.640625 -44.628906 5.640625 -48.640625 C 5.640625 -54.410156 7.5 -58.984375 11.21875 -62.359375 C 14.9375 -65.742188 19.929688 -67.4375 26.203125 -67.4375 C 32.128906 -67.4375 36.765625 -65.703125 40.109375 -62.234375 C 43.453125 -58.765625 45.125 -54.484375 45.125 -49.390625 L 45 -47.015625 L 34.34375 -47.015625 L 34.34375 -48.140625 C 34.34375 -51.066406 33.632812 -53.507812 32.21875 -55.46875 C 30.800781 -57.4375 28.460938 -58.421875 25.203125 -58.421875 C 21.941406 -58.421875 19.640625 -57.5 18.296875 -55.65625 C 16.960938 -53.820312 16.296875 -51.734375 16.296875 -49.390625 C 16.296875 -46.546875 17.273438 -44.4375 19.234375 -43.0625 C 21.203125 -41.6875 24.234375 -40.328125 28.328125 -38.984375 C 32.085938 -37.648438 35.179688 -36.332031 37.609375 -35.03125 C 40.035156 -33.738281 42.101562 -31.796875 43.8125 -29.203125 C 45.53125 -26.617188 46.390625 -23.148438 46.390625 -18.796875 C 46.390625 -12.035156 44.484375 -6.960938 40.671875 -3.578125 C 36.867188 -0.191406 31.753906 1.5 25.328125 1.5 Z M 25.328125 1.5 "/></g></g></g><g fill="#e08c72" fill-opacity="1"><g transform="translate(150.71048, 573.749991)"><g/></g></g><g fill="#e08c72" fill-opacity="1"><g transform="translate(179.291537, 573.749991)"><g><path d="M 7.515625 -65.9375 L 15.296875 -65.9375 L 16.671875 -58.296875 L 17.296875 -58.296875 C 18.890625 -61.304688 20.9375 -63.582031 23.4375 -65.125 C 25.945312 -66.664062 28.707031 -67.4375 31.71875 -67.4375 C 38.238281 -67.4375 43.273438 -64.59375 46.828125 -58.90625 C 50.378906 -53.226562 52.15625 -44.539062 52.15625 -32.84375 C 52.15625 -21.476562 50.335938 -12.910156 46.703125 -7.140625 C 43.066406 -1.378906 38.320312 1.5 32.46875 1.5 C 29.289062 1.5 26.425781 0.851562 23.875 -0.4375 C 21.332031 -1.726562 19.515625 -3.503906 18.421875 -5.765625 L 17.796875 -5.765625 L 17.796875 21.6875 L 7.515625 21.6875 Z M 29.578125 -7.640625 C 33.597656 -7.640625 36.566406 -9.4375 38.484375 -13.03125 C 40.410156 -16.625 41.375 -22.476562 41.375 -30.59375 L 41.375 -35.34375 C 41.375 -43.457031 40.410156 -49.3125 38.484375 -52.90625 C 36.566406 -56.5 33.597656 -58.296875 29.578125 -58.296875 C 21.722656 -58.296875 17.796875 -50.644531 17.796875 -35.34375 L 17.796875 -30.59375 C 17.796875 -15.289062 21.722656 -7.640625 29.578125 -7.640625 Z M 29.578125 -7.640625 "/></g></g></g><g fill="#e08c72" fill-opacity="1"><g transform="translate(236.453662, 573.749991)"><g><path d="M 28.578125 1.5 C 20.804688 1.5 14.9375 -1.316406 10.96875 -6.953125 C 7 -12.597656 5.015625 -21.269531 5.015625 -32.96875 C 5.015625 -44.664062 7 -53.332031 10.96875 -58.96875 C 14.9375 -64.613281 20.804688 -67.4375 28.578125 -67.4375 C 36.347656 -67.4375 42.21875 -64.613281 46.1875 -58.96875 C 50.164062 -53.332031 52.15625 -44.664062 52.15625 -32.96875 C 52.15625 -21.269531 50.164062 -12.597656 46.1875 -6.953125 C 42.21875 -1.316406 36.347656 1.5 28.578125 1.5 Z M 28.578125 -7.640625 C 37.109375 -7.640625 41.375 -15.289062 41.375 -30.59375 L 41.375 -35.34375 C 41.375 -50.644531 37.109375 -58.296875 28.578125 -58.296875 C 20.054688 -58.296875 15.796875 -50.644531 15.796875 -35.34375 L 15.796875 -30.59375 C 15.796875 -15.289062 20.054688 -7.640625 28.578125 -7.640625 Z M 28.578125 -7.640625 "/></g></g></g><g fill="#e08c72" fill-opacity="1"><g transform="translate(293.615788, 573.749991)"><g><path d="M 0.125 -65.9375 L 11.40625 -65.9375 L 19.6875 -28.828125 C 20.1875 -26.578125 20.707031 -23.675781 21.25 -20.125 C 21.789062 -16.570312 22.144531 -14.25 22.3125 -13.15625 L 22.8125 -13.15625 C 22.894531 -14.164062 23.125 -16.320312 23.5 -19.625 C 23.875 -22.925781 24.316406 -25.992188 24.828125 -28.828125 L 31.46875 -65.9375 L 43.375 -65.9375 L 50.140625 -28.828125 C 50.640625 -26.078125 51.078125 -23.03125 51.453125 -19.6875 C 51.835938 -16.34375 52.070312 -14.164062 52.15625 -13.15625 L 52.65625 -13.15625 C 52.738281 -14.082031 53.03125 -16.128906 53.53125 -19.296875 C 54.03125 -22.472656 54.613281 -25.648438 55.28125 -28.828125 L 63.5625 -65.9375 L 73.96875 -65.9375 L 57.546875 0 L 46.125 0 L 39.234375 -37.609375 C 38.734375 -40.453125 38.296875 -43.457031 37.921875 -46.625 C 37.546875 -49.800781 37.316406 -51.851562 37.234375 -52.78125 L 36.734375 -52.78125 C 36.648438 -51.851562 36.421875 -49.800781 36.046875 -46.625 C 35.671875 -43.457031 35.226562 -40.453125 34.71875 -37.609375 L 27.953125 0 L 16.546875 0 Z M 0.125 -65.9375 "/></g></g></g><g fill="#e08c72" fill-opacity="1"><g transform="translate(367.826279, 573.749991)"><g><path d="M 30.21875 1.5 C 21.851562 1.5 15.601562 -1.234375 11.46875 -6.703125 C 7.332031 -12.179688 5.265625 -20.9375 5.265625 -32.96875 C 5.265625 -44.75 7.3125 -53.4375 11.40625 -59.03125 C 15.5 -64.632812 21.726562 -67.4375 30.09375 -67.4375 C 37.445312 -67.4375 42.894531 -64.992188 46.4375 -60.109375 C 49.988281 -55.222656 51.765625 -47.347656 51.765625 -36.484375 L 51.765625 -29.953125 L 16.046875 -29.953125 C 16.128906 -22.265625 17.316406 -16.625 19.609375 -13.03125 C 21.910156 -9.4375 25.53125 -7.640625 30.46875 -7.640625 C 33.8125 -7.640625 36.503906 -8.976562 38.546875 -11.65625 C 40.597656 -14.332031 41.625 -17.925781 41.625 -22.4375 L 51.765625 -22.4375 C 51.765625 -15.082031 49.78125 -9.253906 45.8125 -4.953125 C 41.84375 -0.648438 36.644531 1.5 30.21875 1.5 Z M 41 -39.109375 C 41 -45.378906 40.078125 -50.144531 38.234375 -53.40625 C 36.398438 -56.664062 33.6875 -58.296875 30.09375 -58.296875 C 25.65625 -58.296875 22.328125 -56.726562 20.109375 -53.59375 C 17.898438 -50.457031 16.585938 -45.628906 16.171875 -39.109375 Z M 41 -39.109375 "/></g></g></g><g fill="#e08c72" fill-opacity="1"><g transform="translate(424.988417, 573.749991)"><g><path d="M 7.515625 -65.9375 L 15.296875 -65.9375 L 16.671875 -57.296875 L 17.421875 -57.296875 C 18.335938 -60.210938 19.710938 -62.628906 21.546875 -64.546875 C 23.390625 -66.472656 25.734375 -67.4375 28.578125 -67.4375 C 29.753906 -67.4375 30.800781 -67.289062 31.71875 -67 C 32.632812 -66.707031 33.21875 -66.519531 33.46875 -66.4375 L 33.46875 -55.78125 L 30.09375 -55.78125 C 26.5 -55.78125 23.550781 -54.546875 21.25 -52.078125 C 18.945312 -49.617188 17.796875 -45.671875 17.796875 -40.234375 L 17.796875 0 L 7.515625 0 Z M 7.515625 -65.9375 "/></g></g></g><g fill="#e08c72" fill-opacity="1"><g transform="translate(459.210461, 573.749991)"><g><path d="M 6.890625 -56.78125 L 1.125 -56.78125 L 1.125 -65.9375 L 6.890625 -65.9375 L 6.890625 -76.46875 C 6.890625 -80.8125 7.910156 -84.425781 9.953125 -87.3125 C 12.003906 -90.195312 15.332031 -91.640625 19.9375 -91.640625 C 22.851562 -91.640625 25.734375 -91.140625 28.578125 -90.140625 L 28.578125 -82.984375 L 23.0625 -82.984375 C 19.132812 -82.984375 17.171875 -80.976562 17.171875 -76.96875 L 17.171875 -65.9375 L 28.578125 -65.9375 L 28.578125 -56.78125 L 17.171875 -56.78125 L 17.171875 0 L 6.890625 0 Z M 6.890625 -56.78125 "/></g></g></g><g fill="#e08c72" fill-opacity="1"><g transform="translate(487.791529, 573.749991)"><g><path d="M 23.8125 1.5 C 18.550781 1.5 14.519531 -0.0625 11.71875 -3.1875 C 8.914062 -6.320312 7.515625 -11.398438 7.515625 -18.421875 L 7.515625 -65.9375 L 17.796875 -65.9375 L 17.796875 -19.1875 C 17.796875 -14.914062 18.585938 -11.921875 20.171875 -10.203125 C 21.765625 -8.492188 24.066406 -7.640625 27.078125 -7.640625 C 30.503906 -7.640625 33.40625 -9.269531 35.78125 -12.53125 C 38.164062 -15.789062 39.359375 -20.179688 39.359375 -25.703125 L 39.359375 -65.9375 L 49.640625 -65.9375 L 49.640625 0 L 41.875 0 L 40.484375 -7.640625 L 39.734375 -7.640625 C 36.304688 -1.546875 31 1.5 23.8125 1.5 Z M 23.8125 1.5 "/></g></g></g><g fill="#e08c72" fill-opacity="1"><g transform="translate(544.953667, 573.749991)"><g><path d="M 6.265625 -90.640625 L 16.546875 -90.640625 L 16.546875 0 L 6.265625 0 Z M 6.265625 -90.640625 "/></g></g></g><g clip-path="url(#1d58490a42)"><path fill="#e5c0a1" d="M 698.921875 330.464844 L 624.277344 405.167969 L 698.921875 479.714844 L 707.878906 470.769531 L 648.320312 411.445312 L 961.820312 411.445312 L 961.820312 398.890625 L 648.320312 398.890625 L 707.878906 339.410156 Z M 698.921875 330.464844 " fill-opacity="1" fill-rule="nonzero"/></g><g fill="#e5c0a1" fill-opacity="1"><g transform="translate(53.102425, 58.706802)"><g><path d="M 1.6875 -12.59375 L 9.328125 -12.59375 L 9.328125 -11.203125 L 3.203125 -11.203125 L 3.203125 -7.015625 L 9.21875 -7.015625 L 9.21875 -5.609375 L 3.203125 -5.609375 L 3.203125 -1.40625 L 9.4375 -1.40625 L 9.4375 0 L 1.6875 0 Z M 1.6875 -12.59375 "/></g></g></g><g fill="#e5c0a1" fill-opacity="1"><g transform="translate(64.118393, 58.706802)"><g><path d="M 2.96875 0 L 1.5625 0 L 1.5625 -8.921875 L 2.96875 -8.921875 L 2.96875 -7.421875 L 3.1875 -7.421875 C 3.738281 -8.597656 4.695312 -9.1875 6.0625 -9.1875 C 7.09375 -9.1875 7.914062 -8.863281 8.53125 -8.21875 C 9.144531 -7.570312 9.453125 -6.609375 9.453125 -5.328125 L 9.453125 0 L 8.046875 0 L 8.046875 -5.046875 C 8.046875 -5.972656 7.832031 -6.671875 7.40625 -7.140625 C 6.988281 -7.609375 6.421875 -7.84375 5.703125 -7.84375 C 4.847656 -7.84375 4.175781 -7.550781 3.6875 -6.96875 C 3.207031 -6.394531 2.96875 -5.617188 2.96875 -4.640625 Z M 2.96875 0 "/></g></g></g><g fill="#e5c0a1" fill-opacity="1"><g transform="translate(75.13436, 58.706802)"><g><path d="M 8.359375 -1.375 L 8.140625 -1.375 C 7.847656 -0.832031 7.453125 -0.425781 6.953125 -0.15625 C 6.453125 0.113281 5.910156 0.25 5.328125 0.25 C 4.722656 0.25 4.15625 0.148438 3.625 -0.046875 C 3.101562 -0.253906 2.640625 -0.550781 2.234375 -0.9375 C 1.835938 -1.320312 1.519531 -1.796875 1.28125 -2.359375 C 1.050781 -2.929688 0.9375 -3.582031 0.9375 -4.3125 L 0.9375 -4.609375 C 0.9375 -5.328125 1.054688 -5.96875 1.296875 -6.53125 C 1.535156 -7.101562 1.851562 -7.582031 2.25 -7.96875 C 2.644531 -8.363281 3.101562 -8.664062 3.625 -8.875 C 4.15625 -9.082031 4.710938 -9.1875 5.296875 -9.1875 C 5.941406 -9.1875 6.503906 -9.039062 6.984375 -8.75 C 7.472656 -8.46875 7.859375 -8.0625 8.140625 -7.53125 L 8.359375 -7.53125 L 8.359375 -8.921875 L 9.75 -8.921875 L 9.75 2.203125 C 9.75 2.609375 9.617188 2.941406 9.359375 3.203125 C 9.109375 3.460938 8.78125 3.59375 8.375 3.59375 L 2.5625 3.59375 L 2.5625 2.296875 L 7.859375 2.296875 C 8.191406 2.296875 8.359375 2.117188 8.359375 1.765625 Z M 5.359375 -1.078125 C 5.785156 -1.078125 6.175781 -1.15625 6.53125 -1.3125 C 6.894531 -1.46875 7.210938 -1.6875 7.484375 -1.96875 C 7.753906 -2.257812 7.96875 -2.609375 8.125 -3.015625 C 8.28125 -3.421875 8.359375 -3.867188 8.359375 -4.359375 L 8.359375 -4.578125 C 8.359375 -5.054688 8.28125 -5.492188 8.125 -5.890625 C 7.96875 -6.296875 7.753906 -6.640625 7.484375 -6.921875 C 7.210938 -7.210938 6.890625 -7.4375 6.515625 -7.59375 C 6.148438 -7.757812 5.765625 -7.84375 5.359375 -7.84375 C 4.941406 -7.84375 4.550781 -7.765625 4.1875 -7.609375 C 3.820312 -7.453125 3.503906 -7.226562 3.234375 -6.9375 C 2.960938 -6.65625 2.75 -6.316406 2.59375 -5.921875 C 2.445312 -5.523438 2.375 -5.085938 2.375 -4.609375 L 2.375 -4.3125 C 2.375 -3.8125 2.445312 -3.363281 2.59375 -2.96875 C 2.75 -2.570312 2.960938 -2.234375 3.234375 -1.953125 C 3.503906 -1.671875 3.816406 -1.453125 4.171875 -1.296875 C 4.535156 -1.148438 4.929688 -1.078125 5.359375 -1.078125 Z M 5.359375 -1.078125 "/></g></g></g><g fill="#e5c0a1" fill-opacity="1"><g transform="translate(86.150328, 58.706802)"><g/></g></g><g fill="#e5c0a1" fill-opacity="1"><g transform="translate(97.166296, 58.706802)"><g><path d="M 5.296875 -12.59375 L 8.21875 -12.59375 L 8.21875 -3.78125 L 10.171875 -3.78125 L 10.171875 -2.375 L 8.21875 -2.375 L 8.21875 0 L 6.71875 0 L 6.71875 -2.375 L 0.875 -2.375 L 0.875 -4.46875 Z M 2.171875 -4 L 2.171875 -3.78125 L 6.71875 -3.78125 L 6.71875 -11.953125 L 6.5 -11.953125 Z M 2.171875 -4 "/></g></g></g><g fill="#e5c0a1" fill-opacity="1"><g transform="translate(108.182264, 58.706802)"><g><path d="M 4.84375 -1.40625 L 4.84375 -11.9375 L 4.625 -11.9375 L 2.5625 -7.203125 L 1.0625 -7.203125 L 1.0625 -7.3125 L 3.421875 -12.59375 L 6.359375 -12.59375 L 6.359375 -1.40625 L 9.921875 -1.40625 L 9.921875 0 L 1.28125 0 L 1.28125 -1.40625 Z M 4.84375 -1.40625 "/></g></g></g><g fill="#e5c0a1" fill-opacity="1"><g transform="translate(119.198232, 58.706802)"><g><path d="M 1.078125 -7.703125 C 1.078125 -9.335938 1.46875 -10.601562 2.25 -11.5 C 3.03125 -12.40625 4.117188 -12.859375 5.515625 -12.859375 C 6.898438 -12.859375 7.984375 -12.40625 8.765625 -11.5 C 9.546875 -10.601562 9.9375 -9.335938 9.9375 -7.703125 L 9.9375 -4.890625 C 9.9375 -3.210938 9.546875 -1.9375 8.765625 -1.0625 C 7.984375 -0.1875 6.898438 0.25 5.515625 0.25 C 4.117188 0.25 3.03125 -0.1875 2.25 -1.0625 C 1.46875 -1.9375 1.078125 -3.210938 1.078125 -4.890625 Z M 5.515625 -1.109375 C 6.484375 -1.109375 7.207031 -1.445312 7.6875 -2.125 C 8.175781 -2.8125 8.421875 -3.769531 8.421875 -5 L 8.421875 -7.59375 C 8.421875 -8.164062 8.359375 -8.6875 8.234375 -9.15625 C 8.117188 -9.632812 7.9375 -10.046875 7.6875 -10.390625 C 7.445312 -10.734375 7.144531 -11 6.78125 -11.1875 C 6.414062 -11.382812 5.992188 -11.484375 5.515625 -11.484375 C 5.015625 -11.484375 4.582031 -11.382812 4.21875 -11.1875 C 3.863281 -11 3.5625 -10.734375 3.3125 -10.390625 C 3.070312 -10.046875 2.890625 -9.632812 2.765625 -9.15625 C 2.648438 -8.6875 2.59375 -8.164062 2.59375 -7.59375 L 2.59375 -5 C 2.59375 -3.769531 2.832031 -2.8125 3.3125 -2.125 C 3.800781 -1.445312 4.535156 -1.109375 5.515625 -1.109375 Z M 4.359375 -6.296875 C 4.359375 -6.609375 4.472656 -6.878906 4.703125 -7.109375 C 4.929688 -7.335938 5.203125 -7.453125 5.515625 -7.453125 C 5.816406 -7.453125 6.082031 -7.335938 6.3125 -7.109375 C 6.539062 -6.878906 6.65625 -6.609375 6.65625 -6.296875 C 6.65625 -5.984375 6.539062 -5.710938 6.3125 -5.484375 C 6.082031 -5.253906 5.816406 -5.140625 5.515625 -5.140625 C 5.203125 -5.140625 4.929688 -5.253906 4.703125 -5.484375 C 4.472656 -5.710938 4.359375 -5.984375 4.359375 -6.296875 Z M 4.359375 -6.296875 "/></g></g></g><g fill="#e5c0a1" fill-opacity="1"><g transform="translate(130.214199, 58.706802)"><g><path d="M 7.5 -14.515625 L 8.765625 -14.109375 L 3.53125 1.90625 L 2.25 1.515625 Z M 7.5 -14.515625 "/></g></g></g><g fill="#e5c0a1" fill-opacity="1"><g transform="translate(141.230167, 58.706802)"><g><path d="M 1.40625 -5.9375 L 1.40625 -12.59375 L 9.28125 -12.59375 L 9.28125 -11.203125 L 2.875 -11.203125 L 2.875 -6.703125 L 3.09375 -6.703125 C 3.21875 -6.941406 3.375 -7.171875 3.5625 -7.390625 C 3.757812 -7.609375 3.984375 -7.800781 4.234375 -7.96875 C 4.492188 -8.132812 4.785156 -8.269531 5.109375 -8.375 C 5.429688 -8.476562 5.789062 -8.53125 6.1875 -8.53125 C 6.769531 -8.53125 7.300781 -8.429688 7.78125 -8.234375 C 8.269531 -8.046875 8.6875 -7.773438 9.03125 -7.421875 C 9.382812 -7.078125 9.660156 -6.660156 9.859375 -6.171875 C 10.054688 -5.679688 10.15625 -5.132812 10.15625 -4.53125 L 10.15625 -4.21875 C 10.15625 -3.613281 10.054688 -3.039062 9.859375 -2.5 C 9.671875 -1.96875 9.390625 -1.492188 9.015625 -1.078125 C 8.640625 -0.671875 8.175781 -0.347656 7.625 -0.109375 C 7.070312 0.128906 6.4375 0.25 5.71875 0.25 C 4.988281 0.25 4.34375 0.144531 3.78125 -0.0625 C 3.21875 -0.28125 2.742188 -0.582031 2.359375 -0.96875 C 1.972656 -1.351562 1.679688 -1.804688 1.484375 -2.328125 C 1.285156 -2.847656 1.1875 -3.414062 1.1875 -4.03125 L 1.1875 -4.53125 L 2.703125 -4.53125 L 2.703125 -4.140625 C 2.703125 -3.140625 2.976562 -2.390625 3.53125 -1.890625 C 4.09375 -1.398438 4.820312 -1.15625 5.71875 -1.15625 C 6.195312 -1.15625 6.617188 -1.238281 6.984375 -1.40625 C 7.359375 -1.582031 7.664062 -1.816406 7.90625 -2.109375 C 8.15625 -2.410156 8.335938 -2.753906 8.453125 -3.140625 C 8.578125 -3.523438 8.640625 -3.929688 8.640625 -4.359375 L 8.640625 -4.46875 C 8.640625 -4.832031 8.578125 -5.175781 8.453125 -5.5 C 8.328125 -5.832031 8.148438 -6.117188 7.921875 -6.359375 C 7.703125 -6.597656 7.429688 -6.785156 7.109375 -6.921875 C 6.796875 -7.054688 6.453125 -7.125 6.078125 -7.125 C 5.828125 -7.125 5.597656 -7.085938 5.390625 -7.015625 C 5.179688 -6.941406 5 -6.847656 4.84375 -6.734375 C 4.6875 -6.617188 4.554688 -6.488281 4.453125 -6.34375 C 4.347656 -6.207031 4.28125 -6.070312 4.25 -5.9375 Z M 1.40625 -5.9375 "/></g></g></g><g fill="#e5c0a1" fill-opacity="1"><g transform="translate(152.246135, 58.706802)"><g><path d="M 4.84375 -1.40625 L 4.84375 -11.9375 L 4.625 -11.9375 L 2.5625 -7.203125 L 1.0625 -7.203125 L 1.0625 -7.3125 L 3.421875 -12.59375 L 6.359375 -12.59375 L 6.359375 -1.40625 L 9.921875 -1.40625 L 9.921875 0 L 1.28125 0 L 1.28125 -1.40625 Z M 4.84375 -1.40625 "/></g></g></g><g fill="#e5c0a1" fill-opacity="1"><g transform="translate(163.262103, 58.706802)"><g><path d="M 1.078125 -7.703125 C 1.078125 -9.335938 1.46875 -10.601562 2.25 -11.5 C 3.03125 -12.40625 4.117188 -12.859375 5.515625 -12.859375 C 6.898438 -12.859375 7.984375 -12.40625 8.765625 -11.5 C 9.546875 -10.601562 9.9375 -9.335938 9.9375 -7.703125 L 9.9375 -4.890625 C 9.9375 -3.210938 9.546875 -1.9375 8.765625 -1.0625 C 7.984375 -0.1875 6.898438 0.25 5.515625 0.25 C 4.117188 0.25 3.03125 -0.1875 2.25 -1.0625 C 1.46875 -1.9375 1.078125 -3.210938 1.078125 -4.890625 Z M 5.515625 -1.109375 C 6.484375 -1.109375 7.207031 -1.445312 7.6875 -2.125 C 8.175781 -2.8125 8.421875 -3.769531 8.421875 -5 L 8.421875 -7.59375 C 8.421875 -8.164062 8.359375 -8.6875 8.234375 -9.15625 C 8.117188 -9.632812 7.9375 -10.046875 7.6875 -10.390625 C 7.445312 -10.734375 7.144531 -11 6.78125 -11.1875 C 6.414062 -11.382812 5.992188 -11.484375 5.515625 -11.484375 C 5.015625 -11.484375 4.582031 -11.382812 4.21875 -11.1875 C 3.863281 -11 3.5625 -10.734375 3.3125 -10.390625 C 3.070312 -10.046875 2.890625 -9.632812 2.765625 -9.15625 C 2.648438 -8.6875 2.59375 -8.164062 2.59375 -7.59375 L 2.59375 -5 C 2.59375 -3.769531 2.832031 -2.8125 3.3125 -2.125 C 3.800781 -1.445312 4.535156 -1.109375 5.515625 -1.109375 Z M 4.359375 -6.296875 C 4.359375 -6.609375 4.472656 -6.878906 4.703125 -7.109375 C 4.929688 -7.335938 5.203125 -7.453125 5.515625 -7.453125 C 5.816406 -7.453125 6.082031 -7.335938 6.3125 -7.109375 C 6.539062 -6.878906 6.65625 -6.609375 6.65625 -6.296875 C 6.65625 -5.984375 6.539062 -5.710938 6.3125 -5.484375 C 6.082031 -5.253906 5.816406 -5.140625 5.515625 -5.140625 C 5.203125 -5.140625 4.929688 -5.253906 4.703125 -5.484375 C 4.472656 -5.710938 4.359375 -5.984375 4.359375 -6.296875 Z M 4.359375 -6.296875 "/></g></g></g><g fill="#e5c0a1" fill-opacity="1"><g transform="translate(174.278071, 58.706802)"><g/></g></g><g fill="#e5c0a1" fill-opacity="1"><g transform="translate(185.294038, 58.706802)"><g><path d="M 8.484375 -8.96875 C 8.484375 -9.375 8.398438 -9.734375 8.234375 -10.046875 C 8.066406 -10.359375 7.84375 -10.613281 7.5625 -10.8125 C 7.289062 -11.019531 6.972656 -11.175781 6.609375 -11.28125 C 6.253906 -11.394531 5.878906 -11.453125 5.484375 -11.453125 C 5.140625 -11.453125 4.8125 -11.40625 4.5 -11.3125 C 4.1875 -11.21875 3.90625 -11.085938 3.65625 -10.921875 C 3.414062 -10.753906 3.222656 -10.546875 3.078125 -10.296875 C 2.929688 -10.054688 2.859375 -9.773438 2.859375 -9.453125 L 2.859375 -9.34375 C 2.859375 -8.988281 2.929688 -8.6875 3.078125 -8.4375 C 3.222656 -8.195312 3.4375 -7.988281 3.71875 -7.8125 C 4 -7.644531 4.347656 -7.503906 4.765625 -7.390625 C 5.191406 -7.273438 5.6875 -7.175781 6.25 -7.09375 C 7.5625 -6.882812 8.53125 -6.492188 9.15625 -5.921875 C 9.78125 -5.359375 10.09375 -4.597656 10.09375 -3.640625 L 10.09375 -3.421875 C 10.09375 -2.878906 10 -2.382812 9.8125 -1.9375 C 9.632812 -1.488281 9.359375 -1.097656 8.984375 -0.765625 C 8.617188 -0.441406 8.164062 -0.191406 7.625 -0.015625 C 7.09375 0.160156 6.472656 0.25 5.765625 0.25 C 4.953125 0.25 4.238281 0.132812 3.625 -0.09375 C 3.007812 -0.332031 2.492188 -0.65625 2.078125 -1.0625 C 1.660156 -1.476562 1.34375 -1.960938 1.125 -2.515625 C 0.914062 -3.078125 0.8125 -3.691406 0.8125 -4.359375 L 0.8125 -4.890625 L 2.328125 -4.890625 L 2.328125 -4.46875 C 2.328125 -3.363281 2.628906 -2.535156 3.234375 -1.984375 C 3.835938 -1.429688 4.679688 -1.15625 5.765625 -1.15625 C 6.691406 -1.15625 7.394531 -1.359375 7.875 -1.765625 C 8.351562 -2.179688 8.59375 -2.734375 8.59375 -3.421875 L 8.59375 -3.53125 C 8.59375 -4.1875 8.347656 -4.6875 7.859375 -5.03125 C 7.367188 -5.382812 6.578125 -5.640625 5.484375 -5.796875 C 4.847656 -5.878906 4.273438 -6.003906 3.765625 -6.171875 C 3.253906 -6.347656 2.816406 -6.578125 2.453125 -6.859375 C 2.097656 -7.148438 1.820312 -7.492188 1.625 -7.890625 C 1.4375 -8.285156 1.34375 -8.75 1.34375 -9.28125 L 1.34375 -9.5 C 1.34375 -9.988281 1.445312 -10.4375 1.65625 -10.84375 C 1.863281 -11.257812 2.148438 -11.613281 2.515625 -11.90625 C 2.878906 -12.207031 3.316406 -12.441406 3.828125 -12.609375 C 4.335938 -12.773438 4.898438 -12.859375 5.515625 -12.859375 C 6.210938 -12.859375 6.84375 -12.753906 7.40625 -12.546875 C 7.96875 -12.335938 8.4375 -12.0625 8.8125 -11.71875 C 9.195312 -11.382812 9.488281 -10.984375 9.6875 -10.515625 C 9.882812 -10.054688 9.984375 -9.578125 9.984375 -9.078125 L 9.984375 -8.3125 L 8.484375 -8.3125 Z M 8.484375 -8.96875 "/></g></g></g><g fill="#e5c0a1" fill-opacity="1"><g transform="translate(196.310006, 58.706802)"><g><path d="M 9.796875 -1.40625 L 9.796875 0 L 1.265625 0 L 1.265625 -2.15625 C 1.265625 -2.738281 1.359375 -3.238281 1.546875 -3.65625 C 1.742188 -4.082031 2.015625 -4.445312 2.359375 -4.75 C 2.710938 -5.0625 3.140625 -5.316406 3.640625 -5.515625 C 4.148438 -5.722656 4.722656 -5.898438 5.359375 -6.046875 C 6.429688 -6.285156 7.203125 -6.625 7.671875 -7.0625 C 8.148438 -7.507812 8.390625 -8.0625 8.390625 -8.71875 L 8.390625 -8.8125 C 8.390625 -9.144531 8.332031 -9.460938 8.21875 -9.765625 C 8.113281 -10.078125 7.945312 -10.359375 7.71875 -10.609375 C 7.488281 -10.867188 7.195312 -11.070312 6.84375 -11.21875 C 6.488281 -11.375 6.066406 -11.453125 5.578125 -11.453125 C 4.648438 -11.453125 3.929688 -11.164062 3.421875 -10.59375 C 2.910156 -10.03125 2.65625 -9.285156 2.65625 -8.359375 L 2.65625 -7.5625 L 1.15625 -7.5625 L 1.15625 -8.453125 C 1.15625 -9.035156 1.25 -9.585938 1.4375 -10.109375 C 1.632812 -10.640625 1.914062 -11.109375 2.28125 -11.515625 C 2.65625 -11.921875 3.117188 -12.242188 3.671875 -12.484375 C 4.222656 -12.734375 4.859375 -12.859375 5.578125 -12.859375 C 6.304688 -12.859375 6.941406 -12.742188 7.484375 -12.515625 C 8.023438 -12.296875 8.472656 -12.003906 8.828125 -11.640625 C 9.191406 -11.273438 9.460938 -10.859375 9.640625 -10.390625 C 9.816406 -9.929688 9.90625 -9.460938 9.90625 -8.984375 L 9.90625 -8.65625 C 9.90625 -7.695312 9.601562 -6.878906 9 -6.203125 C 8.394531 -5.523438 7.4375 -5.039062 6.125 -4.75 C 4.96875 -4.5 4.117188 -4.164062 3.578125 -3.75 C 3.035156 -3.332031 2.765625 -2.726562 2.765625 -1.9375 L 2.765625 -1.40625 Z M 9.796875 -1.40625 "/></g></g></g><g fill="#e5c0a1" fill-opacity="1"><g transform="translate(207.325974, 58.706802)"><g><path d="M 4.265625 -6.265625 L 4.265625 -8.359375 L 8.375 -10.984375 L 8.375 -11.203125 L 1.234375 -11.203125 L 1.234375 -12.59375 L 9.671875 -12.59375 L 9.671875 -10.296875 L 5.5625 -7.671875 L 5.5625 -7.453125 L 6.28125 -7.453125 C 6.757812 -7.453125 7.21875 -7.375 7.65625 -7.21875 C 8.101562 -7.0625 8.5 -6.832031 8.84375 -6.53125 C 9.1875 -6.226562 9.460938 -5.859375 9.671875 -5.421875 C 9.878906 -4.984375 9.984375 -4.476562 9.984375 -3.90625 L 9.984375 -3.578125 C 9.984375 -3.035156 9.875 -2.53125 9.65625 -2.0625 C 9.445312 -1.601562 9.148438 -1.203125 8.765625 -0.859375 C 8.378906 -0.515625 7.925781 -0.242188 7.40625 -0.046875 C 6.882812 0.148438 6.316406 0.25 5.703125 0.25 C 4.992188 0.25 4.359375 0.144531 3.796875 -0.0625 C 3.234375 -0.28125 2.753906 -0.578125 2.359375 -0.953125 C 1.960938 -1.335938 1.660156 -1.785156 1.453125 -2.296875 C 1.242188 -2.804688 1.140625 -3.347656 1.140625 -3.921875 L 1.140625 -4.890625 L 2.640625 -4.890625 L 2.640625 -4.03125 C 2.640625 -3.570312 2.710938 -3.164062 2.859375 -2.8125 C 3.015625 -2.457031 3.226562 -2.15625 3.5 -1.90625 C 3.769531 -1.664062 4.085938 -1.476562 4.453125 -1.34375 C 4.828125 -1.21875 5.234375 -1.15625 5.671875 -1.15625 C 6.066406 -1.15625 6.4375 -1.21875 6.78125 -1.34375 C 7.125 -1.476562 7.421875 -1.660156 7.671875 -1.890625 C 7.921875 -2.128906 8.117188 -2.40625 8.265625 -2.71875 C 8.410156 -3.039062 8.484375 -3.382812 8.484375 -3.75 L 8.484375 -3.859375 C 8.484375 -4.609375 8.238281 -5.195312 7.75 -5.625 C 7.269531 -6.050781 6.671875 -6.265625 5.953125 -6.265625 Z M 4.265625 -6.265625 "/></g></g></g><g fill="#e5c0a1" fill-opacity="1"><g transform="translate(712.831312, 58.706802)"><g><path d="M 4.84375 -1.40625 L 4.84375 -11.9375 L 4.625 -11.9375 L 2.5625 -7.203125 L 1.0625 -7.203125 L 1.0625 -7.3125 L 3.421875 -12.59375 L 6.359375 -12.59375 L 6.359375 -1.40625 L 9.921875 -1.40625 L 9.921875 0 L 1.28125 0 L 1.28125 -1.40625 Z M 4.84375 -1.40625 "/></g></g></g><g fill="#e5c0a1" fill-opacity="1"><g transform="translate(723.84728, 58.706802)"><g><path d="M 7.5 -14.515625 L 8.765625 -14.109375 L 3.53125 1.90625 L 2.25 1.515625 Z M 7.5 -14.515625 "/></g></g></g><g fill="#e5c0a1" fill-opacity="1"><g transform="translate(734.863248, 58.706802)"><g><path d="M 4.84375 -1.40625 L 4.84375 -11.9375 L 4.625 -11.9375 L 2.5625 -7.203125 L 1.0625 -7.203125 L 1.0625 -7.3125 L 3.421875 -12.59375 L 6.359375 -12.59375 L 6.359375 -1.40625 L 9.921875 -1.40625 L 9.921875 0 L 1.28125 0 L 1.28125 -1.40625 Z M 4.84375 -1.40625 "/></g></g></g><g fill="#e5c0a1" fill-opacity="1"><g transform="translate(745.879216, 58.706802)"><g><path d="M 1.078125 -7.703125 C 1.078125 -9.335938 1.46875 -10.601562 2.25 -11.5 C 3.03125 -12.40625 4.117188 -12.859375 5.515625 -12.859375 C 6.898438 -12.859375 7.984375 -12.40625 8.765625 -11.5 C 9.546875 -10.601562 9.9375 -9.335938 9.9375 -7.703125 L 9.9375 -4.890625 C 9.9375 -3.210938 9.546875 -1.9375 8.765625 -1.0625 C 7.984375 -0.1875 6.898438 0.25 5.515625 0.25 C 4.117188 0.25 3.03125 -0.1875 2.25 -1.0625 C 1.46875 -1.9375 1.078125 -3.210938 1.078125 -4.890625 Z M 5.515625 -1.109375 C 6.484375 -1.109375 7.207031 -1.445312 7.6875 -2.125 C 8.175781 -2.8125 8.421875 -3.769531 8.421875 -5 L 8.421875 -7.59375 C 8.421875 -8.164062 8.359375 -8.6875 8.234375 -9.15625 C 8.117188 -9.632812 7.9375 -10.046875 7.6875 -10.390625 C 7.445312 -10.734375 7.144531 -11 6.78125 -11.1875 C 6.414062 -11.382812 5.992188 -11.484375 5.515625 -11.484375 C 5.015625 -11.484375 4.582031 -11.382812 4.21875 -11.1875 C 3.863281 -11 3.5625 -10.734375 3.3125 -10.390625 C 3.070312 -10.046875 2.890625 -9.632812 2.765625 -9.15625 C 2.648438 -8.6875 2.59375 -8.164062 2.59375 -7.59375 L 2.59375 -5 C 2.59375 -3.769531 2.832031 -2.8125 3.3125 -2.125 C 3.800781 -1.445312 4.535156 -1.109375 5.515625 -1.109375 Z M 4.359375 -6.296875 C 4.359375 -6.609375 4.472656 -6.878906 4.703125 -7.109375 C 4.929688 -7.335938 5.203125 -7.453125 5.515625 -7.453125 C 5.816406 -7.453125 6.082031 -7.335938 6.3125 -7.109375 C 6.539062 -6.878906 6.65625 -6.609375 6.65625 -6.296875 C 6.65625 -5.984375 6.539062 -5.710938 6.3125 -5.484375 C 6.082031 -5.253906 5.816406 -5.140625 5.515625 -5.140625 C 5.203125 -5.140625 4.929688 -5.253906 4.703125 -5.484375 C 4.472656 -5.710938 4.359375 -5.984375 4.359375 -6.296875 Z M 4.359375 -6.296875 "/></g></g></g><g fill="#e5c0a1" fill-opacity="1"><g transform="translate(54.594618, 764.48847)"><g><path d="M 3.046875 -5.1875 L 3.046875 0 L 1.53125 0 L 1.53125 -12.59375 L 6.03125 -12.59375 C 6.675781 -12.59375 7.238281 -12.5 7.71875 -12.3125 C 8.195312 -12.132812 8.59375 -11.890625 8.90625 -11.578125 C 9.226562 -11.265625 9.46875 -10.898438 9.625 -10.484375 C 9.789062 -10.066406 9.875 -9.632812 9.875 -9.1875 L 9.875 -8.640625 C 9.875 -8.179688 9.789062 -7.742188 9.625 -7.328125 C 9.46875 -6.910156 9.226562 -6.539062 8.90625 -6.21875 C 8.582031 -5.894531 8.179688 -5.640625 7.703125 -5.453125 C 7.222656 -5.273438 6.664062 -5.1875 6.03125 -5.1875 Z M 3.046875 -6.59375 L 5.84375 -6.59375 C 7.53125 -6.59375 8.375 -7.3125 8.375 -8.75 L 8.375 -9.078125 C 8.375 -9.710938 8.164062 -10.222656 7.75 -10.609375 C 7.332031 -11.003906 6.695312 -11.203125 5.84375 -11.203125 L 3.046875 -11.203125 Z M 3.046875 -6.59375 "/></g></g></g><g fill="#e5c0a1" fill-opacity="1"><g transform="translate(65.610585, 764.48847)"><g><path d="M 1.0625 -8.921875 L 4.296875 -8.921875 L 4.296875 -7.734375 L 4.515625 -7.734375 C 4.742188 -8.234375 5.066406 -8.597656 5.484375 -8.828125 C 5.910156 -9.066406 6.394531 -9.1875 6.9375 -9.1875 C 7.832031 -9.1875 8.554688 -8.890625 9.109375 -8.296875 C 9.660156 -7.710938 9.953125 -6.851562 9.984375 -5.71875 L 8.515625 -5.515625 C 8.515625 -6.335938 8.316406 -6.929688 7.921875 -7.296875 C 7.523438 -7.660156 7.039062 -7.84375 6.46875 -7.84375 C 6.09375 -7.84375 5.769531 -7.769531 5.5 -7.625 C 5.226562 -7.488281 5 -7.289062 4.8125 -7.03125 C 4.632812 -6.78125 4.503906 -6.488281 4.421875 -6.15625 C 4.335938 -5.820312 4.296875 -5.460938 4.296875 -5.078125 L 4.296875 -1.296875 L 6.5625 -1.296875 L 6.5625 0 L 0.84375 0 L 0.84375 -1.296875 L 2.890625 -1.296875 L 2.890625 -7.625 L 1.0625 -7.625 Z M 1.0625 -8.921875 "/></g></g></g><g fill="#e5c0a1" fill-opacity="1"><g transform="translate(76.626553, 764.48847)"><g><path d="M 9.984375 -4.359375 C 9.984375 -3.609375 9.859375 -2.945312 9.609375 -2.375 C 9.367188 -1.8125 9.046875 -1.332031 8.640625 -0.9375 C 8.234375 -0.550781 7.753906 -0.253906 7.203125 -0.046875 C 6.660156 0.148438 6.097656 0.25 5.515625 0.25 C 4.910156 0.25 4.335938 0.148438 3.796875 -0.046875 C 3.253906 -0.253906 2.78125 -0.550781 2.375 -0.9375 C 1.96875 -1.332031 1.640625 -1.8125 1.390625 -2.375 C 1.148438 -2.945312 1.03125 -3.609375 1.03125 -4.359375 L 1.03125 -4.578125 C 1.03125 -5.304688 1.148438 -5.953125 1.390625 -6.515625 C 1.640625 -7.085938 1.96875 -7.570312 2.375 -7.96875 C 2.789062 -8.363281 3.269531 -8.664062 3.8125 -8.875 C 4.351562 -9.082031 4.921875 -9.1875 5.515625 -9.1875 C 6.097656 -9.1875 6.660156 -9.082031 7.203125 -8.875 C 7.742188 -8.664062 8.21875 -8.363281 8.625 -7.96875 C 9.039062 -7.570312 9.367188 -7.085938 9.609375 -6.515625 C 9.859375 -5.953125 9.984375 -5.304688 9.984375 -4.578125 Z M 5.515625 -1.078125 C 5.941406 -1.078125 6.335938 -1.148438 6.703125 -1.296875 C 7.066406 -1.453125 7.382812 -1.671875 7.65625 -1.953125 C 7.9375 -2.242188 8.15625 -2.585938 8.3125 -2.984375 C 8.46875 -3.390625 8.546875 -3.847656 8.546875 -4.359375 L 8.546875 -4.578125 C 8.546875 -5.054688 8.46875 -5.492188 8.3125 -5.890625 C 8.15625 -6.296875 7.9375 -6.640625 7.65625 -6.921875 C 7.382812 -7.210938 7.0625 -7.4375 6.6875 -7.59375 C 6.320312 -7.757812 5.929688 -7.84375 5.515625 -7.84375 C 5.085938 -7.84375 4.6875 -7.757812 4.3125 -7.59375 C 3.945312 -7.4375 3.625 -7.210938 3.34375 -6.921875 C 3.070312 -6.640625 2.859375 -6.296875 2.703125 -5.890625 C 2.546875 -5.492188 2.46875 -5.054688 2.46875 -4.578125 L 2.46875 -4.359375 C 2.46875 -3.847656 2.546875 -3.390625 2.703125 -2.984375 C 2.859375 -2.585938 3.070312 -2.242188 3.34375 -1.953125 C 3.625 -1.671875 3.945312 -1.453125 4.3125 -1.296875 C 4.675781 -1.148438 5.078125 -1.078125 5.515625 -1.078125 Z M 5.515625 -1.078125 "/></g></g></g><g fill="#e5c0a1" fill-opacity="1"><g transform="translate(87.642521, 764.48847)"><g><path d="M 1.46875 -8.921875 L 4.234375 -8.921875 L 4.234375 -11.203125 C 4.234375 -11.609375 4.359375 -11.941406 4.609375 -12.203125 C 4.867188 -12.460938 5.203125 -12.59375 5.609375 -12.59375 L 9.140625 -12.59375 L 9.140625 -11.296875 L 6.125 -11.296875 C 5.800781 -11.296875 5.640625 -11.117188 5.640625 -10.765625 L 5.640625 -8.921875 L 9.359375 -8.921875 L 9.359375 -7.625 L 5.640625 -7.625 L 5.640625 0 L 4.234375 0 L 4.234375 -7.625 L 1.46875 -7.625 Z M 1.46875 -8.921875 "/></g></g></g><g fill="#e5c0a1" fill-opacity="1"><g transform="translate(98.658489, 764.48847)"><g><path d="M 4.25 -1.015625 C 4.25 -1.359375 4.367188 -1.648438 4.609375 -1.890625 C 4.859375 -2.140625 5.160156 -2.265625 5.515625 -2.265625 C 5.859375 -2.265625 6.148438 -2.140625 6.390625 -1.890625 C 6.640625 -1.648438 6.765625 -1.359375 6.765625 -1.015625 C 6.765625 -0.660156 6.640625 -0.359375 6.390625 -0.109375 C 6.148438 0.128906 5.859375 0.25 5.515625 0.25 C 5.160156 0.25 4.859375 0.128906 4.609375 -0.109375 C 4.367188 -0.359375 4.25 -0.660156 4.25 -1.015625 Z M 4.25 -1.015625 "/></g></g></g><g fill="#e5c0a1" fill-opacity="1"><g transform="translate(109.674457, 764.48847)"><g/></g></g><g fill="#e5c0a1" fill-opacity="1"><g transform="translate(120.690424, 764.48847)"><g><path d="M 0.828125 -12.59375 L 3.703125 -12.59375 L 5.40625 -0.640625 L 5.609375 -0.640625 L 7.3125 -12.59375 L 10.1875 -12.59375 L 10.1875 0 L 8.78125 0 L 8.78125 -11.953125 L 8.5625 -11.953125 L 6.875 0 L 4.140625 0 L 2.453125 -11.953125 L 2.234375 -11.953125 L 2.234375 0 L 0.828125 0 Z M 0.828125 -12.59375 "/></g></g></g><g fill="#e5c0a1" fill-opacity="1"><g transform="translate(131.706392, 764.48847)"><g><path d="M 8.046875 -1.515625 L 7.828125 -1.515625 C 7.535156 -0.910156 7.132812 -0.460938 6.625 -0.171875 C 6.125 0.109375 5.585938 0.25 5.015625 0.25 C 4.429688 0.25 3.882812 0.148438 3.375 -0.046875 C 2.875 -0.242188 2.4375 -0.535156 2.0625 -0.921875 C 1.6875 -1.316406 1.390625 -1.796875 1.171875 -2.359375 C 0.953125 -2.921875 0.84375 -3.570312 0.84375 -4.3125 L 0.84375 -4.609375 C 0.84375 -5.335938 0.953125 -5.984375 1.171875 -6.546875 C 1.390625 -7.109375 1.6875 -7.582031 2.0625 -7.96875 C 2.4375 -8.363281 2.875 -8.664062 3.375 -8.875 C 3.882812 -9.082031 4.421875 -9.1875 4.984375 -9.1875 C 5.597656 -9.1875 6.148438 -9.050781 6.640625 -8.78125 C 7.140625 -8.507812 7.535156 -8.09375 7.828125 -7.53125 L 8.046875 -7.53125 L 8.046875 -8.921875 L 9.453125 -8.921875 L 9.453125 -1.84375 C 9.453125 -1.476562 9.613281 -1.296875 9.9375 -1.296875 L 10.390625 -1.296875 L 10.390625 0 L 9.4375 0 C 9.019531 0 8.679688 -0.128906 8.421875 -0.390625 C 8.171875 -0.660156 8.046875 -1 8.046875 -1.40625 Z M 5.171875 -1.078125 C 5.585938 -1.078125 5.972656 -1.15625 6.328125 -1.3125 C 6.679688 -1.46875 6.984375 -1.6875 7.234375 -1.96875 C 7.484375 -2.257812 7.679688 -2.609375 7.828125 -3.015625 C 7.972656 -3.421875 8.046875 -3.867188 8.046875 -4.359375 L 8.046875 -4.578125 C 8.046875 -5.054688 7.972656 -5.492188 7.828125 -5.890625 C 7.679688 -6.296875 7.476562 -6.640625 7.21875 -6.921875 C 6.96875 -7.210938 6.664062 -7.4375 6.3125 -7.59375 C 5.957031 -7.757812 5.578125 -7.84375 5.171875 -7.84375 C 4.742188 -7.84375 4.351562 -7.765625 4 -7.609375 C 3.65625 -7.453125 3.351562 -7.234375 3.09375 -6.953125 C 2.84375 -6.671875 2.644531 -6.328125 2.5 -5.921875 C 2.351562 -5.523438 2.28125 -5.085938 2.28125 -4.609375 L 2.28125 -4.3125 C 2.28125 -3.300781 2.546875 -2.507812 3.078125 -1.9375 C 3.617188 -1.363281 4.316406 -1.078125 5.171875 -1.078125 Z M 5.171875 -1.078125 "/></g></g></g><g fill="#e5c0a1" fill-opacity="1"><g transform="translate(142.72236, 764.48847)"><g><path d="M 1.265625 -8.921875 L 4.0625 -8.921875 L 4.0625 -12.59375 L 5.46875 -12.59375 L 5.46875 -8.921875 L 8.921875 -8.921875 L 8.921875 -7.625 L 5.46875 -7.625 L 5.46875 -1.84375 C 5.46875 -1.476562 5.628906 -1.296875 5.953125 -1.296875 L 8.5 -1.296875 L 8.5 0 L 5.453125 0 C 5.046875 0 4.710938 -0.128906 4.453125 -0.390625 C 4.191406 -0.660156 4.0625 -1 4.0625 -1.40625 L 4.0625 -7.625 L 1.265625 -7.625 Z M 1.265625 -8.921875 "/></g></g></g><g fill="#e5c0a1" fill-opacity="1"><g transform="translate(153.738328, 764.48847)"><g><path d="M 1.265625 -8.921875 L 4.0625 -8.921875 L 4.0625 -12.59375 L 5.46875 -12.59375 L 5.46875 -8.921875 L 8.921875 -8.921875 L 8.921875 -7.625 L 5.46875 -7.625 L 5.46875 -1.84375 C 5.46875 -1.476562 5.628906 -1.296875 5.953125 -1.296875 L 8.5 -1.296875 L 8.5 0 L 5.453125 0 C 5.046875 0 4.710938 -0.128906 4.453125 -0.390625 C 4.191406 -0.660156 4.0625 -1 4.0625 -1.40625 L 4.0625 -7.625 L 1.265625 -7.625 Z M 1.265625 -8.921875 "/></g></g></g><g fill="#e5c0a1" fill-opacity="1"><g transform="translate(164.754296, 764.48847)"><g><path d="M 4.34375 -11.59375 C 4.34375 -11.9375 4.460938 -12.234375 4.703125 -12.484375 C 4.953125 -12.734375 5.25 -12.859375 5.59375 -12.859375 C 5.945312 -12.859375 6.242188 -12.734375 6.484375 -12.484375 C 6.734375 -12.234375 6.859375 -11.9375 6.859375 -11.59375 C 6.859375 -11.238281 6.734375 -10.9375 6.484375 -10.6875 C 6.242188 -10.445312 5.945312 -10.328125 5.59375 -10.328125 C 5.25 -10.328125 4.953125 -10.445312 4.703125 -10.6875 C 4.460938 -10.9375 4.34375 -11.238281 4.34375 -11.59375 Z M 1.78125 -1.296875 L 4.90625 -1.296875 L 4.90625 -7.625 L 2.109375 -7.625 L 2.109375 -8.921875 L 6.3125 -8.921875 L 6.3125 -1.296875 L 9.234375 -1.296875 L 9.234375 0 L 1.78125 0 Z M 1.78125 -1.296875 "/></g></g></g><g fill="#e5c0a1" fill-opacity="1"><g transform="translate(175.770263, 764.48847)"><g><path d="M 2.59375 -4.03125 C 2.625 -3.144531 2.894531 -2.429688 3.40625 -1.890625 C 3.925781 -1.347656 4.648438 -1.078125 5.578125 -1.078125 C 5.992188 -1.078125 6.359375 -1.125 6.671875 -1.21875 C 6.984375 -1.320312 7.25 -1.457031 7.46875 -1.625 C 7.695312 -1.789062 7.878906 -1.984375 8.015625 -2.203125 C 8.148438 -2.421875 8.265625 -2.660156 8.359375 -2.921875 L 9.6875 -2.5625 C 9.4375 -1.726562 8.96875 -1.050781 8.28125 -0.53125 C 7.601562 -0.0078125 6.691406 0.25 5.546875 0.25 C 4.910156 0.25 4.320312 0.140625 3.78125 -0.078125 C 3.25 -0.296875 2.789062 -0.609375 2.40625 -1.015625 C 2.03125 -1.429688 1.734375 -1.921875 1.515625 -2.484375 C 1.296875 -3.046875 1.1875 -3.671875 1.1875 -4.359375 L 1.1875 -4.78125 C 1.1875 -5.40625 1.296875 -5.988281 1.515625 -6.53125 C 1.742188 -7.070312 2.054688 -7.535156 2.453125 -7.921875 C 2.847656 -8.316406 3.3125 -8.625 3.84375 -8.84375 C 4.375 -9.070312 4.953125 -9.1875 5.578125 -9.1875 C 6.304688 -9.1875 6.9375 -9.050781 7.46875 -8.78125 C 8.007812 -8.507812 8.453125 -8.175781 8.796875 -7.78125 C 9.140625 -7.382812 9.390625 -6.953125 9.546875 -6.484375 C 9.710938 -6.015625 9.796875 -5.582031 9.796875 -5.1875 L 9.796875 -4.03125 Z M 5.578125 -7.84375 C 5.179688 -7.84375 4.8125 -7.78125 4.46875 -7.65625 C 4.125 -7.53125 3.820312 -7.351562 3.5625 -7.125 C 3.3125 -6.894531 3.101562 -6.628906 2.9375 -6.328125 C 2.78125 -6.023438 2.675781 -5.691406 2.625 -5.328125 L 8.390625 -5.328125 C 8.367188 -5.710938 8.273438 -6.0625 8.109375 -6.375 C 7.941406 -6.6875 7.726562 -6.945312 7.46875 -7.15625 C 7.21875 -7.375 6.925781 -7.539062 6.59375 -7.65625 C 6.269531 -7.78125 5.929688 -7.84375 5.578125 -7.84375 Z M 5.578125 -7.84375 "/></g></g></g><g fill="#e5c0a1" fill-opacity="1"><g transform="translate(186.786231, 764.48847)"><g/></g></g><g fill="#e5c0a1" fill-opacity="1"><g transform="translate(197.802199, 764.48847)"><g><path d="M 1.03125 -1.40625 L 2.109375 -1.40625 L 2.109375 -11.203125 L 1.03125 -11.203125 L 1.03125 -12.59375 L 6.125 -12.59375 C 6.71875 -12.59375 7.242188 -12.507812 7.703125 -12.34375 C 8.171875 -12.175781 8.5625 -11.945312 8.875 -11.65625 C 9.195312 -11.375 9.4375 -11.03125 9.59375 -10.625 C 9.757812 -10.226562 9.84375 -9.796875 9.84375 -9.328125 L 9.84375 -9.109375 C 9.84375 -8.765625 9.785156 -8.445312 9.671875 -8.15625 C 9.566406 -7.863281 9.421875 -7.601562 9.234375 -7.375 C 9.046875 -7.144531 8.820312 -6.945312 8.5625 -6.78125 C 8.300781 -6.625 8.019531 -6.503906 7.71875 -6.421875 L 7.71875 -6.203125 C 8.320312 -6.035156 8.828125 -5.710938 9.234375 -5.234375 C 9.640625 -4.765625 9.84375 -4.191406 9.84375 -3.515625 L 9.84375 -3.296875 C 9.84375 -2.828125 9.757812 -2.390625 9.59375 -1.984375 C 9.4375 -1.585938 9.195312 -1.238281 8.875 -0.9375 C 8.5625 -0.644531 8.171875 -0.414062 7.703125 -0.25 C 7.242188 -0.0820312 6.71875 0 6.125 0 L 1.03125 0 Z M 3.625 -1.40625 L 6.015625 -1.40625 C 6.722656 -1.40625 7.296875 -1.582031 7.734375 -1.9375 C 8.179688 -2.289062 8.40625 -2.78125 8.40625 -3.40625 L 8.40625 -3.515625 C 8.40625 -4.160156 8.191406 -4.671875 7.765625 -5.046875 C 7.347656 -5.421875 6.78125 -5.609375 6.0625 -5.609375 L 3.625 -5.609375 Z M 3.625 -7.015625 L 6.0625 -7.015625 C 6.78125 -7.015625 7.347656 -7.203125 7.765625 -7.578125 C 8.191406 -7.953125 8.40625 -8.460938 8.40625 -9.109375 L 8.40625 -9.21875 C 8.40625 -9.832031 8.179688 -10.316406 7.734375 -10.671875 C 7.296875 -11.023438 6.722656 -11.203125 6.015625 -11.203125 L 3.625 -11.203125 Z M 3.625 -7.015625 "/></g></g></g><g fill="#e5c0a1" fill-opacity="1"><g transform="translate(208.818167, 764.48847)"><g><path d="M 7.9375 -8.921875 L 9.34375 -8.921875 L 9.34375 0 L 7.9375 0 L 7.9375 -1.625 L 7.71875 -1.625 C 7.4375 -1.039062 7.0625 -0.582031 6.59375 -0.25 C 6.125 0.0820312 5.53125 0.25 4.8125 0.25 C 4.3125 0.25 3.851562 0.164062 3.4375 0 C 3.03125 -0.15625 2.675781 -0.394531 2.375 -0.71875 C 2.082031 -1.039062 1.851562 -1.441406 1.6875 -1.921875 C 1.53125 -2.398438 1.453125 -2.957031 1.453125 -3.59375 L 1.453125 -8.921875 L 2.859375 -8.921875 L 2.859375 -3.78125 C 2.859375 -2.84375 3.050781 -2.15625 3.4375 -1.71875 C 3.820312 -1.289062 4.410156 -1.078125 5.203125 -1.078125 C 6.054688 -1.078125 6.722656 -1.367188 7.203125 -1.953125 C 7.691406 -2.535156 7.9375 -3.3125 7.9375 -4.28125 Z M 7.9375 -8.921875 "/></g></g></g><g fill="#e5c0a1" fill-opacity="1"><g transform="translate(219.834134, 764.48847)"><g><path d="M 1.0625 -8.921875 L 4.296875 -8.921875 L 4.296875 -7.734375 L 4.515625 -7.734375 C 4.742188 -8.234375 5.066406 -8.597656 5.484375 -8.828125 C 5.910156 -9.066406 6.394531 -9.1875 6.9375 -9.1875 C 7.832031 -9.1875 8.554688 -8.890625 9.109375 -8.296875 C 9.660156 -7.710938 9.953125 -6.851562 9.984375 -5.71875 L 8.515625 -5.515625 C 8.515625 -6.335938 8.316406 -6.929688 7.921875 -7.296875 C 7.523438 -7.660156 7.039062 -7.84375 6.46875 -7.84375 C 6.09375 -7.84375 5.769531 -7.769531 5.5 -7.625 C 5.226562 -7.488281 5 -7.289062 4.8125 -7.03125 C 4.632812 -6.78125 4.503906 -6.488281 4.421875 -6.15625 C 4.335938 -5.820312 4.296875 -5.460938 4.296875 -5.078125 L 4.296875 -1.296875 L 6.5625 -1.296875 L 6.5625 0 L 0.84375 0 L 0.84375 -1.296875 L 2.890625 -1.296875 L 2.890625 -7.625 L 1.0625 -7.625 Z M 1.0625 -8.921875 "/></g></g></g><g fill="#e5c0a1" fill-opacity="1"><g transform="translate(230.850102, 764.48847)"><g><path d="M 3.875 -5.21875 L 4.171875 -5.21875 L 7.578125 -8.921875 L 9.3125 -8.921875 L 9.3125 -8.8125 L 5.59375 -4.734375 L 5.59375 -4.40625 L 9.734375 -0.109375 L 9.734375 0 L 8.015625 0 L 4.21875 -3.921875 L 3.875 -3.921875 L 3.875 0 L 2.46875 0 L 2.46875 -12.59375 L 3.875 -12.59375 Z M 3.875 -5.21875 "/></g></g></g><g fill="#e5c0a1" fill-opacity="1"><g transform="translate(241.86607, 764.48847)"><g><path d="M 2.59375 -4.03125 C 2.625 -3.144531 2.894531 -2.429688 3.40625 -1.890625 C 3.925781 -1.347656 4.648438 -1.078125 5.578125 -1.078125 C 5.992188 -1.078125 6.359375 -1.125 6.671875 -1.21875 C 6.984375 -1.320312 7.25 -1.457031 7.46875 -1.625 C 7.695312 -1.789062 7.878906 -1.984375 8.015625 -2.203125 C 8.148438 -2.421875 8.265625 -2.660156 8.359375 -2.921875 L 9.6875 -2.5625 C 9.4375 -1.726562 8.96875 -1.050781 8.28125 -0.53125 C 7.601562 -0.0078125 6.691406 0.25 5.546875 0.25 C 4.910156 0.25 4.320312 0.140625 3.78125 -0.078125 C 3.25 -0.296875 2.789062 -0.609375 2.40625 -1.015625 C 2.03125 -1.429688 1.734375 -1.921875 1.515625 -2.484375 C 1.296875 -3.046875 1.1875 -3.671875 1.1875 -4.359375 L 1.1875 -4.78125 C 1.1875 -5.40625 1.296875 -5.988281 1.515625 -6.53125 C 1.742188 -7.070312 2.054688 -7.535156 2.453125 -7.921875 C 2.847656 -8.316406 3.3125 -8.625 3.84375 -8.84375 C 4.375 -9.070312 4.953125 -9.1875 5.578125 -9.1875 C 6.304688 -9.1875 6.9375 -9.050781 7.46875 -8.78125 C 8.007812 -8.507812 8.453125 -8.175781 8.796875 -7.78125 C 9.140625 -7.382812 9.390625 -6.953125 9.546875 -6.484375 C 9.710938 -6.015625 9.796875 -5.582031 9.796875 -5.1875 L 9.796875 -4.03125 Z M 5.578125 -7.84375 C 5.179688 -7.84375 4.8125 -7.78125 4.46875 -7.65625 C 4.125 -7.53125 3.820312 -7.351562 3.5625 -7.125 C 3.3125 -6.894531 3.101562 -6.628906 2.9375 -6.328125 C 2.78125 -6.023438 2.675781 -5.691406 2.625 -5.328125 L 8.390625 -5.328125 C 8.367188 -5.710938 8.273438 -6.0625 8.109375 -6.375 C 7.941406 -6.6875 7.726562 -6.945312 7.46875 -7.15625 C 7.21875 -7.375 6.925781 -7.539062 6.59375 -7.65625 C 6.269531 -7.78125 5.929688 -7.84375 5.578125 -7.84375 Z M 5.578125 -7.84375 "/></g></g></g><g fill="#e5c0a1" fill-opacity="1"><g transform="translate(252.882038, 764.48847)"><g><path d="M 1.0625 -8.921875 L 4.296875 -8.921875 L 4.296875 -7.734375 L 4.515625 -7.734375 C 4.742188 -8.234375 5.066406 -8.597656 5.484375 -8.828125 C 5.910156 -9.066406 6.394531 -9.1875 6.9375 -9.1875 C 7.832031 -9.1875 8.554688 -8.890625 9.109375 -8.296875 C 9.660156 -7.710938 9.953125 -6.851562 9.984375 -5.71875 L 8.515625 -5.515625 C 8.515625 -6.335938 8.316406 -6.929688 7.921875 -7.296875 C 7.523438 -7.660156 7.039062 -7.84375 6.46875 -7.84375 C 6.09375 -7.84375 5.769531 -7.769531 5.5 -7.625 C 5.226562 -7.488281 5 -7.289062 4.8125 -7.03125 C 4.632812 -6.78125 4.503906 -6.488281 4.421875 -6.15625 C 4.335938 -5.820312 4.296875 -5.460938 4.296875 -5.078125 L 4.296875 -1.296875 L 6.5625 -1.296875 L 6.5625 0 L 0.84375 0 L 0.84375 -1.296875 L 2.890625 -1.296875 L 2.890625 -7.625 L 1.0625 -7.625 Z M 1.0625 -8.921875 "/></g></g></g><g fill="#e5c0a1" fill-opacity="1"><g transform="translate(263.898006, 764.48847)"><g><path d="M 1.265625 -8.921875 L 4.0625 -8.921875 L 4.0625 -12.59375 L 5.46875 -12.59375 L 5.46875 -8.921875 L 8.921875 -8.921875 L 8.921875 -7.625 L 5.46875 -7.625 L 5.46875 -1.84375 C 5.46875 -1.476562 5.628906 -1.296875 5.953125 -1.296875 L 8.5 -1.296875 L 8.5 0 L 5.453125 0 C 5.046875 0 4.710938 -0.128906 4.453125 -0.390625 C 4.191406 -0.660156 4.0625 -1 4.0625 -1.40625 L 4.0625 -7.625 L 1.265625 -7.625 Z M 1.265625 -8.921875 "/></g></g></g><g fill="#e5c0a1" fill-opacity="1"><g transform="translate(274.907106, 764.48847)"><g/></g></g></svg>