<svg xmlns="http://www.w3.org/2000/svg" xmlns:xlink="http://www.w3.org/1999/xlink" width="1080" zoomAndPan="magnify" viewBox="0 0 810 809.999993" height="1080" preserveAspectRatio="xMidYMid meet" version="1.0"><defs><g/><clipPath id="fc91139a1b"><path d="M 639.253906 462.316406 L 810 462.316406 L 810 590.402344 L 639.253906 590.402344 Z M 639.253906 462.316406 " clip-rule="nonzero"/></clipPath><clipPath id="27894ad068"><path d="M 1210.152344 462.316406 C 1207.101562 462.316406 1204.664062 464.757812 1204.664062 467.804688 C 1204.664062 468.621094 1204.867188 469.433594 1205.171875 470.042969 L 1100.769531 578.507812 L 658.871094 578.507812 C 657.957031 574.035156 653.992188 570.582031 649.214844 570.582031 C 643.726562 570.582031 639.355469 575.054688 639.355469 580.441406 C 639.355469 585.929688 643.828125 590.300781 649.214844 590.300781 C 653.992188 590.300781 657.957031 586.945312 658.871094 582.371094 L 1102.5 582.371094 L 1208.015625 472.789062 C 1208.628906 473.09375 1209.339844 473.195312 1210.152344 473.195312 C 1213.203125 473.195312 1215.640625 470.753906 1215.640625 467.703125 C 1215.539062 464.757812 1213.101562 462.316406 1210.152344 462.316406 M 649.113281 584.914062 C 646.671875 584.914062 644.640625 582.878906 644.640625 580.441406 C 644.640625 578 646.671875 575.96875 649.113281 575.96875 C 651.554688 575.96875 653.585938 578 653.585938 580.441406 C 653.585938 582.878906 651.65625 584.914062 649.113281 584.914062 " clip-rule="nonzero"/></clipPath></defs><rect x="-81" width="972" fill="#ffffff" y="-80.999999" height="971.999992" fill-opacity="1"/><rect x="-81" width="972" fill="#51303b" y="-80.999999" height="971.999992" fill-opacity="1"/><g fill="#e5c0a1" fill-opacity="1"><g transform="translate(712.831312, 58.707087)"><g><path d="M 4.265625 -6.265625 L 4.265625 -8.359375 L 8.375 -10.984375 L 8.375 -11.203125 L 1.234375 -11.203125 L 1.234375 -12.59375 L 9.671875 -12.59375 L 9.671875 -10.296875 L 5.5625 -7.671875 L 5.5625 -7.453125 L 6.28125 -7.453125 C 6.757812 -7.453125 7.21875 -7.375 7.65625 -7.21875 C 8.101562 -7.0625 8.5 -6.832031 8.84375 -6.53125 C 9.1875 -6.226562 9.460938 -5.859375 9.671875 -5.421875 C 9.878906 -4.984375 9.984375 -4.476562 9.984375 -3.90625 L 9.984375 -3.578125 C 9.984375 -3.035156 9.875 -2.53125 9.65625 -2.0625 C 9.445312 -1.601562 9.148438 -1.203125 8.765625 -0.859375 C 8.378906 -0.515625 7.925781 -0.242188 7.40625 -0.046875 C 6.882812 0.148438 6.316406 0.25 5.703125 0.25 C 4.992188 0.25 4.359375 0.144531 3.796875 -0.0625 C 3.234375 -0.28125 2.753906 -0.578125 2.359375 -0.953125 C 1.960938 -1.335938 1.660156 -1.785156 1.453125 -2.296875 C 1.242188 -2.804688 1.140625 -3.347656 1.140625 -3.921875 L 1.140625 -4.890625 L 2.640625 -4.890625 L 2.640625 -4.03125 C 2.640625 -3.570312 2.710938 -3.164062 2.859375 -2.8125 C 3.015625 -2.457031 3.226562 -2.15625 3.5 -1.90625 C 3.769531 -1.664062 4.085938 -1.476562 4.453125 -1.34375 C 4.828125 -1.21875 5.234375 -1.15625 5.671875 -1.15625 C 6.066406 -1.15625 6.4375 -1.21875 6.78125 -1.34375 C 7.125 -1.476562 7.421875 -1.660156 7.671875 -1.890625 C 7.921875 -2.128906 8.117188 -2.40625 8.265625 -2.71875 C 8.410156 -3.039062 8.484375 -3.382812 8.484375 -3.75 L 8.484375 -3.859375 C 8.484375 -4.609375 8.238281 -5.195312 7.75 -5.625 C 7.269531 -6.050781 6.671875 -6.265625 5.953125 -6.265625 Z M 4.265625 -6.265625 "/></g></g></g><g fill="#e5c0a1" fill-opacity="1"><g transform="translate(723.84728, 58.707087)"><g><path d="M 7.5 -14.515625 L 8.765625 -14.109375 L 3.53125 1.90625 L 2.25 1.515625 Z M 7.5 -14.515625 "/></g></g></g><g fill="#e5c0a1" fill-opacity="1"><g transform="translate(734.863248, 58.707087)"><g><path d="M 4.84375 -1.40625 L 4.84375 -11.9375 L 4.625 -11.9375 L 2.5625 -7.203125 L 1.0625 -7.203125 L 1.0625 -7.3125 L 3.421875 -12.59375 L 6.359375 -12.59375 L 6.359375 -1.40625 L 9.921875 -1.40625 L 9.921875 0 L 1.28125 0 L 1.28125 -1.40625 Z M 4.84375 -1.40625 "/></g></g></g><g fill="#e5c0a1" fill-opacity="1"><g transform="translate(745.879216, 58.707087)"><g><path d="M 1.078125 -7.703125 C 1.078125 -9.335938 1.46875 -10.601562 2.25 -11.5 C 3.03125 -12.40625 4.117188 -12.859375 5.515625 -12.859375 C 6.898438 -12.859375 7.984375 -12.40625 8.765625 -11.5 C 9.546875 -10.601562 9.9375 -9.335938 9.9375 -7.703125 L 9.9375 -4.890625 C 9.9375 -3.210938 9.546875 -1.9375 8.765625 -1.0625 C 7.984375 -0.1875 6.898438 0.25 5.515625 0.25 C 4.117188 0.25 3.03125 -0.1875 2.25 -1.0625 C 1.46875 -1.9375 1.078125 -3.210938 1.078125 -4.890625 Z M 5.515625 -1.109375 C 6.484375 -1.109375 7.207031 -1.445312 7.6875 -2.125 C 8.175781 -2.8125 8.421875 -3.769531 8.421875 -5 L 8.421875 -7.59375 C 8.421875 -8.164062 8.359375 -8.6875 8.234375 -9.15625 C 8.117188 -9.632812 7.9375 -10.046875 7.6875 -10.390625 C 7.445312 -10.734375 7.144531 -11 6.78125 -11.1875 C 6.414062 -11.382812 5.992188 -11.484375 5.515625 -11.484375 C 5.015625 -11.484375 4.582031 -11.382812 4.21875 -11.1875 C 3.863281 -11 3.5625 -10.734375 3.3125 -10.390625 C 3.070312 -10.046875 2.890625 -9.632812 2.765625 -9.15625 C 2.648438 -8.6875 2.59375 -8.164062 2.59375 -7.59375 L 2.59375 -5 C 2.59375 -3.769531 2.832031 -2.8125 3.3125 -2.125 C 3.800781 -1.445312 4.535156 -1.109375 5.515625 -1.109375 Z M 4.359375 -6.296875 C 4.359375 -6.609375 4.472656 -6.878906 4.703125 -7.109375 C 4.929688 -7.335938 5.203125 -7.453125 5.515625 -7.453125 C 5.816406 -7.453125 6.082031 -7.335938 6.3125 -7.109375 C 6.539062 -6.878906 6.65625 -6.609375 6.65625 -6.296875 C 6.65625 -5.984375 6.539062 -5.710938 6.3125 -5.484375 C 6.082031 -5.253906 5.816406 -5.140625 5.515625 -5.140625 C 5.203125 -5.140625 4.929688 -5.253906 4.703125 -5.484375 C 4.472656 -5.710938 4.359375 -5.984375 4.359375 -6.296875 Z M 4.359375 -6.296875 "/></g></g></g><g fill="#e5c0a1" fill-opacity="1"><g transform="translate(80.999999, 241.985866)"><g><path d="M 20.25 1.40625 C 16.007812 1.40625 12.238281 0.148438 8.9375 -2.359375 C 5.644531 -4.867188 4 -9.421875 4 -16.015625 C 4 -23.941406 6.6875 -29.375 12.0625 -32.3125 C 17.445312 -35.257812 25.203125 -36.734375 35.328125 -36.734375 L 35.328125 -44.75 C 35.328125 -47.96875 34.617188 -50.4375 33.203125 -52.15625 C 31.796875 -53.882812 29.242188 -54.75 25.546875 -54.75 C 22.171875 -54.75 19.738281 -53.804688 18.25 -51.921875 C 16.757812 -50.046875 16.015625 -47.734375 16.015625 -44.984375 L 16.015625 -43.5625 L 6.46875 -43.5625 C 6.394531 -44.039062 6.359375 -44.90625 6.359375 -46.15625 C 6.359375 -51.65625 8.160156 -55.894531 11.765625 -58.875 C 15.378906 -61.851562 20.210938 -63.34375 26.265625 -63.34375 C 32.460938 -63.34375 37.128906 -61.851562 40.265625 -58.875 C 43.410156 -55.894531 44.984375 -51.617188 44.984375 -46.046875 L 44.984375 -11.296875 C 44.984375 -9.960938 45.296875 -8.941406 45.921875 -8.234375 C 46.546875 -7.535156 47.332031 -7.1875 48.28125 -7.1875 L 52.046875 -7.1875 L 52.046875 -0.46875 C 50.316406 0.46875 48.195312 0.9375 45.6875 0.9375 C 43.175781 0.9375 41.078125 0.253906 39.390625 -1.109375 C 37.703125 -2.484375 36.539062 -4.351562 35.90625 -6.71875 L 35.328125 -6.71875 C 33.753906 -4.125 31.648438 -2.117188 29.015625 -0.703125 C 26.390625 0.703125 23.46875 1.40625 20.25 1.40625 Z M 22.484375 -7.1875 C 24.609375 -7.1875 26.648438 -7.773438 28.609375 -8.953125 C 30.578125 -10.128906 32.1875 -11.875 33.4375 -14.1875 C 34.695312 -16.5 35.328125 -19.265625 35.328125 -22.484375 L 35.328125 -28.140625 C 28.265625 -28.140625 22.960938 -27.332031 19.421875 -25.71875 C 15.890625 -24.113281 14.125 -21.078125 14.125 -16.609375 C 14.125 -13.234375 14.8125 -10.816406 16.1875 -9.359375 C 17.5625 -7.910156 19.660156 -7.1875 22.484375 -7.1875 Z M 22.484375 -7.1875 "/></g></g></g><g fill="#e5c0a1" fill-opacity="1"><g transform="translate(134.694016, 241.985866)"><g><path d="M 7.0625 -61.9375 L 14.359375 -61.9375 L 15.65625 -53.8125 L 16.375 -53.8125 C 17.226562 -56.5625 18.519531 -58.835938 20.25 -60.640625 C 21.976562 -62.441406 24.175781 -63.34375 26.84375 -63.34375 C 27.945312 -63.34375 28.929688 -63.207031 29.796875 -62.9375 C 30.660156 -62.664062 31.207031 -62.488281 31.4375 -62.40625 L 31.4375 -52.40625 L 28.265625 -52.40625 C 24.890625 -52.40625 22.117188 -51.242188 19.953125 -48.921875 C 17.796875 -46.609375 16.71875 -42.898438 16.71875 -37.796875 L 16.71875 0 L 7.0625 0 Z M 7.0625 -61.9375 "/></g></g></g><g fill="#e5c0a1" fill-opacity="1"><g transform="translate(166.839782, 241.985866)"><g><path d="M 28.375 1.40625 C 20.53125 1.40625 14.664062 -1.160156 10.78125 -6.296875 C 6.894531 -11.441406 4.953125 -19.664062 4.953125 -30.96875 C 4.953125 -42.039062 6.875 -50.203125 10.71875 -55.453125 C 14.5625 -60.710938 20.410156 -63.34375 28.265625 -63.34375 C 35.171875 -63.34375 40.289062 -61.046875 43.625 -56.453125 C 46.957031 -51.867188 48.625 -44.472656 48.625 -34.265625 L 48.625 -28.140625 L 15.078125 -28.140625 C 15.148438 -20.921875 16.265625 -15.625 18.421875 -12.25 C 20.585938 -8.875 23.984375 -7.1875 28.609375 -7.1875 C 31.753906 -7.1875 34.285156 -8.441406 36.203125 -10.953125 C 38.128906 -13.460938 39.09375 -16.835938 39.09375 -21.078125 L 48.625 -21.078125 C 48.625 -14.171875 46.757812 -8.695312 43.03125 -4.65625 C 39.300781 -0.613281 34.414062 1.40625 28.375 1.40625 Z M 38.5 -36.734375 C 38.5 -42.617188 37.632812 -47.09375 35.90625 -50.15625 C 34.1875 -53.21875 31.640625 -54.75 28.265625 -54.75 C 24.097656 -54.75 20.972656 -53.273438 18.890625 -50.328125 C 16.816406 -47.390625 15.582031 -42.859375 15.1875 -36.734375 Z M 38.5 -36.734375 "/></g></g></g><g fill="#e5c0a1" fill-opacity="1"><g transform="translate(220.533799, 241.985866)"><g/></g></g><g fill="#e5c0a1" fill-opacity="1"><g transform="translate(247.380813, 241.985866)"><g><path d="M 11.421875 21.4375 C 8.597656 21.4375 6.28125 21.117188 4.46875 20.484375 L 4.46875 13.78125 L 7.890625 13.78125 C 14.085938 13.78125 18.171875 9.1875 20.140625 0 L 1.171875 -61.9375 L 11.78125 -61.9375 L 22.25 -24.96875 L 25.4375 -13.890625 L 25.90625 -13.890625 L 28.609375 -25.203125 L 37.4375 -61.9375 L 47.21875 -61.9375 L 31.4375 -3.171875 C 29.394531 4.515625 26.800781 10.535156 23.65625 14.890625 C 20.519531 19.253906 16.441406 21.4375 11.421875 21.4375 Z M 11.421875 21.4375 "/></g></g></g><g fill="#e5c0a1" fill-opacity="1"><g transform="translate(295.65833, 241.985866)"><g><path d="M 26.84375 1.40625 C 19.539062 1.40625 14.023438 -1.238281 10.296875 -6.53125 C 6.566406 -11.832031 4.703125 -19.976562 4.703125 -30.96875 C 4.703125 -41.957031 6.566406 -50.097656 10.296875 -55.390625 C 14.023438 -60.691406 19.539062 -63.34375 26.84375 -63.34375 C 34.144531 -63.34375 39.660156 -60.691406 43.390625 -55.390625 C 47.117188 -50.097656 48.984375 -41.957031 48.984375 -30.96875 C 48.984375 -19.976562 47.117188 -11.832031 43.390625 -6.53125 C 39.660156 -1.238281 34.144531 1.40625 26.84375 1.40625 Z M 26.84375 -7.1875 C 34.851562 -7.1875 38.859375 -14.367188 38.859375 -28.734375 L 38.859375 -33.203125 C 38.859375 -47.566406 34.851562 -54.75 26.84375 -54.75 C 18.84375 -54.75 14.84375 -47.566406 14.84375 -33.203125 L 14.84375 -28.734375 C 14.84375 -14.367188 18.84375 -7.1875 26.84375 -7.1875 Z M 26.84375 -7.1875 "/></g></g></g><g fill="#e5c0a1" fill-opacity="1"><g transform="translate(349.352358, 241.985866)"><g><path d="M 22.375 1.40625 C 17.425781 1.40625 13.632812 -0.0625 11 -3 C 8.375 -5.945312 7.0625 -10.71875 7.0625 -17.3125 L 7.0625 -61.9375 L 16.71875 -61.9375 L 16.71875 -18.015625 C 16.71875 -14.015625 17.460938 -11.207031 18.953125 -9.59375 C 20.441406 -7.988281 22.601562 -7.1875 25.4375 -7.1875 C 28.65625 -7.1875 31.378906 -8.71875 33.609375 -11.78125 C 35.847656 -14.84375 36.96875 -18.960938 36.96875 -24.140625 L 36.96875 -61.9375 L 46.625 -61.9375 L 46.625 0 L 39.328125 0 L 38.03125 -7.1875 L 37.328125 -7.1875 C 34.109375 -1.457031 29.125 1.40625 22.375 1.40625 Z M 22.375 1.40625 "/></g></g></g><g fill="#e5c0a1" fill-opacity="1"><g transform="translate(403.046386, 241.985866)"><g/></g></g><g fill="#e5c0a1" fill-opacity="1"><g transform="translate(429.893401, 241.985866)"><g><path d="M 7.0625 -61.9375 L 14.359375 -61.9375 L 15.65625 -53.8125 L 16.375 -53.8125 C 17.226562 -56.5625 18.519531 -58.835938 20.25 -60.640625 C 21.976562 -62.441406 24.175781 -63.34375 26.84375 -63.34375 C 27.945312 -63.34375 28.929688 -63.207031 29.796875 -62.9375 C 30.660156 -62.664062 31.207031 -62.488281 31.4375 -62.40625 L 31.4375 -52.40625 L 28.265625 -52.40625 C 24.890625 -52.40625 22.117188 -51.242188 19.953125 -48.921875 C 17.796875 -46.609375 16.71875 -42.898438 16.71875 -37.796875 L 16.71875 0 L 7.0625 0 Z M 7.0625 -61.9375 "/></g></g></g><g fill="#e5c0a1" fill-opacity="1"><g transform="translate(462.039166, 241.985866)"><g><path d="M 28.375 1.40625 C 20.53125 1.40625 14.664062 -1.160156 10.78125 -6.296875 C 6.894531 -11.441406 4.953125 -19.664062 4.953125 -30.96875 C 4.953125 -42.039062 6.875 -50.203125 10.71875 -55.453125 C 14.5625 -60.710938 20.410156 -63.34375 28.265625 -63.34375 C 35.171875 -63.34375 40.289062 -61.046875 43.625 -56.453125 C 46.957031 -51.867188 48.625 -44.472656 48.625 -34.265625 L 48.625 -28.140625 L 15.078125 -28.140625 C 15.148438 -20.921875 16.265625 -15.625 18.421875 -12.25 C 20.585938 -8.875 23.984375 -7.1875 28.609375 -7.1875 C 31.753906 -7.1875 34.285156 -8.441406 36.203125 -10.953125 C 38.128906 -13.460938 39.09375 -16.835938 39.09375 -21.078125 L 48.625 -21.078125 C 48.625 -14.171875 46.757812 -8.695312 43.03125 -4.65625 C 39.300781 -0.613281 34.414062 1.40625 28.375 1.40625 Z M 38.5 -36.734375 C 38.5 -42.617188 37.632812 -47.09375 35.90625 -50.15625 C 34.1875 -53.21875 31.640625 -54.75 28.265625 -54.75 C 24.097656 -54.75 20.972656 -53.273438 18.890625 -50.328125 C 16.816406 -47.390625 15.582031 -42.859375 15.1875 -36.734375 Z M 38.5 -36.734375 "/></g></g></g><g fill="#e5c0a1" fill-opacity="1"><g transform="translate(515.733194, 241.985866)"><g><path d="M 20.25 1.40625 C 16.007812 1.40625 12.238281 0.148438 8.9375 -2.359375 C 5.644531 -4.867188 4 -9.421875 4 -16.015625 C 4 -23.941406 6.6875 -29.375 12.0625 -32.3125 C 17.445312 -35.257812 25.203125 -36.734375 35.328125 -36.734375 L 35.328125 -44.75 C 35.328125 -47.96875 34.617188 -50.4375 33.203125 -52.15625 C 31.796875 -53.882812 29.242188 -54.75 25.546875 -54.75 C 22.171875 -54.75 19.738281 -53.804688 18.25 -51.921875 C 16.757812 -50.046875 16.015625 -47.734375 16.015625 -44.984375 L 16.015625 -43.5625 L 6.46875 -43.5625 C 6.394531 -44.039062 6.359375 -44.90625 6.359375 -46.15625 C 6.359375 -51.65625 8.160156 -55.894531 11.765625 -58.875 C 15.378906 -61.851562 20.210938 -63.34375 26.265625 -63.34375 C 32.460938 -63.34375 37.128906 -61.851562 40.265625 -58.875 C 43.410156 -55.894531 44.984375 -51.617188 44.984375 -46.046875 L 44.984375 -11.296875 C 44.984375 -9.960938 45.296875 -8.941406 45.921875 -8.234375 C 46.546875 -7.535156 47.332031 -7.1875 48.28125 -7.1875 L 52.046875 -7.1875 L 52.046875 -0.46875 C 50.316406 0.46875 48.195312 0.9375 45.6875 0.9375 C 43.175781 0.9375 41.078125 0.253906 39.390625 -1.109375 C 37.703125 -2.484375 36.539062 -4.351562 35.90625 -6.71875 L 35.328125 -6.71875 C 33.753906 -4.125 31.648438 -2.117188 29.015625 -0.703125 C 26.390625 0.703125 23.46875 1.40625 20.25 1.40625 Z M 22.484375 -7.1875 C 24.609375 -7.1875 26.648438 -7.773438 28.609375 -8.953125 C 30.578125 -10.128906 32.1875 -11.875 33.4375 -14.1875 C 34.695312 -16.5 35.328125 -19.265625 35.328125 -22.484375 L 35.328125 -28.140625 C 28.265625 -28.140625 22.960938 -27.332031 19.421875 -25.71875 C 15.890625 -24.113281 14.125 -21.078125 14.125 -16.609375 C 14.125 -13.234375 14.8125 -10.816406 16.1875 -9.359375 C 17.5625 -7.910156 19.660156 -7.1875 22.484375 -7.1875 Z M 22.484375 -7.1875 "/></g></g></g><g fill="#e5c0a1" fill-opacity="1"><g transform="translate(569.427222, 241.985866)"><g><path d="M 23.90625 1.40625 C 17.78125 1.40625 13.046875 -1.257812 9.703125 -6.59375 C 6.367188 -11.925781 4.703125 -20.09375 4.703125 -31.09375 C 4.703125 -41.757812 6.410156 -49.800781 9.828125 -55.21875 C 13.242188 -60.632812 17.703125 -63.34375 23.203125 -63.34375 C 26.253906 -63.34375 28.957031 -62.695312 31.3125 -61.40625 C 33.675781 -60.113281 35.367188 -58.328125 36.390625 -56.046875 L 36.96875 -56.046875 L 36.96875 -85.140625 L 46.625 -85.140625 L 46.625 0 L 39.328125 0 L 38.03125 -7.1875 L 37.4375 -7.1875 C 35.945312 -4.351562 34.023438 -2.210938 31.671875 -0.765625 C 29.316406 0.679688 26.726562 1.40625 23.90625 1.40625 Z M 25.90625 -7.1875 C 33.28125 -7.1875 36.96875 -14.367188 36.96875 -28.734375 L 36.96875 -32.734375 C 36.96875 -47.410156 33.28125 -54.75 25.90625 -54.75 C 22.132812 -54.75 19.347656 -53.0625 17.546875 -49.6875 C 15.742188 -46.3125 14.84375 -40.816406 14.84375 -33.203125 L 14.84375 -28.734375 C 14.84375 -21.117188 15.742188 -15.625 17.546875 -12.25 C 19.347656 -8.875 22.132812 -7.1875 25.90625 -7.1875 Z M 25.90625 -7.1875 "/></g></g></g><g fill="#e5c0a1" fill-opacity="1"><g transform="translate(623.12125, 241.985866)"><g><path d="M 11.421875 21.4375 C 8.597656 21.4375 6.28125 21.117188 4.46875 20.484375 L 4.46875 13.78125 L 7.890625 13.78125 C 14.085938 13.78125 18.171875 9.1875 20.140625 0 L 1.171875 -61.9375 L 11.78125 -61.9375 L 22.25 -24.96875 L 25.4375 -13.890625 L 25.90625 -13.890625 L 28.609375 -25.203125 L 37.4375 -61.9375 L 47.21875 -61.9375 L 31.4375 -3.171875 C 29.394531 4.515625 26.800781 10.535156 23.65625 14.890625 C 20.519531 19.253906 16.441406 21.4375 11.421875 21.4375 Z M 11.421875 21.4375 "/></g></g></g><g fill="#e5c0a1" fill-opacity="1"><g transform="translate(80.999999, 359.73586)"><g><path d="M 6.46875 -53.34375 L 1.0625 -53.34375 L 1.0625 -61.9375 L 6.46875 -61.9375 L 6.46875 -71.828125 C 6.46875 -75.910156 7.429688 -79.304688 9.359375 -82.015625 C 11.285156 -84.722656 14.40625 -86.078125 18.71875 -86.078125 C 21.46875 -86.078125 24.175781 -85.601562 26.84375 -84.65625 L 26.84375 -77.953125 L 21.671875 -77.953125 C 17.972656 -77.953125 16.125 -76.066406 16.125 -72.296875 L 16.125 -61.9375 L 26.84375 -61.9375 L 26.84375 -53.34375 L 16.125 -53.34375 L 16.125 0 L 6.46875 0 Z M 6.46875 -53.34375 "/></g></g></g><g fill="#e5c0a1" fill-opacity="1"><g transform="translate(107.847014, 359.73586)"><g><path d="M 26.84375 1.40625 C 19.539062 1.40625 14.023438 -1.238281 10.296875 -6.53125 C 6.566406 -11.832031 4.703125 -19.976562 4.703125 -30.96875 C 4.703125 -41.957031 6.566406 -50.097656 10.296875 -55.390625 C 14.023438 -60.691406 19.539062 -63.34375 26.84375 -63.34375 C 34.144531 -63.34375 39.660156 -60.691406 43.390625 -55.390625 C 47.117188 -50.097656 48.984375 -41.957031 48.984375 -30.96875 C 48.984375 -19.976562 47.117188 -11.832031 43.390625 -6.53125 C 39.660156 -1.238281 34.144531 1.40625 26.84375 1.40625 Z M 26.84375 -7.1875 C 34.851562 -7.1875 38.859375 -14.367188 38.859375 -28.734375 L 38.859375 -33.203125 C 38.859375 -47.566406 34.851562 -54.75 26.84375 -54.75 C 18.84375 -54.75 14.84375 -47.566406 14.84375 -33.203125 L 14.84375 -28.734375 C 14.84375 -14.367188 18.84375 -7.1875 26.84375 -7.1875 Z M 26.84375 -7.1875 "/></g></g></g><g fill="#e5c0a1" fill-opacity="1"><g transform="translate(161.541031, 359.73586)"><g><path d="M 7.0625 -61.9375 L 14.359375 -61.9375 L 15.65625 -53.8125 L 16.375 -53.8125 C 17.226562 -56.5625 18.519531 -58.835938 20.25 -60.640625 C 21.976562 -62.441406 24.175781 -63.34375 26.84375 -63.34375 C 27.945312 -63.34375 28.929688 -63.207031 29.796875 -62.9375 C 30.660156 -62.664062 31.207031 -62.488281 31.4375 -62.40625 L 31.4375 -52.40625 L 28.265625 -52.40625 C 24.890625 -52.40625 22.117188 -51.242188 19.953125 -48.921875 C 17.796875 -46.609375 16.71875 -42.898438 16.71875 -37.796875 L 16.71875 0 L 7.0625 0 Z M 7.0625 -61.9375 "/></g></g></g><g fill="#e5c0a1" fill-opacity="1"><g transform="translate(193.686796, 359.73586)"><g/></g></g><g fill="#e5c0a1" fill-opacity="1"><g transform="translate(220.533811, 359.73586)"><g><path d="M 18.015625 1.171875 C 14.085938 1.171875 11.257812 -0.179688 9.53125 -2.890625 C 7.8125 -5.597656 6.953125 -8.988281 6.953125 -13.0625 L 6.953125 -53.34375 L 1.65625 -53.34375 L 1.65625 -61.9375 L 6.953125 -61.9375 L 9.0625 -79.125 L 16.609375 -79.125 L 16.609375 -61.9375 L 24.96875 -61.9375 L 24.96875 -53.34375 L 16.609375 -53.34375 L 16.609375 -12.828125 C 16.609375 -9.066406 18.453125 -7.1875 22.140625 -7.1875 L 24.96875 -7.1875 L 24.96875 -0.46875 C 24.101562 0 23.019531 0.390625 21.71875 0.703125 C 20.425781 1.015625 19.191406 1.171875 18.015625 1.171875 Z M 18.015625 1.171875 "/></g></g></g><g fill="#e5c0a1" fill-opacity="1"><g transform="translate(247.380825, 359.73586)"><g><path d="M 7.0625 -85.140625 L 16.71875 -85.140625 L 16.71875 -55.453125 L 17.421875 -55.453125 C 20.410156 -60.710938 25.046875 -63.34375 31.328125 -63.34375 C 36.265625 -63.34375 40.046875 -61.867188 42.671875 -58.921875 C 45.304688 -55.984375 46.625 -51.21875 46.625 -44.625 L 46.625 0 L 36.96875 0 L 36.96875 -43.921875 C 36.96875 -47.921875 36.222656 -50.722656 34.734375 -52.328125 C 33.242188 -53.941406 31.085938 -54.75 28.265625 -54.75 C 25.046875 -54.75 22.316406 -53.21875 20.078125 -50.15625 C 17.835938 -47.09375 16.71875 -42.972656 16.71875 -37.796875 L 16.71875 0 L 7.0625 0 Z M 7.0625 -85.140625 "/></g></g></g><g fill="#e5c0a1" fill-opacity="1"><g transform="translate(301.074842, 359.73586)"><g><path d="M 28.375 1.40625 C 20.53125 1.40625 14.664062 -1.160156 10.78125 -6.296875 C 6.894531 -11.441406 4.953125 -19.664062 4.953125 -30.96875 C 4.953125 -42.039062 6.875 -50.203125 10.71875 -55.453125 C 14.5625 -60.710938 20.410156 -63.34375 28.265625 -63.34375 C 35.171875 -63.34375 40.289062 -61.046875 43.625 -56.453125 C 46.957031 -51.867188 48.625 -44.472656 48.625 -34.265625 L 48.625 -28.140625 L 15.078125 -28.140625 C 15.148438 -20.921875 16.265625 -15.625 18.421875 -12.25 C 20.585938 -8.875 23.984375 -7.1875 28.609375 -7.1875 C 31.753906 -7.1875 34.285156 -8.441406 36.203125 -10.953125 C 38.128906 -13.460938 39.09375 -16.835938 39.09375 -21.078125 L 48.625 -21.078125 C 48.625 -14.171875 46.757812 -8.695312 43.03125 -4.65625 C 39.300781 -0.613281 34.414062 1.40625 28.375 1.40625 Z M 38.5 -36.734375 C 38.5 -42.617188 37.632812 -47.09375 35.90625 -50.15625 C 34.1875 -53.21875 31.640625 -54.75 28.265625 -54.75 C 24.097656 -54.75 20.972656 -53.273438 18.890625 -50.328125 C 16.816406 -47.390625 15.582031 -42.859375 15.1875 -36.734375 Z M 38.5 -36.734375 "/></g></g></g><g fill="#e5c0a1" fill-opacity="1"><g transform="translate(354.768847, 359.73586)"><g/></g></g><g fill="#e5c0a1" fill-opacity="1"><g transform="translate(381.615861, 359.73586)"><g><path d="M 23.78125 1.40625 C 17.113281 1.40625 12.128906 -0.335938 8.828125 -3.828125 C 5.535156 -7.316406 3.890625 -11.613281 3.890625 -16.71875 C 3.890625 -17.664062 3.90625 -18.3125 3.9375 -18.65625 C 3.976562 -19.007812 4 -19.226562 4 -19.3125 L 14.125 -19.3125 L 14.125 -18.140625 C 14.125 -14.441406 15.066406 -11.671875 16.953125 -9.828125 C 18.835938 -7.984375 21.269531 -7.0625 24.25 -7.0625 C 26.925781 -7.0625 29.144531 -7.863281 30.90625 -9.46875 C 32.675781 -11.082031 33.5625 -13.34375 33.5625 -16.25 C 33.5625 -18.445312 33.007812 -20.25 31.90625 -21.65625 C 30.8125 -23.070312 29.476562 -24.191406 27.90625 -25.015625 C 26.332031 -25.847656 24.132812 -26.769531 21.3125 -27.78125 C 17.851562 -28.96875 15.0625 -30.148438 12.9375 -31.328125 C 10.820312 -32.503906 9.019531 -34.25 7.53125 -36.5625 C 6.039062 -38.875 5.296875 -41.914062 5.296875 -45.6875 C 5.296875 -51.101562 7.039062 -55.398438 10.53125 -58.578125 C 14.03125 -61.753906 18.722656 -63.34375 24.609375 -63.34375 C 30.179688 -63.34375 34.535156 -61.710938 37.671875 -58.453125 C 40.816406 -55.203125 42.390625 -51.179688 42.390625 -46.390625 L 42.265625 -44.15625 L 32.265625 -44.15625 L 32.265625 -45.21875 C 32.265625 -47.96875 31.597656 -50.265625 30.265625 -52.109375 C 28.929688 -53.953125 26.734375 -54.875 23.671875 -54.875 C 20.609375 -54.875 18.445312 -54.007812 17.1875 -52.28125 C 15.9375 -50.550781 15.3125 -48.585938 15.3125 -46.390625 C 15.3125 -43.722656 16.234375 -41.738281 18.078125 -40.4375 C 19.921875 -39.144531 22.765625 -37.875 26.609375 -36.625 C 30.140625 -35.363281 33.039062 -34.125 35.3125 -32.90625 C 37.59375 -31.695312 39.535156 -29.875 41.140625 -27.4375 C 42.753906 -25 43.5625 -21.738281 43.5625 -17.65625 C 43.5625 -11.300781 41.773438 -6.535156 38.203125 -3.359375 C 34.640625 -0.179688 29.832031 1.40625 23.78125 1.40625 Z M 23.78125 1.40625 "/></g></g></g><g fill="#e5c0a1" fill-opacity="1"><g transform="translate(429.893378, 359.73586)"><g><path d="M 28.375 1.40625 C 20.53125 1.40625 14.664062 -1.160156 10.78125 -6.296875 C 6.894531 -11.441406 4.953125 -19.664062 4.953125 -30.96875 C 4.953125 -42.039062 6.875 -50.203125 10.71875 -55.453125 C 14.5625 -60.710938 20.410156 -63.34375 28.265625 -63.34375 C 35.171875 -63.34375 40.289062 -61.046875 43.625 -56.453125 C 46.957031 -51.867188 48.625 -44.472656 48.625 -34.265625 L 48.625 -28.140625 L 15.078125 -28.140625 C 15.148438 -20.921875 16.265625 -15.625 18.421875 -12.25 C 20.585938 -8.875 23.984375 -7.1875 28.609375 -7.1875 C 31.753906 -7.1875 34.285156 -8.441406 36.203125 -10.953125 C 38.128906 -13.460938 39.09375 -16.835938 39.09375 -21.078125 L 48.625 -21.078125 C 48.625 -14.171875 46.757812 -8.695312 43.03125 -4.65625 C 39.300781 -0.613281 34.414062 1.40625 28.375 1.40625 Z M 38.5 -36.734375 C 38.5 -42.617188 37.632812 -47.09375 35.90625 -50.15625 C 34.1875 -53.21875 31.640625 -54.75 28.265625 -54.75 C 24.097656 -54.75 20.972656 -53.273438 18.890625 -50.328125 C 16.816406 -47.390625 15.582031 -42.859375 15.1875 -36.734375 Z M 38.5 -36.734375 "/></g></g></g><g fill="#e5c0a1" fill-opacity="1"><g transform="translate(483.587383, 359.73586)"><g><path d="M 25.4375 1.40625 C 18.132812 1.40625 12.773438 -1.203125 9.359375 -6.421875 C 5.941406 -11.640625 4.234375 -19.820312 4.234375 -30.96875 C 4.234375 -42.113281 5.957031 -50.296875 9.40625 -55.515625 C 12.863281 -60.734375 18.207031 -63.34375 25.4375 -63.34375 C 32.03125 -63.34375 36.835938 -61.300781 39.859375 -57.21875 C 42.878906 -53.144531 44.390625 -47.0625 44.390625 -38.96875 L 34.390625 -38.96875 C 34.390625 -44.539062 33.738281 -48.5625 32.4375 -51.03125 C 31.144531 -53.507812 28.8125 -54.75 25.4375 -54.75 C 21.664062 -54.75 18.875 -52.960938 17.0625 -49.390625 C 15.257812 -45.816406 14.359375 -40.421875 14.359375 -33.203125 L 14.359375 -28.734375 C 14.359375 -21.503906 15.242188 -16.101562 17.015625 -12.53125 C 18.785156 -8.96875 21.59375 -7.1875 25.4375 -7.1875 C 28.8125 -7.1875 31.222656 -8.476562 32.671875 -11.0625 C 34.128906 -13.65625 34.859375 -17.625 34.859375 -22.96875 L 44.390625 -22.96875 C 44.390625 -15.894531 42.835938 -10.0625 39.734375 -5.46875 C 36.640625 -0.882812 31.875 1.40625 25.4375 1.40625 Z M 25.4375 1.40625 "/></g></g></g><g fill="#e5c0a1" fill-opacity="1"><g transform="translate(531.864877, 359.73586)"><g><path d="M 7.0625 -61.9375 L 14.359375 -61.9375 L 15.65625 -53.8125 L 16.375 -53.8125 C 17.226562 -56.5625 18.519531 -58.835938 20.25 -60.640625 C 21.976562 -62.441406 24.175781 -63.34375 26.84375 -63.34375 C 27.945312 -63.34375 28.929688 -63.207031 29.796875 -62.9375 C 30.660156 -62.664062 31.207031 -62.488281 31.4375 -62.40625 L 31.4375 -52.40625 L 28.265625 -52.40625 C 24.890625 -52.40625 22.117188 -51.242188 19.953125 -48.921875 C 17.796875 -46.609375 16.71875 -42.898438 16.71875 -37.796875 L 16.71875 0 L 7.0625 0 Z M 7.0625 -61.9375 "/></g></g></g><g fill="#e5c0a1" fill-opacity="1"><g transform="translate(564.010642, 359.73586)"><g><path d="M 28.375 1.40625 C 20.53125 1.40625 14.664062 -1.160156 10.78125 -6.296875 C 6.894531 -11.441406 4.953125 -19.664062 4.953125 -30.96875 C 4.953125 -42.039062 6.875 -50.203125 10.71875 -55.453125 C 14.5625 -60.710938 20.410156 -63.34375 28.265625 -63.34375 C 35.171875 -63.34375 40.289062 -61.046875 43.625 -56.453125 C 46.957031 -51.867188 48.625 -44.472656 48.625 -34.265625 L 48.625 -28.140625 L 15.078125 -28.140625 C 15.148438 -20.921875 16.265625 -15.625 18.421875 -12.25 C 20.585938 -8.875 23.984375 -7.1875 28.609375 -7.1875 C 31.753906 -7.1875 34.285156 -8.441406 36.203125 -10.953125 C 38.128906 -13.460938 39.09375 -16.835938 39.09375 -21.078125 L 48.625 -21.078125 C 48.625 -14.171875 46.757812 -8.695312 43.03125 -4.65625 C 39.300781 -0.613281 34.414062 1.40625 28.375 1.40625 Z M 38.5 -36.734375 C 38.5 -42.617188 37.632812 -47.09375 35.90625 -50.15625 C 34.1875 -53.21875 31.640625 -54.75 28.265625 -54.75 C 24.097656 -54.75 20.972656 -53.273438 18.890625 -50.328125 C 16.816406 -47.390625 15.582031 -42.859375 15.1875 -36.734375 Z M 38.5 -36.734375 "/></g></g></g><g fill="#e5c0a1" fill-opacity="1"><g transform="translate(617.70467, 359.73586)"><g><path d="M 18.015625 1.171875 C 14.085938 1.171875 11.257812 -0.179688 9.53125 -2.890625 C 7.8125 -5.597656 6.953125 -8.988281 6.953125 -13.0625 L 6.953125 -53.34375 L 1.65625 -53.34375 L 1.65625 -61.9375 L 6.953125 -61.9375 L 9.0625 -79.125 L 16.609375 -79.125 L 16.609375 -61.9375 L 24.96875 -61.9375 L 24.96875 -53.34375 L 16.609375 -53.34375 L 16.609375 -12.828125 C 16.609375 -9.066406 18.453125 -7.1875 22.140625 -7.1875 L 24.96875 -7.1875 L 24.96875 -0.46875 C 24.101562 0 23.019531 0.390625 21.71875 0.703125 C 20.425781 1.015625 19.191406 1.171875 18.015625 1.171875 Z M 18.015625 1.171875 "/></g></g></g><g fill="#e5c0a1" fill-opacity="1"><g transform="translate(644.551685, 359.73586)"><g><path d="M 22.609375 -27.78125 C 22.609375 -31.320312 23.234375 -34.226562 24.484375 -36.5 C 25.742188 -38.78125 27.628906 -41.289062 30.140625 -44.03125 C 32.578125 -46.78125 34.398438 -49.273438 35.609375 -51.515625 C 36.828125 -53.753906 37.4375 -56.5625 37.4375 -59.9375 C 37.4375 -62.914062 36.710938 -65.859375 35.265625 -68.765625 C 33.816406 -71.671875 31.050781 -73.125 26.96875 -73.125 C 22.570312 -73.125 19.609375 -71.472656 18.078125 -68.171875 C 16.546875 -64.878906 15.78125 -61.226562 15.78125 -57.21875 C 15.78125 -56.363281 15.796875 -55.660156 15.828125 -55.109375 C 15.867188 -54.554688 15.890625 -54.203125 15.890625 -54.046875 L 5.421875 -54.046875 C 5.335938 -54.359375 5.253906 -54.90625 5.171875 -55.6875 C 5.097656 -56.476562 5.0625 -57.304688 5.0625 -58.171875 C 5.0625 -65.148438 7.023438 -70.894531 10.953125 -75.40625 C 14.878906 -79.925781 20.488281 -82.1875 27.78125 -82.1875 C 31.632812 -82.1875 35.109375 -81.300781 38.203125 -79.53125 C 41.304688 -77.769531 43.738281 -75.300781 45.5 -72.125 C 47.269531 -68.945312 48.15625 -65.316406 48.15625 -61.234375 C 48.15625 -57.304688 47.722656 -53.945312 46.859375 -51.15625 C 45.992188 -48.375 44.953125 -46.140625 43.734375 -44.453125 C 42.523438 -42.765625 40.976562 -40.898438 39.09375 -38.859375 C 36.96875 -36.578125 35.394531 -34.550781 34.375 -32.78125 C 33.363281 -31.019531 32.859375 -28.765625 32.859375 -26.015625 L 32.859375 -21.1875 L 22.609375 -21.1875 Z M 21.78125 -12.71875 L 33.5625 -12.71875 L 33.5625 0 L 21.78125 0 Z M 21.78125 -12.71875 "/></g></g></g><g fill="#e5c0a1" fill-opacity="1"><g transform="translate(80.999999, 530.739497)"><g><path d="M 6 -86.765625 L 15.84375 -86.765625 L 15.84375 0 L 6 0 Z M 6 -86.765625 "/></g></g></g><g fill="#e5c0a1" fill-opacity="1"><g transform="translate(102.840006, 530.739497)"><g><path d="M 28.921875 1.4375 C 20.921875 1.4375 14.941406 -1.179688 10.984375 -6.421875 C 7.023438 -11.660156 5.046875 -20.039062 5.046875 -31.5625 C 5.046875 -42.84375 7.003906 -51.160156 10.921875 -56.515625 C 14.835938 -61.878906 20.796875 -64.5625 28.796875 -64.5625 C 35.835938 -64.5625 41.054688 -62.21875 44.453125 -57.53125 C 47.859375 -52.851562 49.5625 -45.316406 49.5625 -34.921875 L 49.5625 -28.6875 L 15.359375 -28.6875 C 15.441406 -21.320312 16.582031 -15.914062 18.78125 -12.46875 C 20.976562 -9.03125 24.4375 -7.3125 29.15625 -7.3125 C 32.351562 -7.3125 34.929688 -8.59375 36.890625 -11.15625 C 38.859375 -13.71875 39.84375 -17.160156 39.84375 -21.484375 L 49.5625 -21.484375 C 49.5625 -14.441406 47.660156 -8.859375 43.859375 -4.734375 C 40.054688 -0.617188 35.078125 1.4375 28.921875 1.4375 Z M 39.234375 -37.4375 C 39.234375 -43.4375 38.351562 -47.992188 36.59375 -51.109375 C 34.832031 -54.234375 32.234375 -55.796875 28.796875 -55.796875 C 24.554688 -55.796875 21.375 -54.296875 19.25 -51.296875 C 17.132812 -48.296875 15.878906 -43.675781 15.484375 -37.4375 Z M 39.234375 -37.4375 "/></g></g></g><g fill="#e5c0a1" fill-opacity="1"><g transform="translate(157.560031, 530.739497)"><g><path d="M 18.359375 1.203125 C 14.359375 1.203125 11.476562 -0.175781 9.71875 -2.9375 C 7.957031 -5.695312 7.078125 -9.15625 7.078125 -13.3125 L 7.078125 -54.359375 L 1.6875 -54.359375 L 1.6875 -63.125 L 7.078125 -63.125 L 9.234375 -80.640625 L 16.921875 -80.640625 L 16.921875 -63.125 L 25.4375 -63.125 L 25.4375 -54.359375 L 16.921875 -54.359375 L 16.921875 -13.078125 C 16.921875 -9.234375 18.800781 -7.3125 22.5625 -7.3125 L 25.4375 -7.3125 L 25.4375 -0.484375 C 24.5625 -0.00390625 23.460938 0.394531 22.140625 0.71875 C 20.816406 1.039062 19.554688 1.203125 18.359375 1.203125 Z M 18.359375 1.203125 "/></g></g></g><g fill="#e5c0a1" fill-opacity="1"><g transform="translate(184.920049, 530.739497)"><g><path d="M 4.203125 -64.6875 L 4.203125 -82.3125 L 14.046875 -82.3125 L 14.046875 -64.6875 L 11.515625 -48.84375 L 6.84375 -48.84375 Z M 4.203125 -64.6875 "/></g></g></g><g fill="#e5c0a1" fill-opacity="1"><g transform="translate(203.760055, 530.739497)"><g><path d="M 24.234375 1.4375 C 17.441406 1.4375 12.363281 -0.335938 9 -3.890625 C 5.632812 -7.453125 3.953125 -11.835938 3.953125 -17.046875 C 3.953125 -18.003906 3.972656 -18.660156 4.015625 -19.015625 C 4.054688 -19.378906 4.078125 -19.601562 4.078125 -19.6875 L 14.40625 -19.6875 L 14.40625 -18.484375 C 14.40625 -14.722656 15.363281 -11.898438 17.28125 -10.015625 C 19.195312 -8.140625 21.675781 -7.203125 24.71875 -7.203125 C 27.4375 -7.203125 29.695312 -8.019531 31.5 -9.65625 C 33.300781 -11.300781 34.203125 -13.601562 34.203125 -16.5625 C 34.203125 -18.800781 33.640625 -20.640625 32.515625 -22.078125 C 31.398438 -23.515625 30.039062 -24.65625 28.4375 -25.5 C 26.84375 -26.34375 24.601562 -27.28125 21.71875 -28.3125 C 18.195312 -29.519531 15.351562 -30.722656 13.1875 -31.921875 C 11.03125 -33.117188 9.191406 -34.894531 7.671875 -37.25 C 6.160156 -39.613281 5.40625 -42.71875 5.40625 -46.5625 C 5.40625 -52.082031 7.179688 -56.460938 10.734375 -59.703125 C 14.296875 -62.941406 19.078125 -64.5625 25.078125 -64.5625 C 30.753906 -64.5625 35.191406 -62.898438 38.390625 -59.578125 C 41.597656 -56.253906 43.203125 -52.15625 43.203125 -47.28125 L 43.078125 -45 L 32.875 -45 L 32.875 -46.078125 C 32.875 -48.878906 32.191406 -51.21875 30.828125 -53.09375 C 29.472656 -54.976562 27.238281 -55.921875 24.125 -55.921875 C 21 -55.921875 18.796875 -55.039062 17.515625 -53.28125 C 16.234375 -51.519531 15.59375 -49.519531 15.59375 -47.28125 C 15.59375 -44.5625 16.53125 -42.539062 18.40625 -41.21875 C 20.289062 -39.894531 23.195312 -38.59375 27.125 -37.3125 C 30.71875 -36.039062 33.675781 -34.785156 36 -33.546875 C 38.320312 -32.304688 40.300781 -30.441406 41.9375 -27.953125 C 43.582031 -25.472656 44.40625 -22.15625 44.40625 -18 C 44.40625 -11.519531 42.582031 -6.660156 38.9375 -3.421875 C 35.300781 -0.179688 30.398438 1.4375 24.234375 1.4375 Z M 24.234375 1.4375 "/></g></g></g><g fill="#e5c0a1" fill-opacity="1"><g transform="translate(252.960081, 530.739497)"><g/></g></g><g fill="#e5c0a1" fill-opacity="1"><g transform="translate(280.320088, 530.739497)"><g><path d="M 24.359375 1.4375 C 18.117188 1.4375 13.296875 -1.28125 9.890625 -6.71875 C 6.492188 -12.15625 4.796875 -20.476562 4.796875 -31.6875 C 4.796875 -42.5625 6.535156 -50.757812 10.015625 -56.28125 C 13.492188 -61.800781 18.035156 -64.5625 23.640625 -64.5625 C 26.753906 -64.5625 29.507812 -63.898438 31.90625 -62.578125 C 34.3125 -61.253906 36.035156 -59.4375 37.078125 -57.125 L 37.6875 -57.125 L 37.6875 -86.765625 L 47.515625 -86.765625 L 47.515625 0 L 40.078125 0 L 38.765625 -7.3125 L 38.15625 -7.3125 C 36.632812 -4.4375 34.675781 -2.257812 32.28125 -0.78125 C 29.882812 0.695312 27.242188 1.4375 24.359375 1.4375 Z M 26.40625 -7.3125 C 33.925781 -7.3125 37.6875 -14.632812 37.6875 -29.28125 L 37.6875 -33.359375 C 37.6875 -48.316406 33.925781 -55.796875 26.40625 -55.796875 C 22.5625 -55.796875 19.71875 -54.078125 17.875 -50.640625 C 16.039062 -47.203125 15.125 -41.601562 15.125 -33.84375 L 15.125 -29.28125 C 15.125 -21.519531 16.039062 -15.914062 17.875 -12.46875 C 19.71875 -9.03125 22.5625 -7.3125 26.40625 -7.3125 Z M 26.40625 -7.3125 "/></g></g></g><g fill="#e5c0a1" fill-opacity="1"><g transform="translate(335.040101, 530.739497)"><g><path d="M 6 -86.765625 L 15.84375 -86.765625 L 15.84375 -75 L 6 -75 Z M 6 -63.125 L 15.84375 -63.125 L 15.84375 0 L 6 0 Z M 6 -63.125 "/></g></g></g><g fill="#e5c0a1" fill-opacity="1"><g transform="translate(356.880097, 530.739497)"><g><path d="M 1.203125 -63.125 L 12 -63.125 L 20.515625 -31.078125 L 24.84375 -15.125 L 25.3125 -15.125 L 29.640625 -31.4375 L 38.15625 -63.125 L 48.125 -63.125 L 30 0 L 19.3125 0 Z M 1.203125 -63.125 "/></g></g></g><g fill="#e5c0a1" fill-opacity="1"><g transform="translate(406.080122, 530.739497)"><g><path d="M 28.921875 1.4375 C 20.921875 1.4375 14.941406 -1.179688 10.984375 -6.421875 C 7.023438 -11.660156 5.046875 -20.039062 5.046875 -31.5625 C 5.046875 -42.84375 7.003906 -51.160156 10.921875 -56.515625 C 14.835938 -61.878906 20.796875 -64.5625 28.796875 -64.5625 C 35.835938 -64.5625 41.054688 -62.21875 44.453125 -57.53125 C 47.859375 -52.851562 49.5625 -45.316406 49.5625 -34.921875 L 49.5625 -28.6875 L 15.359375 -28.6875 C 15.441406 -21.320312 16.582031 -15.914062 18.78125 -12.46875 C 20.976562 -9.03125 24.4375 -7.3125 29.15625 -7.3125 C 32.351562 -7.3125 34.929688 -8.59375 36.890625 -11.15625 C 38.859375 -13.71875 39.84375 -17.160156 39.84375 -21.484375 L 49.5625 -21.484375 C 49.5625 -14.441406 47.660156 -8.859375 43.859375 -4.734375 C 40.054688 -0.617188 35.078125 1.4375 28.921875 1.4375 Z M 39.234375 -37.4375 C 39.234375 -43.4375 38.351562 -47.992188 36.59375 -51.109375 C 34.832031 -54.234375 32.234375 -55.796875 28.796875 -55.796875 C 24.554688 -55.796875 21.375 -54.296875 19.25 -51.296875 C 17.132812 -48.296875 15.878906 -43.675781 15.484375 -37.4375 Z M 39.234375 -37.4375 "/></g></g></g><g fill="#e5c0a1" fill-opacity="1"><g transform="translate(460.800136, 530.739497)"><g/></g></g><g fill="#e5c0a1" fill-opacity="1"><g transform="translate(488.160166, 530.739497)"><g><path d="M 6 -86.765625 L 15.84375 -86.765625 L 15.84375 -75 L 6 -75 Z M 6 -63.125 L 15.84375 -63.125 L 15.84375 0 L 6 0 Z M 6 -63.125 "/></g></g></g><g fill="#e5c0a1" fill-opacity="1"><g transform="translate(510.000161, 530.739497)"><g><path d="M 7.203125 -63.125 L 14.640625 -63.125 L 15.953125 -55.796875 L 16.6875 -55.796875 C 19.957031 -61.640625 25.035156 -64.5625 31.921875 -64.5625 C 36.960938 -64.5625 40.820312 -63.0625 43.5 -60.0625 C 46.175781 -57.0625 47.515625 -52.203125 47.515625 -45.484375 L 47.515625 0 L 37.6875 0 L 37.6875 -44.765625 C 37.6875 -48.835938 36.925781 -51.691406 35.40625 -53.328125 C 33.882812 -54.972656 31.679688 -55.796875 28.796875 -55.796875 C 25.515625 -55.796875 22.734375 -54.234375 20.453125 -51.109375 C 18.179688 -47.992188 17.046875 -43.796875 17.046875 -38.515625 L 17.046875 0 L 7.203125 0 Z M 7.203125 -63.125 "/></g></g></g><g fill="#e5c0a1" fill-opacity="1"><g transform="translate(80.999999, 650.739491)"><g><path d="M 18.359375 1.203125 C 14.359375 1.203125 11.476562 -0.175781 9.71875 -2.9375 C 7.957031 -5.695312 7.078125 -9.15625 7.078125 -13.3125 L 7.078125 -54.359375 L 1.6875 -54.359375 L 1.6875 -63.125 L 7.078125 -63.125 L 9.234375 -80.640625 L 16.921875 -80.640625 L 16.921875 -63.125 L 25.4375 -63.125 L 25.4375 -54.359375 L 16.921875 -54.359375 L 16.921875 -13.078125 C 16.921875 -9.234375 18.800781 -7.3125 22.5625 -7.3125 L 25.4375 -7.3125 L 25.4375 -0.484375 C 24.5625 -0.00390625 23.460938 0.394531 22.140625 0.71875 C 20.816406 1.039062 19.554688 1.203125 18.359375 1.203125 Z M 18.359375 1.203125 "/></g></g></g><g fill="#e5c0a1" fill-opacity="1"><g transform="translate(108.360018, 650.739491)"><g><path d="M 27.359375 1.4375 C 19.921875 1.4375 14.300781 -1.257812 10.5 -6.65625 C 6.695312 -12.0625 4.796875 -20.363281 4.796875 -31.5625 C 4.796875 -42.757812 6.695312 -51.054688 10.5 -56.453125 C 14.300781 -61.859375 19.921875 -64.5625 27.359375 -64.5625 C 34.796875 -64.5625 40.414062 -61.859375 44.21875 -56.453125 C 48.019531 -51.054688 49.921875 -42.757812 49.921875 -31.5625 C 49.921875 -20.363281 48.019531 -12.0625 44.21875 -6.65625 C 40.414062 -1.257812 34.796875 1.4375 27.359375 1.4375 Z M 27.359375 -7.3125 C 35.515625 -7.3125 39.59375 -14.632812 39.59375 -29.28125 L 39.59375 -33.84375 C 39.59375 -48.476562 35.515625 -55.796875 27.359375 -55.796875 C 19.203125 -55.796875 15.125 -48.476562 15.125 -33.84375 L 15.125 -29.28125 C 15.125 -14.632812 19.203125 -7.3125 27.359375 -7.3125 Z M 27.359375 -7.3125 "/></g></g></g><g fill="#e5c0a1" fill-opacity="1"><g transform="translate(163.080043, 650.739491)"><g><path d="M 17.15625 21.84375 C 12.195312 21.84375 8.359375 20.421875 5.640625 17.578125 C 2.921875 14.734375 1.5625 11.15625 1.5625 6.84375 C 1.5625 3.71875 2.300781 0.9375 3.78125 -1.5 C 5.257812 -3.9375 7.238281 -5.632812 9.71875 -6.59375 C 8.113281 -7.632812 6.851562 -8.992188 5.9375 -10.671875 C 5.019531 -12.359375 4.5625 -14.160156 4.5625 -16.078125 C 4.5625 -18.554688 5.359375 -20.753906 6.953125 -22.671875 C 8.554688 -24.597656 10.71875 -26.039062 13.4375 -27 C 8.5625 -31 6.125 -36.4375 6.125 -43.3125 C 6.125 -49.957031 7.960938 -55.160156 11.640625 -58.921875 C 15.316406 -62.679688 20.359375 -64.5625 26.765625 -64.5625 C 30.046875 -64.5625 33.082031 -63.800781 35.875 -62.28125 C 38.4375 -63.632812 40.296875 -65.234375 41.453125 -67.078125 C 42.617188 -68.921875 43.363281 -71 43.6875 -73.3125 L 52.3125 -73.3125 C 52.3125 -69.476562 51.375 -66.203125 49.5 -63.484375 C 47.625 -60.765625 45.046875 -59.003906 41.765625 -58.203125 C 45.523438 -54.273438 47.40625 -49.3125 47.40625 -43.3125 C 47.40625 -36.832031 45.582031 -31.691406 41.9375 -27.890625 C 38.300781 -24.097656 33.398438 -22.160156 27.234375 -22.078125 L 20.640625 -22.078125 C 19.035156 -22.078125 17.671875 -21.535156 16.546875 -20.453125 C 15.429688 -19.378906 14.875 -18.039062 14.875 -16.4375 C 14.875 -14.914062 15.429688 -13.59375 16.546875 -12.46875 C 17.671875 -11.351562 19.035156 -10.796875 20.640625 -10.796875 L 38.640625 -10.796875 C 43.117188 -10.796875 46.71875 -9.375 49.4375 -6.53125 C 52.15625 -3.695312 53.515625 -0.203125 53.515625 3.953125 C 53.515625 9.160156 51.894531 13.441406 48.65625 16.796875 C 45.414062 20.160156 40.878906 21.84375 35.046875 21.84375 Z M 26.640625 -30.234375 C 30.078125 -30.234375 32.734375 -31.394531 34.609375 -33.71875 C 36.492188 -36.039062 37.4375 -39.238281 37.4375 -43.3125 C 37.4375 -47.5625 36.492188 -50.804688 34.609375 -53.046875 C 32.734375 -55.285156 30.078125 -56.40625 26.640625 -56.40625 C 23.203125 -56.40625 20.5625 -55.242188 18.71875 -52.921875 C 16.875 -50.597656 15.953125 -47.394531 15.953125 -43.3125 C 15.953125 -39.070312 16.875 -35.832031 18.71875 -33.59375 C 20.5625 -31.351562 23.203125 -30.234375 26.640625 -30.234375 Z M 36.125 13.3125 C 38.195312 13.3125 39.953125 12.59375 41.390625 11.15625 C 42.835938 9.71875 43.5625 7.957031 43.5625 5.875 C 43.5625 3.71875 42.921875 1.957031 41.640625 0.59375 C 40.359375 -0.757812 38.519531 -1.4375 36.125 -1.4375 L 18.71875 -1.4375 C 16.320312 -1.4375 14.503906 -0.757812 13.265625 0.59375 C 12.023438 1.957031 11.40625 3.71875 11.40625 5.875 C 11.40625 8.039062 12.039062 9.820312 13.3125 11.21875 C 14.59375 12.613281 16.394531 13.3125 18.71875 13.3125 Z M 36.125 13.3125 "/></g></g></g><g fill="#e5c0a1" fill-opacity="1"><g transform="translate(217.800068, 650.739491)"><g><path d="M 28.921875 1.4375 C 20.921875 1.4375 14.941406 -1.179688 10.984375 -6.421875 C 7.023438 -11.660156 5.046875 -20.039062 5.046875 -31.5625 C 5.046875 -42.84375 7.003906 -51.160156 10.921875 -56.515625 C 14.835938 -61.878906 20.796875 -64.5625 28.796875 -64.5625 C 35.835938 -64.5625 41.054688 -62.21875 44.453125 -57.53125 C 47.859375 -52.851562 49.5625 -45.316406 49.5625 -34.921875 L 49.5625 -28.6875 L 15.359375 -28.6875 C 15.441406 -21.320312 16.582031 -15.914062 18.78125 -12.46875 C 20.976562 -9.03125 24.4375 -7.3125 29.15625 -7.3125 C 32.351562 -7.3125 34.929688 -8.59375 36.890625 -11.15625 C 38.859375 -13.71875 39.84375 -17.160156 39.84375 -21.484375 L 49.5625 -21.484375 C 49.5625 -14.441406 47.660156 -8.859375 43.859375 -4.734375 C 40.054688 -0.617188 35.078125 1.4375 28.921875 1.4375 Z M 39.234375 -37.4375 C 39.234375 -43.4375 38.351562 -47.992188 36.59375 -51.109375 C 34.832031 -54.234375 32.234375 -55.796875 28.796875 -55.796875 C 24.554688 -55.796875 21.375 -54.296875 19.25 -51.296875 C 17.132812 -48.296875 15.878906 -43.675781 15.484375 -37.4375 Z M 39.234375 -37.4375 "/></g></g></g><g fill="#e5c0a1" fill-opacity="1"><g transform="translate(272.520093, 650.739491)"><g><path d="M 18.359375 1.203125 C 14.359375 1.203125 11.476562 -0.175781 9.71875 -2.9375 C 7.957031 -5.695312 7.078125 -9.15625 7.078125 -13.3125 L 7.078125 -54.359375 L 1.6875 -54.359375 L 1.6875 -63.125 L 7.078125 -63.125 L 9.234375 -80.640625 L 16.921875 -80.640625 L 16.921875 -63.125 L 25.4375 -63.125 L 25.4375 -54.359375 L 16.921875 -54.359375 L 16.921875 -13.078125 C 16.921875 -9.234375 18.800781 -7.3125 22.5625 -7.3125 L 25.4375 -7.3125 L 25.4375 -0.484375 C 24.5625 -0.00390625 23.460938 0.394531 22.140625 0.71875 C 20.816406 1.039062 19.554688 1.203125 18.359375 1.203125 Z M 18.359375 1.203125 "/></g></g></g><g fill="#e5c0a1" fill-opacity="1"><g transform="translate(299.880099, 650.739491)"><g><path d="M 7.203125 -86.765625 L 17.046875 -86.765625 L 17.046875 -56.515625 L 17.765625 -56.515625 C 20.796875 -61.878906 25.515625 -64.5625 31.921875 -64.5625 C 36.960938 -64.5625 40.820312 -63.0625 43.5 -60.0625 C 46.175781 -57.0625 47.515625 -52.203125 47.515625 -45.484375 L 47.515625 0 L 37.6875 0 L 37.6875 -44.765625 C 37.6875 -48.835938 36.925781 -51.691406 35.40625 -53.328125 C 33.882812 -54.972656 31.679688 -55.796875 28.796875 -55.796875 C 25.515625 -55.796875 22.734375 -54.234375 20.453125 -51.109375 C 18.179688 -47.992188 17.046875 -43.796875 17.046875 -38.515625 L 17.046875 0 L 7.203125 0 Z M 7.203125 -86.765625 "/></g></g></g><g fill="#e5c0a1" fill-opacity="1"><g transform="translate(354.600113, 650.739491)"><g><path d="M 28.921875 1.4375 C 20.921875 1.4375 14.941406 -1.179688 10.984375 -6.421875 C 7.023438 -11.660156 5.046875 -20.039062 5.046875 -31.5625 C 5.046875 -42.84375 7.003906 -51.160156 10.921875 -56.515625 C 14.835938 -61.878906 20.796875 -64.5625 28.796875 -64.5625 C 35.835938 -64.5625 41.054688 -62.21875 44.453125 -57.53125 C 47.859375 -52.851562 49.5625 -45.316406 49.5625 -34.921875 L 49.5625 -28.6875 L 15.359375 -28.6875 C 15.441406 -21.320312 16.582031 -15.914062 18.78125 -12.46875 C 20.976562 -9.03125 24.4375 -7.3125 29.15625 -7.3125 C 32.351562 -7.3125 34.929688 -8.59375 36.890625 -11.15625 C 38.859375 -13.71875 39.84375 -17.160156 39.84375 -21.484375 L 49.5625 -21.484375 C 49.5625 -14.441406 47.660156 -8.859375 43.859375 -4.734375 C 40.054688 -0.617188 35.078125 1.4375 28.921875 1.4375 Z M 39.234375 -37.4375 C 39.234375 -43.4375 38.351562 -47.992188 36.59375 -51.109375 C 34.832031 -54.234375 32.234375 -55.796875 28.796875 -55.796875 C 24.554688 -55.796875 21.375 -54.296875 19.25 -51.296875 C 17.132812 -48.296875 15.878906 -43.675781 15.484375 -37.4375 Z M 39.234375 -37.4375 "/></g></g></g><g fill="#e5c0a1" fill-opacity="1"><g transform="translate(409.320127, 650.739491)"><g><path d="M 7.203125 -63.125 L 14.640625 -63.125 L 15.953125 -54.84375 L 16.6875 -54.84375 C 17.5625 -57.644531 18.878906 -59.960938 20.640625 -61.796875 C 22.398438 -63.640625 24.640625 -64.5625 27.359375 -64.5625 C 28.484375 -64.5625 29.484375 -64.421875 30.359375 -64.140625 C 31.242188 -63.859375 31.804688 -63.675781 32.046875 -63.59375 L 32.046875 -53.40625 L 28.796875 -53.40625 C 25.359375 -53.40625 22.539062 -52.222656 20.34375 -49.859375 C 18.144531 -47.492188 17.046875 -43.710938 17.046875 -38.515625 L 17.046875 0 L 7.203125 0 Z M 7.203125 -63.125 "/></g></g></g><g fill="#e5c0a1" fill-opacity="1"><g transform="translate(442.080143, 650.739491)"><g><path d="M 7.6875 -12.953125 L 19.6875 -12.953125 L 19.6875 0 L 7.6875 0 Z M 7.6875 -12.953125 "/></g></g></g><g fill="#e5c0a1" fill-opacity="1"><g transform="translate(469.440149, 650.739491)"><g><path d="M 7.6875 -12.953125 L 19.6875 -12.953125 L 19.6875 0 L 7.6875 0 Z M 7.6875 -12.953125 "/></g></g></g><g fill="#e5c0a1" fill-opacity="1"><g transform="translate(496.80018, 650.739491)"><g><path d="M 7.6875 -12.953125 L 19.6875 -12.953125 L 19.6875 0 L 7.6875 0 Z M 7.6875 -12.953125 "/></g></g></g><g clip-path="url(#fc91139a1b)"><g clip-path="url(#27894ad068)"><path fill="#9c6640" d="M 639.253906 462.316406 L 1215.300781 462.316406 L 1215.300781 590.402344 L 639.253906 590.402344 Z M 639.253906 462.316406 " fill-opacity="1" fill-rule="nonzero"/></g></g><g fill="#e5c0a1" fill-opacity="1"><g transform="translate(54.594618, 58.707087)"><g><path d="M 1.6875 -12.59375 L 9.328125 -12.59375 L 9.328125 -11.203125 L 3.203125 -11.203125 L 3.203125 -7.015625 L 9.21875 -7.015625 L 9.21875 -5.609375 L 3.203125 -5.609375 L 3.203125 -1.40625 L 9.4375 -1.40625 L 9.4375 0 L 1.6875 0 Z M 1.6875 -12.59375 "/></g></g></g><g fill="#e5c0a1" fill-opacity="1"><g transform="translate(65.610585, 58.707087)"><g><path d="M 2.96875 0 L 1.5625 0 L 1.5625 -8.921875 L 2.96875 -8.921875 L 2.96875 -7.421875 L 3.1875 -7.421875 C 3.738281 -8.597656 4.695312 -9.1875 6.0625 -9.1875 C 7.09375 -9.1875 7.914062 -8.863281 8.53125 -8.21875 C 9.144531 -7.570312 9.453125 -6.609375 9.453125 -5.328125 L 9.453125 0 L 8.046875 0 L 8.046875 -5.046875 C 8.046875 -5.972656 7.832031 -6.671875 7.40625 -7.140625 C 6.988281 -7.609375 6.421875 -7.84375 5.703125 -7.84375 C 4.847656 -7.84375 4.175781 -7.550781 3.6875 -6.96875 C 3.207031 -6.394531 2.96875 -5.617188 2.96875 -4.640625 Z M 2.96875 0 "/></g></g></g><g fill="#e5c0a1" fill-opacity="1"><g transform="translate(76.626553, 58.707087)"><g><path d="M 8.359375 -1.375 L 8.140625 -1.375 C 7.847656 -0.832031 7.453125 -0.425781 6.953125 -0.15625 C 6.453125 0.113281 5.910156 0.25 5.328125 0.25 C 4.722656 0.25 4.15625 0.148438 3.625 -0.046875 C 3.101562 -0.253906 2.640625 -0.550781 2.234375 -0.9375 C 1.835938 -1.320312 1.519531 -1.796875 1.28125 -2.359375 C 1.050781 -2.929688 0.9375 -3.582031 0.9375 -4.3125 L 0.9375 -4.609375 C 0.9375 -5.328125 1.054688 -5.96875 1.296875 -6.53125 C 1.535156 -7.101562 1.851562 -7.582031 2.25 -7.96875 C 2.644531 -8.363281 3.101562 -8.664062 3.625 -8.875 C 4.15625 -9.082031 4.710938 -9.1875 5.296875 -9.1875 C 5.941406 -9.1875 6.503906 -9.039062 6.984375 -8.75 C 7.472656 -8.46875 7.859375 -8.0625 8.140625 -7.53125 L 8.359375 -7.53125 L 8.359375 -8.921875 L 9.75 -8.921875 L 9.75 2.203125 C 9.75 2.609375 9.617188 2.941406 9.359375 3.203125 C 9.109375 3.460938 8.78125 3.59375 8.375 3.59375 L 2.5625 3.59375 L 2.5625 2.296875 L 7.859375 2.296875 C 8.191406 2.296875 8.359375 2.117188 8.359375 1.765625 Z M 5.359375 -1.078125 C 5.785156 -1.078125 6.175781 -1.15625 6.53125 -1.3125 C 6.894531 -1.46875 7.210938 -1.6875 7.484375 -1.96875 C 7.753906 -2.257812 7.96875 -2.609375 8.125 -3.015625 C 8.28125 -3.421875 8.359375 -3.867188 8.359375 -4.359375 L 8.359375 -4.578125 C 8.359375 -5.054688 8.28125 -5.492188 8.125 -5.890625 C 7.96875 -6.296875 7.753906 -6.640625 7.484375 -6.921875 C 7.210938 -7.210938 6.890625 -7.4375 6.515625 -7.59375 C 6.148438 -7.757812 5.765625 -7.84375 5.359375 -7.84375 C 4.941406 -7.84375 4.550781 -7.765625 4.1875 -7.609375 C 3.820312 -7.453125 3.503906 -7.226562 3.234375 -6.9375 C 2.960938 -6.65625 2.75 -6.316406 2.59375 -5.921875 C 2.445312 -5.523438 2.375 -5.085938 2.375 -4.609375 L 2.375 -4.3125 C 2.375 -3.8125 2.445312 -3.363281 2.59375 -2.96875 C 2.75 -2.570312 2.960938 -2.234375 3.234375 -1.953125 C 3.503906 -1.671875 3.816406 -1.453125 4.171875 -1.296875 C 4.535156 -1.148438 4.929688 -1.078125 5.359375 -1.078125 Z M 5.359375 -1.078125 "/></g></g></g><g fill="#e5c0a1" fill-opacity="1"><g transform="translate(87.642521, 58.707087)"><g/></g></g><g fill="#e5c0a1" fill-opacity="1"><g transform="translate(98.658489, 58.707087)"><g><path d="M 5.296875 -12.59375 L 8.21875 -12.59375 L 8.21875 -3.78125 L 10.171875 -3.78125 L 10.171875 -2.375 L 8.21875 -2.375 L 8.21875 0 L 6.71875 0 L 6.71875 -2.375 L 0.875 -2.375 L 0.875 -4.46875 Z M 2.171875 -4 L 2.171875 -3.78125 L 6.71875 -3.78125 L 6.71875 -11.953125 L 6.5 -11.953125 Z M 2.171875 -4 "/></g></g></g><g fill="#e5c0a1" fill-opacity="1"><g transform="translate(109.674457, 58.707087)"><g><path d="M 4.84375 -1.40625 L 4.84375 -11.9375 L 4.625 -11.9375 L 2.5625 -7.203125 L 1.0625 -7.203125 L 1.0625 -7.3125 L 3.421875 -12.59375 L 6.359375 -12.59375 L 6.359375 -1.40625 L 9.921875 -1.40625 L 9.921875 0 L 1.28125 0 L 1.28125 -1.40625 Z M 4.84375 -1.40625 "/></g></g></g><g fill="#e5c0a1" fill-opacity="1"><g transform="translate(120.690424, 58.707087)"><g><path d="M 1.078125 -7.703125 C 1.078125 -9.335938 1.46875 -10.601562 2.25 -11.5 C 3.03125 -12.40625 4.117188 -12.859375 5.515625 -12.859375 C 6.898438 -12.859375 7.984375 -12.40625 8.765625 -11.5 C 9.546875 -10.601562 9.9375 -9.335938 9.9375 -7.703125 L 9.9375 -4.890625 C 9.9375 -3.210938 9.546875 -1.9375 8.765625 -1.0625 C 7.984375 -0.1875 6.898438 0.25 5.515625 0.25 C 4.117188 0.25 3.03125 -0.1875 2.25 -1.0625 C 1.46875 -1.9375 1.078125 -3.210938 1.078125 -4.890625 Z M 5.515625 -1.109375 C 6.484375 -1.109375 7.207031 -1.445312 7.6875 -2.125 C 8.175781 -2.8125 8.421875 -3.769531 8.421875 -5 L 8.421875 -7.59375 C 8.421875 -8.164062 8.359375 -8.6875 8.234375 -9.15625 C 8.117188 -9.632812 7.9375 -10.046875 7.6875 -10.390625 C 7.445312 -10.734375 7.144531 -11 6.78125 -11.1875 C 6.414062 -11.382812 5.992188 -11.484375 5.515625 -11.484375 C 5.015625 -11.484375 4.582031 -11.382812 4.21875 -11.1875 C 3.863281 -11 3.5625 -10.734375 3.3125 -10.390625 C 3.070312 -10.046875 2.890625 -9.632812 2.765625 -9.15625 C 2.648438 -8.6875 2.59375 -8.164062 2.59375 -7.59375 L 2.59375 -5 C 2.59375 -3.769531 2.832031 -2.8125 3.3125 -2.125 C 3.800781 -1.445312 4.535156 -1.109375 5.515625 -1.109375 Z M 4.359375 -6.296875 C 4.359375 -6.609375 4.472656 -6.878906 4.703125 -7.109375 C 4.929688 -7.335938 5.203125 -7.453125 5.515625 -7.453125 C 5.816406 -7.453125 6.082031 -7.335938 6.3125 -7.109375 C 6.539062 -6.878906 6.65625 -6.609375 6.65625 -6.296875 C 6.65625 -5.984375 6.539062 -5.710938 6.3125 -5.484375 C 6.082031 -5.253906 5.816406 -5.140625 5.515625 -5.140625 C 5.203125 -5.140625 4.929688 -5.253906 4.703125 -5.484375 C 4.472656 -5.710938 4.359375 -5.984375 4.359375 -6.296875 Z M 4.359375 -6.296875 "/></g></g></g><g fill="#e5c0a1" fill-opacity="1"><g transform="translate(131.706392, 58.707087)"><g><path d="M 7.5 -14.515625 L 8.765625 -14.109375 L 3.53125 1.90625 L 2.25 1.515625 Z M 7.5 -14.515625 "/></g></g></g><g fill="#e5c0a1" fill-opacity="1"><g transform="translate(142.72236, 58.707087)"><g><path d="M 1.40625 -5.9375 L 1.40625 -12.59375 L 9.28125 -12.59375 L 9.28125 -11.203125 L 2.875 -11.203125 L 2.875 -6.703125 L 3.09375 -6.703125 C 3.21875 -6.941406 3.375 -7.171875 3.5625 -7.390625 C 3.757812 -7.609375 3.984375 -7.800781 4.234375 -7.96875 C 4.492188 -8.132812 4.785156 -8.269531 5.109375 -8.375 C 5.429688 -8.476562 5.789062 -8.53125 6.1875 -8.53125 C 6.769531 -8.53125 7.300781 -8.429688 7.78125 -8.234375 C 8.269531 -8.046875 8.6875 -7.773438 9.03125 -7.421875 C 9.382812 -7.078125 9.660156 -6.660156 9.859375 -6.171875 C 10.054688 -5.679688 10.15625 -5.132812 10.15625 -4.53125 L 10.15625 -4.21875 C 10.15625 -3.613281 10.054688 -3.039062 9.859375 -2.5 C 9.671875 -1.96875 9.390625 -1.492188 9.015625 -1.078125 C 8.640625 -0.671875 8.175781 -0.347656 7.625 -0.109375 C 7.070312 0.128906 6.4375 0.25 5.71875 0.25 C 4.988281 0.25 4.34375 0.144531 3.78125 -0.0625 C 3.21875 -0.28125 2.742188 -0.582031 2.359375 -0.96875 C 1.972656 -1.351562 1.679688 -1.804688 1.484375 -2.328125 C 1.285156 -2.847656 1.1875 -3.414062 1.1875 -4.03125 L 1.1875 -4.53125 L 2.703125 -4.53125 L 2.703125 -4.140625 C 2.703125 -3.140625 2.976562 -2.390625 3.53125 -1.890625 C 4.09375 -1.398438 4.820312 -1.15625 5.71875 -1.15625 C 6.195312 -1.15625 6.617188 -1.238281 6.984375 -1.40625 C 7.359375 -1.582031 7.664062 -1.816406 7.90625 -2.109375 C 8.15625 -2.410156 8.335938 -2.753906 8.453125 -3.140625 C 8.578125 -3.523438 8.640625 -3.929688 8.640625 -4.359375 L 8.640625 -4.46875 C 8.640625 -4.832031 8.578125 -5.175781 8.453125 -5.5 C 8.328125 -5.832031 8.148438 -6.117188 7.921875 -6.359375 C 7.703125 -6.597656 7.429688 -6.785156 7.109375 -6.921875 C 6.796875 -7.054688 6.453125 -7.125 6.078125 -7.125 C 5.828125 -7.125 5.597656 -7.085938 5.390625 -7.015625 C 5.179688 -6.941406 5 -6.847656 4.84375 -6.734375 C 4.6875 -6.617188 4.554688 -6.488281 4.453125 -6.34375 C 4.347656 -6.207031 4.28125 -6.070312 4.25 -5.9375 Z M 1.40625 -5.9375 "/></g></g></g><g fill="#e5c0a1" fill-opacity="1"><g transform="translate(153.738328, 58.707087)"><g><path d="M 4.84375 -1.40625 L 4.84375 -11.9375 L 4.625 -11.9375 L 2.5625 -7.203125 L 1.0625 -7.203125 L 1.0625 -7.3125 L 3.421875 -12.59375 L 6.359375 -12.59375 L 6.359375 -1.40625 L 9.921875 -1.40625 L 9.921875 0 L 1.28125 0 L 1.28125 -1.40625 Z M 4.84375 -1.40625 "/></g></g></g><g fill="#e5c0a1" fill-opacity="1"><g transform="translate(164.754296, 58.707087)"><g><path d="M 1.078125 -7.703125 C 1.078125 -9.335938 1.46875 -10.601562 2.25 -11.5 C 3.03125 -12.40625 4.117188 -12.859375 5.515625 -12.859375 C 6.898438 -12.859375 7.984375 -12.40625 8.765625 -11.5 C 9.546875 -10.601562 9.9375 -9.335938 9.9375 -7.703125 L 9.9375 -4.890625 C 9.9375 -3.210938 9.546875 -1.9375 8.765625 -1.0625 C 7.984375 -0.1875 6.898438 0.25 5.515625 0.25 C 4.117188 0.25 3.03125 -0.1875 2.25 -1.0625 C 1.46875 -1.9375 1.078125 -3.210938 1.078125 -4.890625 Z M 5.515625 -1.109375 C 6.484375 -1.109375 7.207031 -1.445312 7.6875 -2.125 C 8.175781 -2.8125 8.421875 -3.769531 8.421875 -5 L 8.421875 -7.59375 C 8.421875 -8.164062 8.359375 -8.6875 8.234375 -9.15625 C 8.117188 -9.632812 7.9375 -10.046875 7.6875 -10.390625 C 7.445312 -10.734375 7.144531 -11 6.78125 -11.1875 C 6.414062 -11.382812 5.992188 -11.484375 5.515625 -11.484375 C 5.015625 -11.484375 4.582031 -11.382812 4.21875 -11.1875 C 3.863281 -11 3.5625 -10.734375 3.3125 -10.390625 C 3.070312 -10.046875 2.890625 -9.632812 2.765625 -9.15625 C 2.648438 -8.6875 2.59375 -8.164062 2.59375 -7.59375 L 2.59375 -5 C 2.59375 -3.769531 2.832031 -2.8125 3.3125 -2.125 C 3.800781 -1.445312 4.535156 -1.109375 5.515625 -1.109375 Z M 4.359375 -6.296875 C 4.359375 -6.609375 4.472656 -6.878906 4.703125 -7.109375 C 4.929688 -7.335938 5.203125 -7.453125 5.515625 -7.453125 C 5.816406 -7.453125 6.082031 -7.335938 6.3125 -7.109375 C 6.539062 -6.878906 6.65625 -6.609375 6.65625 -6.296875 C 6.65625 -5.984375 6.539062 -5.710938 6.3125 -5.484375 C 6.082031 -5.253906 5.816406 -5.140625 5.515625 -5.140625 C 5.203125 -5.140625 4.929688 -5.253906 4.703125 -5.484375 C 4.472656 -5.710938 4.359375 -5.984375 4.359375 -6.296875 Z M 4.359375 -6.296875 "/></g></g></g><g fill="#e5c0a1" fill-opacity="1"><g transform="translate(175.770263, 58.707087)"><g/></g></g><g fill="#e5c0a1" fill-opacity="1"><g transform="translate(186.786231, 58.707087)"><g><path d="M 8.484375 -8.96875 C 8.484375 -9.375 8.398438 -9.734375 8.234375 -10.046875 C 8.066406 -10.359375 7.84375 -10.613281 7.5625 -10.8125 C 7.289062 -11.019531 6.972656 -11.175781 6.609375 -11.28125 C 6.253906 -11.394531 5.878906 -11.453125 5.484375 -11.453125 C 5.140625 -11.453125 4.8125 -11.40625 4.5 -11.3125 C 4.1875 -11.21875 3.90625 -11.085938 3.65625 -10.921875 C 3.414062 -10.753906 3.222656 -10.546875 3.078125 -10.296875 C 2.929688 -10.054688 2.859375 -9.773438 2.859375 -9.453125 L 2.859375 -9.34375 C 2.859375 -8.988281 2.929688 -8.6875 3.078125 -8.4375 C 3.222656 -8.195312 3.4375 -7.988281 3.71875 -7.8125 C 4 -7.644531 4.347656 -7.503906 4.765625 -7.390625 C 5.191406 -7.273438 5.6875 -7.175781 6.25 -7.09375 C 7.5625 -6.882812 8.53125 -6.492188 9.15625 -5.921875 C 9.78125 -5.359375 10.09375 -4.597656 10.09375 -3.640625 L 10.09375 -3.421875 C 10.09375 -2.878906 10 -2.382812 9.8125 -1.9375 C 9.632812 -1.488281 9.359375 -1.097656 8.984375 -0.765625 C 8.617188 -0.441406 8.164062 -0.191406 7.625 -0.015625 C 7.09375 0.160156 6.472656 0.25 5.765625 0.25 C 4.953125 0.25 4.238281 0.132812 3.625 -0.09375 C 3.007812 -0.332031 2.492188 -0.65625 2.078125 -1.0625 C 1.660156 -1.476562 1.34375 -1.960938 1.125 -2.515625 C 0.914062 -3.078125 0.8125 -3.691406 0.8125 -4.359375 L 0.8125 -4.890625 L 2.328125 -4.890625 L 2.328125 -4.46875 C 2.328125 -3.363281 2.628906 -2.535156 3.234375 -1.984375 C 3.835938 -1.429688 4.679688 -1.15625 5.765625 -1.15625 C 6.691406 -1.15625 7.394531 -1.359375 7.875 -1.765625 C 8.351562 -2.179688 8.59375 -2.734375 8.59375 -3.421875 L 8.59375 -3.53125 C 8.59375 -4.1875 8.347656 -4.6875 7.859375 -5.03125 C 7.367188 -5.382812 6.578125 -5.640625 5.484375 -5.796875 C 4.847656 -5.878906 4.273438 -6.003906 3.765625 -6.171875 C 3.253906 -6.347656 2.816406 -6.578125 2.453125 -6.859375 C 2.097656 -7.148438 1.820312 -7.492188 1.625 -7.890625 C 1.4375 -8.285156 1.34375 -8.75 1.34375 -9.28125 L 1.34375 -9.5 C 1.34375 -9.988281 1.445312 -10.4375 1.65625 -10.84375 C 1.863281 -11.257812 2.148438 -11.613281 2.515625 -11.90625 C 2.878906 -12.207031 3.316406 -12.441406 3.828125 -12.609375 C 4.335938 -12.773438 4.898438 -12.859375 5.515625 -12.859375 C 6.210938 -12.859375 6.84375 -12.753906 7.40625 -12.546875 C 7.96875 -12.335938 8.4375 -12.0625 8.8125 -11.71875 C 9.195312 -11.382812 9.488281 -10.984375 9.6875 -10.515625 C 9.882812 -10.054688 9.984375 -9.578125 9.984375 -9.078125 L 9.984375 -8.3125 L 8.484375 -8.3125 Z M 8.484375 -8.96875 "/></g></g></g><g fill="#e5c0a1" fill-opacity="1"><g transform="translate(197.802199, 58.707087)"><g><path d="M 9.796875 -1.40625 L 9.796875 0 L 1.265625 0 L 1.265625 -2.15625 C 1.265625 -2.738281 1.359375 -3.238281 1.546875 -3.65625 C 1.742188 -4.082031 2.015625 -4.445312 2.359375 -4.75 C 2.710938 -5.0625 3.140625 -5.316406 3.640625 -5.515625 C 4.148438 -5.722656 4.722656 -5.898438 5.359375 -6.046875 C 6.429688 -6.285156 7.203125 -6.625 7.671875 -7.0625 C 8.148438 -7.507812 8.390625 -8.0625 8.390625 -8.71875 L 8.390625 -8.8125 C 8.390625 -9.144531 8.332031 -9.460938 8.21875 -9.765625 C 8.113281 -10.078125 7.945312 -10.359375 7.71875 -10.609375 C 7.488281 -10.867188 7.195312 -11.070312 6.84375 -11.21875 C 6.488281 -11.375 6.066406 -11.453125 5.578125 -11.453125 C 4.648438 -11.453125 3.929688 -11.164062 3.421875 -10.59375 C 2.910156 -10.03125 2.65625 -9.285156 2.65625 -8.359375 L 2.65625 -7.5625 L 1.15625 -7.5625 L 1.15625 -8.453125 C 1.15625 -9.035156 1.25 -9.585938 1.4375 -10.109375 C 1.632812 -10.640625 1.914062 -11.109375 2.28125 -11.515625 C 2.65625 -11.921875 3.117188 -12.242188 3.671875 -12.484375 C 4.222656 -12.734375 4.859375 -12.859375 5.578125 -12.859375 C 6.304688 -12.859375 6.941406 -12.742188 7.484375 -12.515625 C 8.023438 -12.296875 8.472656 -12.003906 8.828125 -11.640625 C 9.191406 -11.273438 9.460938 -10.859375 9.640625 -10.390625 C 9.816406 -9.929688 9.90625 -9.460938 9.90625 -8.984375 L 9.90625 -8.65625 C 9.90625 -7.695312 9.601562 -6.878906 9 -6.203125 C 8.394531 -5.523438 7.4375 -5.039062 6.125 -4.75 C 4.96875 -4.5 4.117188 -4.164062 3.578125 -3.75 C 3.035156 -3.332031 2.765625 -2.726562 2.765625 -1.9375 L 2.765625 -1.40625 Z M 9.796875 -1.40625 "/></g></g></g><g fill="#e5c0a1" fill-opacity="1"><g transform="translate(208.818167, 58.707087)"><g><path d="M 4.265625 -6.265625 L 4.265625 -8.359375 L 8.375 -10.984375 L 8.375 -11.203125 L 1.234375 -11.203125 L 1.234375 -12.59375 L 9.671875 -12.59375 L 9.671875 -10.296875 L 5.5625 -7.671875 L 5.5625 -7.453125 L 6.28125 -7.453125 C 6.757812 -7.453125 7.21875 -7.375 7.65625 -7.21875 C 8.101562 -7.0625 8.5 -6.832031 8.84375 -6.53125 C 9.1875 -6.226562 9.460938 -5.859375 9.671875 -5.421875 C 9.878906 -4.984375 9.984375 -4.476562 9.984375 -3.90625 L 9.984375 -3.578125 C 9.984375 -3.035156 9.875 -2.53125 9.65625 -2.0625 C 9.445312 -1.601562 9.148438 -1.203125 8.765625 -0.859375 C 8.378906 -0.515625 7.925781 -0.242188 7.40625 -0.046875 C 6.882812 0.148438 6.316406 0.25 5.703125 0.25 C 4.992188 0.25 4.359375 0.144531 3.796875 -0.0625 C 3.234375 -0.28125 2.753906 -0.578125 2.359375 -0.953125 C 1.960938 -1.335938 1.660156 -1.785156 1.453125 -2.296875 C 1.242188 -2.804688 1.140625 -3.347656 1.140625 -3.921875 L 1.140625 -4.890625 L 2.640625 -4.890625 L 2.640625 -4.03125 C 2.640625 -3.570312 2.710938 -3.164062 2.859375 -2.8125 C 3.015625 -2.457031 3.226562 -2.15625 3.5 -1.90625 C 3.769531 -1.664062 4.085938 -1.476562 4.453125 -1.34375 C 4.828125 -1.21875 5.234375 -1.15625 5.671875 -1.15625 C 6.066406 -1.15625 6.4375 -1.21875 6.78125 -1.34375 C 7.125 -1.476562 7.421875 -1.660156 7.671875 -1.890625 C 7.921875 -2.128906 8.117188 -2.40625 8.265625 -2.71875 C 8.410156 -3.039062 8.484375 -3.382812 8.484375 -3.75 L 8.484375 -3.859375 C 8.484375 -4.609375 8.238281 -5.195312 7.75 -5.625 C 7.269531 -6.050781 6.671875 -6.265625 5.953125 -6.265625 Z M 4.265625 -6.265625 "/></g></g></g><g fill="#e5c0a1" fill-opacity="1"><g transform="translate(54.594618, 764.488686)"><g><path d="M 3.046875 -5.1875 L 3.046875 0 L 1.53125 0 L 1.53125 -12.59375 L 6.03125 -12.59375 C 6.675781 -12.59375 7.238281 -12.5 7.71875 -12.3125 C 8.195312 -12.132812 8.59375 -11.890625 8.90625 -11.578125 C 9.226562 -11.265625 9.46875 -10.898438 9.625 -10.484375 C 9.789062 -10.066406 9.875 -9.632812 9.875 -9.1875 L 9.875 -8.640625 C 9.875 -8.179688 9.789062 -7.742188 9.625 -7.328125 C 9.46875 -6.910156 9.226562 -6.539062 8.90625 -6.21875 C 8.582031 -5.894531 8.179688 -5.640625 7.703125 -5.453125 C 7.222656 -5.273438 6.664062 -5.1875 6.03125 -5.1875 Z M 3.046875 -6.59375 L 5.84375 -6.59375 C 7.53125 -6.59375 8.375 -7.3125 8.375 -8.75 L 8.375 -9.078125 C 8.375 -9.710938 8.164062 -10.222656 7.75 -10.609375 C 7.332031 -11.003906 6.695312 -11.203125 5.84375 -11.203125 L 3.046875 -11.203125 Z M 3.046875 -6.59375 "/></g></g></g><g fill="#e5c0a1" fill-opacity="1"><g transform="translate(65.610585, 764.488686)"><g><path d="M 1.0625 -8.921875 L 4.296875 -8.921875 L 4.296875 -7.734375 L 4.515625 -7.734375 C 4.742188 -8.234375 5.066406 -8.597656 5.484375 -8.828125 C 5.910156 -9.066406 6.394531 -9.1875 6.9375 -9.1875 C 7.832031 -9.1875 8.554688 -8.890625 9.109375 -8.296875 C 9.660156 -7.710938 9.953125 -6.851562 9.984375 -5.71875 L 8.515625 -5.515625 C 8.515625 -6.335938 8.316406 -6.929688 7.921875 -7.296875 C 7.523438 -7.660156 7.039062 -7.84375 6.46875 -7.84375 C 6.09375 -7.84375 5.769531 -7.769531 5.5 -7.625 C 5.226562 -7.488281 5 -7.289062 4.8125 -7.03125 C 4.632812 -6.78125 4.503906 -6.488281 4.421875 -6.15625 C 4.335938 -5.820312 4.296875 -5.460938 4.296875 -5.078125 L 4.296875 -1.296875 L 6.5625 -1.296875 L 6.5625 0 L 0.84375 0 L 0.84375 -1.296875 L 2.890625 -1.296875 L 2.890625 -7.625 L 1.0625 -7.625 Z M 1.0625 -8.921875 "/></g></g></g><g fill="#e5c0a1" fill-opacity="1"><g transform="translate(76.626553, 764.488686)"><g><path d="M 9.984375 -4.359375 C 9.984375 -3.609375 9.859375 -2.945312 9.609375 -2.375 C 9.367188 -1.8125 9.046875 -1.332031 8.640625 -0.9375 C 8.234375 -0.550781 7.753906 -0.253906 7.203125 -0.046875 C 6.660156 0.148438 6.097656 0.25 5.515625 0.25 C 4.910156 0.25 4.335938 0.148438 3.796875 -0.046875 C 3.253906 -0.253906 2.78125 -0.550781 2.375 -0.9375 C 1.96875 -1.332031 1.640625 -1.8125 1.390625 -2.375 C 1.148438 -2.945312 1.03125 -3.609375 1.03125 -4.359375 L 1.03125 -4.578125 C 1.03125 -5.304688 1.148438 -5.953125 1.390625 -6.515625 C 1.640625 -7.085938 1.96875 -7.570312 2.375 -7.96875 C 2.789062 -8.363281 3.269531 -8.664062 3.8125 -8.875 C 4.351562 -9.082031 4.921875 -9.1875 5.515625 -9.1875 C 6.097656 -9.1875 6.660156 -9.082031 7.203125 -8.875 C 7.742188 -8.664062 8.21875 -8.363281 8.625 -7.96875 C 9.039062 -7.570312 9.367188 -7.085938 9.609375 -6.515625 C 9.859375 -5.953125 9.984375 -5.304688 9.984375 -4.578125 Z M 5.515625 -1.078125 C 5.941406 -1.078125 6.335938 -1.148438 6.703125 -1.296875 C 7.066406 -1.453125 7.382812 -1.671875 7.65625 -1.953125 C 7.9375 -2.242188 8.15625 -2.585938 8.3125 -2.984375 C 8.46875 -3.390625 8.546875 -3.847656 8.546875 -4.359375 L 8.546875 -4.578125 C 8.546875 -5.054688 8.46875 -5.492188 8.3125 -5.890625 C 8.15625 -6.296875 7.9375 -6.640625 7.65625 -6.921875 C 7.382812 -7.210938 7.0625 -7.4375 6.6875 -7.59375 C 6.320312 -7.757812 5.929688 -7.84375 5.515625 -7.84375 C 5.085938 -7.84375 4.6875 -7.757812 4.3125 -7.59375 C 3.945312 -7.4375 3.625 -7.210938 3.34375 -6.921875 C 3.070312 -6.640625 2.859375 -6.296875 2.703125 -5.890625 C 2.546875 -5.492188 2.46875 -5.054688 2.46875 -4.578125 L 2.46875 -4.359375 C 2.46875 -3.847656 2.546875 -3.390625 2.703125 -2.984375 C 2.859375 -2.585938 3.070312 -2.242188 3.34375 -1.953125 C 3.625 -1.671875 3.945312 -1.453125 4.3125 -1.296875 C 4.675781 -1.148438 5.078125 -1.078125 5.515625 -1.078125 Z M 5.515625 -1.078125 "/></g></g></g><g fill="#e5c0a1" fill-opacity="1"><g transform="translate(87.642521, 764.488686)"><g><path d="M 1.46875 -8.921875 L 4.234375 -8.921875 L 4.234375 -11.203125 C 4.234375 -11.609375 4.359375 -11.941406 4.609375 -12.203125 C 4.867188 -12.460938 5.203125 -12.59375 5.609375 -12.59375 L 9.140625 -12.59375 L 9.140625 -11.296875 L 6.125 -11.296875 C 5.800781 -11.296875 5.640625 -11.117188 5.640625 -10.765625 L 5.640625 -8.921875 L 9.359375 -8.921875 L 9.359375 -7.625 L 5.640625 -7.625 L 5.640625 0 L 4.234375 0 L 4.234375 -7.625 L 1.46875 -7.625 Z M 1.46875 -8.921875 "/></g></g></g><g fill="#e5c0a1" fill-opacity="1"><g transform="translate(98.658489, 764.488686)"><g><path d="M 4.25 -1.015625 C 4.25 -1.359375 4.367188 -1.648438 4.609375 -1.890625 C 4.859375 -2.140625 5.160156 -2.265625 5.515625 -2.265625 C 5.859375 -2.265625 6.148438 -2.140625 6.390625 -1.890625 C 6.640625 -1.648438 6.765625 -1.359375 6.765625 -1.015625 C 6.765625 -0.660156 6.640625 -0.359375 6.390625 -0.109375 C 6.148438 0.128906 5.859375 0.25 5.515625 0.25 C 5.160156 0.25 4.859375 0.128906 4.609375 -0.109375 C 4.367188 -0.359375 4.25 -0.660156 4.25 -1.015625 Z M 4.25 -1.015625 "/></g></g></g><g fill="#e5c0a1" fill-opacity="1"><g transform="translate(109.674457, 764.488686)"><g/></g></g><g fill="#e5c0a1" fill-opacity="1"><g transform="translate(120.690424, 764.488686)"><g><path d="M 0.828125 -12.59375 L 3.703125 -12.59375 L 5.40625 -0.640625 L 5.609375 -0.640625 L 7.3125 -12.59375 L 10.1875 -12.59375 L 10.1875 0 L 8.78125 0 L 8.78125 -11.953125 L 8.5625 -11.953125 L 6.875 0 L 4.140625 0 L 2.453125 -11.953125 L 2.234375 -11.953125 L 2.234375 0 L 0.828125 0 Z M 0.828125 -12.59375 "/></g></g></g><g fill="#e5c0a1" fill-opacity="1"><g transform="translate(131.706392, 764.488686)"><g><path d="M 8.046875 -1.515625 L 7.828125 -1.515625 C 7.535156 -0.910156 7.132812 -0.460938 6.625 -0.171875 C 6.125 0.109375 5.585938 0.25 5.015625 0.25 C 4.429688 0.25 3.882812 0.148438 3.375 -0.046875 C 2.875 -0.242188 2.4375 -0.535156 2.0625 -0.921875 C 1.6875 -1.316406 1.390625 -1.796875 1.171875 -2.359375 C 0.953125 -2.921875 0.84375 -3.570312 0.84375 -4.3125 L 0.84375 -4.609375 C 0.84375 -5.335938 0.953125 -5.984375 1.171875 -6.546875 C 1.390625 -7.109375 1.6875 -7.582031 2.0625 -7.96875 C 2.4375 -8.363281 2.875 -8.664062 3.375 -8.875 C 3.882812 -9.082031 4.421875 -9.1875 4.984375 -9.1875 C 5.597656 -9.1875 6.148438 -9.050781 6.640625 -8.78125 C 7.140625 -8.507812 7.535156 -8.09375 7.828125 -7.53125 L 8.046875 -7.53125 L 8.046875 -8.921875 L 9.453125 -8.921875 L 9.453125 -1.84375 C 9.453125 -1.476562 9.613281 -1.296875 9.9375 -1.296875 L 10.390625 -1.296875 L 10.390625 0 L 9.4375 0 C 9.019531 0 8.679688 -0.128906 8.421875 -0.390625 C 8.171875 -0.660156 8.046875 -1 8.046875 -1.40625 Z M 5.171875 -1.078125 C 5.585938 -1.078125 5.972656 -1.15625 6.328125 -1.3125 C 6.679688 -1.46875 6.984375 -1.6875 7.234375 -1.96875 C 7.484375 -2.257812 7.679688 -2.609375 7.828125 -3.015625 C 7.972656 -3.421875 8.046875 -3.867188 8.046875 -4.359375 L 8.046875 -4.578125 C 8.046875 -5.054688 7.972656 -5.492188 7.828125 -5.890625 C 7.679688 -6.296875 7.476562 -6.640625 7.21875 -6.921875 C 6.96875 -7.210938 6.664062 -7.4375 6.3125 -7.59375 C 5.957031 -7.757812 5.578125 -7.84375 5.171875 -7.84375 C 4.742188 -7.84375 4.351562 -7.765625 4 -7.609375 C 3.65625 -7.453125 3.351562 -7.234375 3.09375 -6.953125 C 2.84375 -6.671875 2.644531 -6.328125 2.5 -5.921875 C 2.351562 -5.523438 2.28125 -5.085938 2.28125 -4.609375 L 2.28125 -4.3125 C 2.28125 -3.300781 2.546875 -2.507812 3.078125 -1.9375 C 3.617188 -1.363281 4.316406 -1.078125 5.171875 -1.078125 Z M 5.171875 -1.078125 "/></g></g></g><g fill="#e5c0a1" fill-opacity="1"><g transform="translate(142.72236, 764.488686)"><g><path d="M 1.265625 -8.921875 L 4.0625 -8.921875 L 4.0625 -12.59375 L 5.46875 -12.59375 L 5.46875 -8.921875 L 8.921875 -8.921875 L 8.921875 -7.625 L 5.46875 -7.625 L 5.46875 -1.84375 C 5.46875 -1.476562 5.628906 -1.296875 5.953125 -1.296875 L 8.5 -1.296875 L 8.5 0 L 5.453125 0 C 5.046875 0 4.710938 -0.128906 4.453125 -0.390625 C 4.191406 -0.660156 4.0625 -1 4.0625 -1.40625 L 4.0625 -7.625 L 1.265625 -7.625 Z M 1.265625 -8.921875 "/></g></g></g><g fill="#e5c0a1" fill-opacity="1"><g transform="translate(153.738328, 764.488686)"><g><path d="M 1.265625 -8.921875 L 4.0625 -8.921875 L 4.0625 -12.59375 L 5.46875 -12.59375 L 5.46875 -8.921875 L 8.921875 -8.921875 L 8.921875 -7.625 L 5.46875 -7.625 L 5.46875 -1.84375 C 5.46875 -1.476562 5.628906 -1.296875 5.953125 -1.296875 L 8.5 -1.296875 L 8.5 0 L 5.453125 0 C 5.046875 0 4.710938 -0.128906 4.453125 -0.390625 C 4.191406 -0.660156 4.0625 -1 4.0625 -1.40625 L 4.0625 -7.625 L 1.265625 -7.625 Z M 1.265625 -8.921875 "/></g></g></g><g fill="#e5c0a1" fill-opacity="1"><g transform="translate(164.754296, 764.488686)"><g><path d="M 4.34375 -11.59375 C 4.34375 -11.9375 4.460938 -12.234375 4.703125 -12.484375 C 4.953125 -12.734375 5.25 -12.859375 5.59375 -12.859375 C 5.945312 -12.859375 6.242188 -12.734375 6.484375 -12.484375 C 6.734375 -12.234375 6.859375 -11.9375 6.859375 -11.59375 C 6.859375 -11.238281 6.734375 -10.9375 6.484375 -10.6875 C 6.242188 -10.445312 5.945312 -10.328125 5.59375 -10.328125 C 5.25 -10.328125 4.953125 -10.445312 4.703125 -10.6875 C 4.460938 -10.9375 4.34375 -11.238281 4.34375 -11.59375 Z M 1.78125 -1.296875 L 4.90625 -1.296875 L 4.90625 -7.625 L 2.109375 -7.625 L 2.109375 -8.921875 L 6.3125 -8.921875 L 6.3125 -1.296875 L 9.234375 -1.296875 L 9.234375 0 L 1.78125 0 Z M 1.78125 -1.296875 "/></g></g></g><g fill="#e5c0a1" fill-opacity="1"><g transform="translate(175.770263, 764.488686)"><g><path d="M 2.59375 -4.03125 C 2.625 -3.144531 2.894531 -2.429688 3.40625 -1.890625 C 3.925781 -1.347656 4.648438 -1.078125 5.578125 -1.078125 C 5.992188 -1.078125 6.359375 -1.125 6.671875 -1.21875 C 6.984375 -1.320312 7.25 -1.457031 7.46875 -1.625 C 7.695312 -1.789062 7.878906 -1.984375 8.015625 -2.203125 C 8.148438 -2.421875 8.265625 -2.660156 8.359375 -2.921875 L 9.6875 -2.5625 C 9.4375 -1.726562 8.96875 -1.050781 8.28125 -0.53125 C 7.601562 -0.0078125 6.691406 0.25 5.546875 0.25 C 4.910156 0.25 4.320312 0.140625 3.78125 -0.078125 C 3.25 -0.296875 2.789062 -0.609375 2.40625 -1.015625 C 2.03125 -1.429688 1.734375 -1.921875 1.515625 -2.484375 C 1.296875 -3.046875 1.1875 -3.671875 1.1875 -4.359375 L 1.1875 -4.78125 C 1.1875 -5.40625 1.296875 -5.988281 1.515625 -6.53125 C 1.742188 -7.070312 2.054688 -7.535156 2.453125 -7.921875 C 2.847656 -8.316406 3.3125 -8.625 3.84375 -8.84375 C 4.375 -9.070312 4.953125 -9.1875 5.578125 -9.1875 C 6.304688 -9.1875 6.9375 -9.050781 7.46875 -8.78125 C 8.007812 -8.507812 8.453125 -8.175781 8.796875 -7.78125 C 9.140625 -7.382812 9.390625 -6.953125 9.546875 -6.484375 C 9.710938 -6.015625 9.796875 -5.582031 9.796875 -5.1875 L 9.796875 -4.03125 Z M 5.578125 -7.84375 C 5.179688 -7.84375 4.8125 -7.78125 4.46875 -7.65625 C 4.125 -7.53125 3.820312 -7.351562 3.5625 -7.125 C 3.3125 -6.894531 3.101562 -6.628906 2.9375 -6.328125 C 2.78125 -6.023438 2.675781 -5.691406 2.625 -5.328125 L 8.390625 -5.328125 C 8.367188 -5.710938 8.273438 -6.0625 8.109375 -6.375 C 7.941406 -6.6875 7.726562 -6.945312 7.46875 -7.15625 C 7.21875 -7.375 6.925781 -7.539062 6.59375 -7.65625 C 6.269531 -7.78125 5.929688 -7.84375 5.578125 -7.84375 Z M 5.578125 -7.84375 "/></g></g></g><g fill="#e5c0a1" fill-opacity="1"><g transform="translate(186.786231, 764.488686)"><g/></g></g><g fill="#e5c0a1" fill-opacity="1"><g transform="translate(197.802199, 764.488686)"><g><path d="M 1.03125 -1.40625 L 2.109375 -1.40625 L 2.109375 -11.203125 L 1.03125 -11.203125 L 1.03125 -12.59375 L 6.125 -12.59375 C 6.71875 -12.59375 7.242188 -12.507812 7.703125 -12.34375 C 8.171875 -12.175781 8.5625 -11.945312 8.875 -11.65625 C 9.195312 -11.375 9.4375 -11.03125 9.59375 -10.625 C 9.757812 -10.226562 9.84375 -9.796875 9.84375 -9.328125 L 9.84375 -9.109375 C 9.84375 -8.765625 9.785156 -8.445312 9.671875 -8.15625 C 9.566406 -7.863281 9.421875 -7.601562 9.234375 -7.375 C 9.046875 -7.144531 8.820312 -6.945312 8.5625 -6.78125 C 8.300781 -6.625 8.019531 -6.503906 7.71875 -6.421875 L 7.71875 -6.203125 C 8.320312 -6.035156 8.828125 -5.710938 9.234375 -5.234375 C 9.640625 -4.765625 9.84375 -4.191406 9.84375 -3.515625 L 9.84375 -3.296875 C 9.84375 -2.828125 9.757812 -2.390625 9.59375 -1.984375 C 9.4375 -1.585938 9.195312 -1.238281 8.875 -0.9375 C 8.5625 -0.644531 8.171875 -0.414062 7.703125 -0.25 C 7.242188 -0.0820312 6.71875 0 6.125 0 L 1.03125 0 Z M 3.625 -1.40625 L 6.015625 -1.40625 C 6.722656 -1.40625 7.296875 -1.582031 7.734375 -1.9375 C 8.179688 -2.289062 8.40625 -2.78125 8.40625 -3.40625 L 8.40625 -3.515625 C 8.40625 -4.160156 8.191406 -4.671875 7.765625 -5.046875 C 7.347656 -5.421875 6.78125 -5.609375 6.0625 -5.609375 L 3.625 -5.609375 Z M 3.625 -7.015625 L 6.0625 -7.015625 C 6.78125 -7.015625 7.347656 -7.203125 7.765625 -7.578125 C 8.191406 -7.953125 8.40625 -8.460938 8.40625 -9.109375 L 8.40625 -9.21875 C 8.40625 -9.832031 8.179688 -10.316406 7.734375 -10.671875 C 7.296875 -11.023438 6.722656 -11.203125 6.015625 -11.203125 L 3.625 -11.203125 Z M 3.625 -7.015625 "/></g></g></g><g fill="#e5c0a1" fill-opacity="1"><g transform="translate(208.818167, 764.488686)"><g><path d="M 7.9375 -8.921875 L 9.34375 -8.921875 L 9.34375 0 L 7.9375 0 L 7.9375 -1.625 L 7.71875 -1.625 C 7.4375 -1.039062 7.0625 -0.582031 6.59375 -0.25 C 6.125 0.0820312 5.53125 0.25 4.8125 0.25 C 4.3125 0.25 3.851562 0.164062 3.4375 0 C 3.03125 -0.15625 2.675781 -0.394531 2.375 -0.71875 C 2.082031 -1.039062 1.851562 -1.441406 1.6875 -1.921875 C 1.53125 -2.398438 1.453125 -2.957031 1.453125 -3.59375 L 1.453125 -8.921875 L 2.859375 -8.921875 L 2.859375 -3.78125 C 2.859375 -2.84375 3.050781 -2.15625 3.4375 -1.71875 C 3.820312 -1.289062 4.410156 -1.078125 5.203125 -1.078125 C 6.054688 -1.078125 6.722656 -1.367188 7.203125 -1.953125 C 7.691406 -2.535156 7.9375 -3.3125 7.9375 -4.28125 Z M 7.9375 -8.921875 "/></g></g></g><g fill="#e5c0a1" fill-opacity="1"><g transform="translate(219.834134, 764.488686)"><g><path d="M 1.0625 -8.921875 L 4.296875 -8.921875 L 4.296875 -7.734375 L 4.515625 -7.734375 C 4.742188 -8.234375 5.066406 -8.597656 5.484375 -8.828125 C 5.910156 -9.066406 6.394531 -9.1875 6.9375 -9.1875 C 7.832031 -9.1875 8.554688 -8.890625 9.109375 -8.296875 C 9.660156 -7.710938 9.953125 -6.851562 9.984375 -5.71875 L 8.515625 -5.515625 C 8.515625 -6.335938 8.316406 -6.929688 7.921875 -7.296875 C 7.523438 -7.660156 7.039062 -7.84375 6.46875 -7.84375 C 6.09375 -7.84375 5.769531 -7.769531 5.5 -7.625 C 5.226562 -7.488281 5 -7.289062 4.8125 -7.03125 C 4.632812 -6.78125 4.503906 -6.488281 4.421875 -6.15625 C 4.335938 -5.820312 4.296875 -5.460938 4.296875 -5.078125 L 4.296875 -1.296875 L 6.5625 -1.296875 L 6.5625 0 L 0.84375 0 L 0.84375 -1.296875 L 2.890625 -1.296875 L 2.890625 -7.625 L 1.0625 -7.625 Z M 1.0625 -8.921875 "/></g></g></g><g fill="#e5c0a1" fill-opacity="1"><g transform="translate(230.850102, 764.488686)"><g><path d="M 3.875 -5.21875 L 4.171875 -5.21875 L 7.578125 -8.921875 L 9.3125 -8.921875 L 9.3125 -8.8125 L 5.59375 -4.734375 L 5.59375 -4.40625 L 9.734375 -0.109375 L 9.734375 0 L 8.015625 0 L 4.21875 -3.921875 L 3.875 -3.921875 L 3.875 0 L 2.46875 0 L 2.46875 -12.59375 L 3.875 -12.59375 Z M 3.875 -5.21875 "/></g></g></g><g fill="#e5c0a1" fill-opacity="1"><g transform="translate(241.86607, 764.488686)"><g><path d="M 2.59375 -4.03125 C 2.625 -3.144531 2.894531 -2.429688 3.40625 -1.890625 C 3.925781 -1.347656 4.648438 -1.078125 5.578125 -1.078125 C 5.992188 -1.078125 6.359375 -1.125 6.671875 -1.21875 C 6.984375 -1.320312 7.25 -1.457031 7.46875 -1.625 C 7.695312 -1.789062 7.878906 -1.984375 8.015625 -2.203125 C 8.148438 -2.421875 8.265625 -2.660156 8.359375 -2.921875 L 9.6875 -2.5625 C 9.4375 -1.726562 8.96875 -1.050781 8.28125 -0.53125 C 7.601562 -0.0078125 6.691406 0.25 5.546875 0.25 C 4.910156 0.25 4.320312 0.140625 3.78125 -0.078125 C 3.25 -0.296875 2.789062 -0.609375 2.40625 -1.015625 C 2.03125 -1.429688 1.734375 -1.921875 1.515625 -2.484375 C 1.296875 -3.046875 1.1875 -3.671875 1.1875 -4.359375 L 1.1875 -4.78125 C 1.1875 -5.40625 1.296875 -5.988281 1.515625 -6.53125 C 1.742188 -7.070312 2.054688 -7.535156 2.453125 -7.921875 C 2.847656 -8.316406 3.3125 -8.625 3.84375 -8.84375 C 4.375 -9.070312 4.953125 -9.1875 5.578125 -9.1875 C 6.304688 -9.1875 6.9375 -9.050781 7.46875 -8.78125 C 8.007812 -8.507812 8.453125 -8.175781 8.796875 -7.78125 C 9.140625 -7.382812 9.390625 -6.953125 9.546875 -6.484375 C 9.710938 -6.015625 9.796875 -5.582031 9.796875 -5.1875 L 9.796875 -4.03125 Z M 5.578125 -7.84375 C 5.179688 -7.84375 4.8125 -7.78125 4.46875 -7.65625 C 4.125 -7.53125 3.820312 -7.351562 3.5625 -7.125 C 3.3125 -6.894531 3.101562 -6.628906 2.9375 -6.328125 C 2.78125 -6.023438 2.675781 -5.691406 2.625 -5.328125 L 8.390625 -5.328125 C 8.367188 -5.710938 8.273438 -6.0625 8.109375 -6.375 C 7.941406 -6.6875 7.726562 -6.945312 7.46875 -7.15625 C 7.21875 -7.375 6.925781 -7.539062 6.59375 -7.65625 C 6.269531 -7.78125 5.929688 -7.84375 5.578125 -7.84375 Z M 5.578125 -7.84375 "/></g></g></g><g fill="#e5c0a1" fill-opacity="1"><g transform="translate(252.882038, 764.488686)"><g><path d="M 1.0625 -8.921875 L 4.296875 -8.921875 L 4.296875 -7.734375 L 4.515625 -7.734375 C 4.742188 -8.234375 5.066406 -8.597656 5.484375 -8.828125 C 5.910156 -9.066406 6.394531 -9.1875 6.9375 -9.1875 C 7.832031 -9.1875 8.554688 -8.890625 9.109375 -8.296875 C 9.660156 -7.710938 9.953125 -6.851562 9.984375 -5.71875 L 8.515625 -5.515625 C 8.515625 -6.335938 8.316406 -6.929688 7.921875 -7.296875 C 7.523438 -7.660156 7.039062 -7.84375 6.46875 -7.84375 C 6.09375 -7.84375 5.769531 -7.769531 5.5 -7.625 C 5.226562 -7.488281 5 -7.289062 4.8125 -7.03125 C 4.632812 -6.78125 4.503906 -6.488281 4.421875 -6.15625 C 4.335938 -5.820312 4.296875 -5.460938 4.296875 -5.078125 L 4.296875 -1.296875 L 6.5625 -1.296875 L 6.5625 0 L 0.84375 0 L 0.84375 -1.296875 L 2.890625 -1.296875 L 2.890625 -7.625 L 1.0625 -7.625 Z M 1.0625 -8.921875 "/></g></g></g><g fill="#e5c0a1" fill-opacity="1"><g transform="translate(263.898006, 764.488686)"><g><path d="M 1.265625 -8.921875 L 4.0625 -8.921875 L 4.0625 -12.59375 L 5.46875 -12.59375 L 5.46875 -8.921875 L 8.921875 -8.921875 L 8.921875 -7.625 L 5.46875 -7.625 L 5.46875 -1.84375 C 5.46875 -1.476562 5.628906 -1.296875 5.953125 -1.296875 L 8.5 -1.296875 L 8.5 0 L 5.453125 0 C 5.046875 0 4.710938 -0.128906 4.453125 -0.390625 C 4.191406 -0.660156 4.0625 -1 4.0625 -1.40625 L 4.0625 -7.625 L 1.265625 -7.625 Z M 1.265625 -8.921875 "/></g></g></g><g fill="#e5c0a1" fill-opacity="1"><g transform="translate(274.907106, 764.488686)"><g/></g></g></svg>