<svg xmlns="http://www.w3.org/2000/svg" xmlns:xlink="http://www.w3.org/1999/xlink" width="1080" zoomAndPan="magnify" viewBox="0 0 810 809.999993" height="1080" preserveAspectRatio="xMidYMid meet" version="1.0"><defs><g/><clipPath id="94063b0171"><path d="M 0 462 L 405 462 L 405 590 L 0 590 Z M 0 462 " clip-rule="nonzero"/></clipPath><clipPath id="3877170c25"><path d="M 399.613281 462 C 396.5625 462 394.121094 464.441406 394.121094 467.488281 C 394.121094 468.300781 394.324219 469.117188 394.632812 469.726562 L 290.230469 578.191406 L -151.667969 578.191406 C -152.582031 573.71875 -156.546875 570.261719 -161.324219 570.261719 C -166.8125 570.261719 -171.183594 574.734375 -171.183594 580.125 C -171.183594 585.613281 -166.710938 589.984375 -161.324219 589.984375 C -156.546875 589.984375 -152.582031 586.628906 -151.667969 582.054688 L 291.957031 582.054688 L 397.476562 472.46875 C 398.085938 472.777344 398.800781 472.878906 399.613281 472.878906 C 402.660156 472.878906 405.101562 470.4375 405.101562 467.386719 C 405 464.441406 402.558594 462 399.613281 462 M -161.425781 584.597656 C -163.867188 584.597656 -165.898438 582.5625 -165.898438 580.125 C -165.898438 577.683594 -163.867188 575.652344 -161.425781 575.652344 C -158.988281 575.652344 -156.953125 577.683594 -156.953125 580.125 C -156.953125 582.5625 -158.886719 584.597656 -161.425781 584.597656 " clip-rule="nonzero"/></clipPath></defs><rect x="-81" width="972" fill="#ffffff" y="-80.999999" height="971.999992" fill-opacity="1"/><rect x="-81" width="972" fill="#51303b" y="-80.999999" height="971.999992" fill-opacity="1"/><g fill="#e5c0a1" fill-opacity="1"><g transform="translate(712.831312, 58.70697)"><g><path d="M 5.296875 -12.59375 L 8.21875 -12.59375 L 8.21875 -3.78125 L 10.171875 -3.78125 L 10.171875 -2.375 L 8.21875 -2.375 L 8.21875 0 L 6.71875 0 L 6.71875 -2.375 L 0.875 -2.375 L 0.875 -4.46875 Z M 2.171875 -4 L 2.171875 -3.78125 L 6.71875 -3.78125 L 6.71875 -11.953125 L 6.5 -11.953125 Z M 2.171875 -4 "/></g></g></g><g fill="#e5c0a1" fill-opacity="1"><g transform="translate(723.84728, 58.70697)"><g><path d="M 7.5 -14.515625 L 8.765625 -14.109375 L 3.53125 1.90625 L 2.25 1.515625 Z M 7.5 -14.515625 "/></g></g></g><g fill="#e5c0a1" fill-opacity="1"><g transform="translate(734.863248, 58.70697)"><g><path d="M 4.84375 -1.40625 L 4.84375 -11.9375 L 4.625 -11.9375 L 2.5625 -7.203125 L 1.0625 -7.203125 L 1.0625 -7.3125 L 3.421875 -12.59375 L 6.359375 -12.59375 L 6.359375 -1.40625 L 9.921875 -1.40625 L 9.921875 0 L 1.28125 0 L 1.28125 -1.40625 Z M 4.84375 -1.40625 "/></g></g></g><g fill="#e5c0a1" fill-opacity="1"><g transform="translate(745.879216, 58.70697)"><g><path d="M 1.078125 -7.703125 C 1.078125 -9.335938 1.46875 -10.601562 2.25 -11.5 C 3.03125 -12.40625 4.117188 -12.859375 5.515625 -12.859375 C 6.898438 -12.859375 7.984375 -12.40625 8.765625 -11.5 C 9.546875 -10.601562 9.9375 -9.335938 9.9375 -7.703125 L 9.9375 -4.890625 C 9.9375 -3.210938 9.546875 -1.9375 8.765625 -1.0625 C 7.984375 -0.1875 6.898438 0.25 5.515625 0.25 C 4.117188 0.25 3.03125 -0.1875 2.25 -1.0625 C 1.46875 -1.9375 1.078125 -3.210938 1.078125 -4.890625 Z M 5.515625 -1.109375 C 6.484375 -1.109375 7.207031 -1.445312 7.6875 -2.125 C 8.175781 -2.8125 8.421875 -3.769531 8.421875 -5 L 8.421875 -7.59375 C 8.421875 -8.164062 8.359375 -8.6875 8.234375 -9.15625 C 8.117188 -9.632812 7.9375 -10.046875 7.6875 -10.390625 C 7.445312 -10.734375 7.144531 -11 6.78125 -11.1875 C 6.414062 -11.382812 5.992188 -11.484375 5.515625 -11.484375 C 5.015625 -11.484375 4.582031 -11.382812 4.21875 -11.1875 C 3.863281 -11 3.5625 -10.734375 3.3125 -10.390625 C 3.070312 -10.046875 2.890625 -9.632812 2.765625 -9.15625 C 2.648438 -8.6875 2.59375 -8.164062 2.59375 -7.59375 L 2.59375 -5 C 2.59375 -3.769531 2.832031 -2.8125 3.3125 -2.125 C 3.800781 -1.445312 4.535156 -1.109375 5.515625 -1.109375 Z M 4.359375 -6.296875 C 4.359375 -6.609375 4.472656 -6.878906 4.703125 -7.109375 C 4.929688 -7.335938 5.203125 -7.453125 5.515625 -7.453125 C 5.816406 -7.453125 6.082031 -7.335938 6.3125 -7.109375 C 6.539062 -6.878906 6.65625 -6.609375 6.65625 -6.296875 C 6.65625 -5.984375 6.539062 -5.710938 6.3125 -5.484375 C 6.082031 -5.253906 5.816406 -5.140625 5.515625 -5.140625 C 5.203125 -5.140625 4.929688 -5.253906 4.703125 -5.484375 C 4.472656 -5.710938 4.359375 -5.984375 4.359375 -6.296875 Z M 4.359375 -6.296875 "/></g></g></g><g fill="#e5c0a1" fill-opacity="1"><g transform="translate(322.953257, 416.097654)"><g><path d="M 6.4375 0.4375 C 4.539062 0.4375 3.070312 -0.101562 2.03125 -1.1875 C 0.988281 -2.269531 0.46875 -3.832031 0.46875 -5.875 L 0.46875 -7.484375 L 3.640625 -7.484375 L 3.640625 -5.6875 C 3.640625 -4.65625 3.878906 -3.863281 4.359375 -3.3125 C 4.835938 -2.757812 5.53125 -2.484375 6.4375 -2.484375 C 7.351562 -2.484375 8.050781 -2.757812 8.53125 -3.3125 C 9.007812 -3.863281 9.25 -4.65625 9.25 -5.6875 L 9.25 -24.703125 L 12.421875 -24.703125 L 12.421875 -5.875 C 12.421875 -3.832031 11.894531 -2.269531 10.84375 -1.1875 C 9.800781 -0.101562 8.332031 0.4375 6.4375 0.4375 Z M 6.4375 0.4375 "/></g></g></g><g fill="#e5c0a1" fill-opacity="1"><g transform="translate(337.713285, 416.097654)"><g><path d="M 6.84375 0.4375 C 5.332031 0.4375 4.171875 -0.0078125 3.359375 -0.90625 C 2.554688 -1.8125 2.15625 -3.273438 2.15625 -5.296875 L 2.15625 -18.9375 L 5.109375 -18.9375 L 5.109375 -5.515625 C 5.109375 -4.285156 5.335938 -3.425781 5.796875 -2.9375 C 6.253906 -2.445312 6.914062 -2.203125 7.78125 -2.203125 C 8.757812 -2.203125 9.585938 -2.664062 10.265625 -3.59375 C 10.953125 -4.53125 11.296875 -5.789062 11.296875 -7.375 L 11.296875 -18.9375 L 14.25 -18.9375 L 14.25 0 L 12.03125 0 L 11.625 -2.203125 L 11.40625 -2.203125 C 10.425781 -0.441406 8.90625 0.4375 6.84375 0.4375 Z M 6.84375 0.4375 "/></g></g></g><g fill="#e5c0a1" fill-opacity="1"><g transform="translate(354.129318, 416.097654)"><g><path d="M 7.265625 0.4375 C 5.234375 0.4375 3.710938 -0.09375 2.703125 -1.15625 C 1.691406 -2.226562 1.1875 -3.546875 1.1875 -5.109375 C 1.1875 -5.398438 1.191406 -5.597656 1.203125 -5.703125 C 1.210938 -5.816406 1.21875 -5.882812 1.21875 -5.90625 L 4.3125 -5.90625 L 4.3125 -5.546875 C 4.3125 -4.421875 4.597656 -3.570312 5.171875 -3 C 5.753906 -2.4375 6.503906 -2.15625 7.421875 -2.15625 C 8.234375 -2.15625 8.910156 -2.398438 9.453125 -2.890625 C 9.992188 -3.390625 10.265625 -4.082031 10.265625 -4.96875 C 10.265625 -5.632812 10.09375 -6.179688 9.75 -6.609375 C 9.414062 -7.046875 9.007812 -7.390625 8.53125 -7.640625 C 8.050781 -7.898438 7.378906 -8.1875 6.515625 -8.5 C 5.460938 -8.851562 4.609375 -9.207031 3.953125 -9.5625 C 3.304688 -9.925781 2.753906 -10.460938 2.296875 -11.171875 C 1.847656 -11.878906 1.625 -12.8125 1.625 -13.96875 C 1.625 -15.625 2.15625 -16.9375 3.21875 -17.90625 C 4.289062 -18.882812 5.726562 -19.375 7.53125 -19.375 C 9.226562 -19.375 10.554688 -18.875 11.515625 -17.875 C 12.472656 -16.875 12.953125 -15.644531 12.953125 -14.1875 L 12.921875 -13.5 L 9.859375 -13.5 L 9.859375 -13.828125 C 9.859375 -14.660156 9.65625 -15.359375 9.25 -15.921875 C 8.84375 -16.492188 8.171875 -16.78125 7.234375 -16.78125 C 6.296875 -16.78125 5.632812 -16.515625 5.25 -15.984375 C 4.875 -15.453125 4.6875 -14.851562 4.6875 -14.1875 C 4.6875 -13.363281 4.96875 -12.753906 5.53125 -12.359375 C 6.09375 -11.960938 6.960938 -11.578125 8.140625 -11.203125 C 9.210938 -10.816406 10.097656 -10.4375 10.796875 -10.0625 C 11.492188 -9.6875 12.085938 -9.125 12.578125 -8.375 C 13.066406 -7.632812 13.3125 -6.644531 13.3125 -5.40625 C 13.3125 -3.457031 12.765625 -1.992188 11.671875 -1.015625 C 10.585938 -0.046875 9.117188 0.4375 7.265625 0.4375 Z M 7.265625 0.4375 "/></g></g></g><g fill="#e5c0a1" fill-opacity="1"><g transform="translate(368.889346, 416.097654)"><g><path d="M 5.515625 0.359375 C 4.304688 0.359375 3.4375 -0.0507812 2.90625 -0.875 C 2.382812 -1.707031 2.125 -2.75 2.125 -4 L 2.125 -16.3125 L 0.5 -16.3125 L 0.5 -18.9375 L 2.125 -18.9375 L 2.765625 -24.1875 L 5.078125 -24.1875 L 5.078125 -18.9375 L 7.625 -18.9375 L 7.625 -16.3125 L 5.078125 -16.3125 L 5.078125 -3.921875 C 5.078125 -2.773438 5.640625 -2.203125 6.765625 -2.203125 L 7.625 -2.203125 L 7.625 -0.140625 C 7.363281 0.00390625 7.035156 0.125 6.640625 0.21875 C 6.242188 0.3125 5.867188 0.359375 5.515625 0.359375 Z M 5.515625 0.359375 "/></g></g></g><g fill="#e5c0a1" fill-opacity="1"><g transform="translate(377.097357, 416.097654)"><g/></g></g><g fill="#e5c0a1" fill-opacity="1"><g transform="translate(385.305369, 416.097654)"><g><path d="M 2.15625 -26.03125 L 5.109375 -26.03125 L 5.109375 -10.15625 L 11.234375 -18.9375 L 14.515625 -18.9375 L 8.921875 -11.15625 L 14.796875 0 L 11.453125 0 L 7.125 -8.640625 L 5.109375 -6.4375 L 5.109375 0 L 2.15625 0 Z M 2.15625 -26.03125 "/></g></g></g><g fill="#e5c0a1" fill-opacity="1"><g transform="translate(400.065396, 416.097654)"><g><path d="M 1.796875 -26.03125 L 4.75 -26.03125 L 4.75 -22.5 L 1.796875 -22.5 Z M 1.796875 -18.9375 L 4.75 -18.9375 L 4.75 0 L 1.796875 0 Z M 1.796875 -18.9375 "/></g></g></g><g fill="#e5c0a1" fill-opacity="1"><g transform="translate(406.617413, 416.097654)"><g><path d="M 7.3125 0.4375 C 5.4375 0.4375 3.988281 -0.378906 2.96875 -2.015625 C 1.945312 -3.648438 1.4375 -6.144531 1.4375 -9.5 C 1.4375 -12.769531 1.957031 -15.234375 3 -16.890625 C 4.050781 -18.546875 5.414062 -19.375 7.09375 -19.375 C 8.03125 -19.375 8.859375 -19.175781 9.578125 -18.78125 C 10.296875 -18.382812 10.8125 -17.835938 11.125 -17.140625 L 11.296875 -17.140625 L 11.296875 -26.03125 L 14.25 -26.03125 L 14.25 0 L 12.03125 0 L 11.625 -2.203125 L 11.453125 -2.203125 C 10.992188 -1.335938 10.40625 -0.679688 9.6875 -0.234375 C 8.96875 0.210938 8.175781 0.4375 7.3125 0.4375 Z M 7.921875 -2.203125 C 10.171875 -2.203125 11.296875 -4.394531 11.296875 -8.78125 L 11.296875 -10.015625 C 11.296875 -14.492188 10.171875 -16.734375 7.921875 -16.734375 C 6.765625 -16.734375 5.910156 -16.21875 5.359375 -15.1875 C 4.804688 -14.15625 4.53125 -12.476562 4.53125 -10.15625 L 4.53125 -8.78125 C 4.53125 -6.457031 4.804688 -4.78125 5.359375 -3.75 C 5.910156 -2.71875 6.765625 -2.203125 7.921875 -2.203125 Z M 7.921875 -2.203125 "/></g></g></g><g fill="#e5c0a1" fill-opacity="1"><g transform="translate(423.033447, 416.097654)"><g><path d="M 7.3125 0.4375 C 5.4375 0.4375 3.988281 -0.378906 2.96875 -2.015625 C 1.945312 -3.648438 1.4375 -6.144531 1.4375 -9.5 C 1.4375 -12.769531 1.957031 -15.234375 3 -16.890625 C 4.050781 -18.546875 5.414062 -19.375 7.09375 -19.375 C 8.03125 -19.375 8.859375 -19.175781 9.578125 -18.78125 C 10.296875 -18.382812 10.8125 -17.835938 11.125 -17.140625 L 11.296875 -17.140625 L 11.296875 -26.03125 L 14.25 -26.03125 L 14.25 0 L 12.03125 0 L 11.625 -2.203125 L 11.453125 -2.203125 C 10.992188 -1.335938 10.40625 -0.679688 9.6875 -0.234375 C 8.96875 0.210938 8.175781 0.4375 7.3125 0.4375 Z M 7.921875 -2.203125 C 10.171875 -2.203125 11.296875 -4.394531 11.296875 -8.78125 L 11.296875 -10.015625 C 11.296875 -14.492188 10.171875 -16.734375 7.921875 -16.734375 C 6.765625 -16.734375 5.910156 -16.21875 5.359375 -15.1875 C 4.804688 -14.15625 4.53125 -12.476562 4.53125 -10.15625 L 4.53125 -8.78125 C 4.53125 -6.457031 4.804688 -4.78125 5.359375 -3.75 C 5.910156 -2.71875 6.765625 -2.203125 7.921875 -2.203125 Z M 7.921875 -2.203125 "/></g></g></g><g fill="#e5c0a1" fill-opacity="1"><g transform="translate(439.449481, 416.097654)"><g><path d="M 1.796875 -26.03125 L 4.75 -26.03125 L 4.75 -22.5 L 1.796875 -22.5 Z M 1.796875 -18.9375 L 4.75 -18.9375 L 4.75 0 L 1.796875 0 Z M 1.796875 -18.9375 "/></g></g></g><g fill="#e5c0a1" fill-opacity="1"><g transform="translate(446.001497, 416.097654)"><g><path d="M 2.15625 -18.9375 L 4.390625 -18.9375 L 4.78125 -16.734375 L 5 -16.734375 C 5.988281 -18.492188 7.515625 -19.375 9.578125 -19.375 C 11.085938 -19.375 12.242188 -18.921875 13.046875 -18.015625 C 13.847656 -17.117188 14.25 -15.660156 14.25 -13.640625 L 14.25 0 L 11.296875 0 L 11.296875 -13.421875 C 11.296875 -14.648438 11.066406 -15.507812 10.609375 -16 C 10.160156 -16.488281 9.503906 -16.734375 8.640625 -16.734375 C 7.648438 -16.734375 6.8125 -16.265625 6.125 -15.328125 C 5.445312 -14.398438 5.109375 -13.144531 5.109375 -11.5625 L 5.109375 0 L 2.15625 0 Z M 2.15625 -18.9375 "/></g></g></g><g fill="#e5c0a1" fill-opacity="1"><g transform="translate(462.417531, 416.097654)"><g><path d="M 5.140625 6.546875 C 3.660156 6.546875 2.507812 6.117188 1.6875 5.265625 C 0.875 4.421875 0.46875 3.347656 0.46875 2.046875 C 0.46875 1.109375 0.6875 0.273438 1.125 -0.453125 C 1.570312 -1.179688 2.171875 -1.691406 2.921875 -1.984375 C 2.441406 -2.296875 2.0625 -2.703125 1.78125 -3.203125 C 1.507812 -3.703125 1.375 -4.242188 1.375 -4.828125 C 1.375 -5.566406 1.613281 -6.222656 2.09375 -6.796875 C 2.570312 -7.378906 3.21875 -7.8125 4.03125 -8.09375 C 2.570312 -9.300781 1.84375 -10.9375 1.84375 -13 C 1.84375 -14.988281 2.390625 -16.546875 3.484375 -17.671875 C 4.585938 -18.804688 6.101562 -19.375 8.03125 -19.375 C 9.007812 -19.375 9.921875 -19.144531 10.765625 -18.6875 C 11.535156 -19.09375 12.09375 -19.570312 12.4375 -20.125 C 12.78125 -20.675781 13.003906 -21.300781 13.109375 -22 L 15.703125 -22 C 15.703125 -20.84375 15.414062 -19.851562 14.84375 -19.03125 C 14.28125 -18.21875 13.507812 -17.691406 12.53125 -17.453125 C 13.65625 -16.285156 14.21875 -14.800781 14.21875 -13 C 14.21875 -11.050781 13.671875 -9.503906 12.578125 -8.359375 C 11.484375 -7.222656 10.015625 -6.644531 8.171875 -6.625 L 6.1875 -6.625 C 5.707031 -6.625 5.300781 -6.460938 4.96875 -6.140625 C 4.632812 -5.816406 4.46875 -5.414062 4.46875 -4.9375 C 4.46875 -4.476562 4.632812 -4.078125 4.96875 -3.734375 C 5.300781 -3.398438 5.707031 -3.234375 6.1875 -3.234375 L 11.59375 -3.234375 C 12.9375 -3.234375 14.015625 -2.804688 14.828125 -1.953125 C 15.648438 -1.109375 16.0625 -0.0625 16.0625 1.1875 C 16.0625 2.75 15.570312 4.03125 14.59375 5.03125 C 13.625 6.039062 12.265625 6.546875 10.515625 6.546875 Z M 7.984375 -9.078125 C 9.023438 -9.078125 9.828125 -9.421875 10.390625 -10.109375 C 10.953125 -10.804688 11.234375 -11.769531 11.234375 -13 C 11.234375 -14.269531 10.953125 -15.238281 10.390625 -15.90625 C 9.828125 -16.582031 9.023438 -16.921875 7.984375 -16.921875 C 6.953125 -16.921875 6.160156 -16.570312 5.609375 -15.875 C 5.054688 -15.175781 4.78125 -14.21875 4.78125 -13 C 4.78125 -11.726562 5.054688 -10.753906 5.609375 -10.078125 C 6.160156 -9.410156 6.953125 -9.078125 7.984375 -9.078125 Z M 10.84375 4 C 11.457031 4 11.976562 3.78125 12.40625 3.34375 C 12.84375 2.914062 13.0625 2.390625 13.0625 1.765625 C 13.0625 1.117188 12.867188 0.585938 12.484375 0.171875 C 12.109375 -0.234375 11.5625 -0.4375 10.84375 -0.4375 L 5.609375 -0.4375 C 4.890625 -0.4375 4.34375 -0.234375 3.96875 0.171875 C 3.601562 0.585938 3.421875 1.117188 3.421875 1.765625 C 3.421875 2.410156 3.613281 2.941406 4 3.359375 C 4.382812 3.785156 4.921875 4 5.609375 4 Z M 10.84375 4 "/></g></g></g><g fill="#e5c0a1" fill-opacity="1"><g transform="translate(478.833565, 416.097654)"><g><path d="M 2.296875 -3.890625 L 5.90625 -3.890625 L 5.90625 0 L 2.296875 0 Z M 2.296875 -3.890625 "/></g></g></g><g clip-path="url(#94063b0171)"><g clip-path="url(#3877170c25)"><path fill="#e08c72" d="M -171.285156 462 L 404.761719 462 L 404.761719 590.085938 L -171.285156 590.085938 Z M -171.285156 462 " fill-opacity="1" fill-rule="nonzero"/></g></g><g fill="#e5c0a1" fill-opacity="1"><g transform="translate(54.594618, 58.70697)"><g><path d="M 1.6875 -12.59375 L 9.328125 -12.59375 L 9.328125 -11.203125 L 3.203125 -11.203125 L 3.203125 -7.015625 L 9.21875 -7.015625 L 9.21875 -5.609375 L 3.203125 -5.609375 L 3.203125 -1.40625 L 9.4375 -1.40625 L 9.4375 0 L 1.6875 0 Z M 1.6875 -12.59375 "/></g></g></g><g fill="#e5c0a1" fill-opacity="1"><g transform="translate(65.610585, 58.70697)"><g><path d="M 2.96875 0 L 1.5625 0 L 1.5625 -8.921875 L 2.96875 -8.921875 L 2.96875 -7.421875 L 3.1875 -7.421875 C 3.738281 -8.597656 4.695312 -9.1875 6.0625 -9.1875 C 7.09375 -9.1875 7.914062 -8.863281 8.53125 -8.21875 C 9.144531 -7.570312 9.453125 -6.609375 9.453125 -5.328125 L 9.453125 0 L 8.046875 0 L 8.046875 -5.046875 C 8.046875 -5.972656 7.832031 -6.671875 7.40625 -7.140625 C 6.988281 -7.609375 6.421875 -7.84375 5.703125 -7.84375 C 4.847656 -7.84375 4.175781 -7.550781 3.6875 -6.96875 C 3.207031 -6.394531 2.96875 -5.617188 2.96875 -4.640625 Z M 2.96875 0 "/></g></g></g><g fill="#e5c0a1" fill-opacity="1"><g transform="translate(76.626553, 58.70697)"><g><path d="M 8.359375 -1.375 L 8.140625 -1.375 C 7.847656 -0.832031 7.453125 -0.425781 6.953125 -0.15625 C 6.453125 0.113281 5.910156 0.25 5.328125 0.25 C 4.722656 0.25 4.15625 0.148438 3.625 -0.046875 C 3.101562 -0.253906 2.640625 -0.550781 2.234375 -0.9375 C 1.835938 -1.320312 1.519531 -1.796875 1.28125 -2.359375 C 1.050781 -2.929688 0.9375 -3.582031 0.9375 -4.3125 L 0.9375 -4.609375 C 0.9375 -5.328125 1.054688 -5.96875 1.296875 -6.53125 C 1.535156 -7.101562 1.851562 -7.582031 2.25 -7.96875 C 2.644531 -8.363281 3.101562 -8.664062 3.625 -8.875 C 4.15625 -9.082031 4.710938 -9.1875 5.296875 -9.1875 C 5.941406 -9.1875 6.503906 -9.039062 6.984375 -8.75 C 7.472656 -8.46875 7.859375 -8.0625 8.140625 -7.53125 L 8.359375 -7.53125 L 8.359375 -8.921875 L 9.75 -8.921875 L 9.75 2.203125 C 9.75 2.609375 9.617188 2.941406 9.359375 3.203125 C 9.109375 3.460938 8.78125 3.59375 8.375 3.59375 L 2.5625 3.59375 L 2.5625 2.296875 L 7.859375 2.296875 C 8.191406 2.296875 8.359375 2.117188 8.359375 1.765625 Z M 5.359375 -1.078125 C 5.785156 -1.078125 6.175781 -1.15625 6.53125 -1.3125 C 6.894531 -1.46875 7.210938 -1.6875 7.484375 -1.96875 C 7.753906 -2.257812 7.96875 -2.609375 8.125 -3.015625 C 8.28125 -3.421875 8.359375 -3.867188 8.359375 -4.359375 L 8.359375 -4.578125 C 8.359375 -5.054688 8.28125 -5.492188 8.125 -5.890625 C 7.96875 -6.296875 7.753906 -6.640625 7.484375 -6.921875 C 7.210938 -7.210938 6.890625 -7.4375 6.515625 -7.59375 C 6.148438 -7.757812 5.765625 -7.84375 5.359375 -7.84375 C 4.941406 -7.84375 4.550781 -7.765625 4.1875 -7.609375 C 3.820312 -7.453125 3.503906 -7.226562 3.234375 -6.9375 C 2.960938 -6.65625 2.75 -6.316406 2.59375 -5.921875 C 2.445312 -5.523438 2.375 -5.085938 2.375 -4.609375 L 2.375 -4.3125 C 2.375 -3.8125 2.445312 -3.363281 2.59375 -2.96875 C 2.75 -2.570312 2.960938 -2.234375 3.234375 -1.953125 C 3.503906 -1.671875 3.816406 -1.453125 4.171875 -1.296875 C 4.535156 -1.148438 4.929688 -1.078125 5.359375 -1.078125 Z M 5.359375 -1.078125 "/></g></g></g><g fill="#e5c0a1" fill-opacity="1"><g transform="translate(87.642521, 58.70697)"><g/></g></g><g fill="#e5c0a1" fill-opacity="1"><g transform="translate(98.658489, 58.70697)"><g><path d="M 5.296875 -12.59375 L 8.21875 -12.59375 L 8.21875 -3.78125 L 10.171875 -3.78125 L 10.171875 -2.375 L 8.21875 -2.375 L 8.21875 0 L 6.71875 0 L 6.71875 -2.375 L 0.875 -2.375 L 0.875 -4.46875 Z M 2.171875 -4 L 2.171875 -3.78125 L 6.71875 -3.78125 L 6.71875 -11.953125 L 6.5 -11.953125 Z M 2.171875 -4 "/></g></g></g><g fill="#e5c0a1" fill-opacity="1"><g transform="translate(109.674457, 58.70697)"><g><path d="M 4.84375 -1.40625 L 4.84375 -11.9375 L 4.625 -11.9375 L 2.5625 -7.203125 L 1.0625 -7.203125 L 1.0625 -7.3125 L 3.421875 -12.59375 L 6.359375 -12.59375 L 6.359375 -1.40625 L 9.921875 -1.40625 L 9.921875 0 L 1.28125 0 L 1.28125 -1.40625 Z M 4.84375 -1.40625 "/></g></g></g><g fill="#e5c0a1" fill-opacity="1"><g transform="translate(120.690424, 58.70697)"><g><path d="M 1.078125 -7.703125 C 1.078125 -9.335938 1.46875 -10.601562 2.25 -11.5 C 3.03125 -12.40625 4.117188 -12.859375 5.515625 -12.859375 C 6.898438 -12.859375 7.984375 -12.40625 8.765625 -11.5 C 9.546875 -10.601562 9.9375 -9.335938 9.9375 -7.703125 L 9.9375 -4.890625 C 9.9375 -3.210938 9.546875 -1.9375 8.765625 -1.0625 C 7.984375 -0.1875 6.898438 0.25 5.515625 0.25 C 4.117188 0.25 3.03125 -0.1875 2.25 -1.0625 C 1.46875 -1.9375 1.078125 -3.210938 1.078125 -4.890625 Z M 5.515625 -1.109375 C 6.484375 -1.109375 7.207031 -1.445312 7.6875 -2.125 C 8.175781 -2.8125 8.421875 -3.769531 8.421875 -5 L 8.421875 -7.59375 C 8.421875 -8.164062 8.359375 -8.6875 8.234375 -9.15625 C 8.117188 -9.632812 7.9375 -10.046875 7.6875 -10.390625 C 7.445312 -10.734375 7.144531 -11 6.78125 -11.1875 C 6.414062 -11.382812 5.992188 -11.484375 5.515625 -11.484375 C 5.015625 -11.484375 4.582031 -11.382812 4.21875 -11.1875 C 3.863281 -11 3.5625 -10.734375 3.3125 -10.390625 C 3.070312 -10.046875 2.890625 -9.632812 2.765625 -9.15625 C 2.648438 -8.6875 2.59375 -8.164062 2.59375 -7.59375 L 2.59375 -5 C 2.59375 -3.769531 2.832031 -2.8125 3.3125 -2.125 C 3.800781 -1.445312 4.535156 -1.109375 5.515625 -1.109375 Z M 4.359375 -6.296875 C 4.359375 -6.609375 4.472656 -6.878906 4.703125 -7.109375 C 4.929688 -7.335938 5.203125 -7.453125 5.515625 -7.453125 C 5.816406 -7.453125 6.082031 -7.335938 6.3125 -7.109375 C 6.539062 -6.878906 6.65625 -6.609375 6.65625 -6.296875 C 6.65625 -5.984375 6.539062 -5.710938 6.3125 -5.484375 C 6.082031 -5.253906 5.816406 -5.140625 5.515625 -5.140625 C 5.203125 -5.140625 4.929688 -5.253906 4.703125 -5.484375 C 4.472656 -5.710938 4.359375 -5.984375 4.359375 -6.296875 Z M 4.359375 -6.296875 "/></g></g></g><g fill="#e5c0a1" fill-opacity="1"><g transform="translate(131.706392, 58.70697)"><g><path d="M 7.5 -14.515625 L 8.765625 -14.109375 L 3.53125 1.90625 L 2.25 1.515625 Z M 7.5 -14.515625 "/></g></g></g><g fill="#e5c0a1" fill-opacity="1"><g transform="translate(142.72236, 58.70697)"><g><path d="M 1.40625 -5.9375 L 1.40625 -12.59375 L 9.28125 -12.59375 L 9.28125 -11.203125 L 2.875 -11.203125 L 2.875 -6.703125 L 3.09375 -6.703125 C 3.21875 -6.941406 3.375 -7.171875 3.5625 -7.390625 C 3.757812 -7.609375 3.984375 -7.800781 4.234375 -7.96875 C 4.492188 -8.132812 4.785156 -8.269531 5.109375 -8.375 C 5.429688 -8.476562 5.789062 -8.53125 6.1875 -8.53125 C 6.769531 -8.53125 7.300781 -8.429688 7.78125 -8.234375 C 8.269531 -8.046875 8.6875 -7.773438 9.03125 -7.421875 C 9.382812 -7.078125 9.660156 -6.660156 9.859375 -6.171875 C 10.054688 -5.679688 10.15625 -5.132812 10.15625 -4.53125 L 10.15625 -4.21875 C 10.15625 -3.613281 10.054688 -3.039062 9.859375 -2.5 C 9.671875 -1.96875 9.390625 -1.492188 9.015625 -1.078125 C 8.640625 -0.671875 8.175781 -0.347656 7.625 -0.109375 C 7.070312 0.128906 6.4375 0.25 5.71875 0.25 C 4.988281 0.25 4.34375 0.144531 3.78125 -0.0625 C 3.21875 -0.28125 2.742188 -0.582031 2.359375 -0.96875 C 1.972656 -1.351562 1.679688 -1.804688 1.484375 -2.328125 C 1.285156 -2.847656 1.1875 -3.414062 1.1875 -4.03125 L 1.1875 -4.53125 L 2.703125 -4.53125 L 2.703125 -4.140625 C 2.703125 -3.140625 2.976562 -2.390625 3.53125 -1.890625 C 4.09375 -1.398438 4.820312 -1.15625 5.71875 -1.15625 C 6.195312 -1.15625 6.617188 -1.238281 6.984375 -1.40625 C 7.359375 -1.582031 7.664062 -1.816406 7.90625 -2.109375 C 8.15625 -2.410156 8.335938 -2.753906 8.453125 -3.140625 C 8.578125 -3.523438 8.640625 -3.929688 8.640625 -4.359375 L 8.640625 -4.46875 C 8.640625 -4.832031 8.578125 -5.175781 8.453125 -5.5 C 8.328125 -5.832031 8.148438 -6.117188 7.921875 -6.359375 C 7.703125 -6.597656 7.429688 -6.785156 7.109375 -6.921875 C 6.796875 -7.054688 6.453125 -7.125 6.078125 -7.125 C 5.828125 -7.125 5.597656 -7.085938 5.390625 -7.015625 C 5.179688 -6.941406 5 -6.847656 4.84375 -6.734375 C 4.6875 -6.617188 4.554688 -6.488281 4.453125 -6.34375 C 4.347656 -6.207031 4.28125 -6.070312 4.25 -5.9375 Z M 1.40625 -5.9375 "/></g></g></g><g fill="#e5c0a1" fill-opacity="1"><g transform="translate(153.738328, 58.70697)"><g><path d="M 4.84375 -1.40625 L 4.84375 -11.9375 L 4.625 -11.9375 L 2.5625 -7.203125 L 1.0625 -7.203125 L 1.0625 -7.3125 L 3.421875 -12.59375 L 6.359375 -12.59375 L 6.359375 -1.40625 L 9.921875 -1.40625 L 9.921875 0 L 1.28125 0 L 1.28125 -1.40625 Z M 4.84375 -1.40625 "/></g></g></g><g fill="#e5c0a1" fill-opacity="1"><g transform="translate(164.754296, 58.70697)"><g><path d="M 1.078125 -7.703125 C 1.078125 -9.335938 1.46875 -10.601562 2.25 -11.5 C 3.03125 -12.40625 4.117188 -12.859375 5.515625 -12.859375 C 6.898438 -12.859375 7.984375 -12.40625 8.765625 -11.5 C 9.546875 -10.601562 9.9375 -9.335938 9.9375 -7.703125 L 9.9375 -4.890625 C 9.9375 -3.210938 9.546875 -1.9375 8.765625 -1.0625 C 7.984375 -0.1875 6.898438 0.25 5.515625 0.25 C 4.117188 0.25 3.03125 -0.1875 2.25 -1.0625 C 1.46875 -1.9375 1.078125 -3.210938 1.078125 -4.890625 Z M 5.515625 -1.109375 C 6.484375 -1.109375 7.207031 -1.445312 7.6875 -2.125 C 8.175781 -2.8125 8.421875 -3.769531 8.421875 -5 L 8.421875 -7.59375 C 8.421875 -8.164062 8.359375 -8.6875 8.234375 -9.15625 C 8.117188 -9.632812 7.9375 -10.046875 7.6875 -10.390625 C 7.445312 -10.734375 7.144531 -11 6.78125 -11.1875 C 6.414062 -11.382812 5.992188 -11.484375 5.515625 -11.484375 C 5.015625 -11.484375 4.582031 -11.382812 4.21875 -11.1875 C 3.863281 -11 3.5625 -10.734375 3.3125 -10.390625 C 3.070312 -10.046875 2.890625 -9.632812 2.765625 -9.15625 C 2.648438 -8.6875 2.59375 -8.164062 2.59375 -7.59375 L 2.59375 -5 C 2.59375 -3.769531 2.832031 -2.8125 3.3125 -2.125 C 3.800781 -1.445312 4.535156 -1.109375 5.515625 -1.109375 Z M 4.359375 -6.296875 C 4.359375 -6.609375 4.472656 -6.878906 4.703125 -7.109375 C 4.929688 -7.335938 5.203125 -7.453125 5.515625 -7.453125 C 5.816406 -7.453125 6.082031 -7.335938 6.3125 -7.109375 C 6.539062 -6.878906 6.65625 -6.609375 6.65625 -6.296875 C 6.65625 -5.984375 6.539062 -5.710938 6.3125 -5.484375 C 6.082031 -5.253906 5.816406 -5.140625 5.515625 -5.140625 C 5.203125 -5.140625 4.929688 -5.253906 4.703125 -5.484375 C 4.472656 -5.710938 4.359375 -5.984375 4.359375 -6.296875 Z M 4.359375 -6.296875 "/></g></g></g><g fill="#e5c0a1" fill-opacity="1"><g transform="translate(175.770263, 58.70697)"><g/></g></g><g fill="#e5c0a1" fill-opacity="1"><g transform="translate(186.786231, 58.70697)"><g><path d="M 8.484375 -8.96875 C 8.484375 -9.375 8.398438 -9.734375 8.234375 -10.046875 C 8.066406 -10.359375 7.84375 -10.613281 7.5625 -10.8125 C 7.289062 -11.019531 6.972656 -11.175781 6.609375 -11.28125 C 6.253906 -11.394531 5.878906 -11.453125 5.484375 -11.453125 C 5.140625 -11.453125 4.8125 -11.40625 4.5 -11.3125 C 4.1875 -11.21875 3.90625 -11.085938 3.65625 -10.921875 C 3.414062 -10.753906 3.222656 -10.546875 3.078125 -10.296875 C 2.929688 -10.054688 2.859375 -9.773438 2.859375 -9.453125 L 2.859375 -9.34375 C 2.859375 -8.988281 2.929688 -8.6875 3.078125 -8.4375 C 3.222656 -8.195312 3.4375 -7.988281 3.71875 -7.8125 C 4 -7.644531 4.347656 -7.503906 4.765625 -7.390625 C 5.191406 -7.273438 5.6875 -7.175781 6.25 -7.09375 C 7.5625 -6.882812 8.53125 -6.492188 9.15625 -5.921875 C 9.78125 -5.359375 10.09375 -4.597656 10.09375 -3.640625 L 10.09375 -3.421875 C 10.09375 -2.878906 10 -2.382812 9.8125 -1.9375 C 9.632812 -1.488281 9.359375 -1.097656 8.984375 -0.765625 C 8.617188 -0.441406 8.164062 -0.191406 7.625 -0.015625 C 7.09375 0.160156 6.472656 0.25 5.765625 0.25 C 4.953125 0.25 4.238281 0.132812 3.625 -0.09375 C 3.007812 -0.332031 2.492188 -0.65625 2.078125 -1.0625 C 1.660156 -1.476562 1.34375 -1.960938 1.125 -2.515625 C 0.914062 -3.078125 0.8125 -3.691406 0.8125 -4.359375 L 0.8125 -4.890625 L 2.328125 -4.890625 L 2.328125 -4.46875 C 2.328125 -3.363281 2.628906 -2.535156 3.234375 -1.984375 C 3.835938 -1.429688 4.679688 -1.15625 5.765625 -1.15625 C 6.691406 -1.15625 7.394531 -1.359375 7.875 -1.765625 C 8.351562 -2.179688 8.59375 -2.734375 8.59375 -3.421875 L 8.59375 -3.53125 C 8.59375 -4.1875 8.347656 -4.6875 7.859375 -5.03125 C 7.367188 -5.382812 6.578125 -5.640625 5.484375 -5.796875 C 4.847656 -5.878906 4.273438 -6.003906 3.765625 -6.171875 C 3.253906 -6.347656 2.816406 -6.578125 2.453125 -6.859375 C 2.097656 -7.148438 1.820312 -7.492188 1.625 -7.890625 C 1.4375 -8.285156 1.34375 -8.75 1.34375 -9.28125 L 1.34375 -9.5 C 1.34375 -9.988281 1.445312 -10.4375 1.65625 -10.84375 C 1.863281 -11.257812 2.148438 -11.613281 2.515625 -11.90625 C 2.878906 -12.207031 3.316406 -12.441406 3.828125 -12.609375 C 4.335938 -12.773438 4.898438 -12.859375 5.515625 -12.859375 C 6.210938 -12.859375 6.84375 -12.753906 7.40625 -12.546875 C 7.96875 -12.335938 8.4375 -12.0625 8.8125 -11.71875 C 9.195312 -11.382812 9.488281 -10.984375 9.6875 -10.515625 C 9.882812 -10.054688 9.984375 -9.578125 9.984375 -9.078125 L 9.984375 -8.3125 L 8.484375 -8.3125 Z M 8.484375 -8.96875 "/></g></g></g><g fill="#e5c0a1" fill-opacity="1"><g transform="translate(197.802199, 58.70697)"><g><path d="M 9.796875 -1.40625 L 9.796875 0 L 1.265625 0 L 1.265625 -2.15625 C 1.265625 -2.738281 1.359375 -3.238281 1.546875 -3.65625 C 1.742188 -4.082031 2.015625 -4.445312 2.359375 -4.75 C 2.710938 -5.0625 3.140625 -5.316406 3.640625 -5.515625 C 4.148438 -5.722656 4.722656 -5.898438 5.359375 -6.046875 C 6.429688 -6.285156 7.203125 -6.625 7.671875 -7.0625 C 8.148438 -7.507812 8.390625 -8.0625 8.390625 -8.71875 L 8.390625 -8.8125 C 8.390625 -9.144531 8.332031 -9.460938 8.21875 -9.765625 C 8.113281 -10.078125 7.945312 -10.359375 7.71875 -10.609375 C 7.488281 -10.867188 7.195312 -11.070312 6.84375 -11.21875 C 6.488281 -11.375 6.066406 -11.453125 5.578125 -11.453125 C 4.648438 -11.453125 3.929688 -11.164062 3.421875 -10.59375 C 2.910156 -10.03125 2.65625 -9.285156 2.65625 -8.359375 L 2.65625 -7.5625 L 1.15625 -7.5625 L 1.15625 -8.453125 C 1.15625 -9.035156 1.25 -9.585938 1.4375 -10.109375 C 1.632812 -10.640625 1.914062 -11.109375 2.28125 -11.515625 C 2.65625 -11.921875 3.117188 -12.242188 3.671875 -12.484375 C 4.222656 -12.734375 4.859375 -12.859375 5.578125 -12.859375 C 6.304688 -12.859375 6.941406 -12.742188 7.484375 -12.515625 C 8.023438 -12.296875 8.472656 -12.003906 8.828125 -11.640625 C 9.191406 -11.273438 9.460938 -10.859375 9.640625 -10.390625 C 9.816406 -9.929688 9.90625 -9.460938 9.90625 -8.984375 L 9.90625 -8.65625 C 9.90625 -7.695312 9.601562 -6.878906 9 -6.203125 C 8.394531 -5.523438 7.4375 -5.039062 6.125 -4.75 C 4.96875 -4.5 4.117188 -4.164062 3.578125 -3.75 C 3.035156 -3.332031 2.765625 -2.726562 2.765625 -1.9375 L 2.765625 -1.40625 Z M 9.796875 -1.40625 "/></g></g></g><g fill="#e5c0a1" fill-opacity="1"><g transform="translate(208.818167, 58.70697)"><g><path d="M 4.265625 -6.265625 L 4.265625 -8.359375 L 8.375 -10.984375 L 8.375 -11.203125 L 1.234375 -11.203125 L 1.234375 -12.59375 L 9.671875 -12.59375 L 9.671875 -10.296875 L 5.5625 -7.671875 L 5.5625 -7.453125 L 6.28125 -7.453125 C 6.757812 -7.453125 7.21875 -7.375 7.65625 -7.21875 C 8.101562 -7.0625 8.5 -6.832031 8.84375 -6.53125 C 9.1875 -6.226562 9.460938 -5.859375 9.671875 -5.421875 C 9.878906 -4.984375 9.984375 -4.476562 9.984375 -3.90625 L 9.984375 -3.578125 C 9.984375 -3.035156 9.875 -2.53125 9.65625 -2.0625 C 9.445312 -1.601562 9.148438 -1.203125 8.765625 -0.859375 C 8.378906 -0.515625 7.925781 -0.242188 7.40625 -0.046875 C 6.882812 0.148438 6.316406 0.25 5.703125 0.25 C 4.992188 0.25 4.359375 0.144531 3.796875 -0.0625 C 3.234375 -0.28125 2.753906 -0.578125 2.359375 -0.953125 C 1.960938 -1.335938 1.660156 -1.785156 1.453125 -2.296875 C 1.242188 -2.804688 1.140625 -3.347656 1.140625 -3.921875 L 1.140625 -4.890625 L 2.640625 -4.890625 L 2.640625 -4.03125 C 2.640625 -3.570312 2.710938 -3.164062 2.859375 -2.8125 C 3.015625 -2.457031 3.226562 -2.15625 3.5 -1.90625 C 3.769531 -1.664062 4.085938 -1.476562 4.453125 -1.34375 C 4.828125 -1.21875 5.234375 -1.15625 5.671875 -1.15625 C 6.066406 -1.15625 6.4375 -1.21875 6.78125 -1.34375 C 7.125 -1.476562 7.421875 -1.660156 7.671875 -1.890625 C 7.921875 -2.128906 8.117188 -2.40625 8.265625 -2.71875 C 8.410156 -3.039062 8.484375 -3.382812 8.484375 -3.75 L 8.484375 -3.859375 C 8.484375 -4.609375 8.238281 -5.195312 7.75 -5.625 C 7.269531 -6.050781 6.671875 -6.265625 5.953125 -6.265625 Z M 4.265625 -6.265625 "/></g></g></g><g fill="#e5c0a1" fill-opacity="1"><g transform="translate(54.594618, 764.48835)"><g><path d="M 3.046875 -5.1875 L 3.046875 0 L 1.53125 0 L 1.53125 -12.59375 L 6.03125 -12.59375 C 6.675781 -12.59375 7.238281 -12.5 7.71875 -12.3125 C 8.195312 -12.132812 8.59375 -11.890625 8.90625 -11.578125 C 9.226562 -11.265625 9.46875 -10.898438 9.625 -10.484375 C 9.789062 -10.066406 9.875 -9.632812 9.875 -9.1875 L 9.875 -8.640625 C 9.875 -8.179688 9.789062 -7.742188 9.625 -7.328125 C 9.46875 -6.910156 9.226562 -6.539062 8.90625 -6.21875 C 8.582031 -5.894531 8.179688 -5.640625 7.703125 -5.453125 C 7.222656 -5.273438 6.664062 -5.1875 6.03125 -5.1875 Z M 3.046875 -6.59375 L 5.84375 -6.59375 C 7.53125 -6.59375 8.375 -7.3125 8.375 -8.75 L 8.375 -9.078125 C 8.375 -9.710938 8.164062 -10.222656 7.75 -10.609375 C 7.332031 -11.003906 6.695312 -11.203125 5.84375 -11.203125 L 3.046875 -11.203125 Z M 3.046875 -6.59375 "/></g></g></g><g fill="#e5c0a1" fill-opacity="1"><g transform="translate(65.610585, 764.48835)"><g><path d="M 1.0625 -8.921875 L 4.296875 -8.921875 L 4.296875 -7.734375 L 4.515625 -7.734375 C 4.742188 -8.234375 5.066406 -8.597656 5.484375 -8.828125 C 5.910156 -9.066406 6.394531 -9.1875 6.9375 -9.1875 C 7.832031 -9.1875 8.554688 -8.890625 9.109375 -8.296875 C 9.660156 -7.710938 9.953125 -6.851562 9.984375 -5.71875 L 8.515625 -5.515625 C 8.515625 -6.335938 8.316406 -6.929688 7.921875 -7.296875 C 7.523438 -7.660156 7.039062 -7.84375 6.46875 -7.84375 C 6.09375 -7.84375 5.769531 -7.769531 5.5 -7.625 C 5.226562 -7.488281 5 -7.289062 4.8125 -7.03125 C 4.632812 -6.78125 4.503906 -6.488281 4.421875 -6.15625 C 4.335938 -5.820312 4.296875 -5.460938 4.296875 -5.078125 L 4.296875 -1.296875 L 6.5625 -1.296875 L 6.5625 0 L 0.84375 0 L 0.84375 -1.296875 L 2.890625 -1.296875 L 2.890625 -7.625 L 1.0625 -7.625 Z M 1.0625 -8.921875 "/></g></g></g><g fill="#e5c0a1" fill-opacity="1"><g transform="translate(76.626553, 764.48835)"><g><path d="M 9.984375 -4.359375 C 9.984375 -3.609375 9.859375 -2.945312 9.609375 -2.375 C 9.367188 -1.8125 9.046875 -1.332031 8.640625 -0.9375 C 8.234375 -0.550781 7.753906 -0.253906 7.203125 -0.046875 C 6.660156 0.148438 6.097656 0.25 5.515625 0.25 C 4.910156 0.25 4.335938 0.148438 3.796875 -0.046875 C 3.253906 -0.253906 2.78125 -0.550781 2.375 -0.9375 C 1.96875 -1.332031 1.640625 -1.8125 1.390625 -2.375 C 1.148438 -2.945312 1.03125 -3.609375 1.03125 -4.359375 L 1.03125 -4.578125 C 1.03125 -5.304688 1.148438 -5.953125 1.390625 -6.515625 C 1.640625 -7.085938 1.96875 -7.570312 2.375 -7.96875 C 2.789062 -8.363281 3.269531 -8.664062 3.8125 -8.875 C 4.351562 -9.082031 4.921875 -9.1875 5.515625 -9.1875 C 6.097656 -9.1875 6.660156 -9.082031 7.203125 -8.875 C 7.742188 -8.664062 8.21875 -8.363281 8.625 -7.96875 C 9.039062 -7.570312 9.367188 -7.085938 9.609375 -6.515625 C 9.859375 -5.953125 9.984375 -5.304688 9.984375 -4.578125 Z M 5.515625 -1.078125 C 5.941406 -1.078125 6.335938 -1.148438 6.703125 -1.296875 C 7.066406 -1.453125 7.382812 -1.671875 7.65625 -1.953125 C 7.9375 -2.242188 8.15625 -2.585938 8.3125 -2.984375 C 8.46875 -3.390625 8.546875 -3.847656 8.546875 -4.359375 L 8.546875 -4.578125 C 8.546875 -5.054688 8.46875 -5.492188 8.3125 -5.890625 C 8.15625 -6.296875 7.9375 -6.640625 7.65625 -6.921875 C 7.382812 -7.210938 7.0625 -7.4375 6.6875 -7.59375 C 6.320312 -7.757812 5.929688 -7.84375 5.515625 -7.84375 C 5.085938 -7.84375 4.6875 -7.757812 4.3125 -7.59375 C 3.945312 -7.4375 3.625 -7.210938 3.34375 -6.921875 C 3.070312 -6.640625 2.859375 -6.296875 2.703125 -5.890625 C 2.546875 -5.492188 2.46875 -5.054688 2.46875 -4.578125 L 2.46875 -4.359375 C 2.46875 -3.847656 2.546875 -3.390625 2.703125 -2.984375 C 2.859375 -2.585938 3.070312 -2.242188 3.34375 -1.953125 C 3.625 -1.671875 3.945312 -1.453125 4.3125 -1.296875 C 4.675781 -1.148438 5.078125 -1.078125 5.515625 -1.078125 Z M 5.515625 -1.078125 "/></g></g></g><g fill="#e5c0a1" fill-opacity="1"><g transform="translate(87.642521, 764.48835)"><g><path d="M 1.46875 -8.921875 L 4.234375 -8.921875 L 4.234375 -11.203125 C 4.234375 -11.609375 4.359375 -11.941406 4.609375 -12.203125 C 4.867188 -12.460938 5.203125 -12.59375 5.609375 -12.59375 L 9.140625 -12.59375 L 9.140625 -11.296875 L 6.125 -11.296875 C 5.800781 -11.296875 5.640625 -11.117188 5.640625 -10.765625 L 5.640625 -8.921875 L 9.359375 -8.921875 L 9.359375 -7.625 L 5.640625 -7.625 L 5.640625 0 L 4.234375 0 L 4.234375 -7.625 L 1.46875 -7.625 Z M 1.46875 -8.921875 "/></g></g></g><g fill="#e5c0a1" fill-opacity="1"><g transform="translate(98.658489, 764.48835)"><g><path d="M 4.25 -1.015625 C 4.25 -1.359375 4.367188 -1.648438 4.609375 -1.890625 C 4.859375 -2.140625 5.160156 -2.265625 5.515625 -2.265625 C 5.859375 -2.265625 6.148438 -2.140625 6.390625 -1.890625 C 6.640625 -1.648438 6.765625 -1.359375 6.765625 -1.015625 C 6.765625 -0.660156 6.640625 -0.359375 6.390625 -0.109375 C 6.148438 0.128906 5.859375 0.25 5.515625 0.25 C 5.160156 0.25 4.859375 0.128906 4.609375 -0.109375 C 4.367188 -0.359375 4.25 -0.660156 4.25 -1.015625 Z M 4.25 -1.015625 "/></g></g></g><g fill="#e5c0a1" fill-opacity="1"><g transform="translate(109.674457, 764.48835)"><g/></g></g><g fill="#e5c0a1" fill-opacity="1"><g transform="translate(120.690424, 764.48835)"><g><path d="M 0.828125 -12.59375 L 3.703125 -12.59375 L 5.40625 -0.640625 L 5.609375 -0.640625 L 7.3125 -12.59375 L 10.1875 -12.59375 L 10.1875 0 L 8.78125 0 L 8.78125 -11.953125 L 8.5625 -11.953125 L 6.875 0 L 4.140625 0 L 2.453125 -11.953125 L 2.234375 -11.953125 L 2.234375 0 L 0.828125 0 Z M 0.828125 -12.59375 "/></g></g></g><g fill="#e5c0a1" fill-opacity="1"><g transform="translate(131.706392, 764.48835)"><g><path d="M 8.046875 -1.515625 L 7.828125 -1.515625 C 7.535156 -0.910156 7.132812 -0.460938 6.625 -0.171875 C 6.125 0.109375 5.585938 0.25 5.015625 0.25 C 4.429688 0.25 3.882812 0.148438 3.375 -0.046875 C 2.875 -0.242188 2.4375 -0.535156 2.0625 -0.921875 C 1.6875 -1.316406 1.390625 -1.796875 1.171875 -2.359375 C 0.953125 -2.921875 0.84375 -3.570312 0.84375 -4.3125 L 0.84375 -4.609375 C 0.84375 -5.335938 0.953125 -5.984375 1.171875 -6.546875 C 1.390625 -7.109375 1.6875 -7.582031 2.0625 -7.96875 C 2.4375 -8.363281 2.875 -8.664062 3.375 -8.875 C 3.882812 -9.082031 4.421875 -9.1875 4.984375 -9.1875 C 5.597656 -9.1875 6.148438 -9.050781 6.640625 -8.78125 C 7.140625 -8.507812 7.535156 -8.09375 7.828125 -7.53125 L 8.046875 -7.53125 L 8.046875 -8.921875 L 9.453125 -8.921875 L 9.453125 -1.84375 C 9.453125 -1.476562 9.613281 -1.296875 9.9375 -1.296875 L 10.390625 -1.296875 L 10.390625 0 L 9.4375 0 C 9.019531 0 8.679688 -0.128906 8.421875 -0.390625 C 8.171875 -0.660156 8.046875 -1 8.046875 -1.40625 Z M 5.171875 -1.078125 C 5.585938 -1.078125 5.972656 -1.15625 6.328125 -1.3125 C 6.679688 -1.46875 6.984375 -1.6875 7.234375 -1.96875 C 7.484375 -2.257812 7.679688 -2.609375 7.828125 -3.015625 C 7.972656 -3.421875 8.046875 -3.867188 8.046875 -4.359375 L 8.046875 -4.578125 C 8.046875 -5.054688 7.972656 -5.492188 7.828125 -5.890625 C 7.679688 -6.296875 7.476562 -6.640625 7.21875 -6.921875 C 6.96875 -7.210938 6.664062 -7.4375 6.3125 -7.59375 C 5.957031 -7.757812 5.578125 -7.84375 5.171875 -7.84375 C 4.742188 -7.84375 4.351562 -7.765625 4 -7.609375 C 3.65625 -7.453125 3.351562 -7.234375 3.09375 -6.953125 C 2.84375 -6.671875 2.644531 -6.328125 2.5 -5.921875 C 2.351562 -5.523438 2.28125 -5.085938 2.28125 -4.609375 L 2.28125 -4.3125 C 2.28125 -3.300781 2.546875 -2.507812 3.078125 -1.9375 C 3.617188 -1.363281 4.316406 -1.078125 5.171875 -1.078125 Z M 5.171875 -1.078125 "/></g></g></g><g fill="#e5c0a1" fill-opacity="1"><g transform="translate(142.72236, 764.48835)"><g><path d="M 1.265625 -8.921875 L 4.0625 -8.921875 L 4.0625 -12.59375 L 5.46875 -12.59375 L 5.46875 -8.921875 L 8.921875 -8.921875 L 8.921875 -7.625 L 5.46875 -7.625 L 5.46875 -1.84375 C 5.46875 -1.476562 5.628906 -1.296875 5.953125 -1.296875 L 8.5 -1.296875 L 8.5 0 L 5.453125 0 C 5.046875 0 4.710938 -0.128906 4.453125 -0.390625 C 4.191406 -0.660156 4.0625 -1 4.0625 -1.40625 L 4.0625 -7.625 L 1.265625 -7.625 Z M 1.265625 -8.921875 "/></g></g></g><g fill="#e5c0a1" fill-opacity="1"><g transform="translate(153.738328, 764.48835)"><g><path d="M 1.265625 -8.921875 L 4.0625 -8.921875 L 4.0625 -12.59375 L 5.46875 -12.59375 L 5.46875 -8.921875 L 8.921875 -8.921875 L 8.921875 -7.625 L 5.46875 -7.625 L 5.46875 -1.84375 C 5.46875 -1.476562 5.628906 -1.296875 5.953125 -1.296875 L 8.5 -1.296875 L 8.5 0 L 5.453125 0 C 5.046875 0 4.710938 -0.128906 4.453125 -0.390625 C 4.191406 -0.660156 4.0625 -1 4.0625 -1.40625 L 4.0625 -7.625 L 1.265625 -7.625 Z M 1.265625 -8.921875 "/></g></g></g><g fill="#e5c0a1" fill-opacity="1"><g transform="translate(164.754296, 764.48835)"><g><path d="M 4.34375 -11.59375 C 4.34375 -11.9375 4.460938 -12.234375 4.703125 -12.484375 C 4.953125 -12.734375 5.25 -12.859375 5.59375 -12.859375 C 5.945312 -12.859375 6.242188 -12.734375 6.484375 -12.484375 C 6.734375 -12.234375 6.859375 -11.9375 6.859375 -11.59375 C 6.859375 -11.238281 6.734375 -10.9375 6.484375 -10.6875 C 6.242188 -10.445312 5.945312 -10.328125 5.59375 -10.328125 C 5.25 -10.328125 4.953125 -10.445312 4.703125 -10.6875 C 4.460938 -10.9375 4.34375 -11.238281 4.34375 -11.59375 Z M 1.78125 -1.296875 L 4.90625 -1.296875 L 4.90625 -7.625 L 2.109375 -7.625 L 2.109375 -8.921875 L 6.3125 -8.921875 L 6.3125 -1.296875 L 9.234375 -1.296875 L 9.234375 0 L 1.78125 0 Z M 1.78125 -1.296875 "/></g></g></g><g fill="#e5c0a1" fill-opacity="1"><g transform="translate(175.770263, 764.48835)"><g><path d="M 2.59375 -4.03125 C 2.625 -3.144531 2.894531 -2.429688 3.40625 -1.890625 C 3.925781 -1.347656 4.648438 -1.078125 5.578125 -1.078125 C 5.992188 -1.078125 6.359375 -1.125 6.671875 -1.21875 C 6.984375 -1.320312 7.25 -1.457031 7.46875 -1.625 C 7.695312 -1.789062 7.878906 -1.984375 8.015625 -2.203125 C 8.148438 -2.421875 8.265625 -2.660156 8.359375 -2.921875 L 9.6875 -2.5625 C 9.4375 -1.726562 8.96875 -1.050781 8.28125 -0.53125 C 7.601562 -0.0078125 6.691406 0.25 5.546875 0.25 C 4.910156 0.25 4.320312 0.140625 3.78125 -0.078125 C 3.25 -0.296875 2.789062 -0.609375 2.40625 -1.015625 C 2.03125 -1.429688 1.734375 -1.921875 1.515625 -2.484375 C 1.296875 -3.046875 1.1875 -3.671875 1.1875 -4.359375 L 1.1875 -4.78125 C 1.1875 -5.40625 1.296875 -5.988281 1.515625 -6.53125 C 1.742188 -7.070312 2.054688 -7.535156 2.453125 -7.921875 C 2.847656 -8.316406 3.3125 -8.625 3.84375 -8.84375 C 4.375 -9.070312 4.953125 -9.1875 5.578125 -9.1875 C 6.304688 -9.1875 6.9375 -9.050781 7.46875 -8.78125 C 8.007812 -8.507812 8.453125 -8.175781 8.796875 -7.78125 C 9.140625 -7.382812 9.390625 -6.953125 9.546875 -6.484375 C 9.710938 -6.015625 9.796875 -5.582031 9.796875 -5.1875 L 9.796875 -4.03125 Z M 5.578125 -7.84375 C 5.179688 -7.84375 4.8125 -7.78125 4.46875 -7.65625 C 4.125 -7.53125 3.820312 -7.351562 3.5625 -7.125 C 3.3125 -6.894531 3.101562 -6.628906 2.9375 -6.328125 C 2.78125 -6.023438 2.675781 -5.691406 2.625 -5.328125 L 8.390625 -5.328125 C 8.367188 -5.710938 8.273438 -6.0625 8.109375 -6.375 C 7.941406 -6.6875 7.726562 -6.945312 7.46875 -7.15625 C 7.21875 -7.375 6.925781 -7.539062 6.59375 -7.65625 C 6.269531 -7.78125 5.929688 -7.84375 5.578125 -7.84375 Z M 5.578125 -7.84375 "/></g></g></g><g fill="#e5c0a1" fill-opacity="1"><g transform="translate(186.786231, 764.48835)"><g/></g></g><g fill="#e5c0a1" fill-opacity="1"><g transform="translate(197.802199, 764.48835)"><g><path d="M 1.03125 -1.40625 L 2.109375 -1.40625 L 2.109375 -11.203125 L 1.03125 -11.203125 L 1.03125 -12.59375 L 6.125 -12.59375 C 6.71875 -12.59375 7.242188 -12.507812 7.703125 -12.34375 C 8.171875 -12.175781 8.5625 -11.945312 8.875 -11.65625 C 9.195312 -11.375 9.4375 -11.03125 9.59375 -10.625 C 9.757812 -10.226562 9.84375 -9.796875 9.84375 -9.328125 L 9.84375 -9.109375 C 9.84375 -8.765625 9.785156 -8.445312 9.671875 -8.15625 C 9.566406 -7.863281 9.421875 -7.601562 9.234375 -7.375 C 9.046875 -7.144531 8.820312 -6.945312 8.5625 -6.78125 C 8.300781 -6.625 8.019531 -6.503906 7.71875 -6.421875 L 7.71875 -6.203125 C 8.320312 -6.035156 8.828125 -5.710938 9.234375 -5.234375 C 9.640625 -4.765625 9.84375 -4.191406 9.84375 -3.515625 L 9.84375 -3.296875 C 9.84375 -2.828125 9.757812 -2.390625 9.59375 -1.984375 C 9.4375 -1.585938 9.195312 -1.238281 8.875 -0.9375 C 8.5625 -0.644531 8.171875 -0.414062 7.703125 -0.25 C 7.242188 -0.0820312 6.71875 0 6.125 0 L 1.03125 0 Z M 3.625 -1.40625 L 6.015625 -1.40625 C 6.722656 -1.40625 7.296875 -1.582031 7.734375 -1.9375 C 8.179688 -2.289062 8.40625 -2.78125 8.40625 -3.40625 L 8.40625 -3.515625 C 8.40625 -4.160156 8.191406 -4.671875 7.765625 -5.046875 C 7.347656 -5.421875 6.78125 -5.609375 6.0625 -5.609375 L 3.625 -5.609375 Z M 3.625 -7.015625 L 6.0625 -7.015625 C 6.78125 -7.015625 7.347656 -7.203125 7.765625 -7.578125 C 8.191406 -7.953125 8.40625 -8.460938 8.40625 -9.109375 L 8.40625 -9.21875 C 8.40625 -9.832031 8.179688 -10.316406 7.734375 -10.671875 C 7.296875 -11.023438 6.722656 -11.203125 6.015625 -11.203125 L 3.625 -11.203125 Z M 3.625 -7.015625 "/></g></g></g><g fill="#e5c0a1" fill-opacity="1"><g transform="translate(208.818167, 764.48835)"><g><path d="M 7.9375 -8.921875 L 9.34375 -8.921875 L 9.34375 0 L 7.9375 0 L 7.9375 -1.625 L 7.71875 -1.625 C 7.4375 -1.039062 7.0625 -0.582031 6.59375 -0.25 C 6.125 0.0820312 5.53125 0.25 4.8125 0.25 C 4.3125 0.25 3.851562 0.164062 3.4375 0 C 3.03125 -0.15625 2.675781 -0.394531 2.375 -0.71875 C 2.082031 -1.039062 1.851562 -1.441406 1.6875 -1.921875 C 1.53125 -2.398438 1.453125 -2.957031 1.453125 -3.59375 L 1.453125 -8.921875 L 2.859375 -8.921875 L 2.859375 -3.78125 C 2.859375 -2.84375 3.050781 -2.15625 3.4375 -1.71875 C 3.820312 -1.289062 4.410156 -1.078125 5.203125 -1.078125 C 6.054688 -1.078125 6.722656 -1.367188 7.203125 -1.953125 C 7.691406 -2.535156 7.9375 -3.3125 7.9375 -4.28125 Z M 7.9375 -8.921875 "/></g></g></g><g fill="#e5c0a1" fill-opacity="1"><g transform="translate(219.834134, 764.48835)"><g><path d="M 1.0625 -8.921875 L 4.296875 -8.921875 L 4.296875 -7.734375 L 4.515625 -7.734375 C 4.742188 -8.234375 5.066406 -8.597656 5.484375 -8.828125 C 5.910156 -9.066406 6.394531 -9.1875 6.9375 -9.1875 C 7.832031 -9.1875 8.554688 -8.890625 9.109375 -8.296875 C 9.660156 -7.710938 9.953125 -6.851562 9.984375 -5.71875 L 8.515625 -5.515625 C 8.515625 -6.335938 8.316406 -6.929688 7.921875 -7.296875 C 7.523438 -7.660156 7.039062 -7.84375 6.46875 -7.84375 C 6.09375 -7.84375 5.769531 -7.769531 5.5 -7.625 C 5.226562 -7.488281 5 -7.289062 4.8125 -7.03125 C 4.632812 -6.78125 4.503906 -6.488281 4.421875 -6.15625 C 4.335938 -5.820312 4.296875 -5.460938 4.296875 -5.078125 L 4.296875 -1.296875 L 6.5625 -1.296875 L 6.5625 0 L 0.84375 0 L 0.84375 -1.296875 L 2.890625 -1.296875 L 2.890625 -7.625 L 1.0625 -7.625 Z M 1.0625 -8.921875 "/></g></g></g><g fill="#e5c0a1" fill-opacity="1"><g transform="translate(230.850102, 764.48835)"><g><path d="M 3.875 -5.21875 L 4.171875 -5.21875 L 7.578125 -8.921875 L 9.3125 -8.921875 L 9.3125 -8.8125 L 5.59375 -4.734375 L 5.59375 -4.40625 L 9.734375 -0.109375 L 9.734375 0 L 8.015625 0 L 4.21875 -3.921875 L 3.875 -3.921875 L 3.875 0 L 2.46875 0 L 2.46875 -12.59375 L 3.875 -12.59375 Z M 3.875 -5.21875 "/></g></g></g><g fill="#e5c0a1" fill-opacity="1"><g transform="translate(241.86607, 764.48835)"><g><path d="M 2.59375 -4.03125 C 2.625 -3.144531 2.894531 -2.429688 3.40625 -1.890625 C 3.925781 -1.347656 4.648438 -1.078125 5.578125 -1.078125 C 5.992188 -1.078125 6.359375 -1.125 6.671875 -1.21875 C 6.984375 -1.320312 7.25 -1.457031 7.46875 -1.625 C 7.695312 -1.789062 7.878906 -1.984375 8.015625 -2.203125 C 8.148438 -2.421875 8.265625 -2.660156 8.359375 -2.921875 L 9.6875 -2.5625 C 9.4375 -1.726562 8.96875 -1.050781 8.28125 -0.53125 C 7.601562 -0.0078125 6.691406 0.25 5.546875 0.25 C 4.910156 0.25 4.320312 0.140625 3.78125 -0.078125 C 3.25 -0.296875 2.789062 -0.609375 2.40625 -1.015625 C 2.03125 -1.429688 1.734375 -1.921875 1.515625 -2.484375 C 1.296875 -3.046875 1.1875 -3.671875 1.1875 -4.359375 L 1.1875 -4.78125 C 1.1875 -5.40625 1.296875 -5.988281 1.515625 -6.53125 C 1.742188 -7.070312 2.054688 -7.535156 2.453125 -7.921875 C 2.847656 -8.316406 3.3125 -8.625 3.84375 -8.84375 C 4.375 -9.070312 4.953125 -9.1875 5.578125 -9.1875 C 6.304688 -9.1875 6.9375 -9.050781 7.46875 -8.78125 C 8.007812 -8.507812 8.453125 -8.175781 8.796875 -7.78125 C 9.140625 -7.382812 9.390625 -6.953125 9.546875 -6.484375 C 9.710938 -6.015625 9.796875 -5.582031 9.796875 -5.1875 L 9.796875 -4.03125 Z M 5.578125 -7.84375 C 5.179688 -7.84375 4.8125 -7.78125 4.46875 -7.65625 C 4.125 -7.53125 3.820312 -7.351562 3.5625 -7.125 C 3.3125 -6.894531 3.101562 -6.628906 2.9375 -6.328125 C 2.78125 -6.023438 2.675781 -5.691406 2.625 -5.328125 L 8.390625 -5.328125 C 8.367188 -5.710938 8.273438 -6.0625 8.109375 -6.375 C 7.941406 -6.6875 7.726562 -6.945312 7.46875 -7.15625 C 7.21875 -7.375 6.925781 -7.539062 6.59375 -7.65625 C 6.269531 -7.78125 5.929688 -7.84375 5.578125 -7.84375 Z M 5.578125 -7.84375 "/></g></g></g><g fill="#e5c0a1" fill-opacity="1"><g transform="translate(252.882038, 764.48835)"><g><path d="M 1.0625 -8.921875 L 4.296875 -8.921875 L 4.296875 -7.734375 L 4.515625 -7.734375 C 4.742188 -8.234375 5.066406 -8.597656 5.484375 -8.828125 C 5.910156 -9.066406 6.394531 -9.1875 6.9375 -9.1875 C 7.832031 -9.1875 8.554688 -8.890625 9.109375 -8.296875 C 9.660156 -7.710938 9.953125 -6.851562 9.984375 -5.71875 L 8.515625 -5.515625 C 8.515625 -6.335938 8.316406 -6.929688 7.921875 -7.296875 C 7.523438 -7.660156 7.039062 -7.84375 6.46875 -7.84375 C 6.09375 -7.84375 5.769531 -7.769531 5.5 -7.625 C 5.226562 -7.488281 5 -7.289062 4.8125 -7.03125 C 4.632812 -6.78125 4.503906 -6.488281 4.421875 -6.15625 C 4.335938 -5.820312 4.296875 -5.460938 4.296875 -5.078125 L 4.296875 -1.296875 L 6.5625 -1.296875 L 6.5625 0 L 0.84375 0 L 0.84375 -1.296875 L 2.890625 -1.296875 L 2.890625 -7.625 L 1.0625 -7.625 Z M 1.0625 -8.921875 "/></g></g></g><g fill="#e5c0a1" fill-opacity="1"><g transform="translate(263.898006, 764.48835)"><g><path d="M 1.265625 -8.921875 L 4.0625 -8.921875 L 4.0625 -12.59375 L 5.46875 -12.59375 L 5.46875 -8.921875 L 8.921875 -8.921875 L 8.921875 -7.625 L 5.46875 -7.625 L 5.46875 -1.84375 C 5.46875 -1.476562 5.628906 -1.296875 5.953125 -1.296875 L 8.5 -1.296875 L 8.5 0 L 5.453125 0 C 5.046875 0 4.710938 -0.128906 4.453125 -0.390625 C 4.191406 -0.660156 4.0625 -1 4.0625 -1.40625 L 4.0625 -7.625 L 1.265625 -7.625 Z M 1.265625 -8.921875 "/></g></g></g><g fill="#e5c0a1" fill-opacity="1"><g transform="translate(274.907106, 764.48835)"><g/></g></g></svg>