<svg xmlns="http://www.w3.org/2000/svg" xmlns:xlink="http://www.w3.org/1999/xlink" width="1080" zoomAndPan="magnify" viewBox="0 0 810 809.999993" height="1080" preserveAspectRatio="xMidYMid meet" version="1.0"><defs><g/><clipPath id="657246a2e1"><path d="M 352.742188 0 L 810 0 L 810 810 L 352.742188 810 Z M 352.742188 0 " clip-rule="nonzero"/></clipPath><clipPath id="04ebb90d9b"><path d="M 810 862.175781 C 687.917969 862.175781 572.964844 814.660156 486.703125 728.214844 C 400.257812 641.953125 352.742188 527 352.742188 404.917969 C 352.742188 282.835938 400.257812 167.882812 486.703125 81.621094 C 572.964844 -4.824219 687.917969 -52.339844 810 -52.339844 C 932.082031 -52.339844 1047.035156 -4.824219 1133.296875 81.621094 C 1219.742188 168.066406 1267.257812 282.835938 1267.257812 404.917969 C 1267.257812 527 1219.742188 641.953125 1133.296875 728.214844 C 1047.035156 814.660156 932.082031 862.175781 810 862.175781 M 810 -24.925781 C 695.226562 -24.925781 587.21875 19.847656 506.074219 100.992188 C 424.929688 182.136719 380.15625 290.148438 380.15625 404.917969 C 380.15625 519.691406 424.929688 627.699219 506.074219 708.84375 C 587.21875 789.988281 695.226562 834.761719 810 834.761719 C 924.773438 834.761719 1032.78125 789.988281 1113.925781 708.84375 C 1195.070312 627.699219 1239.84375 519.691406 1239.84375 404.917969 C 1239.84375 290.148438 1195.070312 182.136719 1113.925781 100.992188 C 1032.78125 19.847656 924.773438 -24.925781 810 -24.925781 " clip-rule="nonzero"/></clipPath><clipPath id="3446611c76"><path d="M 222.824219 222.824219 L 587.175781 222.824219 L 587.175781 587.175781 L 222.824219 587.175781 Z M 222.824219 222.824219 " clip-rule="nonzero"/></clipPath><clipPath id="195279d9b2"><path d="M 405 222.824219 C 304.386719 222.824219 222.824219 304.386719 222.824219 405 C 222.824219 505.613281 304.386719 587.175781 405 587.175781 C 505.613281 587.175781 587.175781 505.613281 587.175781 405 C 587.175781 304.386719 505.613281 222.824219 405 222.824219 " clip-rule="nonzero"/></clipPath></defs><rect x="-81" width="972" fill="#ffffff" y="-80.999999" height="971.999992" fill-opacity="1"/><rect x="-81" width="972" fill="#ffffff" y="-80.999999" height="971.999992" fill-opacity="1"/><rect x="-81" width="972" fill="#51303b" y="-80.999999" height="971.999992" fill-opacity="1"/><g clip-path="url(#657246a2e1)"><g clip-path="url(#04ebb90d9b)"><path fill="#e08c72" d="M 352.742188 -52.339844 L 1267.136719 -52.339844 L 1267.136719 862.054688 L 352.742188 862.054688 Z M 352.742188 -52.339844 " fill-opacity="1" fill-rule="nonzero"/></g></g><g fill="#e5c0a1" fill-opacity="1"><g transform="translate(712.831312, 58.706802)"><g><path d="M 8.15625 -8.921875 C 8.15625 -9.703125 7.914062 -10.328125 7.4375 -10.796875 C 6.957031 -11.273438 6.289062 -11.515625 5.4375 -11.515625 C 5.03125 -11.515625 4.65625 -11.441406 4.3125 -11.296875 C 3.96875 -11.160156 3.671875 -10.957031 3.421875 -10.6875 C 3.179688 -10.414062 2.988281 -10.09375 2.84375 -9.71875 C 2.707031 -9.34375 2.640625 -8.9375 2.640625 -8.5 L 2.640625 -6.625 L 2.859375 -6.625 C 3.148438 -7.15625 3.5625 -7.566406 4.09375 -7.859375 C 4.625 -8.160156 5.222656 -8.3125 5.890625 -8.3125 C 6.460938 -8.3125 6.992188 -8.21875 7.484375 -8.03125 C 7.972656 -7.851562 8.394531 -7.582031 8.75 -7.21875 C 9.101562 -6.851562 9.378906 -6.414062 9.578125 -5.90625 C 9.773438 -5.394531 9.875 -4.816406 9.875 -4.171875 L 9.875 -3.953125 C 9.875 -3.335938 9.765625 -2.769531 9.546875 -2.25 C 9.328125 -1.726562 9.019531 -1.28125 8.625 -0.90625 C 8.238281 -0.539062 7.773438 -0.253906 7.234375 -0.046875 C 6.703125 0.148438 6.128906 0.25 5.515625 0.25 C 4.890625 0.25 4.304688 0.148438 3.765625 -0.046875 C 3.234375 -0.253906 2.769531 -0.539062 2.375 -0.90625 C 1.988281 -1.269531 1.6875 -1.707031 1.46875 -2.21875 C 1.25 -2.726562 1.140625 -3.289062 1.140625 -3.90625 L 1.140625 -8.5 C 1.140625 -9.15625 1.25 -9.753906 1.46875 -10.296875 C 1.695312 -10.835938 2.007812 -11.296875 2.40625 -11.671875 C 2.800781 -12.046875 3.257812 -12.335938 3.78125 -12.546875 C 4.3125 -12.753906 4.875 -12.859375 5.46875 -12.859375 C 6.070312 -12.859375 6.628906 -12.765625 7.140625 -12.578125 C 7.660156 -12.398438 8.101562 -12.140625 8.46875 -11.796875 C 8.84375 -11.453125 9.132812 -11.035156 9.34375 -10.546875 C 9.5625 -10.066406 9.671875 -9.523438 9.671875 -8.921875 Z M 5.515625 -1.078125 C 5.941406 -1.078125 6.332031 -1.144531 6.6875 -1.28125 C 7.039062 -1.425781 7.34375 -1.625 7.59375 -1.875 C 7.84375 -2.125 8.035156 -2.421875 8.171875 -2.765625 C 8.304688 -3.117188 8.375 -3.503906 8.375 -3.921875 L 8.375 -4.140625 C 8.375 -4.554688 8.300781 -4.9375 8.15625 -5.28125 C 8.007812 -5.632812 7.8125 -5.9375 7.5625 -6.1875 C 7.3125 -6.4375 7.007812 -6.628906 6.65625 -6.765625 C 6.300781 -6.910156 5.921875 -6.984375 5.515625 -6.984375 C 5.097656 -6.984375 4.71875 -6.910156 4.375 -6.765625 C 4.03125 -6.617188 3.726562 -6.421875 3.46875 -6.171875 C 3.207031 -5.921875 3.003906 -5.625 2.859375 -5.28125 C 2.710938 -4.945312 2.640625 -4.59375 2.640625 -4.21875 L 2.640625 -3.875 C 2.640625 -3.476562 2.707031 -3.109375 2.84375 -2.765625 C 2.976562 -2.421875 3.171875 -2.125 3.421875 -1.875 C 3.671875 -1.625 3.972656 -1.425781 4.328125 -1.28125 C 4.679688 -1.144531 5.078125 -1.078125 5.515625 -1.078125 Z M 5.515625 -1.078125 "/></g></g></g><g fill="#e5c0a1" fill-opacity="1"><g transform="translate(723.84728, 58.706802)"><g><path d="M 7.5 -14.515625 L 8.765625 -14.109375 L 3.53125 1.90625 L 2.25 1.515625 Z M 7.5 -14.515625 "/></g></g></g><g fill="#e5c0a1" fill-opacity="1"><g transform="translate(734.863248, 58.706802)"><g><path d="M 4.84375 -1.40625 L 4.84375 -11.9375 L 4.625 -11.9375 L 2.5625 -7.203125 L 1.0625 -7.203125 L 1.0625 -7.3125 L 3.421875 -12.59375 L 6.359375 -12.59375 L 6.359375 -1.40625 L 9.921875 -1.40625 L 9.921875 0 L 1.28125 0 L 1.28125 -1.40625 Z M 4.84375 -1.40625 "/></g></g></g><g fill="#e5c0a1" fill-opacity="1"><g transform="translate(745.879216, 58.706802)"><g><path d="M 1.078125 -7.703125 C 1.078125 -9.335938 1.46875 -10.601562 2.25 -11.5 C 3.03125 -12.40625 4.117188 -12.859375 5.515625 -12.859375 C 6.898438 -12.859375 7.984375 -12.40625 8.765625 -11.5 C 9.546875 -10.601562 9.9375 -9.335938 9.9375 -7.703125 L 9.9375 -4.890625 C 9.9375 -3.210938 9.546875 -1.9375 8.765625 -1.0625 C 7.984375 -0.1875 6.898438 0.25 5.515625 0.25 C 4.117188 0.25 3.03125 -0.1875 2.25 -1.0625 C 1.46875 -1.9375 1.078125 -3.210938 1.078125 -4.890625 Z M 5.515625 -1.109375 C 6.484375 -1.109375 7.207031 -1.445312 7.6875 -2.125 C 8.175781 -2.8125 8.421875 -3.769531 8.421875 -5 L 8.421875 -7.59375 C 8.421875 -8.164062 8.359375 -8.6875 8.234375 -9.15625 C 8.117188 -9.632812 7.9375 -10.046875 7.6875 -10.390625 C 7.445312 -10.734375 7.144531 -11 6.78125 -11.1875 C 6.414062 -11.382812 5.992188 -11.484375 5.515625 -11.484375 C 5.015625 -11.484375 4.582031 -11.382812 4.21875 -11.1875 C 3.863281 -11 3.5625 -10.734375 3.3125 -10.390625 C 3.070312 -10.046875 2.890625 -9.632812 2.765625 -9.15625 C 2.648438 -8.6875 2.59375 -8.164062 2.59375 -7.59375 L 2.59375 -5 C 2.59375 -3.769531 2.832031 -2.8125 3.3125 -2.125 C 3.800781 -1.445312 4.535156 -1.109375 5.515625 -1.109375 Z M 4.359375 -6.296875 C 4.359375 -6.609375 4.472656 -6.878906 4.703125 -7.109375 C 4.929688 -7.335938 5.203125 -7.453125 5.515625 -7.453125 C 5.816406 -7.453125 6.082031 -7.335938 6.3125 -7.109375 C 6.539062 -6.878906 6.65625 -6.609375 6.65625 -6.296875 C 6.65625 -5.984375 6.539062 -5.710938 6.3125 -5.484375 C 6.082031 -5.253906 5.816406 -5.140625 5.515625 -5.140625 C 5.203125 -5.140625 4.929688 -5.253906 4.703125 -5.484375 C 4.472656 -5.710938 4.359375 -5.984375 4.359375 -6.296875 Z M 4.359375 -6.296875 "/></g></g></g><g clip-path="url(#3446611c76)"><g clip-path="url(#195279d9b2)"><path fill="#e08c72" d="M 222.824219 222.824219 L 587.175781 222.824219 L 587.175781 587.175781 L 222.824219 587.175781 Z M 222.824219 222.824219 " fill-opacity="1" fill-rule="nonzero"/></g></g><g fill="#51303b" fill-opacity="1"><g transform="translate(358.549292, 343.71428)"><g><path d="M 20.625 0.984375 C 18.664062 0.984375 16.867188 0.484375 15.234375 -0.515625 C 13.609375 -1.523438 12.28125 -3.007812 11.25 -4.96875 L 10.84375 -4.96875 L 9.9375 0 L 4.890625 0 L 4.890625 -58.921875 L 11.578125 -58.921875 L 11.578125 -38.796875 L 11.984375 -38.796875 C 12.691406 -40.367188 13.859375 -41.601562 15.484375 -42.5 C 17.117188 -43.394531 18.992188 -43.84375 21.109375 -43.84375 C 24.910156 -43.84375 27.992188 -41.96875 30.359375 -38.21875 C 32.722656 -34.46875 33.90625 -28.898438 33.90625 -21.515625 C 33.90625 -13.910156 32.75 -8.257812 30.4375 -4.5625 C 28.125 -0.863281 24.851562 0.984375 20.625 0.984375 Z M 19.234375 -4.96875 C 21.835938 -4.96875 23.765625 -6.132812 25.015625 -8.46875 C 26.265625 -10.8125 26.890625 -14.617188 26.890625 -19.890625 L 26.890625 -22.984375 C 26.890625 -28.253906 26.265625 -32.054688 25.015625 -34.390625 C 23.765625 -36.722656 21.835938 -37.890625 19.234375 -37.890625 C 14.128906 -37.890625 11.578125 -32.8125 11.578125 -22.65625 L 11.578125 -19.890625 C 11.578125 -9.941406 14.128906 -4.96875 19.234375 -4.96875 Z M 19.234375 -4.96875 "/></g></g></g><g fill="#51303b" fill-opacity="1"><g transform="translate(395.709698, 343.71428)"><g><path d="M 15.484375 0.984375 C 12.054688 0.984375 9.429688 -0.0351562 7.609375 -2.078125 C 5.796875 -4.117188 4.890625 -7.421875 4.890625 -11.984375 L 4.890625 -42.875 L 11.578125 -42.875 L 11.578125 -12.46875 C 11.578125 -9.695312 12.09375 -7.753906 13.125 -6.640625 C 14.15625 -5.523438 15.648438 -4.96875 17.609375 -4.96875 C 19.835938 -4.96875 21.722656 -6.023438 23.265625 -8.140625 C 24.816406 -10.265625 25.59375 -13.117188 25.59375 -16.703125 L 25.59375 -42.875 L 32.28125 -42.875 L 32.28125 0 L 27.21875 0 L 26.328125 -4.96875 L 25.828125 -4.96875 C 23.609375 -1 20.160156 0.984375 15.484375 0.984375 Z M 15.484375 0.984375 "/></g></g></g><g fill="#51303b" fill-opacity="1"><g transform="translate(432.870105, 343.71428)"><g><path d="M 12.46875 0.8125 C 9.75 0.8125 7.789062 -0.125 6.59375 -2 C 5.40625 -3.875 4.8125 -6.222656 4.8125 -9.046875 L 4.8125 -36.921875 L 1.140625 -36.921875 L 1.140625 -42.875 L 4.8125 -42.875 L 6.28125 -54.765625 L 11.484375 -54.765625 L 11.484375 -42.875 L 17.28125 -42.875 L 17.28125 -36.921875 L 11.484375 -36.921875 L 11.484375 -8.890625 C 11.484375 -6.273438 12.765625 -4.96875 15.328125 -4.96875 L 17.28125 -4.96875 L 17.28125 -0.328125 C 16.675781 -0.00390625 15.925781 0.265625 15.03125 0.484375 C 14.132812 0.703125 13.28125 0.8125 12.46875 0.8125 Z M 12.46875 0.8125 "/></g></g></g><g fill="#51303b" fill-opacity="1"><g transform="translate(315.846169, 432.214275)"><g><path d="M 11.65625 14.828125 C 8.28125 14.828125 5.671875 13.863281 3.828125 11.9375 C 1.984375 10.007812 1.0625 7.578125 1.0625 4.640625 C 1.0625 2.523438 1.5625 0.640625 2.5625 -1.015625 C 3.570312 -2.671875 4.914062 -3.828125 6.59375 -4.484375 C 5.507812 -5.191406 4.65625 -6.113281 4.03125 -7.25 C 3.40625 -8.394531 3.09375 -9.617188 3.09375 -10.921875 C 3.09375 -12.609375 3.632812 -14.101562 4.71875 -15.40625 C 5.8125 -16.707031 7.28125 -17.6875 9.125 -18.34375 C 5.8125 -21.050781 4.15625 -24.742188 4.15625 -29.421875 C 4.15625 -33.929688 5.40625 -37.460938 7.90625 -40.015625 C 10.40625 -42.566406 13.828125 -43.84375 18.171875 -43.84375 C 20.398438 -43.84375 22.46875 -43.328125 24.375 -42.296875 C 26.101562 -43.222656 27.363281 -44.3125 28.15625 -45.5625 C 28.945312 -46.8125 29.453125 -48.222656 29.671875 -49.796875 L 35.53125 -49.796875 C 35.53125 -47.191406 34.890625 -44.960938 33.609375 -43.109375 C 32.335938 -41.265625 30.585938 -40.070312 28.359375 -39.53125 C 30.910156 -36.863281 32.1875 -33.492188 32.1875 -29.421875 C 32.1875 -25.015625 30.953125 -21.519531 28.484375 -18.9375 C 26.015625 -16.363281 22.6875 -15.050781 18.5 -15 L 14.015625 -15 C 12.929688 -15 12.007812 -14.628906 11.25 -13.890625 C 10.488281 -13.160156 10.109375 -12.253906 10.109375 -11.171875 C 10.109375 -10.128906 10.488281 -9.226562 11.25 -8.46875 C 12.007812 -7.707031 12.929688 -7.328125 14.015625 -7.328125 L 26.25 -7.328125 C 29.289062 -7.328125 31.734375 -6.363281 33.578125 -4.4375 C 35.421875 -2.507812 36.34375 -0.132812 36.34375 2.6875 C 36.34375 6.21875 35.242188 9.125 33.046875 11.40625 C 30.847656 13.6875 27.765625 14.828125 23.796875 14.828125 Z M 18.09375 -20.53125 C 20.425781 -20.53125 22.226562 -21.316406 23.5 -22.890625 C 24.78125 -24.472656 25.421875 -26.648438 25.421875 -29.421875 C 25.421875 -32.296875 24.78125 -34.492188 23.5 -36.015625 C 22.226562 -37.546875 20.425781 -38.3125 18.09375 -38.3125 C 15.757812 -38.3125 13.96875 -37.519531 12.71875 -35.9375 C 11.46875 -34.363281 10.84375 -32.191406 10.84375 -29.421875 C 10.84375 -26.546875 11.46875 -24.34375 12.71875 -22.8125 C 13.96875 -21.289062 15.757812 -20.53125 18.09375 -20.53125 Z M 24.53125 9.046875 C 25.945312 9.046875 27.140625 8.554688 28.109375 7.578125 C 29.085938 6.597656 29.578125 5.40625 29.578125 4 C 29.578125 2.53125 29.140625 1.332031 28.265625 0.40625 C 27.398438 -0.519531 26.15625 -0.984375 24.53125 -0.984375 L 12.71875 -0.984375 C 11.082031 -0.984375 9.84375 -0.519531 9 0.40625 C 8.164062 1.332031 7.75 2.53125 7.75 4 C 7.75 5.457031 8.179688 6.660156 9.046875 7.609375 C 9.910156 8.566406 11.132812 9.046875 12.71875 9.046875 Z M 24.53125 9.046875 "/></g></g></g><g fill="#51303b" fill-opacity="1"><g transform="translate(353.006576, 432.214275)"><g><path d="M 15.484375 0.984375 C 12.054688 0.984375 9.429688 -0.0351562 7.609375 -2.078125 C 5.796875 -4.117188 4.890625 -7.421875 4.890625 -11.984375 L 4.890625 -42.875 L 11.578125 -42.875 L 11.578125 -12.46875 C 11.578125 -9.695312 12.09375 -7.753906 13.125 -6.640625 C 14.15625 -5.523438 15.648438 -4.96875 17.609375 -4.96875 C 19.835938 -4.96875 21.722656 -6.023438 23.265625 -8.140625 C 24.816406 -10.265625 25.59375 -13.117188 25.59375 -16.703125 L 25.59375 -42.875 L 32.28125 -42.875 L 32.28125 0 L 27.21875 0 L 26.328125 -4.96875 L 25.828125 -4.96875 C 23.609375 -1 20.160156 0.984375 15.484375 0.984375 Z M 15.484375 0.984375 "/></g></g></g><g fill="#51303b" fill-opacity="1"><g transform="translate(390.166982, 432.214275)"><g><path d="M 19.640625 0.984375 C 14.203125 0.984375 10.140625 -0.796875 7.453125 -4.359375 C 4.765625 -7.921875 3.421875 -13.613281 3.421875 -21.4375 C 3.421875 -29.09375 4.75 -34.738281 7.40625 -38.375 C 10.070312 -42.019531 14.125 -43.84375 19.5625 -43.84375 C 24.34375 -43.84375 27.882812 -42.253906 30.1875 -39.078125 C 32.5 -35.898438 33.65625 -30.78125 33.65625 -23.71875 L 33.65625 -19.484375 L 10.4375 -19.484375 C 10.488281 -14.484375 11.257812 -10.8125 12.75 -8.46875 C 14.25 -6.132812 16.597656 -4.96875 19.796875 -4.96875 C 21.972656 -4.96875 23.726562 -5.835938 25.0625 -7.578125 C 26.394531 -9.316406 27.0625 -11.65625 27.0625 -14.59375 L 33.65625 -14.59375 C 33.65625 -9.8125 32.363281 -6.019531 29.78125 -3.21875 C 27.207031 -0.414062 23.828125 0.984375 19.640625 0.984375 Z M 26.65625 -25.421875 C 26.65625 -29.503906 26.054688 -32.601562 24.859375 -34.71875 C 23.660156 -36.832031 21.894531 -37.890625 19.5625 -37.890625 C 16.675781 -37.890625 14.515625 -36.867188 13.078125 -34.828125 C 11.640625 -32.796875 10.785156 -29.660156 10.515625 -25.421875 Z M 26.65625 -25.421875 "/></g></g></g><g fill="#51303b" fill-opacity="1"><g transform="translate(427.327388, 432.214275)"><g><path d="M 16.46875 0.984375 C 11.84375 0.984375 8.390625 -0.222656 6.109375 -2.640625 C 3.828125 -5.066406 2.6875 -8.046875 2.6875 -11.578125 C 2.6875 -12.222656 2.695312 -12.664062 2.71875 -12.90625 C 2.75 -13.15625 2.765625 -13.304688 2.765625 -13.359375 L 9.78125 -13.359375 L 9.78125 -12.546875 C 9.78125 -9.992188 10.429688 -8.078125 11.734375 -6.796875 C 13.035156 -5.523438 14.71875 -4.890625 16.78125 -4.890625 C 18.632812 -4.890625 20.171875 -5.445312 21.390625 -6.5625 C 22.617188 -7.675781 23.234375 -9.238281 23.234375 -11.25 C 23.234375 -12.769531 22.851562 -14.019531 22.09375 -15 C 21.332031 -15.976562 20.40625 -16.75 19.3125 -17.3125 C 18.226562 -17.882812 16.707031 -18.523438 14.75 -19.234375 C 12.363281 -20.046875 10.4375 -20.859375 8.96875 -21.671875 C 7.5 -22.492188 6.25 -23.703125 5.21875 -25.296875 C 4.1875 -26.898438 3.671875 -29.007812 3.671875 -31.625 C 3.671875 -35.375 4.878906 -38.347656 7.296875 -40.546875 C 9.710938 -42.742188 12.957031 -43.84375 17.03125 -43.84375 C 20.882812 -43.84375 23.898438 -42.710938 26.078125 -40.453125 C 28.253906 -38.203125 29.34375 -35.421875 29.34375 -32.109375 L 29.265625 -30.5625 L 22.328125 -30.5625 L 22.328125 -31.296875 C 22.328125 -33.203125 21.863281 -34.789062 20.9375 -36.0625 C 20.019531 -37.34375 18.5 -37.984375 16.375 -37.984375 C 14.257812 -37.984375 12.765625 -37.382812 11.890625 -36.1875 C 11.023438 -34.988281 10.59375 -33.628906 10.59375 -32.109375 C 10.59375 -30.265625 11.226562 -28.894531 12.5 -28 C 13.78125 -27.101562 15.753906 -26.21875 18.421875 -25.34375 C 20.867188 -24.476562 22.878906 -23.625 24.453125 -22.78125 C 26.023438 -21.9375 27.367188 -20.671875 28.484375 -18.984375 C 29.597656 -17.304688 30.15625 -15.050781 30.15625 -12.21875 C 30.15625 -7.820312 28.914062 -4.519531 26.4375 -2.3125 C 23.96875 -0.113281 20.644531 0.984375 16.46875 0.984375 Z M 16.46875 0.984375 "/></g></g></g><g fill="#51303b" fill-opacity="1"><g transform="translate(460.739156, 432.214275)"><g><path d="M 16.46875 0.984375 C 11.84375 0.984375 8.390625 -0.222656 6.109375 -2.640625 C 3.828125 -5.066406 2.6875 -8.046875 2.6875 -11.578125 C 2.6875 -12.222656 2.695312 -12.664062 2.71875 -12.90625 C 2.75 -13.15625 2.765625 -13.304688 2.765625 -13.359375 L 9.78125 -13.359375 L 9.78125 -12.546875 C 9.78125 -9.992188 10.429688 -8.078125 11.734375 -6.796875 C 13.035156 -5.523438 14.71875 -4.890625 16.78125 -4.890625 C 18.632812 -4.890625 20.171875 -5.445312 21.390625 -6.5625 C 22.617188 -7.675781 23.234375 -9.238281 23.234375 -11.25 C 23.234375 -12.769531 22.851562 -14.019531 22.09375 -15 C 21.332031 -15.976562 20.40625 -16.75 19.3125 -17.3125 C 18.226562 -17.882812 16.707031 -18.523438 14.75 -19.234375 C 12.363281 -20.046875 10.4375 -20.859375 8.96875 -21.671875 C 7.5 -22.492188 6.25 -23.703125 5.21875 -25.296875 C 4.1875 -26.898438 3.671875 -29.007812 3.671875 -31.625 C 3.671875 -35.375 4.878906 -38.347656 7.296875 -40.546875 C 9.710938 -42.742188 12.957031 -43.84375 17.03125 -43.84375 C 20.882812 -43.84375 23.898438 -42.710938 26.078125 -40.453125 C 28.253906 -38.203125 29.34375 -35.421875 29.34375 -32.109375 L 29.265625 -30.5625 L 22.328125 -30.5625 L 22.328125 -31.296875 C 22.328125 -33.203125 21.863281 -34.789062 20.9375 -36.0625 C 20.019531 -37.34375 18.5 -37.984375 16.375 -37.984375 C 14.257812 -37.984375 12.765625 -37.382812 11.890625 -36.1875 C 11.023438 -34.988281 10.59375 -33.628906 10.59375 -32.109375 C 10.59375 -30.265625 11.226562 -28.894531 12.5 -28 C 13.78125 -27.101562 15.753906 -26.21875 18.421875 -25.34375 C 20.867188 -24.476562 22.878906 -23.625 24.453125 -22.78125 C 26.023438 -21.9375 27.367188 -20.671875 28.484375 -18.984375 C 29.597656 -17.304688 30.15625 -15.050781 30.15625 -12.21875 C 30.15625 -7.820312 28.914062 -4.519531 26.4375 -2.3125 C 23.96875 -0.113281 20.644531 0.984375 16.46875 0.984375 Z M 16.46875 0.984375 "/></g></g></g><g fill="#51303b" fill-opacity="1"><g transform="translate(315.846169, 520.714271)"><g><path d="M 0.078125 -42.875 L 7.421875 -42.875 L 12.796875 -18.75 C 13.117188 -17.28125 13.457031 -15.390625 13.8125 -13.078125 C 14.164062 -10.765625 14.394531 -9.257812 14.5 -8.5625 L 14.828125 -8.5625 C 14.890625 -9.207031 15.039062 -10.601562 15.28125 -12.75 C 15.519531 -14.894531 15.804688 -16.894531 16.140625 -18.75 L 20.453125 -42.875 L 28.203125 -42.875 L 32.59375 -18.75 C 32.925781 -16.957031 33.210938 -14.972656 33.453125 -12.796875 C 33.703125 -10.617188 33.851562 -9.207031 33.90625 -8.5625 L 34.234375 -8.5625 C 34.285156 -9.15625 34.472656 -10.484375 34.796875 -12.546875 C 35.128906 -14.609375 35.507812 -16.675781 35.9375 -18.75 L 41.328125 -42.875 L 48.078125 -42.875 L 37.40625 0 L 29.984375 0 L 25.515625 -24.453125 C 25.179688 -26.296875 24.890625 -28.25 24.640625 -30.3125 C 24.398438 -32.382812 24.253906 -33.71875 24.203125 -34.3125 L 23.875 -34.3125 C 23.820312 -33.71875 23.671875 -32.382812 23.421875 -30.3125 C 23.179688 -28.25 22.898438 -26.296875 22.578125 -24.453125 L 18.171875 0 L 10.765625 0 Z M 0.078125 -42.875 "/></g></g></g><g fill="#51303b" fill-opacity="1"><g transform="translate(364.089503, 520.714271)"><g><path d="M 4.890625 -58.921875 L 11.578125 -58.921875 L 11.578125 -38.390625 L 12.0625 -38.390625 C 14.125 -42.023438 17.328125 -43.84375 21.671875 -43.84375 C 25.097656 -43.84375 27.722656 -42.820312 29.546875 -40.78125 C 31.367188 -38.75 32.28125 -35.453125 32.28125 -30.890625 L 32.28125 0 L 25.59375 0 L 25.59375 -30.40625 C 25.59375 -33.175781 25.078125 -35.113281 24.046875 -36.21875 C 23.015625 -37.332031 21.519531 -37.890625 19.5625 -37.890625 C 17.332031 -37.890625 15.441406 -36.832031 13.890625 -34.71875 C 12.347656 -32.601562 11.578125 -29.75 11.578125 -26.15625 L 11.578125 0 L 4.890625 0 Z M 4.890625 -58.921875 "/></g></g></g><g fill="#51303b" fill-opacity="1"><g transform="translate(401.249909, 520.714271)"><g><path d="M 14.015625 0.984375 C 11.078125 0.984375 8.46875 0.113281 6.1875 -1.625 C 3.90625 -3.363281 2.765625 -6.515625 2.765625 -11.078125 C 2.765625 -16.566406 4.625 -20.328125 8.34375 -22.359375 C 12.070312 -24.398438 17.441406 -25.421875 24.453125 -25.421875 L 24.453125 -30.96875 C 24.453125 -33.195312 23.960938 -34.90625 22.984375 -36.09375 C 22.003906 -37.289062 20.238281 -37.890625 17.6875 -37.890625 C 15.351562 -37.890625 13.664062 -37.238281 12.625 -35.9375 C 11.59375 -34.632812 11.078125 -33.035156 11.078125 -31.140625 L 11.078125 -30.15625 L 4.484375 -30.15625 C 4.429688 -30.476562 4.40625 -31.078125 4.40625 -31.953125 C 4.40625 -35.753906 5.65625 -38.6875 8.15625 -40.75 C 10.65625 -42.8125 13.992188 -43.84375 18.171875 -43.84375 C 22.460938 -43.84375 25.695312 -42.8125 27.875 -40.75 C 30.050781 -38.6875 31.140625 -35.722656 31.140625 -31.859375 L 31.140625 -7.828125 C 31.140625 -6.898438 31.351562 -6.191406 31.78125 -5.703125 C 32.21875 -5.210938 32.765625 -4.96875 33.421875 -4.96875 L 36.015625 -4.96875 L 36.015625 -0.328125 C 34.828125 0.328125 33.363281 0.65625 31.625 0.65625 C 29.882812 0.65625 28.429688 0.179688 27.265625 -0.765625 C 26.097656 -1.722656 25.296875 -3.015625 24.859375 -4.640625 L 24.453125 -4.640625 C 23.359375 -2.847656 21.898438 -1.460938 20.078125 -0.484375 C 18.265625 0.492188 16.242188 0.984375 14.015625 0.984375 Z M 15.5625 -4.96875 C 17.03125 -4.96875 18.441406 -5.375 19.796875 -6.1875 C 21.160156 -7.007812 22.273438 -8.21875 23.140625 -9.8125 C 24.015625 -11.414062 24.453125 -13.332031 24.453125 -15.5625 L 24.453125 -19.484375 C 19.554688 -19.484375 15.882812 -18.925781 13.4375 -17.8125 C 11 -16.695312 9.78125 -14.585938 9.78125 -11.484375 C 9.78125 -9.148438 10.253906 -7.476562 11.203125 -6.46875 C 12.148438 -5.46875 13.601562 -4.96875 15.5625 -4.96875 Z M 15.5625 -4.96875 "/></g></g></g><g fill="#51303b" fill-opacity="1"><g transform="translate(438.410316, 520.714271)"><g><path d="M 12.46875 0.8125 C 9.75 0.8125 7.789062 -0.125 6.59375 -2 C 5.40625 -3.875 4.8125 -6.222656 4.8125 -9.046875 L 4.8125 -36.921875 L 1.140625 -36.921875 L 1.140625 -42.875 L 4.8125 -42.875 L 6.28125 -54.765625 L 11.484375 -54.765625 L 11.484375 -42.875 L 17.28125 -42.875 L 17.28125 -36.921875 L 11.484375 -36.921875 L 11.484375 -8.890625 C 11.484375 -6.273438 12.765625 -4.96875 15.328125 -4.96875 L 17.28125 -4.96875 L 17.28125 -0.328125 C 16.675781 -0.00390625 15.925781 0.265625 15.03125 0.484375 C 14.132812 0.703125 13.28125 0.8125 12.46875 0.8125 Z M 12.46875 0.8125 "/></g></g></g><g fill="#51303b" fill-opacity="1"><g transform="translate(456.990518, 520.714271)"><g><path d="M 15.640625 -19.234375 C 15.640625 -21.679688 16.070312 -23.691406 16.9375 -25.265625 C 17.8125 -26.835938 19.117188 -28.578125 20.859375 -30.484375 C 22.546875 -32.378906 23.8125 -34.101562 24.65625 -35.65625 C 25.5 -37.207031 25.921875 -39.148438 25.921875 -41.484375 C 25.921875 -43.546875 25.414062 -45.582031 24.40625 -47.59375 C 23.40625 -49.601562 21.488281 -50.609375 18.65625 -50.609375 C 15.613281 -50.609375 13.5625 -49.46875 12.5 -47.1875 C 11.445312 -44.90625 10.921875 -42.378906 10.921875 -39.609375 C 10.921875 -39.015625 10.929688 -38.523438 10.953125 -38.140625 C 10.984375 -37.765625 11 -37.519531 11 -37.40625 L 3.75 -37.40625 C 3.695312 -37.625 3.640625 -38.003906 3.578125 -38.546875 C 3.523438 -39.085938 3.5 -39.660156 3.5 -40.265625 C 3.5 -45.097656 4.859375 -49.078125 7.578125 -52.203125 C 10.296875 -55.328125 14.179688 -56.890625 19.234375 -56.890625 C 21.898438 -56.890625 24.304688 -56.273438 26.453125 -55.046875 C 28.597656 -53.828125 30.28125 -52.117188 31.5 -49.921875 C 32.71875 -47.722656 33.328125 -45.207031 33.328125 -42.375 C 33.328125 -39.664062 33.03125 -37.34375 32.4375 -35.40625 C 31.84375 -33.476562 31.125 -31.929688 30.28125 -30.765625 C 29.4375 -29.597656 28.363281 -28.304688 27.0625 -26.890625 C 25.59375 -25.316406 24.503906 -23.914062 23.796875 -22.6875 C 23.085938 -21.46875 22.734375 -19.910156 22.734375 -18.015625 L 22.734375 -14.671875 L 15.640625 -14.671875 Z M 15.078125 -8.796875 L 23.234375 -8.796875 L 23.234375 0 L 15.078125 0 Z M 15.078125 -8.796875 "/></g></g></g><path stroke-linecap="round" transform="matrix(0.74989, 0, 0, 0.75, -61.499993, 402.375)" fill="none" stroke-linejoin="miter" d="M 27.998873 3.500001 L 424.562005 3.500001 " stroke="#e08c72" stroke-width="7" stroke-opacity="1" stroke-miterlimit="4"/><g fill="#e5c0a1" fill-opacity="1"><g transform="translate(53.102425, 58.706802)"><g><path d="M 1.6875 -12.59375 L 9.328125 -12.59375 L 9.328125 -11.203125 L 3.203125 -11.203125 L 3.203125 -7.015625 L 9.21875 -7.015625 L 9.21875 -5.609375 L 3.203125 -5.609375 L 3.203125 -1.40625 L 9.4375 -1.40625 L 9.4375 0 L 1.6875 0 Z M 1.6875 -12.59375 "/></g></g></g><g fill="#e5c0a1" fill-opacity="1"><g transform="translate(64.118393, 58.706802)"><g><path d="M 2.96875 0 L 1.5625 0 L 1.5625 -8.921875 L 2.96875 -8.921875 L 2.96875 -7.421875 L 3.1875 -7.421875 C 3.738281 -8.597656 4.695312 -9.1875 6.0625 -9.1875 C 7.09375 -9.1875 7.914062 -8.863281 8.53125 -8.21875 C 9.144531 -7.570312 9.453125 -6.609375 9.453125 -5.328125 L 9.453125 0 L 8.046875 0 L 8.046875 -5.046875 C 8.046875 -5.972656 7.832031 -6.671875 7.40625 -7.140625 C 6.988281 -7.609375 6.421875 -7.84375 5.703125 -7.84375 C 4.847656 -7.84375 4.175781 -7.550781 3.6875 -6.96875 C 3.207031 -6.394531 2.96875 -5.617188 2.96875 -4.640625 Z M 2.96875 0 "/></g></g></g><g fill="#e5c0a1" fill-opacity="1"><g transform="translate(75.13436, 58.706802)"><g><path d="M 8.359375 -1.375 L 8.140625 -1.375 C 7.847656 -0.832031 7.453125 -0.425781 6.953125 -0.15625 C 6.453125 0.113281 5.910156 0.25 5.328125 0.25 C 4.722656 0.25 4.15625 0.148438 3.625 -0.046875 C 3.101562 -0.253906 2.640625 -0.550781 2.234375 -0.9375 C 1.835938 -1.320312 1.519531 -1.796875 1.28125 -2.359375 C 1.050781 -2.929688 0.9375 -3.582031 0.9375 -4.3125 L 0.9375 -4.609375 C 0.9375 -5.328125 1.054688 -5.96875 1.296875 -6.53125 C 1.535156 -7.101562 1.851562 -7.582031 2.25 -7.96875 C 2.644531 -8.363281 3.101562 -8.664062 3.625 -8.875 C 4.15625 -9.082031 4.710938 -9.1875 5.296875 -9.1875 C 5.941406 -9.1875 6.503906 -9.039062 6.984375 -8.75 C 7.472656 -8.46875 7.859375 -8.0625 8.140625 -7.53125 L 8.359375 -7.53125 L 8.359375 -8.921875 L 9.75 -8.921875 L 9.75 2.203125 C 9.75 2.609375 9.617188 2.941406 9.359375 3.203125 C 9.109375 3.460938 8.78125 3.59375 8.375 3.59375 L 2.5625 3.59375 L 2.5625 2.296875 L 7.859375 2.296875 C 8.191406 2.296875 8.359375 2.117188 8.359375 1.765625 Z M 5.359375 -1.078125 C 5.785156 -1.078125 6.175781 -1.15625 6.53125 -1.3125 C 6.894531 -1.46875 7.210938 -1.6875 7.484375 -1.96875 C 7.753906 -2.257812 7.96875 -2.609375 8.125 -3.015625 C 8.28125 -3.421875 8.359375 -3.867188 8.359375 -4.359375 L 8.359375 -4.578125 C 8.359375 -5.054688 8.28125 -5.492188 8.125 -5.890625 C 7.96875 -6.296875 7.753906 -6.640625 7.484375 -6.921875 C 7.210938 -7.210938 6.890625 -7.4375 6.515625 -7.59375 C 6.148438 -7.757812 5.765625 -7.84375 5.359375 -7.84375 C 4.941406 -7.84375 4.550781 -7.765625 4.1875 -7.609375 C 3.820312 -7.453125 3.503906 -7.226562 3.234375 -6.9375 C 2.960938 -6.65625 2.75 -6.316406 2.59375 -5.921875 C 2.445312 -5.523438 2.375 -5.085938 2.375 -4.609375 L 2.375 -4.3125 C 2.375 -3.8125 2.445312 -3.363281 2.59375 -2.96875 C 2.75 -2.570312 2.960938 -2.234375 3.234375 -1.953125 C 3.503906 -1.671875 3.816406 -1.453125 4.171875 -1.296875 C 4.535156 -1.148438 4.929688 -1.078125 5.359375 -1.078125 Z M 5.359375 -1.078125 "/></g></g></g><g fill="#e5c0a1" fill-opacity="1"><g transform="translate(86.150328, 58.706802)"><g/></g></g><g fill="#e5c0a1" fill-opacity="1"><g transform="translate(97.166296, 58.706802)"><g><path d="M 5.296875 -12.59375 L 8.21875 -12.59375 L 8.21875 -3.78125 L 10.171875 -3.78125 L 10.171875 -2.375 L 8.21875 -2.375 L 8.21875 0 L 6.71875 0 L 6.71875 -2.375 L 0.875 -2.375 L 0.875 -4.46875 Z M 2.171875 -4 L 2.171875 -3.78125 L 6.71875 -3.78125 L 6.71875 -11.953125 L 6.5 -11.953125 Z M 2.171875 -4 "/></g></g></g><g fill="#e5c0a1" fill-opacity="1"><g transform="translate(108.182264, 58.706802)"><g><path d="M 4.84375 -1.40625 L 4.84375 -11.9375 L 4.625 -11.9375 L 2.5625 -7.203125 L 1.0625 -7.203125 L 1.0625 -7.3125 L 3.421875 -12.59375 L 6.359375 -12.59375 L 6.359375 -1.40625 L 9.921875 -1.40625 L 9.921875 0 L 1.28125 0 L 1.28125 -1.40625 Z M 4.84375 -1.40625 "/></g></g></g><g fill="#e5c0a1" fill-opacity="1"><g transform="translate(119.198232, 58.706802)"><g><path d="M 1.078125 -7.703125 C 1.078125 -9.335938 1.46875 -10.601562 2.25 -11.5 C 3.03125 -12.40625 4.117188 -12.859375 5.515625 -12.859375 C 6.898438 -12.859375 7.984375 -12.40625 8.765625 -11.5 C 9.546875 -10.601562 9.9375 -9.335938 9.9375 -7.703125 L 9.9375 -4.890625 C 9.9375 -3.210938 9.546875 -1.9375 8.765625 -1.0625 C 7.984375 -0.1875 6.898438 0.25 5.515625 0.25 C 4.117188 0.25 3.03125 -0.1875 2.25 -1.0625 C 1.46875 -1.9375 1.078125 -3.210938 1.078125 -4.890625 Z M 5.515625 -1.109375 C 6.484375 -1.109375 7.207031 -1.445312 7.6875 -2.125 C 8.175781 -2.8125 8.421875 -3.769531 8.421875 -5 L 8.421875 -7.59375 C 8.421875 -8.164062 8.359375 -8.6875 8.234375 -9.15625 C 8.117188 -9.632812 7.9375 -10.046875 7.6875 -10.390625 C 7.445312 -10.734375 7.144531 -11 6.78125 -11.1875 C 6.414062 -11.382812 5.992188 -11.484375 5.515625 -11.484375 C 5.015625 -11.484375 4.582031 -11.382812 4.21875 -11.1875 C 3.863281 -11 3.5625 -10.734375 3.3125 -10.390625 C 3.070312 -10.046875 2.890625 -9.632812 2.765625 -9.15625 C 2.648438 -8.6875 2.59375 -8.164062 2.59375 -7.59375 L 2.59375 -5 C 2.59375 -3.769531 2.832031 -2.8125 3.3125 -2.125 C 3.800781 -1.445312 4.535156 -1.109375 5.515625 -1.109375 Z M 4.359375 -6.296875 C 4.359375 -6.609375 4.472656 -6.878906 4.703125 -7.109375 C 4.929688 -7.335938 5.203125 -7.453125 5.515625 -7.453125 C 5.816406 -7.453125 6.082031 -7.335938 6.3125 -7.109375 C 6.539062 -6.878906 6.65625 -6.609375 6.65625 -6.296875 C 6.65625 -5.984375 6.539062 -5.710938 6.3125 -5.484375 C 6.082031 -5.253906 5.816406 -5.140625 5.515625 -5.140625 C 5.203125 -5.140625 4.929688 -5.253906 4.703125 -5.484375 C 4.472656 -5.710938 4.359375 -5.984375 4.359375 -6.296875 Z M 4.359375 -6.296875 "/></g></g></g><g fill="#e5c0a1" fill-opacity="1"><g transform="translate(130.214199, 58.706802)"><g><path d="M 7.5 -14.515625 L 8.765625 -14.109375 L 3.53125 1.90625 L 2.25 1.515625 Z M 7.5 -14.515625 "/></g></g></g><g fill="#e5c0a1" fill-opacity="1"><g transform="translate(141.230167, 58.706802)"><g><path d="M 1.40625 -5.9375 L 1.40625 -12.59375 L 9.28125 -12.59375 L 9.28125 -11.203125 L 2.875 -11.203125 L 2.875 -6.703125 L 3.09375 -6.703125 C 3.21875 -6.941406 3.375 -7.171875 3.5625 -7.390625 C 3.757812 -7.609375 3.984375 -7.800781 4.234375 -7.96875 C 4.492188 -8.132812 4.785156 -8.269531 5.109375 -8.375 C 5.429688 -8.476562 5.789062 -8.53125 6.1875 -8.53125 C 6.769531 -8.53125 7.300781 -8.429688 7.78125 -8.234375 C 8.269531 -8.046875 8.6875 -7.773438 9.03125 -7.421875 C 9.382812 -7.078125 9.660156 -6.660156 9.859375 -6.171875 C 10.054688 -5.679688 10.15625 -5.132812 10.15625 -4.53125 L 10.15625 -4.21875 C 10.15625 -3.613281 10.054688 -3.039062 9.859375 -2.5 C 9.671875 -1.96875 9.390625 -1.492188 9.015625 -1.078125 C 8.640625 -0.671875 8.175781 -0.347656 7.625 -0.109375 C 7.070312 0.128906 6.4375 0.25 5.71875 0.25 C 4.988281 0.25 4.34375 0.144531 3.78125 -0.0625 C 3.21875 -0.28125 2.742188 -0.582031 2.359375 -0.96875 C 1.972656 -1.351562 1.679688 -1.804688 1.484375 -2.328125 C 1.285156 -2.847656 1.1875 -3.414062 1.1875 -4.03125 L 1.1875 -4.53125 L 2.703125 -4.53125 L 2.703125 -4.140625 C 2.703125 -3.140625 2.976562 -2.390625 3.53125 -1.890625 C 4.09375 -1.398438 4.820312 -1.15625 5.71875 -1.15625 C 6.195312 -1.15625 6.617188 -1.238281 6.984375 -1.40625 C 7.359375 -1.582031 7.664062 -1.816406 7.90625 -2.109375 C 8.15625 -2.410156 8.335938 -2.753906 8.453125 -3.140625 C 8.578125 -3.523438 8.640625 -3.929688 8.640625 -4.359375 L 8.640625 -4.46875 C 8.640625 -4.832031 8.578125 -5.175781 8.453125 -5.5 C 8.328125 -5.832031 8.148438 -6.117188 7.921875 -6.359375 C 7.703125 -6.597656 7.429688 -6.785156 7.109375 -6.921875 C 6.796875 -7.054688 6.453125 -7.125 6.078125 -7.125 C 5.828125 -7.125 5.597656 -7.085938 5.390625 -7.015625 C 5.179688 -6.941406 5 -6.847656 4.84375 -6.734375 C 4.6875 -6.617188 4.554688 -6.488281 4.453125 -6.34375 C 4.347656 -6.207031 4.28125 -6.070312 4.25 -5.9375 Z M 1.40625 -5.9375 "/></g></g></g><g fill="#e5c0a1" fill-opacity="1"><g transform="translate(152.246135, 58.706802)"><g><path d="M 4.84375 -1.40625 L 4.84375 -11.9375 L 4.625 -11.9375 L 2.5625 -7.203125 L 1.0625 -7.203125 L 1.0625 -7.3125 L 3.421875 -12.59375 L 6.359375 -12.59375 L 6.359375 -1.40625 L 9.921875 -1.40625 L 9.921875 0 L 1.28125 0 L 1.28125 -1.40625 Z M 4.84375 -1.40625 "/></g></g></g><g fill="#e5c0a1" fill-opacity="1"><g transform="translate(163.262103, 58.706802)"><g><path d="M 1.078125 -7.703125 C 1.078125 -9.335938 1.46875 -10.601562 2.25 -11.5 C 3.03125 -12.40625 4.117188 -12.859375 5.515625 -12.859375 C 6.898438 -12.859375 7.984375 -12.40625 8.765625 -11.5 C 9.546875 -10.601562 9.9375 -9.335938 9.9375 -7.703125 L 9.9375 -4.890625 C 9.9375 -3.210938 9.546875 -1.9375 8.765625 -1.0625 C 7.984375 -0.1875 6.898438 0.25 5.515625 0.25 C 4.117188 0.25 3.03125 -0.1875 2.25 -1.0625 C 1.46875 -1.9375 1.078125 -3.210938 1.078125 -4.890625 Z M 5.515625 -1.109375 C 6.484375 -1.109375 7.207031 -1.445312 7.6875 -2.125 C 8.175781 -2.8125 8.421875 -3.769531 8.421875 -5 L 8.421875 -7.59375 C 8.421875 -8.164062 8.359375 -8.6875 8.234375 -9.15625 C 8.117188 -9.632812 7.9375 -10.046875 7.6875 -10.390625 C 7.445312 -10.734375 7.144531 -11 6.78125 -11.1875 C 6.414062 -11.382812 5.992188 -11.484375 5.515625 -11.484375 C 5.015625 -11.484375 4.582031 -11.382812 4.21875 -11.1875 C 3.863281 -11 3.5625 -10.734375 3.3125 -10.390625 C 3.070312 -10.046875 2.890625 -9.632812 2.765625 -9.15625 C 2.648438 -8.6875 2.59375 -8.164062 2.59375 -7.59375 L 2.59375 -5 C 2.59375 -3.769531 2.832031 -2.8125 3.3125 -2.125 C 3.800781 -1.445312 4.535156 -1.109375 5.515625 -1.109375 Z M 4.359375 -6.296875 C 4.359375 -6.609375 4.472656 -6.878906 4.703125 -7.109375 C 4.929688 -7.335938 5.203125 -7.453125 5.515625 -7.453125 C 5.816406 -7.453125 6.082031 -7.335938 6.3125 -7.109375 C 6.539062 -6.878906 6.65625 -6.609375 6.65625 -6.296875 C 6.65625 -5.984375 6.539062 -5.710938 6.3125 -5.484375 C 6.082031 -5.253906 5.816406 -5.140625 5.515625 -5.140625 C 5.203125 -5.140625 4.929688 -5.253906 4.703125 -5.484375 C 4.472656 -5.710938 4.359375 -5.984375 4.359375 -6.296875 Z M 4.359375 -6.296875 "/></g></g></g><g fill="#e5c0a1" fill-opacity="1"><g transform="translate(174.278071, 58.706802)"><g/></g></g><g fill="#e5c0a1" fill-opacity="1"><g transform="translate(185.294038, 58.706802)"><g><path d="M 8.484375 -8.96875 C 8.484375 -9.375 8.398438 -9.734375 8.234375 -10.046875 C 8.066406 -10.359375 7.84375 -10.613281 7.5625 -10.8125 C 7.289062 -11.019531 6.972656 -11.175781 6.609375 -11.28125 C 6.253906 -11.394531 5.878906 -11.453125 5.484375 -11.453125 C 5.140625 -11.453125 4.8125 -11.40625 4.5 -11.3125 C 4.1875 -11.21875 3.90625 -11.085938 3.65625 -10.921875 C 3.414062 -10.753906 3.222656 -10.546875 3.078125 -10.296875 C 2.929688 -10.054688 2.859375 -9.773438 2.859375 -9.453125 L 2.859375 -9.34375 C 2.859375 -8.988281 2.929688 -8.6875 3.078125 -8.4375 C 3.222656 -8.195312 3.4375 -7.988281 3.71875 -7.8125 C 4 -7.644531 4.347656 -7.503906 4.765625 -7.390625 C 5.191406 -7.273438 5.6875 -7.175781 6.25 -7.09375 C 7.5625 -6.882812 8.53125 -6.492188 9.15625 -5.921875 C 9.78125 -5.359375 10.09375 -4.597656 10.09375 -3.640625 L 10.09375 -3.421875 C 10.09375 -2.878906 10 -2.382812 9.8125 -1.9375 C 9.632812 -1.488281 9.359375 -1.097656 8.984375 -0.765625 C 8.617188 -0.441406 8.164062 -0.191406 7.625 -0.015625 C 7.09375 0.160156 6.472656 0.25 5.765625 0.25 C 4.953125 0.25 4.238281 0.132812 3.625 -0.09375 C 3.007812 -0.332031 2.492188 -0.65625 2.078125 -1.0625 C 1.660156 -1.476562 1.34375 -1.960938 1.125 -2.515625 C 0.914062 -3.078125 0.8125 -3.691406 0.8125 -4.359375 L 0.8125 -4.890625 L 2.328125 -4.890625 L 2.328125 -4.46875 C 2.328125 -3.363281 2.628906 -2.535156 3.234375 -1.984375 C 3.835938 -1.429688 4.679688 -1.15625 5.765625 -1.15625 C 6.691406 -1.15625 7.394531 -1.359375 7.875 -1.765625 C 8.351562 -2.179688 8.59375 -2.734375 8.59375 -3.421875 L 8.59375 -3.53125 C 8.59375 -4.1875 8.347656 -4.6875 7.859375 -5.03125 C 7.367188 -5.382812 6.578125 -5.640625 5.484375 -5.796875 C 4.847656 -5.878906 4.273438 -6.003906 3.765625 -6.171875 C 3.253906 -6.347656 2.816406 -6.578125 2.453125 -6.859375 C 2.097656 -7.148438 1.820312 -7.492188 1.625 -7.890625 C 1.4375 -8.285156 1.34375 -8.75 1.34375 -9.28125 L 1.34375 -9.5 C 1.34375 -9.988281 1.445312 -10.4375 1.65625 -10.84375 C 1.863281 -11.257812 2.148438 -11.613281 2.515625 -11.90625 C 2.878906 -12.207031 3.316406 -12.441406 3.828125 -12.609375 C 4.335938 -12.773438 4.898438 -12.859375 5.515625 -12.859375 C 6.210938 -12.859375 6.84375 -12.753906 7.40625 -12.546875 C 7.96875 -12.335938 8.4375 -12.0625 8.8125 -11.71875 C 9.195312 -11.382812 9.488281 -10.984375 9.6875 -10.515625 C 9.882812 -10.054688 9.984375 -9.578125 9.984375 -9.078125 L 9.984375 -8.3125 L 8.484375 -8.3125 Z M 8.484375 -8.96875 "/></g></g></g><g fill="#e5c0a1" fill-opacity="1"><g transform="translate(196.310006, 58.706802)"><g><path d="M 9.796875 -1.40625 L 9.796875 0 L 1.265625 0 L 1.265625 -2.15625 C 1.265625 -2.738281 1.359375 -3.238281 1.546875 -3.65625 C 1.742188 -4.082031 2.015625 -4.445312 2.359375 -4.75 C 2.710938 -5.0625 3.140625 -5.316406 3.640625 -5.515625 C 4.148438 -5.722656 4.722656 -5.898438 5.359375 -6.046875 C 6.429688 -6.285156 7.203125 -6.625 7.671875 -7.0625 C 8.148438 -7.507812 8.390625 -8.0625 8.390625 -8.71875 L 8.390625 -8.8125 C 8.390625 -9.144531 8.332031 -9.460938 8.21875 -9.765625 C 8.113281 -10.078125 7.945312 -10.359375 7.71875 -10.609375 C 7.488281 -10.867188 7.195312 -11.070312 6.84375 -11.21875 C 6.488281 -11.375 6.066406 -11.453125 5.578125 -11.453125 C 4.648438 -11.453125 3.929688 -11.164062 3.421875 -10.59375 C 2.910156 -10.03125 2.65625 -9.285156 2.65625 -8.359375 L 2.65625 -7.5625 L 1.15625 -7.5625 L 1.15625 -8.453125 C 1.15625 -9.035156 1.25 -9.585938 1.4375 -10.109375 C 1.632812 -10.640625 1.914062 -11.109375 2.28125 -11.515625 C 2.65625 -11.921875 3.117188 -12.242188 3.671875 -12.484375 C 4.222656 -12.734375 4.859375 -12.859375 5.578125 -12.859375 C 6.304688 -12.859375 6.941406 -12.742188 7.484375 -12.515625 C 8.023438 -12.296875 8.472656 -12.003906 8.828125 -11.640625 C 9.191406 -11.273438 9.460938 -10.859375 9.640625 -10.390625 C 9.816406 -9.929688 9.90625 -9.460938 9.90625 -8.984375 L 9.90625 -8.65625 C 9.90625 -7.695312 9.601562 -6.878906 9 -6.203125 C 8.394531 -5.523438 7.4375 -5.039062 6.125 -4.75 C 4.96875 -4.5 4.117188 -4.164062 3.578125 -3.75 C 3.035156 -3.332031 2.765625 -2.726562 2.765625 -1.9375 L 2.765625 -1.40625 Z M 9.796875 -1.40625 "/></g></g></g><g fill="#e5c0a1" fill-opacity="1"><g transform="translate(207.325974, 58.706802)"><g><path d="M 4.265625 -6.265625 L 4.265625 -8.359375 L 8.375 -10.984375 L 8.375 -11.203125 L 1.234375 -11.203125 L 1.234375 -12.59375 L 9.671875 -12.59375 L 9.671875 -10.296875 L 5.5625 -7.671875 L 5.5625 -7.453125 L 6.28125 -7.453125 C 6.757812 -7.453125 7.21875 -7.375 7.65625 -7.21875 C 8.101562 -7.0625 8.5 -6.832031 8.84375 -6.53125 C 9.1875 -6.226562 9.460938 -5.859375 9.671875 -5.421875 C 9.878906 -4.984375 9.984375 -4.476562 9.984375 -3.90625 L 9.984375 -3.578125 C 9.984375 -3.035156 9.875 -2.53125 9.65625 -2.0625 C 9.445312 -1.601562 9.148438 -1.203125 8.765625 -0.859375 C 8.378906 -0.515625 7.925781 -0.242188 7.40625 -0.046875 C 6.882812 0.148438 6.316406 0.25 5.703125 0.25 C 4.992188 0.25 4.359375 0.144531 3.796875 -0.0625 C 3.234375 -0.28125 2.753906 -0.578125 2.359375 -0.953125 C 1.960938 -1.335938 1.660156 -1.785156 1.453125 -2.296875 C 1.242188 -2.804688 1.140625 -3.347656 1.140625 -3.921875 L 1.140625 -4.890625 L 2.640625 -4.890625 L 2.640625 -4.03125 C 2.640625 -3.570312 2.710938 -3.164062 2.859375 -2.8125 C 3.015625 -2.457031 3.226562 -2.15625 3.5 -1.90625 C 3.769531 -1.664062 4.085938 -1.476562 4.453125 -1.34375 C 4.828125 -1.21875 5.234375 -1.15625 5.671875 -1.15625 C 6.066406 -1.15625 6.4375 -1.21875 6.78125 -1.34375 C 7.125 -1.476562 7.421875 -1.660156 7.671875 -1.890625 C 7.921875 -2.128906 8.117188 -2.40625 8.265625 -2.71875 C 8.410156 -3.039062 8.484375 -3.382812 8.484375 -3.75 L 8.484375 -3.859375 C 8.484375 -4.609375 8.238281 -5.195312 7.75 -5.625 C 7.269531 -6.050781 6.671875 -6.265625 5.953125 -6.265625 Z M 4.265625 -6.265625 "/></g></g></g><g fill="#e5c0a1" fill-opacity="1"><g transform="translate(54.594618, 764.48847)"><g><path d="M 3.046875 -5.1875 L 3.046875 0 L 1.53125 0 L 1.53125 -12.59375 L 6.03125 -12.59375 C 6.675781 -12.59375 7.238281 -12.5 7.71875 -12.3125 C 8.195312 -12.132812 8.59375 -11.890625 8.90625 -11.578125 C 9.226562 -11.265625 9.46875 -10.898438 9.625 -10.484375 C 9.789062 -10.066406 9.875 -9.632812 9.875 -9.1875 L 9.875 -8.640625 C 9.875 -8.179688 9.789062 -7.742188 9.625 -7.328125 C 9.46875 -6.910156 9.226562 -6.539062 8.90625 -6.21875 C 8.582031 -5.894531 8.179688 -5.640625 7.703125 -5.453125 C 7.222656 -5.273438 6.664062 -5.1875 6.03125 -5.1875 Z M 3.046875 -6.59375 L 5.84375 -6.59375 C 7.53125 -6.59375 8.375 -7.3125 8.375 -8.75 L 8.375 -9.078125 C 8.375 -9.710938 8.164062 -10.222656 7.75 -10.609375 C 7.332031 -11.003906 6.695312 -11.203125 5.84375 -11.203125 L 3.046875 -11.203125 Z M 3.046875 -6.59375 "/></g></g></g><g fill="#e5c0a1" fill-opacity="1"><g transform="translate(65.610585, 764.48847)"><g><path d="M 1.0625 -8.921875 L 4.296875 -8.921875 L 4.296875 -7.734375 L 4.515625 -7.734375 C 4.742188 -8.234375 5.066406 -8.597656 5.484375 -8.828125 C 5.910156 -9.066406 6.394531 -9.1875 6.9375 -9.1875 C 7.832031 -9.1875 8.554688 -8.890625 9.109375 -8.296875 C 9.660156 -7.710938 9.953125 -6.851562 9.984375 -5.71875 L 8.515625 -5.515625 C 8.515625 -6.335938 8.316406 -6.929688 7.921875 -7.296875 C 7.523438 -7.660156 7.039062 -7.84375 6.46875 -7.84375 C 6.09375 -7.84375 5.769531 -7.769531 5.5 -7.625 C 5.226562 -7.488281 5 -7.289062 4.8125 -7.03125 C 4.632812 -6.78125 4.503906 -6.488281 4.421875 -6.15625 C 4.335938 -5.820312 4.296875 -5.460938 4.296875 -5.078125 L 4.296875 -1.296875 L 6.5625 -1.296875 L 6.5625 0 L 0.84375 0 L 0.84375 -1.296875 L 2.890625 -1.296875 L 2.890625 -7.625 L 1.0625 -7.625 Z M 1.0625 -8.921875 "/></g></g></g><g fill="#e5c0a1" fill-opacity="1"><g transform="translate(76.626553, 764.48847)"><g><path d="M 9.984375 -4.359375 C 9.984375 -3.609375 9.859375 -2.945312 9.609375 -2.375 C 9.367188 -1.8125 9.046875 -1.332031 8.640625 -0.9375 C 8.234375 -0.550781 7.753906 -0.253906 7.203125 -0.046875 C 6.660156 0.148438 6.097656 0.25 5.515625 0.25 C 4.910156 0.25 4.335938 0.148438 3.796875 -0.046875 C 3.253906 -0.253906 2.78125 -0.550781 2.375 -0.9375 C 1.96875 -1.332031 1.640625 -1.8125 1.390625 -2.375 C 1.148438 -2.945312 1.03125 -3.609375 1.03125 -4.359375 L 1.03125 -4.578125 C 1.03125 -5.304688 1.148438 -5.953125 1.390625 -6.515625 C 1.640625 -7.085938 1.96875 -7.570312 2.375 -7.96875 C 2.789062 -8.363281 3.269531 -8.664062 3.8125 -8.875 C 4.351562 -9.082031 4.921875 -9.1875 5.515625 -9.1875 C 6.097656 -9.1875 6.660156 -9.082031 7.203125 -8.875 C 7.742188 -8.664062 8.21875 -8.363281 8.625 -7.96875 C 9.039062 -7.570312 9.367188 -7.085938 9.609375 -6.515625 C 9.859375 -5.953125 9.984375 -5.304688 9.984375 -4.578125 Z M 5.515625 -1.078125 C 5.941406 -1.078125 6.335938 -1.148438 6.703125 -1.296875 C 7.066406 -1.453125 7.382812 -1.671875 7.65625 -1.953125 C 7.9375 -2.242188 8.15625 -2.585938 8.3125 -2.984375 C 8.46875 -3.390625 8.546875 -3.847656 8.546875 -4.359375 L 8.546875 -4.578125 C 8.546875 -5.054688 8.46875 -5.492188 8.3125 -5.890625 C 8.15625 -6.296875 7.9375 -6.640625 7.65625 -6.921875 C 7.382812 -7.210938 7.0625 -7.4375 6.6875 -7.59375 C 6.320312 -7.757812 5.929688 -7.84375 5.515625 -7.84375 C 5.085938 -7.84375 4.6875 -7.757812 4.3125 -7.59375 C 3.945312 -7.4375 3.625 -7.210938 3.34375 -6.921875 C 3.070312 -6.640625 2.859375 -6.296875 2.703125 -5.890625 C 2.546875 -5.492188 2.46875 -5.054688 2.46875 -4.578125 L 2.46875 -4.359375 C 2.46875 -3.847656 2.546875 -3.390625 2.703125 -2.984375 C 2.859375 -2.585938 3.070312 -2.242188 3.34375 -1.953125 C 3.625 -1.671875 3.945312 -1.453125 4.3125 -1.296875 C 4.675781 -1.148438 5.078125 -1.078125 5.515625 -1.078125 Z M 5.515625 -1.078125 "/></g></g></g><g fill="#e5c0a1" fill-opacity="1"><g transform="translate(87.642521, 764.48847)"><g><path d="M 1.46875 -8.921875 L 4.234375 -8.921875 L 4.234375 -11.203125 C 4.234375 -11.609375 4.359375 -11.941406 4.609375 -12.203125 C 4.867188 -12.460938 5.203125 -12.59375 5.609375 -12.59375 L 9.140625 -12.59375 L 9.140625 -11.296875 L 6.125 -11.296875 C 5.800781 -11.296875 5.640625 -11.117188 5.640625 -10.765625 L 5.640625 -8.921875 L 9.359375 -8.921875 L 9.359375 -7.625 L 5.640625 -7.625 L 5.640625 0 L 4.234375 0 L 4.234375 -7.625 L 1.46875 -7.625 Z M 1.46875 -8.921875 "/></g></g></g><g fill="#e5c0a1" fill-opacity="1"><g transform="translate(98.658489, 764.48847)"><g><path d="M 4.25 -1.015625 C 4.25 -1.359375 4.367188 -1.648438 4.609375 -1.890625 C 4.859375 -2.140625 5.160156 -2.265625 5.515625 -2.265625 C 5.859375 -2.265625 6.148438 -2.140625 6.390625 -1.890625 C 6.640625 -1.648438 6.765625 -1.359375 6.765625 -1.015625 C 6.765625 -0.660156 6.640625 -0.359375 6.390625 -0.109375 C 6.148438 0.128906 5.859375 0.25 5.515625 0.25 C 5.160156 0.25 4.859375 0.128906 4.609375 -0.109375 C 4.367188 -0.359375 4.25 -0.660156 4.25 -1.015625 Z M 4.25 -1.015625 "/></g></g></g><g fill="#e5c0a1" fill-opacity="1"><g transform="translate(109.674457, 764.48847)"><g/></g></g><g fill="#e5c0a1" fill-opacity="1"><g transform="translate(120.690424, 764.48847)"><g><path d="M 0.828125 -12.59375 L 3.703125 -12.59375 L 5.40625 -0.640625 L 5.609375 -0.640625 L 7.3125 -12.59375 L 10.1875 -12.59375 L 10.1875 0 L 8.78125 0 L 8.78125 -11.953125 L 8.5625 -11.953125 L 6.875 0 L 4.140625 0 L 2.453125 -11.953125 L 2.234375 -11.953125 L 2.234375 0 L 0.828125 0 Z M 0.828125 -12.59375 "/></g></g></g><g fill="#e5c0a1" fill-opacity="1"><g transform="translate(131.706392, 764.48847)"><g><path d="M 8.046875 -1.515625 L 7.828125 -1.515625 C 7.535156 -0.910156 7.132812 -0.460938 6.625 -0.171875 C 6.125 0.109375 5.585938 0.25 5.015625 0.25 C 4.429688 0.25 3.882812 0.148438 3.375 -0.046875 C 2.875 -0.242188 2.4375 -0.535156 2.0625 -0.921875 C 1.6875 -1.316406 1.390625 -1.796875 1.171875 -2.359375 C 0.953125 -2.921875 0.84375 -3.570312 0.84375 -4.3125 L 0.84375 -4.609375 C 0.84375 -5.335938 0.953125 -5.984375 1.171875 -6.546875 C 1.390625 -7.109375 1.6875 -7.582031 2.0625 -7.96875 C 2.4375 -8.363281 2.875 -8.664062 3.375 -8.875 C 3.882812 -9.082031 4.421875 -9.1875 4.984375 -9.1875 C 5.597656 -9.1875 6.148438 -9.050781 6.640625 -8.78125 C 7.140625 -8.507812 7.535156 -8.09375 7.828125 -7.53125 L 8.046875 -7.53125 L 8.046875 -8.921875 L 9.453125 -8.921875 L 9.453125 -1.84375 C 9.453125 -1.476562 9.613281 -1.296875 9.9375 -1.296875 L 10.390625 -1.296875 L 10.390625 0 L 9.4375 0 C 9.019531 0 8.679688 -0.128906 8.421875 -0.390625 C 8.171875 -0.660156 8.046875 -1 8.046875 -1.40625 Z M 5.171875 -1.078125 C 5.585938 -1.078125 5.972656 -1.15625 6.328125 -1.3125 C 6.679688 -1.46875 6.984375 -1.6875 7.234375 -1.96875 C 7.484375 -2.257812 7.679688 -2.609375 7.828125 -3.015625 C 7.972656 -3.421875 8.046875 -3.867188 8.046875 -4.359375 L 8.046875 -4.578125 C 8.046875 -5.054688 7.972656 -5.492188 7.828125 -5.890625 C 7.679688 -6.296875 7.476562 -6.640625 7.21875 -6.921875 C 6.96875 -7.210938 6.664062 -7.4375 6.3125 -7.59375 C 5.957031 -7.757812 5.578125 -7.84375 5.171875 -7.84375 C 4.742188 -7.84375 4.351562 -7.765625 4 -7.609375 C 3.65625 -7.453125 3.351562 -7.234375 3.09375 -6.953125 C 2.84375 -6.671875 2.644531 -6.328125 2.5 -5.921875 C 2.351562 -5.523438 2.28125 -5.085938 2.28125 -4.609375 L 2.28125 -4.3125 C 2.28125 -3.300781 2.546875 -2.507812 3.078125 -1.9375 C 3.617188 -1.363281 4.316406 -1.078125 5.171875 -1.078125 Z M 5.171875 -1.078125 "/></g></g></g><g fill="#e5c0a1" fill-opacity="1"><g transform="translate(142.72236, 764.48847)"><g><path d="M 1.265625 -8.921875 L 4.0625 -8.921875 L 4.0625 -12.59375 L 5.46875 -12.59375 L 5.46875 -8.921875 L 8.921875 -8.921875 L 8.921875 -7.625 L 5.46875 -7.625 L 5.46875 -1.84375 C 5.46875 -1.476562 5.628906 -1.296875 5.953125 -1.296875 L 8.5 -1.296875 L 8.5 0 L 5.453125 0 C 5.046875 0 4.710938 -0.128906 4.453125 -0.390625 C 4.191406 -0.660156 4.0625 -1 4.0625 -1.40625 L 4.0625 -7.625 L 1.265625 -7.625 Z M 1.265625 -8.921875 "/></g></g></g><g fill="#e5c0a1" fill-opacity="1"><g transform="translate(153.738328, 764.48847)"><g><path d="M 1.265625 -8.921875 L 4.0625 -8.921875 L 4.0625 -12.59375 L 5.46875 -12.59375 L 5.46875 -8.921875 L 8.921875 -8.921875 L 8.921875 -7.625 L 5.46875 -7.625 L 5.46875 -1.84375 C 5.46875 -1.476562 5.628906 -1.296875 5.953125 -1.296875 L 8.5 -1.296875 L 8.5 0 L 5.453125 0 C 5.046875 0 4.710938 -0.128906 4.453125 -0.390625 C 4.191406 -0.660156 4.0625 -1 4.0625 -1.40625 L 4.0625 -7.625 L 1.265625 -7.625 Z M 1.265625 -8.921875 "/></g></g></g><g fill="#e5c0a1" fill-opacity="1"><g transform="translate(164.754296, 764.48847)"><g><path d="M 4.34375 -11.59375 C 4.34375 -11.9375 4.460938 -12.234375 4.703125 -12.484375 C 4.953125 -12.734375 5.25 -12.859375 5.59375 -12.859375 C 5.945312 -12.859375 6.242188 -12.734375 6.484375 -12.484375 C 6.734375 -12.234375 6.859375 -11.9375 6.859375 -11.59375 C 6.859375 -11.238281 6.734375 -10.9375 6.484375 -10.6875 C 6.242188 -10.445312 5.945312 -10.328125 5.59375 -10.328125 C 5.25 -10.328125 4.953125 -10.445312 4.703125 -10.6875 C 4.460938 -10.9375 4.34375 -11.238281 4.34375 -11.59375 Z M 1.78125 -1.296875 L 4.90625 -1.296875 L 4.90625 -7.625 L 2.109375 -7.625 L 2.109375 -8.921875 L 6.3125 -8.921875 L 6.3125 -1.296875 L 9.234375 -1.296875 L 9.234375 0 L 1.78125 0 Z M 1.78125 -1.296875 "/></g></g></g><g fill="#e5c0a1" fill-opacity="1"><g transform="translate(175.770263, 764.48847)"><g><path d="M 2.59375 -4.03125 C 2.625 -3.144531 2.894531 -2.429688 3.40625 -1.890625 C 3.925781 -1.347656 4.648438 -1.078125 5.578125 -1.078125 C 5.992188 -1.078125 6.359375 -1.125 6.671875 -1.21875 C 6.984375 -1.320312 7.25 -1.457031 7.46875 -1.625 C 7.695312 -1.789062 7.878906 -1.984375 8.015625 -2.203125 C 8.148438 -2.421875 8.265625 -2.660156 8.359375 -2.921875 L 9.6875 -2.5625 C 9.4375 -1.726562 8.96875 -1.050781 8.28125 -0.53125 C 7.601562 -0.0078125 6.691406 0.25 5.546875 0.25 C 4.910156 0.25 4.320312 0.140625 3.78125 -0.078125 C 3.25 -0.296875 2.789062 -0.609375 2.40625 -1.015625 C 2.03125 -1.429688 1.734375 -1.921875 1.515625 -2.484375 C 1.296875 -3.046875 1.1875 -3.671875 1.1875 -4.359375 L 1.1875 -4.78125 C 1.1875 -5.40625 1.296875 -5.988281 1.515625 -6.53125 C 1.742188 -7.070312 2.054688 -7.535156 2.453125 -7.921875 C 2.847656 -8.316406 3.3125 -8.625 3.84375 -8.84375 C 4.375 -9.070312 4.953125 -9.1875 5.578125 -9.1875 C 6.304688 -9.1875 6.9375 -9.050781 7.46875 -8.78125 C 8.007812 -8.507812 8.453125 -8.175781 8.796875 -7.78125 C 9.140625 -7.382812 9.390625 -6.953125 9.546875 -6.484375 C 9.710938 -6.015625 9.796875 -5.582031 9.796875 -5.1875 L 9.796875 -4.03125 Z M 5.578125 -7.84375 C 5.179688 -7.84375 4.8125 -7.78125 4.46875 -7.65625 C 4.125 -7.53125 3.820312 -7.351562 3.5625 -7.125 C 3.3125 -6.894531 3.101562 -6.628906 2.9375 -6.328125 C 2.78125 -6.023438 2.675781 -5.691406 2.625 -5.328125 L 8.390625 -5.328125 C 8.367188 -5.710938 8.273438 -6.0625 8.109375 -6.375 C 7.941406 -6.6875 7.726562 -6.945312 7.46875 -7.15625 C 7.21875 -7.375 6.925781 -7.539062 6.59375 -7.65625 C 6.269531 -7.78125 5.929688 -7.84375 5.578125 -7.84375 Z M 5.578125 -7.84375 "/></g></g></g><g fill="#e5c0a1" fill-opacity="1"><g transform="translate(186.786231, 764.48847)"><g/></g></g><g fill="#e5c0a1" fill-opacity="1"><g transform="translate(197.802199, 764.48847)"><g><path d="M 1.03125 -1.40625 L 2.109375 -1.40625 L 2.109375 -11.203125 L 1.03125 -11.203125 L 1.03125 -12.59375 L 6.125 -12.59375 C 6.71875 -12.59375 7.242188 -12.507812 7.703125 -12.34375 C 8.171875 -12.175781 8.5625 -11.945312 8.875 -11.65625 C 9.195312 -11.375 9.4375 -11.03125 9.59375 -10.625 C 9.757812 -10.226562 9.84375 -9.796875 9.84375 -9.328125 L 9.84375 -9.109375 C 9.84375 -8.765625 9.785156 -8.445312 9.671875 -8.15625 C 9.566406 -7.863281 9.421875 -7.601562 9.234375 -7.375 C 9.046875 -7.144531 8.820312 -6.945312 8.5625 -6.78125 C 8.300781 -6.625 8.019531 -6.503906 7.71875 -6.421875 L 7.71875 -6.203125 C 8.320312 -6.035156 8.828125 -5.710938 9.234375 -5.234375 C 9.640625 -4.765625 9.84375 -4.191406 9.84375 -3.515625 L 9.84375 -3.296875 C 9.84375 -2.828125 9.757812 -2.390625 9.59375 -1.984375 C 9.4375 -1.585938 9.195312 -1.238281 8.875 -0.9375 C 8.5625 -0.644531 8.171875 -0.414062 7.703125 -0.25 C 7.242188 -0.0820312 6.71875 0 6.125 0 L 1.03125 0 Z M 3.625 -1.40625 L 6.015625 -1.40625 C 6.722656 -1.40625 7.296875 -1.582031 7.734375 -1.9375 C 8.179688 -2.289062 8.40625 -2.78125 8.40625 -3.40625 L 8.40625 -3.515625 C 8.40625 -4.160156 8.191406 -4.671875 7.765625 -5.046875 C 7.347656 -5.421875 6.78125 -5.609375 6.0625 -5.609375 L 3.625 -5.609375 Z M 3.625 -7.015625 L 6.0625 -7.015625 C 6.78125 -7.015625 7.347656 -7.203125 7.765625 -7.578125 C 8.191406 -7.953125 8.40625 -8.460938 8.40625 -9.109375 L 8.40625 -9.21875 C 8.40625 -9.832031 8.179688 -10.316406 7.734375 -10.671875 C 7.296875 -11.023438 6.722656 -11.203125 6.015625 -11.203125 L 3.625 -11.203125 Z M 3.625 -7.015625 "/></g></g></g><g fill="#e5c0a1" fill-opacity="1"><g transform="translate(208.818167, 764.48847)"><g><path d="M 7.9375 -8.921875 L 9.34375 -8.921875 L 9.34375 0 L 7.9375 0 L 7.9375 -1.625 L 7.71875 -1.625 C 7.4375 -1.039062 7.0625 -0.582031 6.59375 -0.25 C 6.125 0.0820312 5.53125 0.25 4.8125 0.25 C 4.3125 0.25 3.851562 0.164062 3.4375 0 C 3.03125 -0.15625 2.675781 -0.394531 2.375 -0.71875 C 2.082031 -1.039062 1.851562 -1.441406 1.6875 -1.921875 C 1.53125 -2.398438 1.453125 -2.957031 1.453125 -3.59375 L 1.453125 -8.921875 L 2.859375 -8.921875 L 2.859375 -3.78125 C 2.859375 -2.84375 3.050781 -2.15625 3.4375 -1.71875 C 3.820312 -1.289062 4.410156 -1.078125 5.203125 -1.078125 C 6.054688 -1.078125 6.722656 -1.367188 7.203125 -1.953125 C 7.691406 -2.535156 7.9375 -3.3125 7.9375 -4.28125 Z M 7.9375 -8.921875 "/></g></g></g><g fill="#e5c0a1" fill-opacity="1"><g transform="translate(219.834134, 764.48847)"><g><path d="M 1.0625 -8.921875 L 4.296875 -8.921875 L 4.296875 -7.734375 L 4.515625 -7.734375 C 4.742188 -8.234375 5.066406 -8.597656 5.484375 -8.828125 C 5.910156 -9.066406 6.394531 -9.1875 6.9375 -9.1875 C 7.832031 -9.1875 8.554688 -8.890625 9.109375 -8.296875 C 9.660156 -7.710938 9.953125 -6.851562 9.984375 -5.71875 L 8.515625 -5.515625 C 8.515625 -6.335938 8.316406 -6.929688 7.921875 -7.296875 C 7.523438 -7.660156 7.039062 -7.84375 6.46875 -7.84375 C 6.09375 -7.84375 5.769531 -7.769531 5.5 -7.625 C 5.226562 -7.488281 5 -7.289062 4.8125 -7.03125 C 4.632812 -6.78125 4.503906 -6.488281 4.421875 -6.15625 C 4.335938 -5.820312 4.296875 -5.460938 4.296875 -5.078125 L 4.296875 -1.296875 L 6.5625 -1.296875 L 6.5625 0 L 0.84375 0 L 0.84375 -1.296875 L 2.890625 -1.296875 L 2.890625 -7.625 L 1.0625 -7.625 Z M 1.0625 -8.921875 "/></g></g></g><g fill="#e5c0a1" fill-opacity="1"><g transform="translate(230.850102, 764.48847)"><g><path d="M 3.875 -5.21875 L 4.171875 -5.21875 L 7.578125 -8.921875 L 9.3125 -8.921875 L 9.3125 -8.8125 L 5.59375 -4.734375 L 5.59375 -4.40625 L 9.734375 -0.109375 L 9.734375 0 L 8.015625 0 L 4.21875 -3.921875 L 3.875 -3.921875 L 3.875 0 L 2.46875 0 L 2.46875 -12.59375 L 3.875 -12.59375 Z M 3.875 -5.21875 "/></g></g></g><g fill="#e5c0a1" fill-opacity="1"><g transform="translate(241.86607, 764.48847)"><g><path d="M 2.59375 -4.03125 C 2.625 -3.144531 2.894531 -2.429688 3.40625 -1.890625 C 3.925781 -1.347656 4.648438 -1.078125 5.578125 -1.078125 C 5.992188 -1.078125 6.359375 -1.125 6.671875 -1.21875 C 6.984375 -1.320312 7.25 -1.457031 7.46875 -1.625 C 7.695312 -1.789062 7.878906 -1.984375 8.015625 -2.203125 C 8.148438 -2.421875 8.265625 -2.660156 8.359375 -2.921875 L 9.6875 -2.5625 C 9.4375 -1.726562 8.96875 -1.050781 8.28125 -0.53125 C 7.601562 -0.0078125 6.691406 0.25 5.546875 0.25 C 4.910156 0.25 4.320312 0.140625 3.78125 -0.078125 C 3.25 -0.296875 2.789062 -0.609375 2.40625 -1.015625 C 2.03125 -1.429688 1.734375 -1.921875 1.515625 -2.484375 C 1.296875 -3.046875 1.1875 -3.671875 1.1875 -4.359375 L 1.1875 -4.78125 C 1.1875 -5.40625 1.296875 -5.988281 1.515625 -6.53125 C 1.742188 -7.070312 2.054688 -7.535156 2.453125 -7.921875 C 2.847656 -8.316406 3.3125 -8.625 3.84375 -8.84375 C 4.375 -9.070312 4.953125 -9.1875 5.578125 -9.1875 C 6.304688 -9.1875 6.9375 -9.050781 7.46875 -8.78125 C 8.007812 -8.507812 8.453125 -8.175781 8.796875 -7.78125 C 9.140625 -7.382812 9.390625 -6.953125 9.546875 -6.484375 C 9.710938 -6.015625 9.796875 -5.582031 9.796875 -5.1875 L 9.796875 -4.03125 Z M 5.578125 -7.84375 C 5.179688 -7.84375 4.8125 -7.78125 4.46875 -7.65625 C 4.125 -7.53125 3.820312 -7.351562 3.5625 -7.125 C 3.3125 -6.894531 3.101562 -6.628906 2.9375 -6.328125 C 2.78125 -6.023438 2.675781 -5.691406 2.625 -5.328125 L 8.390625 -5.328125 C 8.367188 -5.710938 8.273438 -6.0625 8.109375 -6.375 C 7.941406 -6.6875 7.726562 -6.945312 7.46875 -7.15625 C 7.21875 -7.375 6.925781 -7.539062 6.59375 -7.65625 C 6.269531 -7.78125 5.929688 -7.84375 5.578125 -7.84375 Z M 5.578125 -7.84375 "/></g></g></g><g fill="#e5c0a1" fill-opacity="1"><g transform="translate(252.882038, 764.48847)"><g><path d="M 1.0625 -8.921875 L 4.296875 -8.921875 L 4.296875 -7.734375 L 4.515625 -7.734375 C 4.742188 -8.234375 5.066406 -8.597656 5.484375 -8.828125 C 5.910156 -9.066406 6.394531 -9.1875 6.9375 -9.1875 C 7.832031 -9.1875 8.554688 -8.890625 9.109375 -8.296875 C 9.660156 -7.710938 9.953125 -6.851562 9.984375 -5.71875 L 8.515625 -5.515625 C 8.515625 -6.335938 8.316406 -6.929688 7.921875 -7.296875 C 7.523438 -7.660156 7.039062 -7.84375 6.46875 -7.84375 C 6.09375 -7.84375 5.769531 -7.769531 5.5 -7.625 C 5.226562 -7.488281 5 -7.289062 4.8125 -7.03125 C 4.632812 -6.78125 4.503906 -6.488281 4.421875 -6.15625 C 4.335938 -5.820312 4.296875 -5.460938 4.296875 -5.078125 L 4.296875 -1.296875 L 6.5625 -1.296875 L 6.5625 0 L 0.84375 0 L 0.84375 -1.296875 L 2.890625 -1.296875 L 2.890625 -7.625 L 1.0625 -7.625 Z M 1.0625 -8.921875 "/></g></g></g><g fill="#e5c0a1" fill-opacity="1"><g transform="translate(263.898006, 764.48847)"><g><path d="M 1.265625 -8.921875 L 4.0625 -8.921875 L 4.0625 -12.59375 L 5.46875 -12.59375 L 5.46875 -8.921875 L 8.921875 -8.921875 L 8.921875 -7.625 L 5.46875 -7.625 L 5.46875 -1.84375 C 5.46875 -1.476562 5.628906 -1.296875 5.953125 -1.296875 L 8.5 -1.296875 L 8.5 0 L 5.453125 0 C 5.046875 0 4.710938 -0.128906 4.453125 -0.390625 C 4.191406 -0.660156 4.0625 -1 4.0625 -1.40625 L 4.0625 -7.625 L 1.265625 -7.625 Z M 1.265625 -8.921875 "/></g></g></g><g fill="#e5c0a1" fill-opacity="1"><g transform="translate(274.907106, 764.48847)"><g/></g></g></svg>