<svg xmlns="http://www.w3.org/2000/svg" xmlns:xlink="http://www.w3.org/1999/xlink" width="1080" zoomAndPan="magnify" viewBox="0 0 810 809.999993" height="1080" preserveAspectRatio="xMidYMid meet" version="1.0"><defs><g/><clipPath id="e0a9a6f5dc"><path d="M 0 0 L 457.746094 0 L 457.746094 810 L 0 810 Z M 0 0 " clip-rule="nonzero"/></clipPath><clipPath id="3b776e045d"><path d="M 0 862.175781 C -122.082031 862.175781 -237.035156 814.660156 -323.296875 728.214844 C -409.742188 641.953125 -457.257812 527 -457.257812 404.917969 C -457.257812 282.835938 -409.742188 167.882812 -323.296875 81.621094 C -237.035156 -4.824219 -122.082031 -52.339844 0 -52.339844 C 122.082031 -52.339844 237.035156 -4.824219 323.296875 81.621094 C 409.742188 168.066406 457.257812 282.835938 457.257812 404.917969 C 457.257812 527 409.742188 641.953125 323.296875 728.214844 C 237.035156 814.660156 122.082031 862.175781 0 862.175781 M 0 -24.925781 C -114.773438 -24.925781 -222.78125 19.847656 -303.925781 100.992188 C -385.070312 182.136719 -429.84375 290.148438 -429.84375 404.917969 C -429.84375 519.691406 -385.070312 627.699219 -303.925781 708.84375 C -222.78125 789.988281 -114.773438 834.761719 0 834.761719 C 114.773438 834.761719 222.78125 789.988281 303.925781 708.84375 C 385.070312 627.699219 429.84375 519.691406 429.84375 404.917969 C 429.84375 290.148438 385.070312 182.136719 303.925781 100.992188 C 222.78125 19.847656 114.773438 -24.925781 0 -24.925781 " clip-rule="nonzero"/></clipPath><clipPath id="6ef2be600f"><path d="M 510.519531 313.820312 L 692.710938 313.820312 L 692.710938 496.015625 L 510.519531 496.015625 Z M 510.519531 313.820312 " clip-rule="nonzero"/></clipPath><clipPath id="2bd8dc807b"><path d="M 601.617188 313.820312 C 551.304688 313.820312 510.519531 354.605469 510.519531 404.917969 C 510.519531 455.230469 551.304688 496.015625 601.617188 496.015625 C 651.925781 496.015625 692.710938 455.230469 692.710938 404.917969 C 692.710938 354.605469 651.925781 313.820312 601.617188 313.820312 " clip-rule="nonzero"/></clipPath><clipPath id="28b2a6a237"><path d="M 738.828125 333.746094 L 810 333.746094 L 810 476.089844 L 738.828125 476.089844 Z M 738.828125 333.746094 " clip-rule="nonzero"/></clipPath><clipPath id="2ef6ae09ef"><path d="M 810 333.746094 C 770.691406 333.746094 738.828125 365.609375 738.828125 404.917969 C 738.828125 444.226562 770.691406 476.089844 810 476.089844 C 849.308594 476.089844 881.171875 444.226562 881.171875 404.917969 C 881.171875 365.609375 849.308594 333.746094 810 333.746094 " clip-rule="nonzero"/></clipPath><clipPath id="363f1d6e05"><path d="M 571 386 L 640.273438 386 L 640.273438 448.363281 L 571 448.363281 Z M 571 386 " clip-rule="nonzero"/></clipPath><clipPath id="158a5d03d5"><path d="M 584 361.363281 L 623 361.363281 L 623 378 L 584 378 Z M 584 361.363281 " clip-rule="nonzero"/></clipPath></defs><rect x="-81" width="972" fill="#ffffff" y="-80.999999" height="971.999992" fill-opacity="1"/><rect x="-81" width="972" fill="#51303b" y="-80.999999" height="971.999992" fill-opacity="1"/><g clip-path="url(#e0a9a6f5dc)"><g clip-path="url(#3b776e045d)"><path fill="#e5c0a1" d="M -457.257812 -52.339844 L 457.136719 -52.339844 L 457.136719 862.054688 L -457.257812 862.054688 Z M -457.257812 -52.339844 " fill-opacity="1" fill-rule="nonzero"/></g></g><g clip-path="url(#6ef2be600f)"><g clip-path="url(#2bd8dc807b)"><path fill="#e5c0a1" d="M 510.519531 313.820312 L 692.710938 313.820312 L 692.710938 496.015625 L 510.519531 496.015625 Z M 510.519531 313.820312 " fill-opacity="1" fill-rule="nonzero"/></g></g><g clip-path="url(#28b2a6a237)"><g clip-path="url(#2ef6ae09ef)"><path fill="#e5c0a1" d="M 738.828125 333.746094 L 881.171875 333.746094 L 881.171875 476.089844 L 738.828125 476.089844 Z M 738.828125 333.746094 " fill-opacity="1" fill-rule="nonzero"/></g></g><g clip-path="url(#363f1d6e05)"><path fill="#9c6640" d="M 584.648438 420.179688 C 583.78125 424.433594 584.230469 428.636719 586.539062 431.804688 L 589.347656 435.660156 C 592.472656 439.945312 602.199219 443.664062 603.9375 444.363281 C 606.746094 445.515625 611.226562 447.082031 614.703125 448.132812 C 615.554688 448.382812 616.460938 447.902344 616.710938 447.050781 C 616.960938 446.199219 616.476562 445.316406 615.625 445.066406 C 612.863281 444.230469 607.53125 442.363281 605.125 441.394531 C 603.453125 440.730469 594.410156 437.175781 591.953125 433.773438 L 589.128906 429.921875 C 587.441406 427.585938 587.105469 424.417969 587.808594 420.78125 C 587.925781 420.132812 588.175781 419.128906 588.496094 418.128906 L 594.292969 426.101562 C 594.828125 426.820312 595.832031 426.96875 596.535156 426.453125 C 597.253906 425.933594 597.503906 425.066406 596.902344 424.21875 L 575.207031 394.429688 C 574.152344 392.996094 574.46875 390.992188 575.90625 389.941406 C 577.34375 388.910156 579.351562 389.226562 580.386719 390.660156 L 596.433594 412.675781 C 596.953125 413.394531 597.957031 413.558594 598.675781 413.042969 C 599.394531 412.507812 599.542969 411.507812 599.023438 410.792969 L 594.3125 404.320312 C 593.257812 402.886719 593.59375 400.882812 595.011719 399.851562 C 596.449219 398.816406 598.457031 399.132812 599.492188 400.550781 L 604.222656 407.039062 C 604.742188 407.753906 605.746094 407.90625 606.464844 407.390625 C 607.183594 406.871094 607.332031 405.871094 606.8125 405.152344 L 603.988281 401.269531 C 602.9375 399.832031 603.253906 397.832031 604.691406 396.796875 C 606.128906 395.746094 608.136719 396.0625 609.171875 397.5 L 613.886719 403.96875 C 614.417969 404.6875 615.421875 404.855469 616.140625 404.335938 C 616.84375 403.820312 617.011719 402.820312 616.492188 402.101562 L 613.667969 398.214844 C 612.613281 396.78125 612.933594 394.78125 614.371094 393.730469 C 615.808594 392.695312 617.8125 393.011719 618.847656 394.445312 L 625.453125 403.519531 C 631.636719 411.992188 632.320312 423.851562 637.234375 430.589844 C 637.753906 431.304688 638.757812 431.472656 639.476562 430.957031 C 640.195312 430.421875 640.363281 429.421875 639.84375 428.703125 C 635.597656 422.898438 634.261719 410.140625 628.058594 401.632812 L 621.457031 392.5625 C 619.367188 389.691406 615.355469 389.058594 612.480469 391.144531 C 611.410156 391.929688 610.660156 392.960938 610.222656 394.113281 C 608.050781 392.613281 605.074219 392.5625 602.800781 394.195312 C 601.734375 394.980469 600.980469 396.015625 600.5625 397.164062 C 598.371094 395.664062 595.398438 395.613281 593.125 397.265625 C 592.1875 397.949219 591.484375 398.832031 591.035156 399.832031 L 582.996094 388.777344 C 580.90625 385.921875 576.894531 385.273438 574.019531 387.359375 C 571.160156 389.441406 570.523438 393.445312 572.597656 396.3125 L 586.203125 414.976562 C 585.484375 416.695312 584.96875 418.664062 584.648438 420.179688 Z M 584.648438 420.179688 " fill-opacity="1" fill-rule="nonzero"/></g><g clip-path="url(#158a5d03d5)"><path fill="#9c6640" d="M 593.410156 375.148438 C 594.027344 375.785156 594.027344 376.785156 593.410156 377.417969 C 592.773438 378.035156 591.753906 378.035156 591.136719 377.417969 L 584.714844 371.011719 C 584.082031 370.378906 584.082031 369.378906 584.714844 368.746094 L 591.136719 362.339844 C 591.753906 361.722656 592.773438 361.722656 593.410156 362.339844 C 594.027344 362.972656 594.027344 363.976562 593.410156 364.609375 L 589.730469 368.277344 L 621.15625 368.277344 C 622.042969 368.277344 622.761719 368.996094 622.761719 369.878906 C 622.761719 370.761719 622.042969 371.480469 621.15625 371.480469 L 589.714844 371.480469 Z M 593.410156 375.148438 " fill-opacity="1" fill-rule="nonzero"/></g><g fill="#e5c0a1" fill-opacity="1"><g transform="translate(712.831312, 58.706794)"><g><path d="M 1.296875 -12.59375 L 9.71875 -12.59375 L 9.71875 -10.40625 L 4.40625 -2.375 C 4.15625 -1.988281 3.960938 -1.65625 3.828125 -1.375 C 3.703125 -1.101562 3.640625 -0.828125 3.640625 -0.546875 L 3.640625 0 L 2.15625 0 L 2.15625 -0.640625 C 2.15625 -0.859375 2.175781 -1.0625 2.21875 -1.25 C 2.257812 -1.445312 2.328125 -1.644531 2.421875 -1.84375 C 2.515625 -2.039062 2.628906 -2.25 2.765625 -2.46875 C 2.898438 -2.695312 3.066406 -2.953125 3.265625 -3.234375 L 8.421875 -10.984375 L 8.421875 -11.203125 L 1.296875 -11.203125 Z M 1.296875 -12.59375 "/></g></g></g><g fill="#e5c0a1" fill-opacity="1"><g transform="translate(723.84728, 58.706794)"><g><path d="M 7.5 -14.515625 L 8.765625 -14.109375 L 3.53125 1.90625 L 2.25 1.515625 Z M 7.5 -14.515625 "/></g></g></g><g fill="#e5c0a1" fill-opacity="1"><g transform="translate(734.863248, 58.706794)"><g><path d="M 4.84375 -1.40625 L 4.84375 -11.9375 L 4.625 -11.9375 L 2.5625 -7.203125 L 1.0625 -7.203125 L 1.0625 -7.3125 L 3.421875 -12.59375 L 6.359375 -12.59375 L 6.359375 -1.40625 L 9.921875 -1.40625 L 9.921875 0 L 1.28125 0 L 1.28125 -1.40625 Z M 4.84375 -1.40625 "/></g></g></g><g fill="#e5c0a1" fill-opacity="1"><g transform="translate(745.879216, 58.706794)"><g><path d="M 1.078125 -7.703125 C 1.078125 -9.335938 1.46875 -10.601562 2.25 -11.5 C 3.03125 -12.40625 4.117188 -12.859375 5.515625 -12.859375 C 6.898438 -12.859375 7.984375 -12.40625 8.765625 -11.5 C 9.546875 -10.601562 9.9375 -9.335938 9.9375 -7.703125 L 9.9375 -4.890625 C 9.9375 -3.210938 9.546875 -1.9375 8.765625 -1.0625 C 7.984375 -0.1875 6.898438 0.25 5.515625 0.25 C 4.117188 0.25 3.03125 -0.1875 2.25 -1.0625 C 1.46875 -1.9375 1.078125 -3.210938 1.078125 -4.890625 Z M 5.515625 -1.109375 C 6.484375 -1.109375 7.207031 -1.445312 7.6875 -2.125 C 8.175781 -2.8125 8.421875 -3.769531 8.421875 -5 L 8.421875 -7.59375 C 8.421875 -8.164062 8.359375 -8.6875 8.234375 -9.15625 C 8.117188 -9.632812 7.9375 -10.046875 7.6875 -10.390625 C 7.445312 -10.734375 7.144531 -11 6.78125 -11.1875 C 6.414062 -11.382812 5.992188 -11.484375 5.515625 -11.484375 C 5.015625 -11.484375 4.582031 -11.382812 4.21875 -11.1875 C 3.863281 -11 3.5625 -10.734375 3.3125 -10.390625 C 3.070312 -10.046875 2.890625 -9.632812 2.765625 -9.15625 C 2.648438 -8.6875 2.59375 -8.164062 2.59375 -7.59375 L 2.59375 -5 C 2.59375 -3.769531 2.832031 -2.8125 3.3125 -2.125 C 3.800781 -1.445312 4.535156 -1.109375 5.515625 -1.109375 Z M 4.359375 -6.296875 C 4.359375 -6.609375 4.472656 -6.878906 4.703125 -7.109375 C 4.929688 -7.335938 5.203125 -7.453125 5.515625 -7.453125 C 5.816406 -7.453125 6.082031 -7.335938 6.3125 -7.109375 C 6.539062 -6.878906 6.65625 -6.609375 6.65625 -6.296875 C 6.65625 -5.984375 6.539062 -5.710938 6.3125 -5.484375 C 6.082031 -5.253906 5.816406 -5.140625 5.515625 -5.140625 C 5.203125 -5.140625 4.929688 -5.253906 4.703125 -5.484375 C 4.472656 -5.710938 4.359375 -5.984375 4.359375 -6.296875 Z M 4.359375 -6.296875 "/></g></g></g><g fill="#e08c72" fill-opacity="1"><g transform="translate(53.788261, 215.250067)"><g><path d="M 7.765625 14.5625 C 5.835938 14.5625 4.265625 14.347656 3.046875 13.921875 L 3.046875 9.359375 L 5.359375 9.359375 C 9.578125 9.359375 12.351562 6.238281 13.6875 0 L 0.796875 -42.078125 L 8 -42.078125 L 15.125 -16.953125 L 17.28125 -9.4375 L 17.59375 -9.4375 L 19.4375 -17.125 L 25.4375 -42.078125 L 32.078125 -42.078125 L 21.359375 -2.15625 C 19.972656 3.070312 18.210938 7.164062 16.078125 10.125 C 13.941406 13.082031 11.171875 14.5625 7.765625 14.5625 Z M 7.765625 14.5625 "/></g></g></g><g fill="#e08c72" fill-opacity="1"><g transform="translate(86.58508, 215.250067)"><g><path d="M 18.234375 0.953125 C 13.273438 0.953125 9.53125 -0.84375 7 -4.4375 C 4.46875 -8.039062 3.203125 -13.578125 3.203125 -21.046875 C 3.203125 -28.503906 4.46875 -34.035156 7 -37.640625 C 9.53125 -41.242188 13.273438 -43.046875 18.234375 -43.046875 C 23.203125 -43.046875 26.953125 -41.242188 29.484375 -37.640625 C 32.015625 -34.035156 33.28125 -28.503906 33.28125 -21.046875 C 33.28125 -13.578125 32.015625 -8.039062 29.484375 -4.4375 C 26.953125 -0.84375 23.203125 0.953125 18.234375 0.953125 Z M 18.234375 -4.875 C 23.679688 -4.875 26.40625 -9.753906 26.40625 -19.515625 L 26.40625 -22.5625 C 26.40625 -32.320312 23.679688 -37.203125 18.234375 -37.203125 C 12.796875 -37.203125 10.078125 -32.320312 10.078125 -22.5625 L 10.078125 -19.515625 C 10.078125 -9.753906 12.796875 -4.875 18.234375 -4.875 Z M 18.234375 -4.875 "/></g></g></g><g fill="#e08c72" fill-opacity="1"><g transform="translate(123.061542, 215.250067)"><g><path d="M 15.203125 0.953125 C 11.835938 0.953125 9.257812 -0.046875 7.46875 -2.046875 C 5.6875 -4.046875 4.796875 -7.285156 4.796875 -11.765625 L 4.796875 -42.078125 L 11.359375 -42.078125 L 11.359375 -12.234375 C 11.359375 -9.515625 11.863281 -7.609375 12.875 -6.515625 C 13.894531 -5.421875 15.363281 -4.875 17.28125 -4.875 C 19.46875 -4.875 21.320312 -5.914062 22.84375 -8 C 24.363281 -10.082031 25.125 -12.882812 25.125 -16.40625 L 25.125 -42.078125 L 31.6875 -42.078125 L 31.6875 0 L 26.71875 0 L 25.84375 -4.875 L 25.359375 -4.875 C 23.171875 -0.988281 19.785156 0.953125 15.203125 0.953125 Z M 15.203125 0.953125 "/></g></g></g><g fill="#e08c72" fill-opacity="1"><g transform="translate(159.538003, 215.250067)"><g/></g></g><g fill="#e08c72" fill-opacity="1"><g transform="translate(177.776233, 215.250067)"><g><path d="M 17.28125 0.953125 C 12.320312 0.953125 8.679688 -0.816406 6.359375 -4.359375 C 4.035156 -7.910156 2.875 -13.472656 2.875 -21.046875 C 2.875 -28.617188 4.046875 -34.175781 6.390625 -37.71875 C 8.742188 -41.269531 12.375 -43.046875 17.28125 -43.046875 C 21.757812 -43.046875 25.023438 -41.65625 27.078125 -38.875 C 29.128906 -36.101562 30.15625 -31.972656 30.15625 -26.484375 L 23.359375 -26.484375 C 23.359375 -30.265625 22.914062 -32.992188 22.03125 -34.671875 C 21.15625 -36.359375 19.570312 -37.203125 17.28125 -37.203125 C 14.71875 -37.203125 12.820312 -35.988281 11.59375 -33.5625 C 10.375 -31.132812 9.765625 -27.46875 9.765625 -22.5625 L 9.765625 -19.515625 C 9.765625 -14.609375 10.363281 -10.941406 11.5625 -8.515625 C 12.757812 -6.085938 14.664062 -4.875 17.28125 -4.875 C 19.570312 -4.875 21.210938 -5.753906 22.203125 -7.515625 C 23.191406 -9.273438 23.6875 -11.96875 23.6875 -15.59375 L 30.15625 -15.59375 C 30.15625 -10.800781 29.101562 -6.84375 27 -3.71875 C 24.894531 -0.601562 21.65625 0.953125 17.28125 0.953125 Z M 17.28125 0.953125 "/></g></g></g><g fill="#e08c72" fill-opacity="1"><g transform="translate(210.573053, 215.250067)"><g><path d="M 13.765625 0.953125 C 10.878906 0.953125 8.316406 0.101562 6.078125 -1.59375 C 3.835938 -3.300781 2.71875 -6.394531 2.71875 -10.875 C 2.71875 -16.257812 4.546875 -19.953125 8.203125 -21.953125 C 11.859375 -23.953125 17.125 -24.953125 24 -24.953125 L 24 -30.40625 C 24 -32.59375 23.519531 -34.269531 22.5625 -35.4375 C 21.601562 -36.613281 19.867188 -37.203125 17.359375 -37.203125 C 15.066406 -37.203125 13.410156 -36.5625 12.390625 -35.28125 C 11.378906 -34 10.875 -32.425781 10.875 -30.5625 L 10.875 -29.59375 L 4.40625 -29.59375 C 4.34375 -29.914062 4.3125 -30.503906 4.3125 -31.359375 C 4.3125 -35.085938 5.539062 -37.96875 8 -40 C 10.457031 -42.03125 13.738281 -43.046875 17.84375 -43.046875 C 22.050781 -43.046875 25.222656 -42.03125 27.359375 -40 C 29.492188 -37.96875 30.5625 -35.0625 30.5625 -31.28125 L 30.5625 -7.6875 C 30.5625 -6.769531 30.773438 -6.070312 31.203125 -5.59375 C 31.628906 -5.113281 32.160156 -4.875 32.796875 -4.875 L 35.359375 -4.875 L 35.359375 -0.3125 C 34.179688 0.320312 32.742188 0.640625 31.046875 0.640625 C 29.335938 0.640625 27.910156 0.175781 26.765625 -0.75 C 25.617188 -1.6875 24.832031 -2.957031 24.40625 -4.5625 L 24 -4.5625 C 22.9375 -2.800781 21.507812 -1.441406 19.71875 -0.484375 C 17.9375 0.472656 15.953125 0.953125 13.765625 0.953125 Z M 15.28125 -4.875 C 16.71875 -4.875 18.101562 -5.273438 19.4375 -6.078125 C 20.769531 -6.878906 21.863281 -8.066406 22.71875 -9.640625 C 23.570312 -11.210938 24 -13.09375 24 -15.28125 L 24 -19.125 C 19.195312 -19.125 15.59375 -18.578125 13.1875 -17.484375 C 10.789062 -16.390625 9.59375 -14.320312 9.59375 -11.28125 C 9.59375 -8.988281 10.0625 -7.347656 11 -6.359375 C 11.9375 -5.367188 13.363281 -4.875 15.28125 -4.875 Z M 15.28125 -4.875 "/></g></g></g><g fill="#e08c72" fill-opacity="1"><g transform="translate(247.049526, 215.250067)"><g><path d="M 4.796875 -42.078125 L 9.765625 -42.078125 L 10.640625 -37.203125 L 11.125 -37.203125 C 13.3125 -41.097656 16.695312 -43.046875 21.28125 -43.046875 C 24.632812 -43.046875 27.207031 -42.046875 29 -40.046875 C 30.789062 -38.046875 31.6875 -34.800781 31.6875 -30.3125 L 31.6875 0 L 25.125 0 L 25.125 -29.84375 C 25.125 -32.5625 24.613281 -34.46875 23.59375 -35.5625 C 22.582031 -36.65625 21.117188 -37.203125 19.203125 -37.203125 C 17.015625 -37.203125 15.160156 -36.160156 13.640625 -34.078125 C 12.117188 -31.992188 11.359375 -29.195312 11.359375 -25.6875 L 11.359375 0 L 4.796875 0 Z M 4.796875 -42.078125 "/></g></g></g><g fill="#e08c72" fill-opacity="1"><g transform="translate(53.788261, 301.500062)"><g><path d="M 4 -57.84375 L 10.5625 -57.84375 L 10.5625 0 L 4 0 Z M 4 -57.84375 "/></g></g></g><g fill="#e08c72" fill-opacity="1"><g transform="translate(68.34685, 301.500062)"><g><path d="M 19.28125 0.953125 C 13.945312 0.953125 9.957031 -0.789062 7.3125 -4.28125 C 4.675781 -7.769531 3.359375 -13.359375 3.359375 -21.046875 C 3.359375 -28.554688 4.664062 -34.097656 7.28125 -37.671875 C 9.894531 -41.253906 13.867188 -43.046875 19.203125 -43.046875 C 23.890625 -43.046875 27.367188 -41.484375 29.640625 -38.359375 C 31.910156 -35.242188 33.046875 -30.21875 33.046875 -23.28125 L 33.046875 -19.125 L 10.234375 -19.125 C 10.285156 -14.21875 11.046875 -10.613281 12.515625 -8.3125 C 13.984375 -6.019531 16.289062 -4.875 19.4375 -4.875 C 21.570312 -4.875 23.289062 -5.726562 24.59375 -7.4375 C 25.90625 -9.144531 26.5625 -11.4375 26.5625 -14.3125 L 33.046875 -14.3125 C 33.046875 -9.625 31.773438 -5.90625 29.234375 -3.15625 C 26.703125 -0.414062 23.382812 0.953125 19.28125 0.953125 Z M 26.15625 -24.953125 C 26.15625 -28.953125 25.566406 -31.992188 24.390625 -34.078125 C 23.222656 -36.160156 21.492188 -37.203125 19.203125 -37.203125 C 16.367188 -37.203125 14.242188 -36.203125 12.828125 -34.203125 C 11.421875 -32.203125 10.582031 -29.117188 10.3125 -24.953125 Z M 26.15625 -24.953125 "/></g></g></g><g fill="#e08c72" fill-opacity="1"><g transform="translate(104.823311, 301.500062)"><g><path d="M 0.796875 -42.078125 L 8 -42.078125 L 13.6875 -20.71875 L 16.5625 -10.078125 L 16.875 -10.078125 L 19.765625 -20.953125 L 25.4375 -42.078125 L 32.078125 -42.078125 L 20 0 L 12.875 0 Z M 0.796875 -42.078125 "/></g></g></g><g fill="#e08c72" fill-opacity="1"><g transform="translate(137.620131, 301.500062)"><g><path d="M 19.28125 0.953125 C 13.945312 0.953125 9.957031 -0.789062 7.3125 -4.28125 C 4.675781 -7.769531 3.359375 -13.359375 3.359375 -21.046875 C 3.359375 -28.554688 4.664062 -34.097656 7.28125 -37.671875 C 9.894531 -41.253906 13.867188 -43.046875 19.203125 -43.046875 C 23.890625 -43.046875 27.367188 -41.484375 29.640625 -38.359375 C 31.910156 -35.242188 33.046875 -30.21875 33.046875 -23.28125 L 33.046875 -19.125 L 10.234375 -19.125 C 10.285156 -14.21875 11.046875 -10.613281 12.515625 -8.3125 C 13.984375 -6.019531 16.289062 -4.875 19.4375 -4.875 C 21.570312 -4.875 23.289062 -5.726562 24.59375 -7.4375 C 25.90625 -9.144531 26.5625 -11.4375 26.5625 -14.3125 L 33.046875 -14.3125 C 33.046875 -9.625 31.773438 -5.90625 29.234375 -3.15625 C 26.703125 -0.414062 23.382812 0.953125 19.28125 0.953125 Z M 26.15625 -24.953125 C 26.15625 -28.953125 25.566406 -31.992188 24.390625 -34.078125 C 23.222656 -36.160156 21.492188 -37.203125 19.203125 -37.203125 C 16.367188 -37.203125 14.242188 -36.203125 12.828125 -34.203125 C 11.421875 -32.203125 10.582031 -29.117188 10.3125 -24.953125 Z M 26.15625 -24.953125 "/></g></g></g><g fill="#e08c72" fill-opacity="1"><g transform="translate(174.096592, 301.500062)"><g><path d="M 4.796875 -42.078125 L 9.765625 -42.078125 L 10.640625 -36.5625 L 11.125 -36.5625 C 11.707031 -38.425781 12.582031 -39.972656 13.75 -41.203125 C 14.925781 -42.429688 16.421875 -43.046875 18.234375 -43.046875 C 18.984375 -43.046875 19.648438 -42.953125 20.234375 -42.765625 C 20.828125 -42.578125 21.203125 -42.457031 21.359375 -42.40625 L 21.359375 -35.59375 L 19.203125 -35.59375 C 16.910156 -35.59375 15.03125 -34.804688 13.5625 -33.234375 C 12.09375 -31.660156 11.359375 -29.144531 11.359375 -25.6875 L 11.359375 0 L 4.796875 0 Z M 4.796875 -42.078125 "/></g></g></g><g fill="#e08c72" fill-opacity="1"><g transform="translate(195.93447, 301.500062)"><g><path d="M 13.765625 0.953125 C 10.878906 0.953125 8.316406 0.101562 6.078125 -1.59375 C 3.835938 -3.300781 2.71875 -6.394531 2.71875 -10.875 C 2.71875 -16.257812 4.546875 -19.953125 8.203125 -21.953125 C 11.859375 -23.953125 17.125 -24.953125 24 -24.953125 L 24 -30.40625 C 24 -32.59375 23.519531 -34.269531 22.5625 -35.4375 C 21.601562 -36.613281 19.867188 -37.203125 17.359375 -37.203125 C 15.066406 -37.203125 13.410156 -36.5625 12.390625 -35.28125 C 11.378906 -34 10.875 -32.425781 10.875 -30.5625 L 10.875 -29.59375 L 4.40625 -29.59375 C 4.34375 -29.914062 4.3125 -30.503906 4.3125 -31.359375 C 4.3125 -35.085938 5.539062 -37.96875 8 -40 C 10.457031 -42.03125 13.738281 -43.046875 17.84375 -43.046875 C 22.050781 -43.046875 25.222656 -42.03125 27.359375 -40 C 29.492188 -37.96875 30.5625 -35.0625 30.5625 -31.28125 L 30.5625 -7.6875 C 30.5625 -6.769531 30.773438 -6.070312 31.203125 -5.59375 C 31.628906 -5.113281 32.160156 -4.875 32.796875 -4.875 L 35.359375 -4.875 L 35.359375 -0.3125 C 34.179688 0.320312 32.742188 0.640625 31.046875 0.640625 C 29.335938 0.640625 27.910156 0.175781 26.765625 -0.75 C 25.617188 -1.6875 24.832031 -2.957031 24.40625 -4.5625 L 24 -4.5625 C 22.9375 -2.800781 21.507812 -1.441406 19.71875 -0.484375 C 17.9375 0.472656 15.953125 0.953125 13.765625 0.953125 Z M 15.28125 -4.875 C 16.71875 -4.875 18.101562 -5.273438 19.4375 -6.078125 C 20.769531 -6.878906 21.863281 -8.066406 22.71875 -9.640625 C 23.570312 -11.210938 24 -13.09375 24 -15.28125 L 24 -19.125 C 19.195312 -19.125 15.59375 -18.578125 13.1875 -17.484375 C 10.789062 -16.390625 9.59375 -14.320312 9.59375 -11.28125 C 9.59375 -8.988281 10.0625 -7.347656 11 -6.359375 C 11.9375 -5.367188 13.363281 -4.875 15.28125 -4.875 Z M 15.28125 -4.875 "/></g></g></g><g fill="#e08c72" fill-opacity="1"><g transform="translate(232.410931, 301.500062)"><g><path d="M 11.4375 14.5625 C 8.132812 14.5625 5.578125 13.613281 3.765625 11.71875 C 1.953125 9.820312 1.046875 7.4375 1.046875 4.5625 C 1.046875 2.476562 1.535156 0.625 2.515625 -1 C 3.503906 -2.625 4.828125 -3.757812 6.484375 -4.40625 C 5.410156 -5.09375 4.566406 -5.992188 3.953125 -7.109375 C 3.347656 -8.234375 3.046875 -9.4375 3.046875 -10.71875 C 3.046875 -12.375 3.578125 -13.84375 4.640625 -15.125 C 5.703125 -16.40625 7.140625 -17.363281 8.953125 -18 C 5.703125 -20.664062 4.078125 -24.289062 4.078125 -28.875 C 4.078125 -33.300781 5.300781 -36.769531 7.75 -39.28125 C 10.207031 -41.789062 13.570312 -43.046875 17.84375 -43.046875 C 20.03125 -43.046875 22.054688 -42.535156 23.921875 -41.515625 C 25.628906 -42.421875 26.867188 -43.488281 27.640625 -44.71875 C 28.410156 -45.945312 28.90625 -47.332031 29.125 -48.875 L 34.875 -48.875 C 34.875 -46.320312 34.25 -44.132812 33 -42.3125 C 31.75 -40.5 30.03125 -39.328125 27.84375 -38.796875 C 30.34375 -36.179688 31.59375 -32.875 31.59375 -28.875 C 31.59375 -24.5625 30.378906 -21.132812 27.953125 -18.59375 C 25.523438 -16.0625 22.257812 -14.769531 18.15625 -14.71875 L 13.765625 -14.71875 C 12.691406 -14.71875 11.78125 -14.359375 11.03125 -13.640625 C 10.289062 -12.921875 9.921875 -12.023438 9.921875 -10.953125 C 9.921875 -9.941406 10.289062 -9.0625 11.03125 -8.3125 C 11.78125 -7.570312 12.691406 -7.203125 13.765625 -7.203125 L 25.765625 -7.203125 C 28.742188 -7.203125 31.140625 -6.253906 32.953125 -4.359375 C 34.773438 -2.460938 35.6875 -0.128906 35.6875 2.640625 C 35.6875 6.109375 34.601562 8.960938 32.4375 11.203125 C 30.28125 13.441406 27.253906 14.5625 23.359375 14.5625 Z M 17.765625 -20.15625 C 20.054688 -20.15625 21.828125 -20.925781 23.078125 -22.46875 C 24.328125 -24.019531 24.953125 -26.15625 24.953125 -28.875 C 24.953125 -31.707031 24.328125 -33.867188 23.078125 -35.359375 C 21.828125 -36.847656 20.054688 -37.59375 17.765625 -37.59375 C 15.460938 -37.59375 13.695312 -36.816406 12.46875 -35.265625 C 11.25 -33.722656 10.640625 -31.59375 10.640625 -28.875 C 10.640625 -26.050781 11.25 -23.890625 12.46875 -22.390625 C 13.695312 -20.898438 15.460938 -20.15625 17.765625 -20.15625 Z M 24.078125 8.875 C 25.460938 8.875 26.632812 8.394531 27.59375 7.4375 C 28.5625 6.476562 29.046875 5.304688 29.046875 3.921875 C 29.046875 2.484375 28.617188 1.3125 27.765625 0.40625 C 26.910156 -0.5 25.679688 -0.953125 24.078125 -0.953125 L 12.484375 -0.953125 C 10.878906 -0.953125 9.660156 -0.5 8.828125 0.40625 C 8.003906 1.3125 7.59375 2.484375 7.59375 3.921875 C 7.59375 5.359375 8.019531 6.539062 8.875 7.46875 C 9.726562 8.40625 10.929688 8.875 12.484375 8.875 Z M 24.078125 8.875 "/></g></g></g><g fill="#e08c72" fill-opacity="1"><g transform="translate(268.887392, 301.500062)"><g><path d="M 19.28125 0.953125 C 13.945312 0.953125 9.957031 -0.789062 7.3125 -4.28125 C 4.675781 -7.769531 3.359375 -13.359375 3.359375 -21.046875 C 3.359375 -28.554688 4.664062 -34.097656 7.28125 -37.671875 C 9.894531 -41.253906 13.867188 -43.046875 19.203125 -43.046875 C 23.890625 -43.046875 27.367188 -41.484375 29.640625 -38.359375 C 31.910156 -35.242188 33.046875 -30.21875 33.046875 -23.28125 L 33.046875 -19.125 L 10.234375 -19.125 C 10.285156 -14.21875 11.046875 -10.613281 12.515625 -8.3125 C 13.984375 -6.019531 16.289062 -4.875 19.4375 -4.875 C 21.570312 -4.875 23.289062 -5.726562 24.59375 -7.4375 C 25.90625 -9.144531 26.5625 -11.4375 26.5625 -14.3125 L 33.046875 -14.3125 C 33.046875 -9.625 31.773438 -5.90625 29.234375 -3.15625 C 26.703125 -0.414062 23.382812 0.953125 19.28125 0.953125 Z M 26.15625 -24.953125 C 26.15625 -28.953125 25.566406 -31.992188 24.390625 -34.078125 C 23.222656 -36.160156 21.492188 -37.203125 19.203125 -37.203125 C 16.367188 -37.203125 14.242188 -36.203125 12.828125 -34.203125 C 11.421875 -32.203125 10.582031 -29.117188 10.3125 -24.953125 Z M 26.15625 -24.953125 "/></g></g></g><g fill="#e08c72" fill-opacity="1"><g transform="translate(53.788261, 387.750058)"><g><path d="M 4.796875 -42.078125 L 9.765625 -42.078125 L 10.640625 -37.203125 L 11.125 -37.203125 C 13.3125 -41.097656 16.695312 -43.046875 21.28125 -43.046875 C 24.632812 -43.046875 27.207031 -42.046875 29 -40.046875 C 30.789062 -38.046875 31.6875 -34.800781 31.6875 -30.3125 L 31.6875 0 L 25.125 0 L 25.125 -29.84375 C 25.125 -32.5625 24.613281 -34.46875 23.59375 -35.5625 C 22.582031 -36.65625 21.117188 -37.203125 19.203125 -37.203125 C 17.015625 -37.203125 15.160156 -36.160156 13.640625 -34.078125 C 12.117188 -31.992188 11.359375 -29.195312 11.359375 -25.6875 L 11.359375 0 L 4.796875 0 Z M 4.796875 -42.078125 "/></g></g></g><g fill="#e08c72" fill-opacity="1"><g transform="translate(90.264722, 387.750058)"><g><path d="M 13.765625 0.953125 C 10.878906 0.953125 8.316406 0.101562 6.078125 -1.59375 C 3.835938 -3.300781 2.71875 -6.394531 2.71875 -10.875 C 2.71875 -16.257812 4.546875 -19.953125 8.203125 -21.953125 C 11.859375 -23.953125 17.125 -24.953125 24 -24.953125 L 24 -30.40625 C 24 -32.59375 23.519531 -34.269531 22.5625 -35.4375 C 21.601562 -36.613281 19.867188 -37.203125 17.359375 -37.203125 C 15.066406 -37.203125 13.410156 -36.5625 12.390625 -35.28125 C 11.378906 -34 10.875 -32.425781 10.875 -30.5625 L 10.875 -29.59375 L 4.40625 -29.59375 C 4.34375 -29.914062 4.3125 -30.503906 4.3125 -31.359375 C 4.3125 -35.085938 5.539062 -37.96875 8 -40 C 10.457031 -42.03125 13.738281 -43.046875 17.84375 -43.046875 C 22.050781 -43.046875 25.222656 -42.03125 27.359375 -40 C 29.492188 -37.96875 30.5625 -35.0625 30.5625 -31.28125 L 30.5625 -7.6875 C 30.5625 -6.769531 30.773438 -6.070312 31.203125 -5.59375 C 31.628906 -5.113281 32.160156 -4.875 32.796875 -4.875 L 35.359375 -4.875 L 35.359375 -0.3125 C 34.179688 0.320312 32.742188 0.640625 31.046875 0.640625 C 29.335938 0.640625 27.910156 0.175781 26.765625 -0.75 C 25.617188 -1.6875 24.832031 -2.957031 24.40625 -4.5625 L 24 -4.5625 C 22.9375 -2.800781 21.507812 -1.441406 19.71875 -0.484375 C 17.9375 0.472656 15.953125 0.953125 13.765625 0.953125 Z M 15.28125 -4.875 C 16.71875 -4.875 18.101562 -5.273438 19.4375 -6.078125 C 20.769531 -6.878906 21.863281 -8.066406 22.71875 -9.640625 C 23.570312 -11.210938 24 -13.09375 24 -15.28125 L 24 -19.125 C 19.195312 -19.125 15.59375 -18.578125 13.1875 -17.484375 C 10.789062 -16.390625 9.59375 -14.320312 9.59375 -11.28125 C 9.59375 -8.988281 10.0625 -7.347656 11 -6.359375 C 11.9375 -5.367188 13.363281 -4.875 15.28125 -4.875 Z M 15.28125 -4.875 "/></g></g></g><g fill="#e08c72" fill-opacity="1"><g transform="translate(126.741183, 387.750058)"><g><path d="M 4.796875 -42.078125 L 9.765625 -42.078125 L 10.640625 -36.5625 L 11.125 -36.5625 C 11.707031 -38.425781 12.582031 -39.972656 13.75 -41.203125 C 14.925781 -42.429688 16.421875 -43.046875 18.234375 -43.046875 C 18.984375 -43.046875 19.648438 -42.953125 20.234375 -42.765625 C 20.828125 -42.578125 21.203125 -42.457031 21.359375 -42.40625 L 21.359375 -35.59375 L 19.203125 -35.59375 C 16.910156 -35.59375 15.03125 -34.804688 13.5625 -33.234375 C 12.09375 -31.660156 11.359375 -29.144531 11.359375 -25.6875 L 11.359375 0 L 4.796875 0 Z M 4.796875 -42.078125 "/></g></g></g><g fill="#e08c72" fill-opacity="1"><g transform="translate(148.579061, 387.750058)"><g><path d="M 4.796875 -42.078125 L 9.765625 -42.078125 L 10.640625 -36.5625 L 11.125 -36.5625 C 11.707031 -38.425781 12.582031 -39.972656 13.75 -41.203125 C 14.925781 -42.429688 16.421875 -43.046875 18.234375 -43.046875 C 18.984375 -43.046875 19.648438 -42.953125 20.234375 -42.765625 C 20.828125 -42.578125 21.203125 -42.457031 21.359375 -42.40625 L 21.359375 -35.59375 L 19.203125 -35.59375 C 16.910156 -35.59375 15.03125 -34.804688 13.5625 -33.234375 C 12.09375 -31.660156 11.359375 -29.144531 11.359375 -25.6875 L 11.359375 0 L 4.796875 0 Z M 4.796875 -42.078125 "/></g></g></g><g fill="#e08c72" fill-opacity="1"><g transform="translate(170.416939, 387.750058)"><g><path d="M 13.765625 0.953125 C 10.878906 0.953125 8.316406 0.101562 6.078125 -1.59375 C 3.835938 -3.300781 2.71875 -6.394531 2.71875 -10.875 C 2.71875 -16.257812 4.546875 -19.953125 8.203125 -21.953125 C 11.859375 -23.953125 17.125 -24.953125 24 -24.953125 L 24 -30.40625 C 24 -32.59375 23.519531 -34.269531 22.5625 -35.4375 C 21.601562 -36.613281 19.867188 -37.203125 17.359375 -37.203125 C 15.066406 -37.203125 13.410156 -36.5625 12.390625 -35.28125 C 11.378906 -34 10.875 -32.425781 10.875 -30.5625 L 10.875 -29.59375 L 4.40625 -29.59375 C 4.34375 -29.914062 4.3125 -30.503906 4.3125 -31.359375 C 4.3125 -35.085938 5.539062 -37.96875 8 -40 C 10.457031 -42.03125 13.738281 -43.046875 17.84375 -43.046875 C 22.050781 -43.046875 25.222656 -42.03125 27.359375 -40 C 29.492188 -37.96875 30.5625 -35.0625 30.5625 -31.28125 L 30.5625 -7.6875 C 30.5625 -6.769531 30.773438 -6.070312 31.203125 -5.59375 C 31.628906 -5.113281 32.160156 -4.875 32.796875 -4.875 L 35.359375 -4.875 L 35.359375 -0.3125 C 34.179688 0.320312 32.742188 0.640625 31.046875 0.640625 C 29.335938 0.640625 27.910156 0.175781 26.765625 -0.75 C 25.617188 -1.6875 24.832031 -2.957031 24.40625 -4.5625 L 24 -4.5625 C 22.9375 -2.800781 21.507812 -1.441406 19.71875 -0.484375 C 17.9375 0.472656 15.953125 0.953125 13.765625 0.953125 Z M 15.28125 -4.875 C 16.71875 -4.875 18.101562 -5.273438 19.4375 -6.078125 C 20.769531 -6.878906 21.863281 -8.066406 22.71875 -9.640625 C 23.570312 -11.210938 24 -13.09375 24 -15.28125 L 24 -19.125 C 19.195312 -19.125 15.59375 -18.578125 13.1875 -17.484375 C 10.789062 -16.390625 9.59375 -14.320312 9.59375 -11.28125 C 9.59375 -8.988281 10.0625 -7.347656 11 -6.359375 C 11.9375 -5.367188 13.363281 -4.875 15.28125 -4.875 Z M 15.28125 -4.875 "/></g></g></g><g fill="#e08c72" fill-opacity="1"><g transform="translate(206.8934, 387.750058)"><g><path d="M 12.234375 0.796875 C 9.566406 0.796875 7.644531 -0.117188 6.46875 -1.953125 C 5.300781 -3.796875 4.71875 -6.101562 4.71875 -8.875 L 4.71875 -36.234375 L 1.125 -36.234375 L 1.125 -42.078125 L 4.71875 -42.078125 L 6.15625 -53.765625 L 11.28125 -53.765625 L 11.28125 -42.078125 L 16.953125 -42.078125 L 16.953125 -36.234375 L 11.28125 -36.234375 L 11.28125 -8.71875 C 11.28125 -6.15625 12.535156 -4.875 15.046875 -4.875 L 16.953125 -4.875 L 16.953125 -0.3125 C 16.367188 0 15.632812 0.257812 14.75 0.46875 C 13.875 0.6875 13.035156 0.796875 12.234375 0.796875 Z M 12.234375 0.796875 "/></g></g></g><g fill="#e08c72" fill-opacity="1"><g transform="translate(225.131631, 387.750058)"><g><path d="M 4 -57.84375 L 10.5625 -57.84375 L 10.5625 -50 L 4 -50 Z M 4 -42.078125 L 10.5625 -42.078125 L 10.5625 0 L 4 0 Z M 4 -42.078125 "/></g></g></g><g fill="#e08c72" fill-opacity="1"><g transform="translate(239.69022, 387.750058)"><g><path d="M 0.796875 -42.078125 L 8 -42.078125 L 13.6875 -20.71875 L 16.5625 -10.078125 L 16.875 -10.078125 L 19.765625 -20.953125 L 25.4375 -42.078125 L 32.078125 -42.078125 L 20 0 L 12.875 0 Z M 0.796875 -42.078125 "/></g></g></g><g fill="#e08c72" fill-opacity="1"><g transform="translate(272.487039, 387.750058)"><g><path d="M 19.28125 0.953125 C 13.945312 0.953125 9.957031 -0.789062 7.3125 -4.28125 C 4.675781 -7.769531 3.359375 -13.359375 3.359375 -21.046875 C 3.359375 -28.554688 4.664062 -34.097656 7.28125 -37.671875 C 9.894531 -41.253906 13.867188 -43.046875 19.203125 -43.046875 C 23.890625 -43.046875 27.367188 -41.484375 29.640625 -38.359375 C 31.910156 -35.242188 33.046875 -30.21875 33.046875 -23.28125 L 33.046875 -19.125 L 10.234375 -19.125 C 10.285156 -14.21875 11.046875 -10.613281 12.515625 -8.3125 C 13.984375 -6.019531 16.289062 -4.875 19.4375 -4.875 C 21.570312 -4.875 23.289062 -5.726562 24.59375 -7.4375 C 25.90625 -9.144531 26.5625 -11.4375 26.5625 -14.3125 L 33.046875 -14.3125 C 33.046875 -9.625 31.773438 -5.90625 29.234375 -3.15625 C 26.703125 -0.414062 23.382812 0.953125 19.28125 0.953125 Z M 26.15625 -24.953125 C 26.15625 -28.953125 25.566406 -31.992188 24.390625 -34.078125 C 23.222656 -36.160156 21.492188 -37.203125 19.203125 -37.203125 C 16.367188 -37.203125 14.242188 -36.203125 12.828125 -34.203125 C 11.421875 -32.203125 10.582031 -29.117188 10.3125 -24.953125 Z M 26.15625 -24.953125 "/></g></g></g><g fill="#e08c72" fill-opacity="1"><g transform="translate(53.788261, 474.000054)"><g><path d="M 12.234375 0.796875 C 9.566406 0.796875 7.644531 -0.117188 6.46875 -1.953125 C 5.300781 -3.796875 4.71875 -6.101562 4.71875 -8.875 L 4.71875 -36.234375 L 1.125 -36.234375 L 1.125 -42.078125 L 4.71875 -42.078125 L 6.15625 -53.765625 L 11.28125 -53.765625 L 11.28125 -42.078125 L 16.953125 -42.078125 L 16.953125 -36.234375 L 11.28125 -36.234375 L 11.28125 -8.71875 C 11.28125 -6.15625 12.535156 -4.875 15.046875 -4.875 L 16.953125 -4.875 L 16.953125 -0.3125 C 16.367188 0 15.632812 0.257812 14.75 0.46875 C 13.875 0.6875 13.035156 0.796875 12.234375 0.796875 Z M 12.234375 0.796875 "/></g></g></g><g fill="#e08c72" fill-opacity="1"><g transform="translate(72.026491, 474.000054)"><g><path d="M 4.796875 -57.84375 L 11.359375 -57.84375 L 11.359375 -37.6875 L 11.84375 -37.6875 C 13.863281 -41.257812 17.007812 -43.046875 21.28125 -43.046875 C 24.632812 -43.046875 27.207031 -42.046875 29 -40.046875 C 30.789062 -38.046875 31.6875 -34.800781 31.6875 -30.3125 L 31.6875 0 L 25.125 0 L 25.125 -29.84375 C 25.125 -32.5625 24.613281 -34.46875 23.59375 -35.5625 C 22.582031 -36.65625 21.117188 -37.203125 19.203125 -37.203125 C 17.015625 -37.203125 15.160156 -36.160156 13.640625 -34.078125 C 12.117188 -31.992188 11.359375 -29.195312 11.359375 -25.6875 L 11.359375 0 L 4.796875 0 Z M 4.796875 -57.84375 "/></g></g></g><g fill="#e08c72" fill-opacity="1"><g transform="translate(108.502953, 474.000054)"><g><path d="M 19.28125 0.953125 C 13.945312 0.953125 9.957031 -0.789062 7.3125 -4.28125 C 4.675781 -7.769531 3.359375 -13.359375 3.359375 -21.046875 C 3.359375 -28.554688 4.664062 -34.097656 7.28125 -37.671875 C 9.894531 -41.253906 13.867188 -43.046875 19.203125 -43.046875 C 23.890625 -43.046875 27.367188 -41.484375 29.640625 -38.359375 C 31.910156 -35.242188 33.046875 -30.21875 33.046875 -23.28125 L 33.046875 -19.125 L 10.234375 -19.125 C 10.285156 -14.21875 11.046875 -10.613281 12.515625 -8.3125 C 13.984375 -6.019531 16.289062 -4.875 19.4375 -4.875 C 21.570312 -4.875 23.289062 -5.726562 24.59375 -7.4375 C 25.90625 -9.144531 26.5625 -11.4375 26.5625 -14.3125 L 33.046875 -14.3125 C 33.046875 -9.625 31.773438 -5.90625 29.234375 -3.15625 C 26.703125 -0.414062 23.382812 0.953125 19.28125 0.953125 Z M 26.15625 -24.953125 C 26.15625 -28.953125 25.566406 -31.992188 24.390625 -34.078125 C 23.222656 -36.160156 21.492188 -37.203125 19.203125 -37.203125 C 16.367188 -37.203125 14.242188 -36.203125 12.828125 -34.203125 C 11.421875 -32.203125 10.582031 -29.117188 10.3125 -24.953125 Z M 26.15625 -24.953125 "/></g></g></g><g fill="#e08c72" fill-opacity="1"><g transform="translate(144.979414, 474.000054)"><g><path d="M 18.234375 0.953125 C 13.273438 0.953125 9.53125 -0.84375 7 -4.4375 C 4.46875 -8.039062 3.203125 -13.578125 3.203125 -21.046875 C 3.203125 -28.503906 4.46875 -34.035156 7 -37.640625 C 9.53125 -41.242188 13.273438 -43.046875 18.234375 -43.046875 C 23.203125 -43.046875 26.953125 -41.242188 29.484375 -37.640625 C 32.015625 -34.035156 33.28125 -28.503906 33.28125 -21.046875 C 33.28125 -13.578125 32.015625 -8.039062 29.484375 -4.4375 C 26.953125 -0.84375 23.203125 0.953125 18.234375 0.953125 Z M 18.234375 -4.875 C 23.679688 -4.875 26.40625 -9.753906 26.40625 -19.515625 L 26.40625 -22.5625 C 26.40625 -32.320312 23.679688 -37.203125 18.234375 -37.203125 C 12.796875 -37.203125 10.078125 -32.320312 10.078125 -22.5625 L 10.078125 -19.515625 C 10.078125 -9.753906 12.796875 -4.875 18.234375 -4.875 Z M 18.234375 -4.875 "/></g></g></g><g fill="#e08c72" fill-opacity="1"><g transform="translate(181.455875, 474.000054)"><g><path d="M 4.796875 -42.078125 L 9.765625 -42.078125 L 10.640625 -36.5625 L 11.125 -36.5625 C 11.707031 -38.425781 12.582031 -39.972656 13.75 -41.203125 C 14.925781 -42.429688 16.421875 -43.046875 18.234375 -43.046875 C 18.984375 -43.046875 19.648438 -42.953125 20.234375 -42.765625 C 20.828125 -42.578125 21.203125 -42.457031 21.359375 -42.40625 L 21.359375 -35.59375 L 19.203125 -35.59375 C 16.910156 -35.59375 15.03125 -34.804688 13.5625 -33.234375 C 12.09375 -31.660156 11.359375 -29.144531 11.359375 -25.6875 L 11.359375 0 L 4.796875 0 Z M 4.796875 -42.078125 "/></g></g></g><g fill="#e08c72" fill-opacity="1"><g transform="translate(203.293753, 474.000054)"><g><path d="M 7.765625 14.5625 C 5.835938 14.5625 4.265625 14.347656 3.046875 13.921875 L 3.046875 9.359375 L 5.359375 9.359375 C 9.578125 9.359375 12.351562 6.238281 13.6875 0 L 0.796875 -42.078125 L 8 -42.078125 L 15.125 -16.953125 L 17.28125 -9.4375 L 17.59375 -9.4375 L 19.4375 -17.125 L 25.4375 -42.078125 L 32.078125 -42.078125 L 21.359375 -2.15625 C 19.972656 3.070312 18.210938 7.164062 16.078125 10.125 C 13.941406 13.082031 11.171875 14.5625 7.765625 14.5625 Z M 7.765625 14.5625 "/></g></g></g><g fill="#e08c72" fill-opacity="1"><g transform="translate(254.328792, 474.000054)"><g><path d="M 12.234375 0.796875 C 9.566406 0.796875 7.644531 -0.117188 6.46875 -1.953125 C 5.300781 -3.796875 4.71875 -6.101562 4.71875 -8.875 L 4.71875 -36.234375 L 1.125 -36.234375 L 1.125 -42.078125 L 4.71875 -42.078125 L 6.15625 -53.765625 L 11.28125 -53.765625 L 11.28125 -42.078125 L 16.953125 -42.078125 L 16.953125 -36.234375 L 11.28125 -36.234375 L 11.28125 -8.71875 C 11.28125 -6.15625 12.535156 -4.875 15.046875 -4.875 L 16.953125 -4.875 L 16.953125 -0.3125 C 16.367188 0 15.632812 0.257812 14.75 0.46875 C 13.875 0.6875 13.035156 0.796875 12.234375 0.796875 Z M 12.234375 0.796875 "/></g></g></g><g fill="#e08c72" fill-opacity="1"><g transform="translate(272.567011, 474.000054)"><g><path d="M 18.234375 0.953125 C 13.273438 0.953125 9.53125 -0.84375 7 -4.4375 C 4.46875 -8.039062 3.203125 -13.578125 3.203125 -21.046875 C 3.203125 -28.503906 4.46875 -34.035156 7 -37.640625 C 9.53125 -41.242188 13.273438 -43.046875 18.234375 -43.046875 C 23.203125 -43.046875 26.953125 -41.242188 29.484375 -37.640625 C 32.015625 -34.035156 33.28125 -28.503906 33.28125 -21.046875 C 33.28125 -13.578125 32.015625 -8.039062 29.484375 -4.4375 C 26.953125 -0.84375 23.203125 0.953125 18.234375 0.953125 Z M 18.234375 -4.875 C 23.679688 -4.875 26.40625 -9.753906 26.40625 -19.515625 L 26.40625 -22.5625 C 26.40625 -32.320312 23.679688 -37.203125 18.234375 -37.203125 C 12.796875 -37.203125 10.078125 -32.320312 10.078125 -22.5625 L 10.078125 -19.515625 C 10.078125 -9.753906 12.796875 -4.875 18.234375 -4.875 Z M 18.234375 -4.875 "/></g></g></g><g fill="#e08c72" fill-opacity="1"><g transform="translate(53.788261, 560.250049)"><g><path d="M 16.234375 0.953125 C 12.078125 0.953125 8.863281 -0.859375 6.59375 -4.484375 C 4.332031 -8.109375 3.203125 -13.65625 3.203125 -21.125 C 3.203125 -28.375 4.359375 -33.835938 6.671875 -37.515625 C 8.992188 -41.203125 12.023438 -43.046875 15.765625 -43.046875 C 17.835938 -43.046875 19.675781 -42.601562 21.28125 -41.71875 C 22.882812 -40.84375 24.03125 -39.628906 24.71875 -38.078125 L 25.125 -38.078125 L 25.125 -57.84375 L 31.6875 -57.84375 L 31.6875 0 L 26.71875 0 L 25.84375 -4.875 L 25.4375 -4.875 C 24.425781 -2.957031 23.117188 -1.503906 21.515625 -0.515625 C 19.921875 0.460938 18.160156 0.953125 16.234375 0.953125 Z M 17.59375 -4.875 C 22.613281 -4.875 25.125 -9.753906 25.125 -19.515625 L 25.125 -22.234375 C 25.125 -32.210938 22.613281 -37.203125 17.59375 -37.203125 C 15.039062 -37.203125 13.148438 -36.050781 11.921875 -33.75 C 10.691406 -31.457031 10.078125 -27.726562 10.078125 -22.5625 L 10.078125 -19.515625 C 10.078125 -14.347656 10.691406 -10.613281 11.921875 -8.3125 C 13.148438 -6.019531 15.039062 -4.875 17.59375 -4.875 Z M 17.59375 -4.875 "/></g></g></g><g fill="#e08c72" fill-opacity="1"><g transform="translate(90.264722, 560.250049)"><g><path d="M 18.234375 0.953125 C 13.273438 0.953125 9.53125 -0.84375 7 -4.4375 C 4.46875 -8.039062 3.203125 -13.578125 3.203125 -21.046875 C 3.203125 -28.503906 4.46875 -34.035156 7 -37.640625 C 9.53125 -41.242188 13.273438 -43.046875 18.234375 -43.046875 C 23.203125 -43.046875 26.953125 -41.242188 29.484375 -37.640625 C 32.015625 -34.035156 33.28125 -28.503906 33.28125 -21.046875 C 33.28125 -13.578125 32.015625 -8.039062 29.484375 -4.4375 C 26.953125 -0.84375 23.203125 0.953125 18.234375 0.953125 Z M 18.234375 -4.875 C 23.679688 -4.875 26.40625 -9.753906 26.40625 -19.515625 L 26.40625 -22.5625 C 26.40625 -32.320312 23.679688 -37.203125 18.234375 -37.203125 C 12.796875 -37.203125 10.078125 -32.320312 10.078125 -22.5625 L 10.078125 -19.515625 C 10.078125 -9.753906 12.796875 -4.875 18.234375 -4.875 Z M 18.234375 -4.875 "/></g></g></g><g fill="#e08c72" fill-opacity="1"><g transform="translate(126.741183, 560.250049)"><g/></g></g><g fill="#e08c72" fill-opacity="1"><g transform="translate(144.979414, 560.250049)"><g><path d="M 4 -57.84375 L 10.5625 -57.84375 L 10.5625 -50 L 4 -50 Z M 4 -42.078125 L 10.5625 -42.078125 L 10.5625 0 L 4 0 Z M 4 -42.078125 "/></g></g></g><g fill="#e08c72" fill-opacity="1"><g transform="translate(159.538003, 560.250049)"><g><path d="M 12.234375 0.796875 C 9.566406 0.796875 7.644531 -0.117188 6.46875 -1.953125 C 5.300781 -3.796875 4.71875 -6.101562 4.71875 -8.875 L 4.71875 -36.234375 L 1.125 -36.234375 L 1.125 -42.078125 L 4.71875 -42.078125 L 6.15625 -53.765625 L 11.28125 -53.765625 L 11.28125 -42.078125 L 16.953125 -42.078125 L 16.953125 -36.234375 L 11.28125 -36.234375 L 11.28125 -8.71875 C 11.28125 -6.15625 12.535156 -4.875 15.046875 -4.875 L 16.953125 -4.875 L 16.953125 -0.3125 C 16.367188 0 15.632812 0.257812 14.75 0.46875 C 13.875 0.6875 13.035156 0.796875 12.234375 0.796875 Z M 12.234375 0.796875 "/></g></g></g><g fill="#e08c72" fill-opacity="1"><g transform="translate(177.77263, 560.250049)"><g/></g></g><g fill="#e08c72" fill-opacity="1"><g transform="translate(53.788261, 646.500045)"><g><path d="M 20.234375 0.953125 C 18.316406 0.953125 16.554688 0.460938 14.953125 -0.515625 C 13.359375 -1.503906 12.054688 -2.957031 11.046875 -4.875 L 10.640625 -4.875 L 9.765625 0 L 4.796875 0 L 4.796875 -57.84375 L 11.359375 -57.84375 L 11.359375 -38.078125 L 11.765625 -38.078125 C 12.453125 -39.628906 13.59375 -40.84375 15.1875 -41.71875 C 16.789062 -42.601562 18.632812 -43.046875 20.71875 -43.046875 C 24.445312 -43.046875 27.472656 -41.203125 29.796875 -37.515625 C 32.117188 -33.835938 33.28125 -28.375 33.28125 -21.125 C 33.28125 -13.65625 32.144531 -8.109375 29.875 -4.484375 C 27.613281 -0.859375 24.398438 0.953125 20.234375 0.953125 Z M 18.875 -4.875 C 21.4375 -4.875 23.332031 -6.019531 24.5625 -8.3125 C 25.789062 -10.613281 26.40625 -14.347656 26.40625 -19.515625 L 26.40625 -22.5625 C 26.40625 -27.726562 25.789062 -31.457031 24.5625 -33.75 C 23.332031 -36.050781 21.4375 -37.203125 18.875 -37.203125 C 13.863281 -37.203125 11.359375 -32.210938 11.359375 -22.234375 L 11.359375 -19.515625 C 11.359375 -9.753906 13.863281 -4.875 18.875 -4.875 Z M 18.875 -4.875 "/></g></g></g><g fill="#e08c72" fill-opacity="1"><g transform="translate(90.264722, 646.500045)"><g><path d="M 19.28125 0.953125 C 13.945312 0.953125 9.957031 -0.789062 7.3125 -4.28125 C 4.675781 -7.769531 3.359375 -13.359375 3.359375 -21.046875 C 3.359375 -28.554688 4.664062 -34.097656 7.28125 -37.671875 C 9.894531 -41.253906 13.867188 -43.046875 19.203125 -43.046875 C 23.890625 -43.046875 27.367188 -41.484375 29.640625 -38.359375 C 31.910156 -35.242188 33.046875 -30.21875 33.046875 -23.28125 L 33.046875 -19.125 L 10.234375 -19.125 C 10.285156 -14.21875 11.046875 -10.613281 12.515625 -8.3125 C 13.984375 -6.019531 16.289062 -4.875 19.4375 -4.875 C 21.570312 -4.875 23.289062 -5.726562 24.59375 -7.4375 C 25.90625 -9.144531 26.5625 -11.4375 26.5625 -14.3125 L 33.046875 -14.3125 C 33.046875 -9.625 31.773438 -5.90625 29.234375 -3.15625 C 26.703125 -0.414062 23.382812 0.953125 19.28125 0.953125 Z M 26.15625 -24.953125 C 26.15625 -28.953125 25.566406 -31.992188 24.390625 -34.078125 C 23.222656 -36.160156 21.492188 -37.203125 19.203125 -37.203125 C 16.367188 -37.203125 14.242188 -36.203125 12.828125 -34.203125 C 11.421875 -32.203125 10.582031 -29.117188 10.3125 -24.953125 Z M 26.15625 -24.953125 "/></g></g></g><g fill="#e08c72" fill-opacity="1"><g transform="translate(126.741183, 646.500045)"><g><path d="M 12.234375 0.796875 C 9.566406 0.796875 7.644531 -0.117188 6.46875 -1.953125 C 5.300781 -3.796875 4.71875 -6.101562 4.71875 -8.875 L 4.71875 -36.234375 L 1.125 -36.234375 L 1.125 -42.078125 L 4.71875 -42.078125 L 6.15625 -53.765625 L 11.28125 -53.765625 L 11.28125 -42.078125 L 16.953125 -42.078125 L 16.953125 -36.234375 L 11.28125 -36.234375 L 11.28125 -8.71875 C 11.28125 -6.15625 12.535156 -4.875 15.046875 -4.875 L 16.953125 -4.875 L 16.953125 -0.3125 C 16.367188 0 15.632812 0.257812 14.75 0.46875 C 13.875 0.6875 13.035156 0.796875 12.234375 0.796875 Z M 12.234375 0.796875 "/></g></g></g><g fill="#e08c72" fill-opacity="1"><g transform="translate(144.979414, 646.500045)"><g><path d="M 12.234375 0.796875 C 9.566406 0.796875 7.644531 -0.117188 6.46875 -1.953125 C 5.300781 -3.796875 4.71875 -6.101562 4.71875 -8.875 L 4.71875 -36.234375 L 1.125 -36.234375 L 1.125 -42.078125 L 4.71875 -42.078125 L 6.15625 -53.765625 L 11.28125 -53.765625 L 11.28125 -42.078125 L 16.953125 -42.078125 L 16.953125 -36.234375 L 11.28125 -36.234375 L 11.28125 -8.71875 C 11.28125 -6.15625 12.535156 -4.875 15.046875 -4.875 L 16.953125 -4.875 L 16.953125 -0.3125 C 16.367188 0 15.632812 0.257812 14.75 0.46875 C 13.875 0.6875 13.035156 0.796875 12.234375 0.796875 Z M 12.234375 0.796875 "/></g></g></g><g fill="#e08c72" fill-opacity="1"><g transform="translate(163.217644, 646.500045)"><g><path d="M 19.28125 0.953125 C 13.945312 0.953125 9.957031 -0.789062 7.3125 -4.28125 C 4.675781 -7.769531 3.359375 -13.359375 3.359375 -21.046875 C 3.359375 -28.554688 4.664062 -34.097656 7.28125 -37.671875 C 9.894531 -41.253906 13.867188 -43.046875 19.203125 -43.046875 C 23.890625 -43.046875 27.367188 -41.484375 29.640625 -38.359375 C 31.910156 -35.242188 33.046875 -30.21875 33.046875 -23.28125 L 33.046875 -19.125 L 10.234375 -19.125 C 10.285156 -14.21875 11.046875 -10.613281 12.515625 -8.3125 C 13.984375 -6.019531 16.289062 -4.875 19.4375 -4.875 C 21.570312 -4.875 23.289062 -5.726562 24.59375 -7.4375 C 25.90625 -9.144531 26.5625 -11.4375 26.5625 -14.3125 L 33.046875 -14.3125 C 33.046875 -9.625 31.773438 -5.90625 29.234375 -3.15625 C 26.703125 -0.414062 23.382812 0.953125 19.28125 0.953125 Z M 26.15625 -24.953125 C 26.15625 -28.953125 25.566406 -31.992188 24.390625 -34.078125 C 23.222656 -36.160156 21.492188 -37.203125 19.203125 -37.203125 C 16.367188 -37.203125 14.242188 -36.203125 12.828125 -34.203125 C 11.421875 -32.203125 10.582031 -29.117188 10.3125 -24.953125 Z M 26.15625 -24.953125 "/></g></g></g><g fill="#e08c72" fill-opacity="1"><g transform="translate(199.694105, 646.500045)"><g><path d="M 4.796875 -42.078125 L 9.765625 -42.078125 L 10.640625 -36.5625 L 11.125 -36.5625 C 11.707031 -38.425781 12.582031 -39.972656 13.75 -41.203125 C 14.925781 -42.429688 16.421875 -43.046875 18.234375 -43.046875 C 18.984375 -43.046875 19.648438 -42.953125 20.234375 -42.765625 C 20.828125 -42.578125 21.203125 -42.457031 21.359375 -42.40625 L 21.359375 -35.59375 L 19.203125 -35.59375 C 16.910156 -35.59375 15.03125 -34.804688 13.5625 -33.234375 C 12.09375 -31.660156 11.359375 -29.144531 11.359375 -25.6875 L 11.359375 0 L 4.796875 0 Z M 4.796875 -42.078125 "/></g></g></g><g fill="#e5c0a1" fill-opacity="1"><g transform="translate(540.197053, 764.214894)"><g><path d="M 3.046875 -5.1875 L 3.046875 0 L 1.53125 0 L 1.53125 -12.59375 L 6.03125 -12.59375 C 6.675781 -12.59375 7.238281 -12.5 7.71875 -12.3125 C 8.195312 -12.132812 8.59375 -11.890625 8.90625 -11.578125 C 9.226562 -11.265625 9.46875 -10.898438 9.625 -10.484375 C 9.789062 -10.066406 9.875 -9.632812 9.875 -9.1875 L 9.875 -8.640625 C 9.875 -8.179688 9.789062 -7.742188 9.625 -7.328125 C 9.46875 -6.910156 9.226562 -6.539062 8.90625 -6.21875 C 8.582031 -5.894531 8.179688 -5.640625 7.703125 -5.453125 C 7.222656 -5.273438 6.664062 -5.1875 6.03125 -5.1875 Z M 3.046875 -6.59375 L 5.84375 -6.59375 C 7.53125 -6.59375 8.375 -7.3125 8.375 -8.75 L 8.375 -9.078125 C 8.375 -9.710938 8.164062 -10.222656 7.75 -10.609375 C 7.332031 -11.003906 6.695312 -11.203125 5.84375 -11.203125 L 3.046875 -11.203125 Z M 3.046875 -6.59375 "/></g></g></g><g fill="#e5c0a1" fill-opacity="1"><g transform="translate(551.213021, 764.214894)"><g><path d="M 1.0625 -8.921875 L 4.296875 -8.921875 L 4.296875 -7.734375 L 4.515625 -7.734375 C 4.742188 -8.234375 5.066406 -8.597656 5.484375 -8.828125 C 5.910156 -9.066406 6.394531 -9.1875 6.9375 -9.1875 C 7.832031 -9.1875 8.554688 -8.890625 9.109375 -8.296875 C 9.660156 -7.710938 9.953125 -6.851562 9.984375 -5.71875 L 8.515625 -5.515625 C 8.515625 -6.335938 8.316406 -6.929688 7.921875 -7.296875 C 7.523438 -7.660156 7.039062 -7.84375 6.46875 -7.84375 C 6.09375 -7.84375 5.769531 -7.769531 5.5 -7.625 C 5.226562 -7.488281 5 -7.289062 4.8125 -7.03125 C 4.632812 -6.78125 4.503906 -6.488281 4.421875 -6.15625 C 4.335938 -5.820312 4.296875 -5.460938 4.296875 -5.078125 L 4.296875 -1.296875 L 6.5625 -1.296875 L 6.5625 0 L 0.84375 0 L 0.84375 -1.296875 L 2.890625 -1.296875 L 2.890625 -7.625 L 1.0625 -7.625 Z M 1.0625 -8.921875 "/></g></g></g><g fill="#e5c0a1" fill-opacity="1"><g transform="translate(562.228989, 764.214894)"><g><path d="M 9.984375 -4.359375 C 9.984375 -3.609375 9.859375 -2.945312 9.609375 -2.375 C 9.367188 -1.8125 9.046875 -1.332031 8.640625 -0.9375 C 8.234375 -0.550781 7.753906 -0.253906 7.203125 -0.046875 C 6.660156 0.148438 6.097656 0.25 5.515625 0.25 C 4.910156 0.25 4.335938 0.148438 3.796875 -0.046875 C 3.253906 -0.253906 2.78125 -0.550781 2.375 -0.9375 C 1.96875 -1.332031 1.640625 -1.8125 1.390625 -2.375 C 1.148438 -2.945312 1.03125 -3.609375 1.03125 -4.359375 L 1.03125 -4.578125 C 1.03125 -5.304688 1.148438 -5.953125 1.390625 -6.515625 C 1.640625 -7.085938 1.96875 -7.570312 2.375 -7.96875 C 2.789062 -8.363281 3.269531 -8.664062 3.8125 -8.875 C 4.351562 -9.082031 4.921875 -9.1875 5.515625 -9.1875 C 6.097656 -9.1875 6.660156 -9.082031 7.203125 -8.875 C 7.742188 -8.664062 8.21875 -8.363281 8.625 -7.96875 C 9.039062 -7.570312 9.367188 -7.085938 9.609375 -6.515625 C 9.859375 -5.953125 9.984375 -5.304688 9.984375 -4.578125 Z M 5.515625 -1.078125 C 5.941406 -1.078125 6.335938 -1.148438 6.703125 -1.296875 C 7.066406 -1.453125 7.382812 -1.671875 7.65625 -1.953125 C 7.9375 -2.242188 8.15625 -2.585938 8.3125 -2.984375 C 8.46875 -3.390625 8.546875 -3.847656 8.546875 -4.359375 L 8.546875 -4.578125 C 8.546875 -5.054688 8.46875 -5.492188 8.3125 -5.890625 C 8.15625 -6.296875 7.9375 -6.640625 7.65625 -6.921875 C 7.382812 -7.210938 7.0625 -7.4375 6.6875 -7.59375 C 6.320312 -7.757812 5.929688 -7.84375 5.515625 -7.84375 C 5.085938 -7.84375 4.6875 -7.757812 4.3125 -7.59375 C 3.945312 -7.4375 3.625 -7.210938 3.34375 -6.921875 C 3.070312 -6.640625 2.859375 -6.296875 2.703125 -5.890625 C 2.546875 -5.492188 2.46875 -5.054688 2.46875 -4.578125 L 2.46875 -4.359375 C 2.46875 -3.847656 2.546875 -3.390625 2.703125 -2.984375 C 2.859375 -2.585938 3.070312 -2.242188 3.34375 -1.953125 C 3.625 -1.671875 3.945312 -1.453125 4.3125 -1.296875 C 4.675781 -1.148438 5.078125 -1.078125 5.515625 -1.078125 Z M 5.515625 -1.078125 "/></g></g></g><g fill="#e5c0a1" fill-opacity="1"><g transform="translate(573.244956, 764.214894)"><g><path d="M 1.46875 -8.921875 L 4.234375 -8.921875 L 4.234375 -11.203125 C 4.234375 -11.609375 4.359375 -11.941406 4.609375 -12.203125 C 4.867188 -12.460938 5.203125 -12.59375 5.609375 -12.59375 L 9.140625 -12.59375 L 9.140625 -11.296875 L 6.125 -11.296875 C 5.800781 -11.296875 5.640625 -11.117188 5.640625 -10.765625 L 5.640625 -8.921875 L 9.359375 -8.921875 L 9.359375 -7.625 L 5.640625 -7.625 L 5.640625 0 L 4.234375 0 L 4.234375 -7.625 L 1.46875 -7.625 Z M 1.46875 -8.921875 "/></g></g></g><g fill="#e5c0a1" fill-opacity="1"><g transform="translate(584.260924, 764.214894)"><g><path d="M 4.25 -1.015625 C 4.25 -1.359375 4.367188 -1.648438 4.609375 -1.890625 C 4.859375 -2.140625 5.160156 -2.265625 5.515625 -2.265625 C 5.859375 -2.265625 6.148438 -2.140625 6.390625 -1.890625 C 6.640625 -1.648438 6.765625 -1.359375 6.765625 -1.015625 C 6.765625 -0.660156 6.640625 -0.359375 6.390625 -0.109375 C 6.148438 0.128906 5.859375 0.25 5.515625 0.25 C 5.160156 0.25 4.859375 0.128906 4.609375 -0.109375 C 4.367188 -0.359375 4.25 -0.660156 4.25 -1.015625 Z M 4.25 -1.015625 "/></g></g></g><g fill="#e5c0a1" fill-opacity="1"><g transform="translate(595.276892, 764.214894)"><g/></g></g><g fill="#e5c0a1" fill-opacity="1"><g transform="translate(606.29286, 764.214894)"><g><path d="M 0.828125 -12.59375 L 3.703125 -12.59375 L 5.40625 -0.640625 L 5.609375 -0.640625 L 7.3125 -12.59375 L 10.1875 -12.59375 L 10.1875 0 L 8.78125 0 L 8.78125 -11.953125 L 8.5625 -11.953125 L 6.875 0 L 4.140625 0 L 2.453125 -11.953125 L 2.234375 -11.953125 L 2.234375 0 L 0.828125 0 Z M 0.828125 -12.59375 "/></g></g></g><g fill="#e5c0a1" fill-opacity="1"><g transform="translate(617.308828, 764.214894)"><g><path d="M 8.046875 -1.515625 L 7.828125 -1.515625 C 7.535156 -0.910156 7.132812 -0.460938 6.625 -0.171875 C 6.125 0.109375 5.585938 0.25 5.015625 0.25 C 4.429688 0.25 3.882812 0.148438 3.375 -0.046875 C 2.875 -0.242188 2.4375 -0.535156 2.0625 -0.921875 C 1.6875 -1.316406 1.390625 -1.796875 1.171875 -2.359375 C 0.953125 -2.921875 0.84375 -3.570312 0.84375 -4.3125 L 0.84375 -4.609375 C 0.84375 -5.335938 0.953125 -5.984375 1.171875 -6.546875 C 1.390625 -7.109375 1.6875 -7.582031 2.0625 -7.96875 C 2.4375 -8.363281 2.875 -8.664062 3.375 -8.875 C 3.882812 -9.082031 4.421875 -9.1875 4.984375 -9.1875 C 5.597656 -9.1875 6.148438 -9.050781 6.640625 -8.78125 C 7.140625 -8.507812 7.535156 -8.09375 7.828125 -7.53125 L 8.046875 -7.53125 L 8.046875 -8.921875 L 9.453125 -8.921875 L 9.453125 -1.84375 C 9.453125 -1.476562 9.613281 -1.296875 9.9375 -1.296875 L 10.390625 -1.296875 L 10.390625 0 L 9.4375 0 C 9.019531 0 8.679688 -0.128906 8.421875 -0.390625 C 8.171875 -0.660156 8.046875 -1 8.046875 -1.40625 Z M 5.171875 -1.078125 C 5.585938 -1.078125 5.972656 -1.15625 6.328125 -1.3125 C 6.679688 -1.46875 6.984375 -1.6875 7.234375 -1.96875 C 7.484375 -2.257812 7.679688 -2.609375 7.828125 -3.015625 C 7.972656 -3.421875 8.046875 -3.867188 8.046875 -4.359375 L 8.046875 -4.578125 C 8.046875 -5.054688 7.972656 -5.492188 7.828125 -5.890625 C 7.679688 -6.296875 7.476562 -6.640625 7.21875 -6.921875 C 6.96875 -7.210938 6.664062 -7.4375 6.3125 -7.59375 C 5.957031 -7.757812 5.578125 -7.84375 5.171875 -7.84375 C 4.742188 -7.84375 4.351562 -7.765625 4 -7.609375 C 3.65625 -7.453125 3.351562 -7.234375 3.09375 -6.953125 C 2.84375 -6.671875 2.644531 -6.328125 2.5 -5.921875 C 2.351562 -5.523438 2.28125 -5.085938 2.28125 -4.609375 L 2.28125 -4.3125 C 2.28125 -3.300781 2.546875 -2.507812 3.078125 -1.9375 C 3.617188 -1.363281 4.316406 -1.078125 5.171875 -1.078125 Z M 5.171875 -1.078125 "/></g></g></g><g fill="#e5c0a1" fill-opacity="1"><g transform="translate(628.324795, 764.214894)"><g><path d="M 1.265625 -8.921875 L 4.0625 -8.921875 L 4.0625 -12.59375 L 5.46875 -12.59375 L 5.46875 -8.921875 L 8.921875 -8.921875 L 8.921875 -7.625 L 5.46875 -7.625 L 5.46875 -1.84375 C 5.46875 -1.476562 5.628906 -1.296875 5.953125 -1.296875 L 8.5 -1.296875 L 8.5 0 L 5.453125 0 C 5.046875 0 4.710938 -0.128906 4.453125 -0.390625 C 4.191406 -0.660156 4.0625 -1 4.0625 -1.40625 L 4.0625 -7.625 L 1.265625 -7.625 Z M 1.265625 -8.921875 "/></g></g></g><g fill="#e5c0a1" fill-opacity="1"><g transform="translate(639.340763, 764.214894)"><g><path d="M 1.265625 -8.921875 L 4.0625 -8.921875 L 4.0625 -12.59375 L 5.46875 -12.59375 L 5.46875 -8.921875 L 8.921875 -8.921875 L 8.921875 -7.625 L 5.46875 -7.625 L 5.46875 -1.84375 C 5.46875 -1.476562 5.628906 -1.296875 5.953125 -1.296875 L 8.5 -1.296875 L 8.5 0 L 5.453125 0 C 5.046875 0 4.710938 -0.128906 4.453125 -0.390625 C 4.191406 -0.660156 4.0625 -1 4.0625 -1.40625 L 4.0625 -7.625 L 1.265625 -7.625 Z M 1.265625 -8.921875 "/></g></g></g><g fill="#e5c0a1" fill-opacity="1"><g transform="translate(650.356731, 764.214894)"><g><path d="M 4.34375 -11.59375 C 4.34375 -11.9375 4.460938 -12.234375 4.703125 -12.484375 C 4.953125 -12.734375 5.25 -12.859375 5.59375 -12.859375 C 5.945312 -12.859375 6.242188 -12.734375 6.484375 -12.484375 C 6.734375 -12.234375 6.859375 -11.9375 6.859375 -11.59375 C 6.859375 -11.238281 6.734375 -10.9375 6.484375 -10.6875 C 6.242188 -10.445312 5.945312 -10.328125 5.59375 -10.328125 C 5.25 -10.328125 4.953125 -10.445312 4.703125 -10.6875 C 4.460938 -10.9375 4.34375 -11.238281 4.34375 -11.59375 Z M 1.78125 -1.296875 L 4.90625 -1.296875 L 4.90625 -7.625 L 2.109375 -7.625 L 2.109375 -8.921875 L 6.3125 -8.921875 L 6.3125 -1.296875 L 9.234375 -1.296875 L 9.234375 0 L 1.78125 0 Z M 1.78125 -1.296875 "/></g></g></g><g fill="#e5c0a1" fill-opacity="1"><g transform="translate(661.372699, 764.214894)"><g><path d="M 2.59375 -4.03125 C 2.625 -3.144531 2.894531 -2.429688 3.40625 -1.890625 C 3.925781 -1.347656 4.648438 -1.078125 5.578125 -1.078125 C 5.992188 -1.078125 6.359375 -1.125 6.671875 -1.21875 C 6.984375 -1.320312 7.25 -1.457031 7.46875 -1.625 C 7.695312 -1.789062 7.878906 -1.984375 8.015625 -2.203125 C 8.148438 -2.421875 8.265625 -2.660156 8.359375 -2.921875 L 9.6875 -2.5625 C 9.4375 -1.726562 8.96875 -1.050781 8.28125 -0.53125 C 7.601562 -0.0078125 6.691406 0.25 5.546875 0.25 C 4.910156 0.25 4.320312 0.140625 3.78125 -0.078125 C 3.25 -0.296875 2.789062 -0.609375 2.40625 -1.015625 C 2.03125 -1.429688 1.734375 -1.921875 1.515625 -2.484375 C 1.296875 -3.046875 1.1875 -3.671875 1.1875 -4.359375 L 1.1875 -4.78125 C 1.1875 -5.40625 1.296875 -5.988281 1.515625 -6.53125 C 1.742188 -7.070312 2.054688 -7.535156 2.453125 -7.921875 C 2.847656 -8.316406 3.3125 -8.625 3.84375 -8.84375 C 4.375 -9.070312 4.953125 -9.1875 5.578125 -9.1875 C 6.304688 -9.1875 6.9375 -9.050781 7.46875 -8.78125 C 8.007812 -8.507812 8.453125 -8.175781 8.796875 -7.78125 C 9.140625 -7.382812 9.390625 -6.953125 9.546875 -6.484375 C 9.710938 -6.015625 9.796875 -5.582031 9.796875 -5.1875 L 9.796875 -4.03125 Z M 5.578125 -7.84375 C 5.179688 -7.84375 4.8125 -7.78125 4.46875 -7.65625 C 4.125 -7.53125 3.820312 -7.351562 3.5625 -7.125 C 3.3125 -6.894531 3.101562 -6.628906 2.9375 -6.328125 C 2.78125 -6.023438 2.675781 -5.691406 2.625 -5.328125 L 8.390625 -5.328125 C 8.367188 -5.710938 8.273438 -6.0625 8.109375 -6.375 C 7.941406 -6.6875 7.726562 -6.945312 7.46875 -7.15625 C 7.21875 -7.375 6.925781 -7.539062 6.59375 -7.65625 C 6.269531 -7.78125 5.929688 -7.84375 5.578125 -7.84375 Z M 5.578125 -7.84375 "/></g></g></g><g fill="#e5c0a1" fill-opacity="1"><g transform="translate(672.388667, 764.214894)"><g/></g></g><g fill="#e5c0a1" fill-opacity="1"><g transform="translate(683.404634, 764.214894)"><g><path d="M 1.03125 -1.40625 L 2.109375 -1.40625 L 2.109375 -11.203125 L 1.03125 -11.203125 L 1.03125 -12.59375 L 6.125 -12.59375 C 6.71875 -12.59375 7.242188 -12.507812 7.703125 -12.34375 C 8.171875 -12.175781 8.5625 -11.945312 8.875 -11.65625 C 9.195312 -11.375 9.4375 -11.03125 9.59375 -10.625 C 9.757812 -10.226562 9.84375 -9.796875 9.84375 -9.328125 L 9.84375 -9.109375 C 9.84375 -8.765625 9.785156 -8.445312 9.671875 -8.15625 C 9.566406 -7.863281 9.421875 -7.601562 9.234375 -7.375 C 9.046875 -7.144531 8.820312 -6.945312 8.5625 -6.78125 C 8.300781 -6.625 8.019531 -6.503906 7.71875 -6.421875 L 7.71875 -6.203125 C 8.320312 -6.035156 8.828125 -5.710938 9.234375 -5.234375 C 9.640625 -4.765625 9.84375 -4.191406 9.84375 -3.515625 L 9.84375 -3.296875 C 9.84375 -2.828125 9.757812 -2.390625 9.59375 -1.984375 C 9.4375 -1.585938 9.195312 -1.238281 8.875 -0.9375 C 8.5625 -0.644531 8.171875 -0.414062 7.703125 -0.25 C 7.242188 -0.0820312 6.71875 0 6.125 0 L 1.03125 0 Z M 3.625 -1.40625 L 6.015625 -1.40625 C 6.722656 -1.40625 7.296875 -1.582031 7.734375 -1.9375 C 8.179688 -2.289062 8.40625 -2.78125 8.40625 -3.40625 L 8.40625 -3.515625 C 8.40625 -4.160156 8.191406 -4.671875 7.765625 -5.046875 C 7.347656 -5.421875 6.78125 -5.609375 6.0625 -5.609375 L 3.625 -5.609375 Z M 3.625 -7.015625 L 6.0625 -7.015625 C 6.78125 -7.015625 7.347656 -7.203125 7.765625 -7.578125 C 8.191406 -7.953125 8.40625 -8.460938 8.40625 -9.109375 L 8.40625 -9.21875 C 8.40625 -9.832031 8.179688 -10.316406 7.734375 -10.671875 C 7.296875 -11.023438 6.722656 -11.203125 6.015625 -11.203125 L 3.625 -11.203125 Z M 3.625 -7.015625 "/></g></g></g><g fill="#e5c0a1" fill-opacity="1"><g transform="translate(694.420602, 764.214894)"><g><path d="M 7.9375 -8.921875 L 9.34375 -8.921875 L 9.34375 0 L 7.9375 0 L 7.9375 -1.625 L 7.71875 -1.625 C 7.4375 -1.039062 7.0625 -0.582031 6.59375 -0.25 C 6.125 0.0820312 5.53125 0.25 4.8125 0.25 C 4.3125 0.25 3.851562 0.164062 3.4375 0 C 3.03125 -0.15625 2.675781 -0.394531 2.375 -0.71875 C 2.082031 -1.039062 1.851562 -1.441406 1.6875 -1.921875 C 1.53125 -2.398438 1.453125 -2.957031 1.453125 -3.59375 L 1.453125 -8.921875 L 2.859375 -8.921875 L 2.859375 -3.78125 C 2.859375 -2.84375 3.050781 -2.15625 3.4375 -1.71875 C 3.820312 -1.289062 4.410156 -1.078125 5.203125 -1.078125 C 6.054688 -1.078125 6.722656 -1.367188 7.203125 -1.953125 C 7.691406 -2.535156 7.9375 -3.3125 7.9375 -4.28125 Z M 7.9375 -8.921875 "/></g></g></g><g fill="#e5c0a1" fill-opacity="1"><g transform="translate(705.43657, 764.214894)"><g><path d="M 1.0625 -8.921875 L 4.296875 -8.921875 L 4.296875 -7.734375 L 4.515625 -7.734375 C 4.742188 -8.234375 5.066406 -8.597656 5.484375 -8.828125 C 5.910156 -9.066406 6.394531 -9.1875 6.9375 -9.1875 C 7.832031 -9.1875 8.554688 -8.890625 9.109375 -8.296875 C 9.660156 -7.710938 9.953125 -6.851562 9.984375 -5.71875 L 8.515625 -5.515625 C 8.515625 -6.335938 8.316406 -6.929688 7.921875 -7.296875 C 7.523438 -7.660156 7.039062 -7.84375 6.46875 -7.84375 C 6.09375 -7.84375 5.769531 -7.769531 5.5 -7.625 C 5.226562 -7.488281 5 -7.289062 4.8125 -7.03125 C 4.632812 -6.78125 4.503906 -6.488281 4.421875 -6.15625 C 4.335938 -5.820312 4.296875 -5.460938 4.296875 -5.078125 L 4.296875 -1.296875 L 6.5625 -1.296875 L 6.5625 0 L 0.84375 0 L 0.84375 -1.296875 L 2.890625 -1.296875 L 2.890625 -7.625 L 1.0625 -7.625 Z M 1.0625 -8.921875 "/></g></g></g><g fill="#e5c0a1" fill-opacity="1"><g transform="translate(716.452538, 764.214894)"><g><path d="M 3.875 -5.21875 L 4.171875 -5.21875 L 7.578125 -8.921875 L 9.3125 -8.921875 L 9.3125 -8.8125 L 5.59375 -4.734375 L 5.59375 -4.40625 L 9.734375 -0.109375 L 9.734375 0 L 8.015625 0 L 4.21875 -3.921875 L 3.875 -3.921875 L 3.875 0 L 2.46875 0 L 2.46875 -12.59375 L 3.875 -12.59375 Z M 3.875 -5.21875 "/></g></g></g><g fill="#e5c0a1" fill-opacity="1"><g transform="translate(727.468506, 764.214894)"><g><path d="M 2.59375 -4.03125 C 2.625 -3.144531 2.894531 -2.429688 3.40625 -1.890625 C 3.925781 -1.347656 4.648438 -1.078125 5.578125 -1.078125 C 5.992188 -1.078125 6.359375 -1.125 6.671875 -1.21875 C 6.984375 -1.320312 7.25 -1.457031 7.46875 -1.625 C 7.695312 -1.789062 7.878906 -1.984375 8.015625 -2.203125 C 8.148438 -2.421875 8.265625 -2.660156 8.359375 -2.921875 L 9.6875 -2.5625 C 9.4375 -1.726562 8.96875 -1.050781 8.28125 -0.53125 C 7.601562 -0.0078125 6.691406 0.25 5.546875 0.25 C 4.910156 0.25 4.320312 0.140625 3.78125 -0.078125 C 3.25 -0.296875 2.789062 -0.609375 2.40625 -1.015625 C 2.03125 -1.429688 1.734375 -1.921875 1.515625 -2.484375 C 1.296875 -3.046875 1.1875 -3.671875 1.1875 -4.359375 L 1.1875 -4.78125 C 1.1875 -5.40625 1.296875 -5.988281 1.515625 -6.53125 C 1.742188 -7.070312 2.054688 -7.535156 2.453125 -7.921875 C 2.847656 -8.316406 3.3125 -8.625 3.84375 -8.84375 C 4.375 -9.070312 4.953125 -9.1875 5.578125 -9.1875 C 6.304688 -9.1875 6.9375 -9.050781 7.46875 -8.78125 C 8.007812 -8.507812 8.453125 -8.175781 8.796875 -7.78125 C 9.140625 -7.382812 9.390625 -6.953125 9.546875 -6.484375 C 9.710938 -6.015625 9.796875 -5.582031 9.796875 -5.1875 L 9.796875 -4.03125 Z M 5.578125 -7.84375 C 5.179688 -7.84375 4.8125 -7.78125 4.46875 -7.65625 C 4.125 -7.53125 3.820312 -7.351562 3.5625 -7.125 C 3.3125 -6.894531 3.101562 -6.628906 2.9375 -6.328125 C 2.78125 -6.023438 2.675781 -5.691406 2.625 -5.328125 L 8.390625 -5.328125 C 8.367188 -5.710938 8.273438 -6.0625 8.109375 -6.375 C 7.941406 -6.6875 7.726562 -6.945312 7.46875 -7.15625 C 7.21875 -7.375 6.925781 -7.539062 6.59375 -7.65625 C 6.269531 -7.78125 5.929688 -7.84375 5.578125 -7.84375 Z M 5.578125 -7.84375 "/></g></g></g><g fill="#e5c0a1" fill-opacity="1"><g transform="translate(738.484473, 764.214894)"><g><path d="M 1.0625 -8.921875 L 4.296875 -8.921875 L 4.296875 -7.734375 L 4.515625 -7.734375 C 4.742188 -8.234375 5.066406 -8.597656 5.484375 -8.828125 C 5.910156 -9.066406 6.394531 -9.1875 6.9375 -9.1875 C 7.832031 -9.1875 8.554688 -8.890625 9.109375 -8.296875 C 9.660156 -7.710938 9.953125 -6.851562 9.984375 -5.71875 L 8.515625 -5.515625 C 8.515625 -6.335938 8.316406 -6.929688 7.921875 -7.296875 C 7.523438 -7.660156 7.039062 -7.84375 6.46875 -7.84375 C 6.09375 -7.84375 5.769531 -7.769531 5.5 -7.625 C 5.226562 -7.488281 5 -7.289062 4.8125 -7.03125 C 4.632812 -6.78125 4.503906 -6.488281 4.421875 -6.15625 C 4.335938 -5.820312 4.296875 -5.460938 4.296875 -5.078125 L 4.296875 -1.296875 L 6.5625 -1.296875 L 6.5625 0 L 0.84375 0 L 0.84375 -1.296875 L 2.890625 -1.296875 L 2.890625 -7.625 L 1.0625 -7.625 Z M 1.0625 -8.921875 "/></g></g></g><g fill="#e5c0a1" fill-opacity="1"><g transform="translate(749.500441, 764.214894)"><g><path d="M 1.265625 -8.921875 L 4.0625 -8.921875 L 4.0625 -12.59375 L 5.46875 -12.59375 L 5.46875 -8.921875 L 8.921875 -8.921875 L 8.921875 -7.625 L 5.46875 -7.625 L 5.46875 -1.84375 C 5.46875 -1.476562 5.628906 -1.296875 5.953125 -1.296875 L 8.5 -1.296875 L 8.5 0 L 5.453125 0 C 5.046875 0 4.710938 -0.128906 4.453125 -0.390625 C 4.191406 -0.660156 4.0625 -1 4.0625 -1.40625 L 4.0625 -7.625 L 1.265625 -7.625 Z M 1.265625 -8.921875 "/></g></g></g><g fill="#e5c0a1" fill-opacity="1"><g transform="translate(760.509546, 764.214894)"><g/></g></g></svg>